<?xml version="1.0" encoding="UTF-8"?><svg id="uuid-77ec3061-89bd-46ac-99b4-b72eab958a6f" xmlns="http://www.w3.org/2000/svg" viewBox="0 0 31.11 31.11"><g id="uuid-e1a9d042-e154-4352-b937-ae2839b560c0"><g><circle cx="15.56" cy="15.56" r="15.56" style="fill:#5c900f;"/><g><path d="M15.84,4.37c-6.08,0-11,4.92-11,11s4.92,11,11,11,11-4.92,11-11S21.91,4.37,15.84,4.37Zm0,20.73c-5.37,0-9.73-4.36-9.73-9.73S10.46,5.63,15.84,5.63s9.73,4.36,9.73,9.73-4.36,9.73-9.73,9.73Z" style="fill:#fff;"/><path d="M15.63,21.5s-.08-.03-.12-.05c-.12-.07-.16-.19-.16-.31-.01-.44-.02-.89-.03-1.33,0-.11,0-.22,0-.35-.06,.04-.1,.07-.14,.1-.35,.24-.7,.47-1.05,.71-.14,.09-.28,.1-.43,0-.19-.11-.24-.46-.03-.6,.5-.35,1-.71,1.5-1.06,.08-.06,.12-.12,.12-.22,0-.77,0-1.55,0-2.32,0-.03,0-.05,0-.09-.04,.02-.07,.03-.1,.05-.67,.38-1.34,.76-2.02,1.14-.08,.05-.09,.11-.1,.18-.03,.33-.06,.67-.09,1-.02,.27-.05,.53-.07,.8-.01,.17-.1,.29-.25,.36-.13,.06-.26,.04-.38-.05-.09-.07-.15-.16-.14-.27,0-.2,.02-.4,.03-.59,.02-.24,.04-.48,.06-.73,0-.05,0-.11,.01-.17-.09,.05-.18,.1-.26,.14-.36,.2-.72,.4-1.08,.6-.06,.03-.13,.07-.2,.09-.17,.06-.37-.03-.45-.19-.08-.15-.04-.36,.08-.45,.11-.08,.22-.15,.34-.21,.37-.22,.73-.44,1.1-.65,0,0,.02-.01,.03-.02-.06-.03-.11-.06-.16-.09-.31-.15-.62-.3-.93-.45-.08-.04-.15-.08-.23-.12-.14-.08-.21-.25-.17-.4,.05-.18,.2-.3,.36-.3,.11,0,.23,.06,.33,.1,.53,.25,1.07,.5,1.6,.75,.04,.02,.06,.01,.09,0,.62-.36,1.24-.73,1.86-1.09,.09-.05,.18-.11,.28-.17-.12-.08-.23-.15-.34-.21-.59-.35-1.19-.7-1.79-1.06-.04-.02-.07-.03-.11,0-.53,.25-1.06,.5-1.59,.75-.07,.03-.15,.07-.23,.09-.26,.09-.44-.13-.47-.32-.02-.16,.03-.28,.17-.35,.24-.13,.48-.25,.72-.37,.2-.1,.4-.19,.61-.3-.09-.06-.17-.1-.25-.15-.39-.23-.78-.47-1.17-.7-.14-.08-.18-.21-.17-.36,.02-.26,.26-.42,.51-.31,.22,.1,.43,.22,.64,.33,.28,.16,.57,.32,.86,.48,0-.08,0-.15-.01-.22-.02-.24-.04-.48-.06-.73-.01-.2-.02-.4-.03-.6,0-.01,0-.03,0-.04,.05-.16,.24-.28,.43-.27,.17,.02,.31,.17,.32,.34,.03,.35,.07,.7,.1,1.05,.02,.27,.04,.53,.07,.8,0,.07,.02,.13,.1,.17,.7,.39,1.39,.78,2.08,1.17,0,0,.02,0,.04,.02,0-.06,0-.11,0-.17,0-.45,0-.9,0-1.36,0-.32,0-.64,0-.97,0-.05-.02-.08-.06-.11-.53-.37-1.05-.74-1.58-1.11-.13-.09-.16-.23-.14-.37,.02-.15,.12-.25,.27-.29,.12-.03,.23-.01,.33,.06,.37,.26,.75,.51,1.12,.77,.01,0,.03,.02,.06,.04,0-.18,0-.34,0-.51,0-.33,0-.66,.01-.98,0-.07,0-.14,.02-.22,.02-.16,.13-.24,.27-.3h.15c.09,.02,.17,.06,.24,.13,.05,.06,.08,.12,.08,.2,0,.46,.02,.92,.03,1.38,0,.1,0,.19,0,.3,.12-.08,.21-.15,.31-.21,.31-.2,.61-.41,.92-.61,.15-.1,.32-.08,.44,.04,.12,.11,.16,.31,.08,.46-.03,.05-.08,.09-.12,.13-.43,.31-.87,.62-1.3,.92-.09,.07-.19,.13-.28,.2-.02,.01-.03,.04-.03,.06,0,.8,0,1.61,0,2.41,0,.04,0,.07,0,.12,.14-.08,.27-.15,.4-.22,.52-.3,1.04-.59,1.56-.89,.04-.02,.07-.05,.11-.06,.11-.04,.15-.13,.16-.24,.03-.35,.06-.7,.09-1.06,.02-.27,.04-.54,.08-.81,.02-.16,.14-.24,.28-.28,.22-.07,.47,.12,.47,.35,0,.24-.03,.49-.05,.73-.02,.24-.03,.48-.05,.74,.08-.04,.14-.07,.2-.1,.39-.22,.77-.43,1.16-.65,.12-.07,.24-.11,.37-.06,.15,.05,.24,.16,.26,.32,.02,.15-.04,.27-.16,.35-.4,.24-.81,.49-1.21,.73-.07,.04-.13,.08-.21,.13,.12,.06,.23,.12,.35,.17,.31,.15,.62,.31,.93,.46,.1,.05,.19,.11,.2,.23,.03,.2,.01,.35-.22,.46-.12,.06-.23,.02-.33-.03-.43-.19-.85-.39-1.27-.58-.14-.07-.29-.13-.43-.2-.05-.03-.09-.02-.14,0-.52,.31-1.05,.61-1.57,.92-.16,.09-.32,.19-.48,.29-.02,.01-.04,.03-.06,.04,.17,.1,.34,.2,.5,.3,.52,.31,1.04,.61,1.55,.92,.08,.05,.15,.06,.24,.01,.56-.26,1.12-.52,1.68-.78,.22-.1,.46,.02,.53,.25,.04,.15-.02,.32-.16,.4-.27,.14-.55,.28-.82,.41-.15,.07-.31,.15-.46,.22-.02,0-.03,.02-.06,.03,.09,.06,.18,.11,.27,.16,.36,.21,.72,.43,1.08,.64,.1,.06,.2,.12,.23,.25,.03,.13,.02,.26-.07,.37-.1,.13-.34,.15-.48,.08-.2-.11-.41-.22-.61-.33-.27-.15-.54-.3-.8-.45,0,0-.01,0-.03,0,0,.13,.02,.25,.03,.38,.02,.19,.03,.38,.05,.57,.01,.17,.02,.35,.03,.52,0,.2-.18,.37-.38,.37-.21,0-.35-.16-.37-.39-.03-.31-.06-.62-.09-.93-.02-.25-.04-.5-.07-.76,0-.07-.02-.13-.03-.2,0-.05-.05-.08-.09-.1-.37-.21-.75-.43-1.12-.64-.3-.17-.61-.34-.92-.51-.02-.01-.04-.02-.08-.04,0,.07,0,.13,0,.19,0,.59,0,1.17,0,1.76,0,.18,0,.36,0,.54,0,.04,.01,.07,.05,.09,.51,.36,1.03,.72,1.54,1.08,.23,.16,.25,.46,.05,.63-.12,.1-.3,.12-.44,.03-.36-.24-.71-.48-1.06-.72-.04-.03-.09-.06-.15-.09,0,.17-.01,.33-.01,.48,0,.34,0,.68-.01,1.02,0,.09,0,.18-.02,.27-.02,.12-.13,.23-.25,.25-.01,0-.02,0-.03,.01h-.17Z" style="fill:#fff;"/><g><path d="M4.68,15.7c-.92,0-1.84,0-2.76,0-.12,0-.21-.11-.21-.27,0,0,0,0,0,0-.02-.29,.09-.38,.29-.38,1.65,0,3.31,0,4.96,0,.15,0,.31,0,.46,0,.15,0,.24,.11,.23,.31,0,.03,0,.06,0,.09,0,.15-.09,.26-.2,.26-.84,0-1.67,0-2.51,0-.09,0-.17,0-.26,0,0,0,0,0,0,0Z" style="fill:#fff;"/><path d="M5.64,17.61c-.69,0-1.38,0-2.06,0-.17,0-.26-.1-.27-.28,0-.03,0-.06,0-.09,0-.17,.1-.28,.26-.28,.76,0,1.52,0,2.29,0,.61,0,1.21,0,1.82,0,.18,0,.31,.13,.29,.31,0,.02,0,.05,0,.07,0,.17-.1,.27-.26,.27-.69,0-1.38,0-2.07,0Z" style="fill:#fff;"/><path d="M5.64,13.87c-.69,0-1.38,0-2.06,0-.17,0-.26-.1-.27-.28,0-.03,0-.06,0-.09,0-.17,.1-.28,.26-.28,.76,0,1.52,0,2.29,0,.61,0,1.21,0,1.82,0,.18,0,.31,.13,.29,.31,0,.02,0,.05,0,.07,0,.17-.1,.27-.26,.27-.69,0-1.38,0-2.07,0Z" style="fill:#fff;"/><path d="M6.91,11.99c-.54,0-1.09,0-1.63,0-.13,0-.21-.1-.21-.28,0-.03,0-.06,0-.09,0-.17,.08-.28,.21-.28,.6,0,1.2,0,1.8,0,.48,0,.96,0,1.43,0,.14,0,.24,.13,.23,.31,0,.02,0,.05,0,.07,0,.17-.08,.27-.2,.27-.54,0-1.09,0-1.63,0Z" style="fill:#fff;"/><path d="M6.91,19.49c-.54,0-1.09,0-1.63,0-.13,0-.21-.1-.21-.28,0-.03,0-.06,0-.09,0-.17,.08-.28,.21-.28,.6,0,1.2,0,1.8,0,.48,0,.96,0,1.43,0,.14,0,.24,.13,.23,.31,0,.02,0,.05,0,.07,0,.17-.08,.27-.2,.27-.54,0-1.09,0-1.63,0Z" style="fill:#fff;"/></g></g></g></g></svg>