<?xml version="1.0" encoding="UTF-8"?><svg id="uuid-e184d1dd-6fb3-4a5e-a18b-1420381030ff" xmlns="http://www.w3.org/2000/svg" viewBox="0 0 31.11 31.11"><g id="uuid-4e0af1a2-f419-40b6-8d5e-46377c9fd9d0"><g><circle cx="15.56" cy="15.56" r="15.56" style="fill:#0859b1;"/><g><path d="M23.24,14.88c0,3.31,0,6.61,0,9.92,0,.06,0,.12,0,.18-.03,.24-.24,.39-.42,.39-.03,0-.07,0-.1,0-4.44,0-8.89,0-13.33,0-.45,0-.87-.1-1.26-.32-.66-.39-1.07-.96-1.2-1.72-.03-.14-.04-.29-.04-.44,0-5.33,0-10.66,0-16,0-.43,.08-.85,.3-1.23,.39-.69,.97-1.11,1.75-1.26,.12-.02,.24-.02,.35-.03,.06,0,.11,0,.17,0,4.41,0,8.81,0,13.22,0,.05,0,.09,0,.14,0,.21,.01,.38,.16,.41,.37,0,.06,0,.11,.01,.17,0,.83,0,1.65,0,2.48,0,2.5,0,4.99,0,7.49Zm-.9,5.58c.01-.11,.02-14.84,.01-15.13,0-.02,0-.04,0-.06-.05-.02-.1-.01-.15-.01-4.26,0-8.53,0-12.79,0-.09,0-.18,0-.27,.02-.65,.08-1.2,.59-1.33,1.25-.03,.15-.03,.29-.03,.44,0,4.62,0,9.24,0,13.86,0,.04,0,.07,0,.11,0,.02,0,.04,.03,.06,.02-.01,.04-.03,.07-.04,.09-.06,.18-.12,.27-.17,.38-.21,.79-.32,1.22-.32,1.42,0,2.84,0,4.26,0,2.85,0,5.7,0,8.54,0,.06,0,.11,0,.18,0Zm-1.38,.91c-.07-.02-.13-.01-.18-.01-3.76,0-7.52,0-11.28,0-.06,0-.11,0-.17,0-.07,0-.15,0-.22,.02-.86,.13-1.47,.94-1.3,1.84,.11,.6,.57,1.08,1.15,1.23,.16,.04,.31,.05,.47,.05,4.25,0,8.5,0,12.74,0,.03,0,.07,0,.1,0,.02,0,.05,0,.07,0,.02-.13,.03-2.28,.01-3.02,0-.03,0-.06,0-.08-.12-.02-.39-.02-.48,0,0,.04,0,.09,0,.13,0,.65,0,1.29,0,1.94,0,.03,0,.06,0,.09-.01,.22-.16,.39-.38,.42-.06,0-.13,0-.2,0-3.93,0-7.86,0-11.8,0-.04,0-.07,0-.11,0-.04,0-.08,0-.12-.01-.23-.05-.38-.27-.34-.5,.04-.21,.2-.35,.41-.37,.05,0,.1,0,.15,0,3.76,0,7.53,0,11.29,0,.05,0,.09,0,.13,0,.02,0,.05-.01,.07-.02,0-.09,.01-.18-.01-.28-.06,0-.12,0-.18,0-3.76,0-7.52,0-11.28,0-.06,0-.11,0-.17,0-.04,0-.08,0-.12-.02-.23-.07-.32-.29-.3-.46,.03-.22,.2-.38,.42-.4,.05,0,.11,0,.16,0,3.76,0,7.52,0,11.28,0,.05,0,.09,0,.14,0,.02,0,.05,0,.08-.01,0-.17,0-.33,0-.5Z" style="fill:#fff;"/><path d="M17.37,18.22s.01-.09,.01-.13c0-.38,0-.75,0-1.13,0-.04,0-.08,0-.12,.02-.12,.12-.21,.24-.21,.12,0,.22,.09,.23,.22,0,.04,0,.07,0,.11,0,.38,0,.75,0,1.13,0,.04,0,.09,0,.14,.04,0,.07,.01,.1,.01,.33,0,.65,0,.98,0,.02,0,.05,0,.07,0,.1-.02,.17-.08,.18-.19,0-.02,0-.05,0-.07,0-.62,0-1.24,0-1.85,0-.49-.14-.94-.42-1.34-.38-.55-.91-.88-1.56-1-.19-.03-.38-.04-.57-.03-.04,.03-.05,.08-.07,.12-.28,.61-.55,1.21-.83,1.82-.02,.04-.03,.08-.05,.11-.09,.16-.23,.25-.42,.26-.19,0-.34-.09-.43-.25-.02-.03-.03-.07-.05-.1-.28-.61-.55-1.21-.83-1.82-.02-.04-.04-.08-.06-.13-.03,0-.06,0-.08,0-.21,0-.43,.01-.63,.06-.05,.01-.1,.01-.14,0-.09-.03-.16-.12-.16-.21,0-.09,.05-.19,.14-.22,.03-.01,.07-.02,.11-.03,.2-.05,.41-.06,.62-.06,.76,0,1.51,0,2.27,0,.27,0,.55,0,.82,0,.79,.01,1.46,.3,2.01,.86,.44,.44,.7,.98,.79,1.59,.02,.13,.03,.25,.03,.38,0,.63,0,1.26,0,1.89,0,.09,0,.17-.04,.25-.09,.27-.34,.46-.63,.46-.43,0-.87,0-1.3,0-2.03,0-4.07,0-6.1,0-.07,0-.15,0-.22-.02-.3-.07-.51-.33-.52-.63,0-.02,0-.04,0-.06,0-.63,0-1.25,0-1.88,0-.31,.05-.62,.15-.92,.01-.04,.03-.08,.04-.11,.05-.11,.17-.16,.28-.12,.11,.03,.18,.15,.16,.27,0,.03-.02,.06-.03,.09-.1,.26-.14,.54-.14,.82,0,.61,0,1.21,0,1.82,0,.17,.08,.28,.27,.28,.32,0,.64,0,.96,0,.04,0,.07,0,.12-.03,0-.04,0-.08,0-.13,0-.38,0-.75,0-1.13,0-.03,0-.07,0-.1,0-.13,.11-.22,.23-.23,.13,0,.23,.1,.24,.23,0,.03,0,.07,0,.1,0,.37,0,.74,0,1.12v.14s.05,.02,.07,.02c.03,0,.07,0,.1,0,1.3,0,2.59,0,3.89,0,.05,0,.11,.01,.16-.01Zm-1.27-4.47c-.54,0-1.08,0-1.61,0-.01,0-.02,0-.04,.01,.01,.03,.02,.06,.03,.09,.37,.83,.74,1.63,.8,1.71,.02-.03,.03-.05,.04-.07,.35-.72,.75-1.63,.78-1.75Z" style="fill:#fff;"/><path d="M12.51,13.49s.07,.06,.1,.09c.45,.45,.9,.9,1.36,1.35,.03,.03,.07,.06,.09,.1,.22,.25,.28,.54,.17,.86-.11,.31-.33,.5-.66,.56-.28,.05-.52-.02-.73-.2-.03-.03-.07-.06-.1-.09-.45-.45-.91-.91-1.36-1.36-.01-.01-.02-.02-.03-.03-.04-.05-.09-.06-.15-.06-.16,.02-.32,.01-.48-.02-.6-.12-1.07-.62-1.16-1.23-.04-.27,0-.53,.09-.78,.04-.09,.07-.18,.11-.27,0-.01,.02-.03,.03-.05,.03,.03,.06,.06,.09,.08,.22,.22,.45,.44,.67,.67,.02,.02,.04,.04,.06,.06,.02,.01,.04,.03,.06,.03,.09,0,.19,0,.28-.02,.03-.05,.02-.11,.02-.16,0-.05,0-.11,0-.17-.09-.09-.18-.18-.27-.27-.1-.1-.19-.19-.29-.29-.09-.09-.19-.18-.27-.28,0-.01,.01-.02,.02-.02,.18-.08,.36-.16,.55-.2,.81-.17,1.64,.35,1.78,1.22,.02,.12,.03,.24,.01,.35,0,.04,0,.08-.01,.14Zm-1.08,.68s.06,.06,.1,.09c.52,.52,1.04,1.03,1.55,1.55,.03,.03,.06,.06,.09,.08,.16,.13,.38,.12,.52-.03,.14-.14,.15-.37,.02-.52-.03-.03-.06-.07-.09-.1-.52-.51-1.03-1.03-1.55-1.54-.03-.03-.07-.06-.09-.11,.01-.06,.03-.12,.04-.18,.1-.48-.16-.97-.62-1.15-.09-.04-.19-.06-.29-.06-.01,0-.03,0-.06,.01,.14,.15,.29,.29,.42,.43,0,.02,0,.03,0,.05-.02,.29-.04,.57-.06,.86,0,.01-.01,.03-.02,.05-.32,.02-.63,.05-.95,.06-.13-.13-.25-.26-.38-.39,0,0-.01-.01-.02-.02,0,0,0,0-.01,0,0,0,0,0-.01,0,0,0,0,0,0,0,0,.02,0,.03,0,.05,0,.12,.04,.23,.09,.33,.2,.43,.68,.68,1.18,.55,.04-.01,.09-.02,.14-.03Z" style="fill:#fff;"/><path d="M17.54,10.88c-.02,.11-.04,.2-.07,.3-.14,.51-.38,.95-.76,1.32-.26,.25-.56,.44-.91,.53-.48,.13-.94,.09-1.38-.13-.33-.16-.61-.4-.83-.69-.28-.36-.46-.77-.55-1.22,0-.03-.01-.06-.02-.08,0,0,0-.01-.01-.03-.02,0-.05-.01-.08-.02-.26-.06-.43-.25-.44-.52,0-.11,0-.21,0-.32,.01-.25,.17-.44,.4-.51,.05-.01,.1-.02,.16-.02,.18,0,.36,0,.54,0,.02,0,.04,0,.06,0,.12,.01,.2,.11,.21,.22,0,.12-.08,.22-.2,.24-.03,0-.07,0-.1,0-.14,0-.29,0-.43,0-.03,0-.06,0-.09,0-.04,0-.07,.03-.07,.07,0,.09,0,.19,0,.28,0,.04,.03,.07,.07,.07,.03,0,.07,0,.1,0,1.43,0,2.86,0,4.3,0,.04,0,.07,0,.11,0,.04,0,.06-.03,.06-.06,0-.1,0-.2,0-.29,0-.04-.03-.06-.07-.06-.03,0-.06,0-.09,0-.16,0-.31,0-.47,0-.03,0-.07,0-.1,0-.12-.02-.21-.12-.21-.24,0-.12,.09-.22,.22-.23,.06,0,.11,0,.17,0,.16,0,.33,0,.49,0,.18,0,.43,.12,.5,.4,.01,.04,.02,.08,.02,.12,0,.11,0,.21,0,.32,0,.24-.18,.47-.43,.52-.03,0-.06,.01-.1,.02Zm-4.03,0s0,.02,0,.03c0,.01,0,.02,0,.04,.08,.39,.25,.74,.5,1.04,.18,.21,.39,.39,.64,.5,.34,.16,.7,.19,1.06,.07,.25-.08,.47-.21,.66-.39,.35-.33,.56-.73,.67-1.19,0-.03,0-.06,.01-.09-.12-.02-2.35-.03-3.44-.01-.03,0-.06,0-.09,0Z" style="fill:#fff;"/><path d="M15.04,7.81c0,.05,0,.09,0,.13,0,.1,0,.2,0,.29,0,.11-.05,.19-.15,.23-.12,.05-.26-.01-.3-.13-.01-.04-.02-.09-.02-.13,0-.12,0-.24,0-.36,0-.29,.21-.5,.5-.52,.14,0,.29,0,.43,0,.23,.01,.41,.16,.47,.37,.01,.04,.02,.08,.02,.12,0,.14,0,.29,0,.43,0,.07-.02,.13-.07,.18-.07,.06-.15,.08-.24,.05-.09-.04-.15-.1-.15-.2,0-.09,0-.19,0-.28,0-.04,0-.08,0-.12,0-.04-.02-.06-.06-.06-.01,0-.02,0-.04,0-.1,0-.2,0-.29,0-.02,0-.04,0-.08,.01Z" style="fill:#fff;"/><path d="M13.2,9.14s.01-.06,.03-.1c.2-.44,.5-.79,.91-1.05,.07-.05,.14-.07,.23-.04,.17,.06,.22,.27,.09,.4-.02,.02-.05,.03-.07,.05-.31,.2-.54,.47-.7,.8-.02,.04-.03,.07-.06,.11-.06,.08-.17,.12-.26,.08-.1-.03-.16-.12-.16-.24Z" style="fill:#fff;"/><path d="M16.05,8.18c0-.16,.17-.27,.32-.21,.03,.01,.06,.03,.09,.05,.38,.26,.67,.6,.86,1.02,.03,.06,.04,.12,.03,.18-.03,.1-.09,.16-.18,.18-.1,.02-.18-.02-.24-.1-.02-.02-.03-.05-.04-.08-.16-.33-.39-.61-.7-.82-.08-.05-.13-.12-.13-.22Z" style="fill:#fff;"/><path d="M17.08,16.05c-.15,0-.3,0-.45,0-.03,0-.06,0-.09,0-.13-.01-.22-.12-.21-.24,0-.14,.12-.22,.22-.23,.03,0,.06,0,.09,0,.3,0,.6,0,.91,0,.03,0,.06,0,.09,0,.12,.01,.21,.11,.22,.23,0,.12-.09,.22-.2,.24-.03,0-.07,0-.1,0-.15,0-.3,0-.45,0Z" style="fill:#fff;"/><path d="M15.51,9.44c0,.14,0,.29,0,.43,0,.12-.08,.2-.19,.23-.14,.03-.27-.06-.28-.2,0-.03,0-.07,0-.1,0-.24,0-.48,0-.72,0-.03,0-.07,0-.1,.01-.12,.11-.21,.23-.21,.12,0,.22,.09,.23,.21,0,.03,0,.06,0,.09,0,.13,0,.25,0,.38h0Z" style="fill:#fff;"/><path d="M14.16,9.51s0-.05,.02-.08c.04-.14,.09-.27,.13-.41,0-.02,.02-.05,.03-.07,.06-.1,.18-.15,.29-.11,.11,.04,.17,.15,.15,.26,0,.03-.01,.06-.02,.08-.04,.12-.08,.24-.11,.36,0,.03-.02,.06-.03,.08-.05,.1-.16,.15-.27,.13-.11-.03-.18-.12-.18-.25Z" style="fill:#fff;"/><path d="M15.78,9.09c0-.13,.07-.22,.17-.25,.11-.03,.22,.01,.27,.11,.01,.02,.02,.04,.03,.07,.04,.14,.09,.28,.13,.42,0,.03,.01,.06,.02,.08,0,.11-.06,.2-.17,.23-.1,.03-.21-.01-.27-.1-.01-.02-.02-.05-.03-.08-.04-.14-.09-.27-.13-.41,0-.03-.01-.06-.02-.08Z" style="fill:#fff;"/><path d="M13.39,15.8c-.12,.02-.33-.19-.32-.32,0-.09,.04-.16,.12-.2,.08-.05,.17-.05,.24,.01,.05,.04,.11,.09,.15,.15,.05,.07,.05,.15,.01,.23-.04,.08-.12,.13-.21,.13Z" style="fill:#fff;"/></g></g></g></svg>