<?xml version="1.0" encoding="UTF-8"?><svg id="uuid-e4b752b2-27be-490a-819b-a1e25bff7498" xmlns="http://www.w3.org/2000/svg" viewBox="0 0 31.11 31.11"><g id="uuid-b2ae1cdc-d53e-411b-9d0f-1acadeab2096"><g><circle cx="15.56" cy="15.56" r="15.56" style="fill:#0859b1;"/><g><path d="M15.6,2.65C8.53,2.65,2.8,8.38,2.8,15.46s5.73,12.81,12.81,12.81,12.81-5.73,12.81-12.81S22.68,2.65,15.6,2.65Zm0,1.48c2.85,0,5.45,1.06,7.44,2.8L7.07,22.9c-1.74-1.99-2.8-4.59-2.8-7.44,0-6.26,5.07-11.33,11.33-11.33Zm0,22.66c-2.82,0-5.4-1.04-7.38-2.75l15.97-15.97c1.71,1.98,2.75,4.56,2.75,7.38,0,6.26-5.07,11.33-11.33,11.33Z" style="fill:#fff;"/><path d="M18.21,23.37s-.04-.03-.06-.05c-.06-.06-.07-.13-.05-.21,.06-.26,.12-.52,.17-.79,.01-.07,.03-.13,.05-.21-.04,.01-.07,.03-.1,.04-.24,.09-.48,.18-.72,.27-.09,.03-.18,.02-.25-.06-.1-.09-.07-.3,.07-.36,.35-.13,.69-.28,1.04-.41,.06-.02,.09-.05,.1-.11,.11-.46,.22-.91,.34-1.37,0-.02,0-.03,0-.05-.03,0-.05,0-.07,.01-.45,.13-.9,.26-1.35,.38-.05,.01-.07,.05-.08,.09-.07,.19-.13,.38-.19,.58-.05,.15-.1,.31-.15,.46-.03,.1-.1,.16-.2,.18-.09,.02-.16-.02-.22-.08-.04-.05-.06-.11-.04-.18,.03-.12,.07-.23,.11-.34,.04-.14,.09-.28,.14-.42,0-.03,.02-.06,.03-.1-.06,.02-.12,.03-.17,.05-.24,.07-.48,.13-.72,.2-.04,.01-.09,.02-.13,.02-.11,.01-.21-.07-.24-.17-.02-.1,.03-.22,.11-.25,.08-.03,.15-.05,.23-.08,.25-.08,.49-.15,.74-.23,0,0,.01,0,.02,0-.03-.03-.06-.05-.08-.08-.16-.13-.32-.26-.48-.4-.04-.03-.08-.07-.12-.11-.07-.07-.09-.18-.04-.26,.05-.1,.16-.15,.25-.12,.06,.02,.12,.07,.18,.11,.28,.22,.56,.45,.83,.67,.02,.02,.03,.02,.06,0,.42-.13,.83-.25,1.25-.38,.06-.02,.12-.04,.19-.06-.06-.06-.11-.12-.17-.18-.3-.29-.6-.59-.9-.88-.02-.02-.03-.03-.06-.02-.35,.07-.69,.14-1.04,.21-.05,0-.1,.02-.15,.02-.16,.01-.24-.14-.23-.26,.01-.09,.06-.16,.15-.18,.16-.04,.32-.08,.48-.11,.13-.03,.26-.06,.4-.09-.05-.05-.08-.09-.12-.12-.2-.19-.39-.39-.59-.58-.07-.07-.07-.15-.05-.24,.05-.15,.21-.21,.34-.11,.11,.09,.22,.19,.33,.29,.14,.13,.29,.27,.44,.41,0-.05,.02-.09,.02-.13,.02-.15,.04-.29,.07-.44,.02-.12,.05-.24,.07-.36,0,0,0-.01,0-.02,.05-.09,.18-.13,.29-.1,.1,.03,.16,.14,.14,.25-.03,.21-.06,.42-.09,.63-.02,.16-.05,.32-.08,.48,0,.04,0,.08,.03,.12,.35,.33,.7,.66,1.06,.99,0,0,0,0,.02,.02,.01-.04,.02-.07,.03-.1,.07-.27,.13-.53,.2-.8,.05-.19,.09-.38,.14-.57,0-.03,0-.05-.02-.07-.26-.29-.51-.59-.77-.88-.06-.07-.06-.16-.03-.24,.04-.09,.11-.13,.2-.13,.07,0,.14,.02,.19,.08,.18,.21,.37,.41,.55,.61,0,0,.01,.01,.03,.03,.03-.11,.05-.2,.07-.3,.05-.19,.1-.39,.15-.58,.01-.04,.02-.08,.04-.13,.03-.09,.11-.12,.2-.14l.09,.02c.05,.02,.09,.06,.12,.11,.02,.04,.03,.08,.02,.13-.06,.27-.12,.54-.18,.82-.01,.06-.03,.11-.04,.18,.08-.03,.15-.06,.22-.08,.21-.08,.42-.15,.63-.23,.1-.04,.2,0,.26,.09,.06,.09,.05,.2-.02,.28-.02,.03-.06,.04-.09,.06-.3,.12-.6,.24-.9,.36-.06,.03-.13,.05-.19,.08-.01,0-.02,.02-.03,.03-.11,.47-.23,.95-.34,1.42,0,.02,0,.04-.01,.07,.09-.03,.18-.05,.27-.07,.35-.1,.7-.2,1.05-.3,.02,0,.05-.02,.07-.02,.07,0,.11-.06,.13-.12,.07-.2,.14-.41,.2-.61,.05-.16,.1-.31,.16-.47,.03-.09,.12-.12,.21-.13,.14,0,.26,.14,.22,.27-.04,.14-.09,.28-.13,.42-.04,.14-.09,.28-.14,.43,.05-.01,.09-.02,.13-.03,.26-.07,.52-.14,.78-.21,.08-.02,.15-.03,.23,.02,.08,.05,.12,.13,.11,.23,0,.09-.06,.15-.15,.18-.27,.09-.54,.17-.82,.26-.05,.01-.09,.03-.14,.05,.06,.05,.12,.1,.18,.15,.16,.14,.32,.27,.48,.41,.05,.04,.1,.09,.09,.16-.01,.12-.04,.21-.2,.24-.08,.02-.14-.02-.19-.06-.22-.17-.44-.35-.67-.52-.08-.06-.15-.12-.23-.18-.03-.02-.05-.02-.08-.01-.35,.11-.7,.21-1.06,.32-.11,.03-.22,.07-.32,.1-.01,0-.03,0-.04,.02,.09,.09,.17,.17,.25,.25,.26,.25,.52,.51,.78,.76,.04,.04,.08,.05,.14,.04,.37-.08,.73-.15,1.1-.22,.14-.03,.27,.08,.27,.23,0,.1-.06,.19-.15,.21-.18,.04-.36,.08-.54,.12-.1,.02-.2,.04-.3,.06-.01,0-.02,0-.04,0,.05,.05,.09,.09,.13,.13,.18,.18,.36,.35,.54,.53,.05,.05,.1,.1,.1,.18,0,.08-.03,.15-.09,.21-.08,.06-.22,.04-.29-.02-.11-.09-.21-.19-.31-.28-.14-.13-.27-.25-.41-.38,0,0,0,0-.01,0-.01,.08-.03,.15-.04,.23-.02,.11-.03,.23-.05,.34-.02,.1-.04,.21-.06,.31-.03,.12-.16,.2-.28,.16-.12-.04-.18-.14-.16-.28,.03-.19,.05-.37,.08-.56,.02-.15,.05-.3,.07-.45,0-.04,0-.08,.01-.12,0-.03-.02-.05-.04-.07-.19-.18-.38-.36-.57-.54-.15-.15-.31-.29-.47-.43-.01-.01-.02-.02-.04-.03-.01,.04-.02,.08-.03,.11-.09,.34-.17,.69-.26,1.03-.03,.11-.05,.21-.08,.32,0,.02,0,.04,.01,.06,.25,.28,.5,.57,.75,.86,.11,.13,.08,.31-.06,.38-.09,.04-.2,.02-.26-.05-.18-.19-.35-.38-.52-.57-.02-.02-.04-.05-.07-.08-.03,.1-.05,.19-.08,.28-.05,.2-.1,.4-.15,.6-.01,.05-.03,.1-.05,.15-.03,.07-.11,.12-.19,.11,0,0-.01,0-.02,0l-.1-.02Z" style="fill:#fff;"/><g><path d="M13.1,12.87c-.58-1.22-1.27-2.38-1.98-3.7-.79,1.27-1.51,2.4-2.21,3.54-.13,.22-.23,.47-.27,.73-.19,1.04,.26,1.93,1.21,2.47,.87,.5,1.92,.41,2.68-.23,.81-.68,1.08-1.74,.57-2.8Zm-1.06,2.19c-.51,.44-1.21,.51-1.8,.19-.65-.35-.96-.95-.85-1.65,.03-.17,.09-.34,.18-.49,.46-.78,.92-1.55,1.44-2.42,.5,.88,.98,1.66,1.39,2.47,.36,.71,.19,1.43-.35,1.9Z" style="fill:#fff;"/><path d="M14.82,10.66c-.26-.54-.56-1.05-.88-1.63-.35,.56-.67,1.06-.97,1.56-.06,.1-.1,.21-.12,.32-.08,.46,.12,.85,.54,1.09,.38,.22,.85,.18,1.18-.1,.36-.3,.48-.77,.25-1.24Zm-.57,.83c-.18,.15-.42,.18-.63,.07-.23-.12-.33-.33-.3-.57,0-.06,.03-.12,.06-.17,.16-.27,.32-.54,.5-.84,.17,.31,.34,.58,.48,.86,.12,.25,.07,.5-.12,.66Z" style="fill:#fff;"/><path d="M13.27,8.12c-.22-.47-.49-.92-.76-1.42-.31,.49-.58,.92-.85,1.36-.05,.08-.09,.18-.11,.28-.07,.4,.1,.74,.47,.95,.34,.19,.74,.16,1.03-.09,.31-.26,.42-.67,.22-1.08Zm-.49,.72c-.15,.13-.37,.16-.55,.06-.2-.11-.29-.29-.26-.5,0-.05,.03-.1,.05-.15,.14-.24,.28-.47,.44-.73,.15,.27,.3,.5,.42,.75,.11,.21,.06,.43-.11,.58Z" style="fill:#fff;"/></g></g></g></g></svg>