<?xml version="1.0" encoding="UTF-8"?><svg id="uuid-9785058f-70d2-46ab-884b-f37de1bb52ca" xmlns="http://www.w3.org/2000/svg" viewBox="0 0 31.11 31.11"><g id="uuid-0ab812d3-a9c5-40dd-9f0f-db2146a07262"><g><circle cx="15.56" cy="15.56" r="15.56" style="fill:#5c900f;"/><g><path d="M15.31,24.27c2.34,0,4.69,0,7.03,0,.27,0,.53-.04,.76-.21,.32-.24,.44-.57,.44-.95,0-2.51,0-5.01,0-7.52,0-.57,.02-.6,.59-.6,.32,0,.64,0,.96,0,.55,0,.93-.25,1.09-.71,.16-.45,.02-.89-.39-1.23-1.24-1.01-2.48-2.03-3.73-3.04-.14-.11-.21-.22-.2-.42,.01-1.15,0-2.3,0-3.45,0-.42-.11-.53-.53-.53-.52,0-1.03,0-1.55,0-.35,0-.47,.12-.47,.47,0,.45,0,.9,0,1.34,0,.08-.05,.16-.08,.24-.07-.03-.16-.04-.22-.09-1.07-.86-2.13-1.73-3.2-2.59-.45-.36-.97-.36-1.42,0-3.3,2.67-6.6,5.34-9.9,8.01-.6,.49-.68,1.18-.19,1.68,.23,.23,.51,.31,.82,.31,.5,0,1.01,0,1.51,0,.37,0,.45,.08,.45,.45,0,2.55,0,5.1,0,7.65,0,.59,.29,1,.78,1.13,.14,.04,.29,.04,.44,.04,2.34,0,4.68,0,7.01,0Zm-.22-18.31c.06,.04,.11,.07,.15,.11,1.02,.82,2.04,1.65,3.05,2.47,.35,.28,.74,.4,1.18,.29,.64-.15,1.01-.66,1.02-1.37,0-.19,0-.37,0-.56,0-.03,.06-.06,.09-.09,.02,.03,.06,.06,.07,.09,.01,.05,0,.1,0,.15,0,.9,0,1.79,0,2.69,0,.44,.16,.8,.5,1.07,.97,.8,1.95,1.59,2.92,2.38,.22,.18,.44,.37,.67,.55-.26,.04-.5,.04-.74,.04-.34,0-.66,.03-.95,.22-.5,.32-.72,.79-.71,1.38,0,2.47,0,4.94,0,7.4,0,.08,0,.16,0,.26H8.27c0-.1,0-.18,0-.26,0-2.44,0-4.87,0-7.31,0-.11,0-.23-.01-.34-.06-.64-.5-1.16-1.13-1.29-.28-.06-.57-.04-.86-.05-.27,0-.53,0-.8,0,0-.01,0-.03-.01-.04,3.21-2.6,6.42-5.19,9.62-7.79Z" style="fill:#fff;"/><path d="M19.66,11.7c-2.74-2.67-7.07-2.49-9.55,0,.3,.25,.59,.5,.9,.76,1.05-.97,2.36-1.52,3.88-1.51,1.51,0,2.81,.54,3.89,1.54,.3-.27,.58-.53,.88-.79Z" style="fill:#fff;"/><path d="M16.9,14.55c.27-.28,.53-.56,.8-.84-1.48-1.53-4.13-1.54-5.64,0,.27,.28,.53,.56,.8,.84,1.2-1.09,2.91-1.03,4.03,0Z" style="fill:#fff;"/><path d="M14,17.5c.11-.05,.19-.07,.25-.12,.08-.06,.16-.12,.24-.19,.43-.38,.92-.45,1.44-.24,.21,.08,.42,.19,.62,.3,.39,.2,.78,.37,1.22,.41,.49,.04,.92-.1,1.31-.39,.12-.09,.23-.18,.34-.27,.19-.16,.23-.38,.09-.53-.13-.16-.33-.16-.52,0-.08,.07-.17,.14-.25,.21-.38,.31-.81,.4-1.27,.23-.25-.09-.49-.21-.73-.33-.49-.26-1-.46-1.57-.41-.58,.05-1.02,.38-1.41,.78-.06,.07-.07,.25-.03,.35,.03,.09,.16,.15,.26,.22Z" style="fill:#fff;"/><path d="M13.99,20.86c.1-.05,.17-.07,.23-.11,.12-.09,.24-.19,.36-.28,.36-.28,.76-.37,1.19-.22,.27,.09,.53,.22,.78,.35,.37,.18,.74,.35,1.15,.4,.44,.06,.84-.03,1.21-.27,.2-.13,.38-.28,.56-.43,.16-.14,.17-.35,.04-.5-.13-.14-.31-.16-.48-.03-.1,.07-.19,.15-.28,.23-.4,.34-.84,.41-1.32,.23-.25-.1-.5-.22-.74-.35-.44-.22-.9-.4-1.4-.39-.63,.02-1.09,.36-1.51,.78-.07,.07-.08,.25-.04,.35,.04,.1,.17,.16,.26,.24Z" style="fill:#fff;"/><path d="M19.25,18.01c-.07,.03-.14,.05-.2,.09-.06,.04-.12,.09-.18,.14-.53,.5-1.11,.51-1.73,.21-.26-.13-.52-.28-.79-.39-1.11-.47-1.77-.21-2.54,.48-.16,.14-.17,.35-.04,.5,.12,.14,.31,.15,.48,.02,.09-.07,.18-.14,.27-.22,.4-.34,.85-.42,1.34-.23,.25,.1,.49,.24,.75,.34,.33,.13,.66,.27,1,.36,.44,.11,.87,.02,1.25-.22,.22-.14,.42-.31,.63-.47,.12-.1,.14-.24,.08-.38-.06-.13-.15-.22-.32-.22Z" style="fill:#fff;"/><path d="M10.7,17.83c0,.54,0,1.09,0,1.63,0,.18-.05,.33-.17,.47-.61,.7-.32,1.76,.56,2.06,.52,.17,1.14-.04,1.44-.48,.34-.51,.33-1.1-.06-1.54-.15-.17-.2-.34-.2-.55,.01-1.05,.01-2.11,.01-3.16,0-.68-.64-1.05-1.24-.73-.24,.13-.34,.34-.34,.6,0,.57,0,1.14,0,1.71h0Zm.27,.11h0c0-.59,0-1.19,0-1.78,0-.3,.15-.44,.45-.47,.37-.03,.58,.15,.58,.53,0,1.11,0,2.21,0,3.32,0,.22,.05,.39,.22,.55,.39,.38,.36,1.03-.05,1.41-.41,.38-1.04,.35-1.43-.06-.37-.4-.35-1.03,.06-1.39,.13-.12,.18-.25,.18-.42,0-.56,0-1.12,0-1.69Z" style="fill:#fff;"/><path d="M10.47,18.48v-.24h-.36v.24h.36Z" style="fill:#fff;"/><path d="M10.1,18.05h.36v-.24h-.36v.24Z" style="fill:#fff;"/><path d="M10.1,17.37v.23h.36v-.23h-.36Z" style="fill:#fff;"/><path d="M10.47,17.17v-.24h-.36v.24h.36Z" style="fill:#fff;"/><path d="M10.1,16.5v.24h.37v-.24h-.37Z" style="fill:#fff;"/><path d="M10.1,19.35h.36v-.24h-.36v.24Z" style="fill:#fff;"/><path d="M10.47,18.9v-.22h-.37v.22h.37Z" style="fill:#fff;"/><path d="M10.46,16.3v-.22h-.36v.22h.36Z" style="fill:#fff;"/><path d="M11.83,17.8h-.71c0,.07,0,.14,0,.21,0,.61,0,1.21,0,1.82,0,.14-.04,.23-.15,.32-.38,.3-.4,.83-.08,1.17,.32,.34,.84,.34,1.16,0,.32-.34,.29-.87-.08-1.17-.11-.09-.15-.19-.15-.33,0-.6,0-1.2,0-1.8,0-.07,0-.14,0-.22Z" style="fill:#fff;"/></g></g></g></svg>