<?xml version="1.0" encoding="UTF-8"?><svg id="uuid-63be3626-e3a0-43c5-883d-4001af9bed57" xmlns="http://www.w3.org/2000/svg" viewBox="0 0 31.11 31.11"><g id="uuid-7dc9ac36-f7f6-4e6c-96a6-5b7f8d8fd38d"><g><circle cx="15.56" cy="15.56" r="15.56" style="fill:#fb922b;"/><g><g><path d="M16.13,16.27c3.12,0,6.23,0,9.35,0,.39,0,.5,.12,.5,.5,0,.45,0,.9,0,1.35,0,.27-.15,.42-.42,.43-.04,0-.08,0-.12,0-6.23,0-12.45,0-18.68,0-.07,0-.14,0-.21,0-.19-.03-.32-.17-.33-.36,0-.51,0-1.03,0-1.54,0-.2,.16-.35,.36-.36,.06,0,.12,0,.18,0,3.12,0,6.24,0,9.35,0Z" style="fill:#fff;"/><g><path d="M20.48,10.96c-.06,0-.13,0-.19,0-.19-.02-.34-.17-.34-.37,0-.19,.13-.37,.32-.38,.41-.01,.83-.01,1.24,0,.19,0,.33,.16,.33,.35,0,.39,0,.78,0,1.17,0,.21-.18,.37-.39,.36-.2,0-.36-.16-.37-.37,0-.06,0-.12,0-.22-.06,.05-.1,.09-.13,.12-1.18,1.18-2.36,2.35-3.54,3.53-.27,.27-.44,.27-.71,0-1.38-1.38-2.77-2.76-4.15-4.14-.05-.05-.1-.1-.15-.15-.16-.17-.16-.41-.01-.56,.15-.15,.38-.14,.55,.02,.19,.18,.38,.38,.57,.56,1.14,1.14,2.29,2.28,3.43,3.42,.04,.04,.08,.07,.12,.11,1.15-1.16,2.29-2.31,3.43-3.46Z" style="fill:#fff;"/><path d="M14.51,13.98c0,.22-.1,.36-.24,.42-.16,.06-.3,.03-.42-.09-.4-.39-.79-.79-1.19-1.18-1.06-1.06-2.12-2.11-3.18-3.17-.12-.12-.17-.26-.12-.43,.05-.15,.17-.23,.32-.25,.15-.02,.26,.06,.36,.16,.6,.6,1.19,1.19,1.79,1.79,.83,.83,1.67,1.66,2.49,2.49,.09,.09,.14,.21,.17,.26Z" style="fill:#fff;"/></g><g><path d="M10.71,24.37c.06,0,.13,0,.19,0,.19,.02,.34,.17,.34,.37,0,.19-.13,.37-.32,.38-.41,.01-.83,.01-1.24,0-.19,0-.33-.16-.33-.35,0-.39,0-.78,0-1.17,0-.21,.18-.37,.39-.36,.2,0,.36,.16,.37,.37,0,.06,0,.12,0,.22,.06-.05,.1-.09,.13-.12,1.18-1.18,2.36-2.35,3.54-3.53,.27-.27,.44-.27,.71,0,1.38,1.38,2.77,2.76,4.15,4.14,.05,.05,.1,.1,.15,.15,.16,.17,.16,.41,.01,.56-.15,.15-.38,.14-.55-.02-.19-.18-.38-.38-.57-.56-1.14-1.14-2.29-2.28-3.43-3.42-.04-.04-.08-.07-.12-.11-1.15,1.16-2.29,2.31-3.43,3.46Z" style="fill:#fff;"/><path d="M16.68,21.35c0-.22,.1-.36,.24-.42,.16-.06,.3-.03,.42,.09,.4,.39,.79,.79,1.19,1.18,1.06,1.06,2.12,2.11,3.18,3.17,.12,.12,.17,.26,.12,.43-.05,.15-.17,.23-.32,.25-.15,.02-.26-.06-.36-.16-.6-.6-1.19-1.19-1.79-1.79-.83-.83-1.67-1.66-2.49-2.49-.09-.09-.14-.21-.17-.26Z" style="fill:#fff;"/></g></g><g><path d="M17.87,5.72s-.03,.08-.07,.09c-.09,.02-.19,.05-.28,.08-.29,.08-.47,.28-.54,.6-.03,.14-.06,.28-.09,.41-.01,.06-.05,.09-.1,.09-.04,0-.08-.03-.09-.09-.03-.14-.06-.29-.09-.43-.07-.3-.25-.49-.54-.57-.1-.03-.21-.05-.31-.08-.05-.01-.08-.06-.07-.11,0-.05,.04-.07,.08-.08,.1-.03,.21-.05,.31-.08,.29-.08,.46-.28,.53-.59,.03-.14,.06-.27,.09-.41,.01-.06,.05-.1,.09-.1,.05,0,.08,.03,.1,.1,.03,.15,.06,.3,.1,.44,.05,.21,.16,.38,.34,.48,.09,.05,.2,.07,.3,.11,.05,.02,.11,.03,.16,.04,.05,.01,.08,.05,.08,.1Z" style="fill:#fff;"/><path d="M15.85,6.93s-.01,.04-.04,.05c-.05,.01-.11,.03-.16,.04-.16,.05-.27,.16-.3,.34-.02,.08-.03,.16-.05,.23,0,.03-.03,.05-.05,.05-.03,0-.04-.02-.05-.05-.02-.08-.03-.16-.05-.25-.04-.17-.14-.28-.3-.32-.06-.02-.12-.03-.17-.05-.03,0-.04-.03-.04-.06,0-.03,.02-.04,.05-.05,.06-.02,.12-.03,.18-.05,.16-.05,.26-.16,.3-.33,.02-.08,.03-.15,.05-.23,0-.04,.03-.05,.05-.05,.03,0,.05,.02,.05,.06,.02,.08,.04,.17,.05,.25,.03,.12,.09,.22,.19,.27,.05,.03,.11,.04,.17,.06,.03,0,.06,.02,.09,.02,.03,0,.04,.03,.04,.06Z" style="fill:#fff;"/><path d="M15.25,3.41s.05,.02,.06,.05c.02,.11,.05,.23,.07,.34,.06,.28,.22,.46,.48,.52,.06,.02,.13,.03,.19,.05,0,0,.01,0,.02,0,.03,.01,.04,.03,.04,.06,0,.03-.02,.05-.05,.06-.09,.02-.18,.04-.26,.07-.23,.08-.36,.24-.42,.49-.03,.12-.05,.24-.08,.36,0,.03-.03,.05-.06,.05-.03,0-.05-.02-.06-.05-.03-.12-.05-.23-.08-.35-.06-.27-.22-.44-.48-.51-.08-.02-.16-.04-.23-.06-.03,0-.05-.03-.05-.06,0-.03,.02-.05,.05-.06,.09-.02,.19-.04,.28-.07,.15-.05,.27-.14,.35-.28,.05-.08,.07-.17,.09-.26,.02-.1,.04-.2,.06-.3,0-.04,.03-.06,.06-.06Z" style="fill:#fff;"/></g></g></g></g></svg>