<?xml version="1.0" encoding="UTF-8"?><svg id="uuid-e87958c8-b937-4fa4-b1fb-51563b4c6cd2" xmlns="http://www.w3.org/2000/svg" viewBox="0 0 37.98 37.98"><g id="uuid-c25f92b3-e9af-4e93-97f3-4ac3ad17935c"><g><circle cx="18.99" cy="18.99" r="18.99" style="fill:#ea0029;"/><g><path d="M28.28,18.62c0,3.54,0,7.08,0,10.62,0,.07,0,.13,0,.2-.03,.26-.29,.41-.52,.41-.04,0-.08,0-.12,0-5.44,0-10.88,0-16.32,0-.55,0-1.06-.1-1.54-.35-.81-.42-1.31-1.03-1.47-1.85-.03-.15-.05-.31-.05-.47,0-5.71,0-11.42,0-17.13,0-.46,.1-.91,.36-1.31,.47-.74,1.19-1.19,2.15-1.35,.14-.02,.29-.03,.43-.03,.07,0,.14,0,.21,0,5.39,0,10.79,0,16.18,0,.06,0,.11,0,.17,0,.26,.01,.47,.17,.51,.39,.01,.06,.01,.12,.01,.18,0,.89,0,1.77,0,2.66,0,2.67,0,5.35,0,8.02Zm-1.11,5.97c.02-.12,.03-15.89,.01-16.2,0-.02,0-.04-.01-.07-.06-.02-.12-.01-.18-.01-5.22,0-10.44,0-15.65,0-.11,0-.22,0-.33,.02-.8,.09-1.47,.63-1.63,1.34-.03,.16-.03,.31-.03,.47,0,4.95,0,9.89,0,14.84,0,.04,0,.08,0,.12,0,.02,0,.04,.03,.06,.02-.01,.05-.03,.08-.05,.11-.06,.21-.13,.33-.19,.46-.23,.96-.34,1.49-.34,1.74,0,3.48,0,5.21,0,3.49,0,6.97,0,10.46,0,.07,0,.14,0,.22,0Zm-1.68,.97c-.08-.02-.15-.01-.22-.01-4.6,0-9.2,0-13.81,0-.07,0-.14,0-.21,0-.09,0-.18,0-.27,.02-1.05,.14-1.8,1.01-1.6,1.97,.13,.64,.69,1.16,1.41,1.32,.19,.04,.38,.05,.58,.05,5.2,0,10.4,0,15.59,0,.04,0,.08,0,.12,0,.03,0,.06,0,.08-.01,.02-.14,.04-2.44,.02-3.24,0-.03,0-.06,0-.09-.15-.03-.48-.02-.59,0,0,.04,0,.09,0,.14,0,.69,0,1.38,0,2.08,0,.03,0,.06,0,.09-.01,.23-.2,.41-.46,.45-.08,0-.16,0-.24,0-4.81,0-9.62,0-14.44,0-.05,0-.09,0-.14,0-.05,0-.1,0-.15-.01-.28-.05-.47-.29-.42-.54,.05-.22,.24-.38,.51-.4,.06,0,.12,0,.18,0,4.61,0,9.21,0,13.82,0,.06,0,.11,0,.17,0,.03,0,.06-.01,.09-.02,0-.1,.02-.19-.02-.3-.08,0-.15,0-.21,0-4.6,0-9.2,0-13.81,0-.07,0-.14,0-.21,0-.05,0-.1,0-.15-.02-.28-.08-.4-.31-.37-.5,.03-.24,.24-.41,.51-.43,.06,0,.13,0,.2,0,4.6,0,9.2,0,13.81,0,.06,0,.11,0,.17,0,.03,0,.06,0,.09-.02,0-.18,0-.35,0-.53Z" style="fill:#fff;"/><path d="M21.17,22.2s.01-.1,.02-.14c0-.4,0-.81,0-1.21,0-.04,0-.09,0-.13,.02-.13,.13-.22,.25-.22,.13,0,.23,.1,.25,.23,0,.04,0,.08,0,.12,0,.4,0,.81,0,1.21,0,.05,0,.1,0,.15,.04,0,.08,.01,.11,.01,.35,0,.7,0,1.05,0,.03,0,.05,0,.08,0,.11-.02,.18-.09,.19-.2,0-.03,0-.05,0-.08,0-.66,0-1.32,0-1.99,0-.52-.15-1-.45-1.43-.41-.58-.97-.94-1.67-1.07-.2-.04-.41-.04-.61-.03-.04,.03-.05,.08-.07,.13-.3,.65-.59,1.3-.89,1.95-.02,.04-.03,.08-.06,.12-.1,.17-.25,.27-.45,.27-.21,0-.36-.1-.46-.27-.02-.03-.03-.07-.05-.11-.3-.65-.59-1.3-.89-1.95-.02-.04-.04-.09-.06-.14-.03,0-.06,0-.09,0-.23,0-.46,.01-.68,.06-.05,.01-.1,.01-.15,0-.1-.04-.17-.13-.17-.23,0-.1,.06-.2,.15-.24,.04-.01,.08-.02,.11-.03,.22-.05,.44-.06,.67-.06,.81,0,1.62,0,2.43,0,.29,0,.59,0,.88,0,.84,.01,1.56,.32,2.15,.92,.47,.47,.75,1.04,.84,1.7,.02,.13,.03,.27,.03,.41,0,.67,0,1.35,0,2.02,0,.09-.01,.18-.04,.27-.1,.29-.37,.49-.68,.49-.46,0-.93,0-1.39,0-2.18,0-4.36,0-6.53,0-.08,0-.16,0-.23-.02-.32-.07-.55-.35-.56-.68,0-.02,0-.04,0-.07,0-.67,0-1.34,0-2.01,0-.34,.06-.66,.16-.98,.01-.04,.03-.08,.05-.12,.06-.11,.18-.17,.3-.13,.12,.04,.2,.16,.17,.29,0,.03-.02,.07-.03,.1-.1,.28-.15,.58-.15,.88,0,.65,0,1.3,0,1.95,0,.18,.08,.3,.29,.3,.34,0,.68,0,1.03,0,.04,0,.08,0,.12-.03,0-.04,0-.09,0-.13,0-.4,0-.81,0-1.21,0-.04,0-.07,0-.11,0-.14,.11-.24,.25-.24,.14,0,.25,.1,.26,.25,0,.03,0,.07,0,.11,0,.4,0,.8,0,1.2v.15s.05,.02,.08,.02c.03,0,.07,0,.11,0,1.39,0,2.78,0,4.17,0,.06,0,.11,.01,.17-.01Zm-1.36-4.79c-.58,0-1.16,0-1.73,0-.01,0-.02,0-.04,.01,.01,.03,.02,.07,.04,.1,.39,.89,.8,1.75,.86,1.83,.02-.03,.03-.05,.04-.08,.37-.77,.81-1.75,.83-1.87Z" style="fill:#fff;"/><path d="M15.96,17.14s.08,.06,.11,.09c.48,.48,.97,.97,1.45,1.45,.03,.03,.07,.07,.1,.1,.23,.27,.3,.58,.18,.92-.12,.33-.36,.53-.7,.6-.29,.06-.55-.02-.78-.21-.04-.03-.07-.07-.1-.1-.49-.49-.97-.97-1.46-1.46-.01-.01-.03-.02-.04-.04-.04-.05-.09-.07-.16-.06-.17,.02-.34,.01-.51-.02-.65-.13-1.15-.67-1.24-1.32-.04-.29,0-.57,.1-.84,.04-.1,.08-.19,.12-.29,0-.02,.02-.03,.03-.05,.04,.03,.07,.06,.1,.09,.24,.24,.48,.48,.72,.71,.02,.02,.04,.05,.07,.06,.02,.01,.05,.03,.07,.03,.1,0,.2,0,.3-.02,.03-.06,.02-.12,.03-.17,0-.06,0-.11,0-.18-.09-.09-.19-.19-.29-.29-.1-.1-.2-.2-.31-.31-.1-.1-.2-.2-.29-.3,0-.01,.01-.02,.02-.03,.19-.08,.38-.17,.59-.22,.86-.19,1.75,.37,1.91,1.31,.02,.13,.03,.25,.01,.38,0,.04,0,.09-.01,.15Zm-1.15,.73s.07,.07,.1,.1c.56,.55,1.11,1.11,1.67,1.66,.03,.03,.06,.06,.09,.09,.17,.14,.41,.13,.56-.03,.15-.15,.16-.39,.02-.56-.03-.04-.07-.07-.1-.1-.55-.55-1.1-1.1-1.66-1.65-.03-.03-.08-.06-.09-.11,.01-.06,.03-.12,.04-.19,.11-.52-.17-1.04-.67-1.23-.1-.04-.2-.07-.31-.07-.02,0-.03,0-.06,.01,.15,.17,.31,.31,.45,.46,0,.02,0,.04,0,.05-.02,.31-.04,.61-.06,.92,0,.02-.01,.03-.02,.05-.34,.02-.67,.05-1.01,.06-.14-.14-.27-.28-.41-.42,0,0-.01-.01-.02-.02,0,0,0,0-.01,0,0,0,0,0-.01,0,0,0,0,0,0,0,0,.02,0,.03,0,.05,0,.12,.04,.24,.1,.35,.22,.46,.73,.72,1.26,.59,.05-.01,.09-.02,.15-.04Z" style="fill:#fff;"/><path d="M21.35,14.34c-.03,.11-.04,.22-.07,.32-.14,.55-.41,1.02-.82,1.42-.28,.27-.6,.47-.98,.57-.51,.14-1.01,.09-1.48-.14-.36-.17-.65-.43-.89-.74-.3-.39-.49-.83-.58-1.31,0-.03-.01-.06-.02-.09,0,0,0-.01-.02-.03-.03,0-.05-.01-.08-.02-.28-.06-.46-.27-.47-.55,0-.11,0-.23,0-.34,.01-.27,.18-.47,.42-.54,.05-.01,.11-.02,.17-.02,.19,0,.39,0,.58,0,.02,0,.04,0,.07,0,.12,.01,.22,.12,.22,.24,0,.13-.09,.24-.21,.26-.03,0-.07,0-.1,0-.15,0-.31,0-.46,0-.03,0-.06,0-.09,0-.05,0-.07,.03-.07,.08,0,.1,0,.2,0,.3,0,.05,.03,.07,.08,.07,.03,0,.07,0,.11,0,1.53,0,3.07,0,4.6,0,.04,0,.08,0,.12,0,.04,0,.07-.03,.07-.07,0-.1,0-.21,0-.31,0-.04-.03-.06-.07-.07-.03,0-.06,0-.09,0-.17,0-.33,0-.5,0-.04,0-.07,0-.1,0-.13-.02-.22-.13-.22-.25,0-.13,.1-.23,.23-.24,.06,0,.12,0,.18,0,.18,0,.35,0,.53,0,.19,0,.46,.13,.54,.43,.01,.04,.02,.09,.02,.13,0,.11,0,.23,0,.34,0,.26-.19,.5-.46,.55-.03,0-.07,.02-.11,.02Zm-4.31,0s0,.02,0,.03c0,.01,0,.03,0,.04,.09,.41,.26,.79,.54,1.11,.19,.23,.42,.41,.69,.54,.37,.17,.75,.2,1.14,.08,.27-.08,.5-.23,.7-.42,.37-.35,.6-.78,.71-1.28,0-.03,0-.07,.01-.1-.13-.02-2.52-.03-3.68-.01-.03,0-.07,0-.1,0Z" style="fill:#fff;"/><path d="M18.67,11.06c0,.05,0,.1,0,.14,0,.11,0,.21,0,.32,0,.12-.05,.2-.16,.25-.13,.05-.28-.01-.32-.14-.02-.04-.02-.09-.02-.14,0-.13,0-.25,0-.38,0-.31,.22-.54,.53-.56,.15,0,.31,0,.46,0,.25,.02,.44,.17,.5,.39,.01,.04,.02,.09,.02,.13,0,.15,0,.31,0,.46,0,.07-.02,.14-.08,.19-.07,.07-.16,.09-.26,.05-.1-.04-.16-.11-.17-.22,0-.1,0-.2,0-.3,0-.04,0-.09,0-.13,0-.05-.02-.06-.06-.07-.01,0-.03,0-.04,0-.11,0-.21,0-.32,0-.02,0-.04,0-.08,.01Z" style="fill:#fff;"/><path d="M16.7,12.48s.01-.06,.03-.1c.22-.47,.54-.85,.97-1.13,.08-.05,.15-.08,.25-.05,.18,.06,.24,.29,.09,.42-.02,.02-.05,.04-.07,.05-.33,.21-.58,.5-.75,.85-.02,.04-.04,.08-.06,.11-.06,.09-.18,.12-.28,.09-.11-.04-.17-.12-.17-.26Z" style="fill:#fff;"/><path d="M19.75,11.46c0-.18,.18-.29,.34-.23,.03,.01,.06,.03,.09,.05,.41,.27,.71,.64,.92,1.09,.03,.06,.05,.12,.03,.19-.03,.1-.09,.17-.2,.19-.1,.02-.19-.02-.25-.1-.02-.02-.03-.05-.04-.08-.17-.36-.42-.66-.75-.87-.09-.06-.14-.13-.14-.24Z" style="fill:#fff;"/><path d="M20.86,19.88c-.16,0-.32,0-.49,0-.03,0-.06,0-.09,0-.13-.01-.24-.13-.23-.26,0-.15,.13-.24,.23-.24,.03,0,.06,0,.09,0,.32,0,.65,0,.97,0,.03,0,.06,0,.09,0,.13,.01,.23,.12,.23,.24,0,.13-.09,.24-.22,.26-.03,0-.07,0-.1,0-.16,0-.32,0-.49,0Z" style="fill:#fff;"/><path d="M19.17,12.8c0,.15,0,.31,0,.46,0,.13-.08,.22-.2,.24-.15,.03-.28-.06-.3-.21,0-.03,0-.07,0-.1,0-.26,0-.52,0-.77,0-.03,0-.07,0-.1,.01-.13,.12-.22,.25-.22,.13,0,.24,.09,.25,.22,0,.03,0,.06,0,.09,0,.14,0,.27,0,.41h0Z" style="fill:#fff;"/><path d="M17.72,12.87s0-.05,.02-.08c.05-.15,.09-.29,.14-.44,0-.02,.02-.05,.03-.07,.06-.11,.19-.16,.31-.12,.11,.04,.19,.16,.16,.28,0,.03-.02,.06-.02,.09-.04,.13-.08,.26-.12,.39,0,.03-.02,.06-.03,.09-.05,.11-.17,.16-.29,.14-.12-.03-.19-.13-.19-.27Z" style="fill:#fff;"/><path d="M19.46,12.43c0-.14,.07-.24,.18-.27,.12-.03,.24,.02,.29,.12,.01,.02,.02,.05,.03,.07,.05,.15,.09,.3,.14,.45,0,.03,.02,.06,.02,.09,0,.11-.07,.21-.18,.25-.11,.03-.23-.01-.29-.11-.02-.03-.03-.06-.04-.08-.05-.15-.09-.29-.14-.44-.01-.03-.02-.07-.02-.08Z" style="fill:#fff;"/><path d="M16.9,19.62c-.13,.02-.36-.2-.34-.34,0-.09,.05-.17,.13-.21,.09-.05,.18-.05,.26,.01,.06,.04,.11,.1,.16,.16,.06,.08,.06,.16,.02,.25-.04,.09-.13,.14-.22,.14Z" style="fill:#fff;"/></g></g></g></svg>