<?xml version="1.0" encoding="UTF-8"?><svg id="uuid-5937392d-8cd5-45aa-b917-08475c7a04e7" xmlns="http://www.w3.org/2000/svg" viewBox="0 0 38.1 38.1"><g id="uuid-826c7ddb-4bdd-4c32-902c-eb5235247052"><g><circle cx="19.05" cy="19.05" r="19.05" style="fill:#00a99d;"/><path d="M30.91,20.39l-.12-.37-2.32-.58c.01-.21,.02-.42,.02-.63,0-2.7-1.16-5.27-3.18-7.07l-.94,1.06c1.72,1.52,2.7,3.71,2.7,6,0,.09,0,.19,0,.28l-1.5-.38c-.02-1.48-.55-2.91-1.49-4.05l-1.1,.91c.65,.79,1.05,1.76,1.14,2.78l-1.53-.38c-.17-.7-.53-1.32-1.04-1.8l2.33-8.13-.26-.29c-1.13-1.25-2.79-1.97-4.56-1.97s-3.43,.72-4.56,1.97l-.26,.29,.66,2.29c-.52,.25-1.01,.56-1.48,.91-1.59,1.19-2.78,2.88-3.37,4.76l1.36,.42c.65-2.08,2.06-3.74,3.89-4.7l.43,1.5c-.56,.33-1.07,.75-1.51,1.25l1.06,.95c.26-.29,.55-.55,.86-.77l.44,1.52c-.5,.48-.87,1.09-1.04,1.79l-1.53,.38c.05-.59,.21-1.15,.46-1.69l-1.29-.6c-.39,.83-.6,1.73-.61,2.65l-5.23,1.29-.12,.37c-.53,1.6-.32,3.4,.56,4.94,.88,1.53,2.33,2.62,3.99,2.97l.39,.08,1.66-1.71c1.55,1.04,3.38,1.6,5.26,1.6,.65,0,1.3-.07,1.93-.2l-.29-1.39c-.54,.11-1.09,.17-1.64,.17-1.55,0-3.01-.45-4.25-1.23l1.08-1.11c.94,.53,2.02,.83,3.18,.83v-1.42c-.77,0-1.49-.17-2.14-.47l1.1-1.13c.33,.1,.68,.15,1.04,.15s.71-.05,1.03-.15l5.87,6.08,.39-.08c1.65-.35,3.11-1.43,3.99-2.96,.89-1.53,1.1-3.33,.58-4.94Zm-9.52,1.19c.64-.54,1.09-1.29,1.24-2.14l7.03,1.76c.26,1.13,.06,2.35-.56,3.42-.62,1.07-1.58,1.84-2.69,2.18l-5.03-5.22Zm-5.57-13.16c.85-.79,2-1.23,3.24-1.23s2.39,.44,3.24,1.23l-2,6.96c-.39-.14-.8-.22-1.24-.22s-.85,.08-1.24,.22l-2-6.96Zm-4.15,18.36c-1.1-.34-2.07-1.12-2.68-2.19-.61-1.07-.81-2.29-.55-3.42l7.03-1.74c.15,.86,.6,1.61,1.24,2.15l-5.04,5.2Zm5.17-7.98c0-1.22,.99-2.21,2.21-2.21s2.21,.99,2.21,2.21-.99,2.21-2.21,2.21c-1.22,0-2.21-.99-2.21-2.21Z" style="fill:#fff;"/></g></g></svg>