<?xml version="1.0" encoding="UTF-8"?><svg id="uuid-5899a03a-9cb8-49fe-96c2-79191c47e500" xmlns="http://www.w3.org/2000/svg" viewBox="0 0 31.11 31.11"><g id="uuid-d2122ab4-d1fd-41b8-a44e-264f74003bc0"><g><circle cx="15.56" cy="15.56" r="15.56" style="fill:#0859b1;"/><g><path d="M15.33,1.94C7.94,1.94,1.94,7.94,1.94,15.33s5.99,13.39,13.39,13.39,13.39-5.99,13.39-13.39S22.72,1.94,15.33,1.94Zm0,1.54c2.98,0,5.7,1.11,7.78,2.93L6.41,23.11c-1.82-2.08-2.93-4.8-2.93-7.78C3.49,8.79,8.79,3.49,15.33,3.49Zm0,23.69c-2.95,0-5.64-1.09-7.72-2.87L24.3,7.61c1.79,2.07,2.87,4.77,2.87,7.72,0,6.54-5.3,11.84-11.84,11.84Z" style="fill:#fff;"/><path d="M18.06,23.6s-.05-.03-.07-.05c-.07-.06-.07-.14-.05-.22,.06-.27,.12-.55,.18-.82,.02-.07,.03-.14,.05-.22l-.1,.04c-.25,.09-.5,.19-.75,.28-.1,.04-.19,.02-.26-.06-.1-.1-.08-.32,.07-.37,.36-.14,.72-.29,1.08-.43,.06-.02,.09-.06,.11-.12,.12-.48,.23-.95,.35-1.43,0-.02,0-.03,.01-.06-.03,0-.05,0-.07,.02-.47,.13-.94,.27-1.41,.4-.06,.02-.07,.05-.09,.1-.07,.2-.14,.4-.2,.6-.05,.16-.11,.32-.16,.48-.03,.1-.1,.16-.21,.18-.09,.02-.17-.02-.23-.09-.04-.05-.07-.12-.05-.19,.03-.12,.07-.24,.11-.36,.05-.15,.1-.29,.14-.44,.01-.03,.02-.06,.03-.1-.06,.02-.12,.03-.18,.05-.25,.07-.5,.14-.75,.21-.04,.01-.09,.02-.13,.03-.11,.01-.22-.07-.25-.18-.03-.1,.03-.23,.12-.26,.08-.03,.16-.06,.24-.08,.26-.08,.52-.16,.77-.24h.03s-.06-.06-.09-.09c-.17-.14-.34-.28-.5-.42-.04-.04-.08-.07-.12-.11-.07-.07-.09-.18-.04-.27,.06-.11,.17-.16,.26-.13,.07,.02,.13,.07,.19,.11,.29,.23,.58,.47,.87,.7,.02,.02,.04,.02,.06,0,.43-.13,.87-.26,1.31-.39,.06-.02,.13-.04,.2-.06-.06-.06-.12-.13-.18-.18-.31-.31-.63-.61-.94-.92-.02-.02-.04-.03-.07-.02-.36,.08-.73,.15-1.09,.22-.05,.01-.1,.02-.16,.02-.17,.01-.25-.15-.24-.27,.01-.1,.06-.17,.16-.19,.17-.04,.33-.08,.5-.12,.14-.03,.27-.06,.42-.09-.05-.05-.09-.09-.13-.13-.21-.2-.41-.4-.62-.6-.07-.07-.08-.16-.05-.25,.05-.16,.22-.22,.36-.11,.12,.09,.23,.2,.34,.3,.15,.14,.3,.28,.46,.43,0-.05,.02-.09,.02-.14,.02-.15,.05-.3,.07-.46,.02-.12,.05-.25,.07-.37,0,0,0-.02,0-.02,.06-.09,.19-.14,.3-.1,.1,.03,.16,.15,.15,.26-.03,.22-.06,.44-.1,.66-.03,.17-.05,.34-.08,.5,0,.05,0,.08,.03,.12,.37,.34,.74,.69,1.1,1.03l.02,.02s.02-.07,.03-.1c.07-.28,.14-.56,.21-.83,.05-.2,.1-.4,.15-.59,0-.03,0-.05-.02-.07-.27-.31-.54-.61-.81-.92-.07-.08-.06-.16-.03-.25,.04-.09,.11-.14,.21-.14,.08,0,.14,.03,.2,.09,.19,.22,.38,.43,.58,.64l.03,.03c.03-.11,.05-.21,.08-.31,.05-.2,.1-.4,.16-.6,.01-.04,.03-.09,.04-.13,.04-.09,.12-.13,.21-.14l.09,.02c.05,.02,.1,.06,.13,.11,.02,.04,.03,.09,.02,.14-.06,.28-.13,.57-.19,.85-.01,.06-.03,.12-.05,.19,.08-.03,.15-.06,.23-.08,.22-.08,.44-.16,.66-.24,.11-.04,.21,0,.27,.09,.06,.09,.05,.21-.02,.29-.02,.03-.06,.05-.09,.06-.31,.13-.63,.25-.94,.37-.07,.03-.14,.05-.2,.08-.01,0-.03,.02-.03,.03-.12,.49-.24,.99-.36,1.49,0,.02,0,.04-.01,.07,.1-.03,.19-.05,.28-.08,.36-.1,.73-.21,1.09-.31,.03,0,.05-.02,.08-.02,.08,0,.11-.06,.13-.13,.07-.21,.14-.42,.21-.64,.06-.16,.11-.33,.17-.49,.04-.09,.12-.13,.22-.13,.15,0,.27,.14,.23,.29-.04,.15-.09,.3-.14,.44-.05,.15-.09,.29-.14,.45,.05-.01,.1-.02,.14-.03,.27-.07,.54-.15,.81-.22,.08-.02,.16-.03,.24,.02,.09,.06,.12,.14,.11,.24-.01,.09-.06,.16-.15,.19-.28,.09-.57,.18-.85,.27-.05,.01-.09,.03-.15,.05,.07,.06,.13,.11,.19,.16,.17,.14,.34,.28,.51,.42,.05,.04,.1,.09,.09,.17-.01,.13-.05,.22-.2,.25-.08,.02-.14-.02-.2-.07-.23-.18-.46-.37-.7-.55-.08-.06-.16-.12-.24-.19-.03-.02-.05-.03-.08-.02-.37,.11-.74,.22-1.1,.33-.11,.03-.23,.07-.34,.11-.01,0-.03,.01-.05,.02,.09,.09,.18,.18,.26,.26,.27,.27,.55,.53,.82,.8,.04,.04,.08,.06,.15,.04,.38-.08,.77-.15,1.15-.23,.15-.03,.28,.08,.29,.24,0,.1-.06,.2-.16,.22-.19,.05-.38,.09-.57,.13-.1,.02-.21,.04-.32,.07h-.04c.05,.06,.09,.1,.14,.15,.19,.19,.38,.37,.57,.56,.05,.05,.11,.11,.1,.19,0,.09-.03,.16-.1,.22-.08,.06-.23,.04-.3-.02-.11-.1-.22-.2-.32-.3-.14-.13-.28-.27-.43-.4h-.02c-.01,.07-.03,.15-.04,.23-.02,.12-.04,.24-.06,.36-.02,.11-.04,.22-.06,.33-.03,.13-.16,.2-.29,.17-.13-.04-.19-.15-.17-.3,.03-.19,.06-.39,.09-.58,.02-.16,.05-.32,.07-.48,0-.04,0-.08,.01-.12,0-.03-.02-.05-.04-.07-.2-.19-.39-.38-.59-.56-.16-.15-.32-.3-.49-.45-.01-.01-.02-.02-.04-.04-.01,.04-.03,.08-.03,.12-.09,.36-.18,.72-.27,1.08-.03,.11-.05,.22-.08,.33,0,.03,0,.04,.02,.06,.26,.3,.52,.6,.79,.89,.12,.13,.09,.32-.06,.39-.09,.04-.2,.03-.27-.05-.18-.2-.36-.4-.55-.6-.02-.02-.05-.05-.08-.08-.03,.1-.06,.2-.08,.29-.05,.21-.11,.42-.16,.62-.01,.05-.03,.11-.05,.16-.03,.07-.11,.12-.19,.12,0,0-.01,0-.02,0l-.1-.02Z" style="fill:#fff;"/><g><path d="M12.71,12.63c-.61-1.27-1.33-2.49-2.07-3.87-.83,1.33-1.58,2.51-2.31,3.7-.14,.23-.24,.5-.29,.76-.19,1.08,.27,2.02,1.27,2.58,.91,.52,2,.42,2.8-.24,.85-.71,1.13-1.82,.6-2.93Zm-1.1,2.29c-.53,.46-1.26,.54-1.89,.2-.68-.37-1.01-.99-.89-1.72,.03-.18,.09-.36,.18-.52,.48-.82,.97-1.62,1.51-2.53,.52,.92,1.02,1.73,1.45,2.58,.37,.74,.2,1.5-.37,1.98Z" style="fill:#fff;"/><path d="M14.52,10.32c-.27-.56-.59-1.1-.92-1.71-.37,.59-.7,1.11-1.02,1.63-.06,.1-.11,.22-.13,.33-.09,.48,.12,.89,.56,1.14,.4,.23,.88,.19,1.24-.11,.37-.31,.5-.81,.27-1.29Zm-.59,.86c-.18,.16-.44,.19-.66,.07-.24-.13-.35-.34-.31-.6,0-.06,.03-.13,.06-.18,.17-.28,.34-.56,.52-.88,.18,.32,.35,.6,.5,.9,.13,.26,.07,.52-.13,.69Z" style="fill:#fff;"/><path d="M12.89,7.66c-.23-.49-.51-.96-.8-1.49-.32,.51-.61,.96-.89,1.42-.05,.09-.09,.19-.11,.29-.07,.42,.11,.78,.49,.99,.35,.2,.77,.16,1.08-.09,.33-.27,.44-.7,.23-1.13Zm-.52,.75c-.16,.14-.38,.16-.57,.06-.21-.11-.3-.3-.27-.52,0-.05,.03-.11,.06-.16,.14-.25,.29-.49,.46-.77,.16,.28,.31,.53,.44,.78,.11,.22,.06,.45-.11,.6Z" style="fill:#fff;"/></g></g></g></g></svg>