<?xml version="1.0" encoding="UTF-8"?><svg id="uuid-8daac67f-19ee-42f0-b893-5f6b3e863549" xmlns="http://www.w3.org/2000/svg" viewBox="0 0 31.11 31.11"><g id="uuid-38f64c3d-f14c-4006-8fa3-302551fe0de5"><g><circle cx="15.56" cy="15.56" r="15.56" style="fill:#0859b1;"/><g><g><path d="M16.84,9.1v1.44c2.16,.61,3.75,2.6,3.75,4.96,0,2.85-2.31,5.16-5.16,5.16s-5.16-2.31-5.16-5.16c0-2.36,1.58-4.34,3.75-4.96v-1.44c-2.94,.65-5.14,3.26-5.14,6.39,0,3.62,2.93,6.55,6.55,6.55s6.55-2.93,6.55-6.55c0-3.13-2.2-5.75-5.14-6.39Z" style="fill:#fff;"/><path d="M14.82,11.46h1.22v-3.22h-1.22v3.22Z" style="fill:#fff;"/></g><path d="M25.28,7.06c0-.73-.23-.99-.94-1.13-1.57-.3-3.14-.6-4.71-.9-1.11-.22-2.22-.45-3.32-.67-.56-.11-1.11-.05-1.66,.05-2.65,.51-5.3,1.01-7.95,1.51-.11,.02-.21,.04-.32,.07-.46,.12-.68,.4-.69,.87l-.07,4.72s0,.04,0,.04c0,.03,0,.08,0,.12,0,.2,0,.36,0,.56v.69s.02,.34,.02,.34c.01,.77,.03,1.55,.07,2.32,.14,2.83,.96,5.44,2.65,7.75,1.35,1.85,3.14,3.15,5.23,4.04,.41,.17,.83,.32,1.25,.47,.41,.15,.84,.15,1.26,.03,1.74-.49,3.27-1.36,4.61-2.55,2.01-1.77,3.42-3.92,4.15-6.51,.26-.93,.4-1.87,.4-2.83,0-1.42,.04-2.66,.04-4.08,.01,0-.01-.19,0-.19,0-1.57,0-3.15,0-4.72Zm-1.28,7.95c-.04,1.09-.15,2.17-.39,3.24-.48,2.1-1.43,3.93-2.96,5.46-1.3,1.29-2.84,2.21-4.53,2.86-.16,.06-.35,.08-.53,.09-.41,.04-.78-.1-1.16-.24-1.91-.74-3.48-1.95-4.76-3.54-1.74-2.17-2.7-4.64-2.71-7.45-.01-2.67-.01-5.35-.02-8.02,0-.04,0-.09,0-.13,0-.08,.05-.11,.12-.13,.54-.1,1.09-.21,1.63-.32,2-.39,4.01-.77,6.01-1.15,.33-.06,.66-.17,1.01-.1,.44,.09,.87,.17,1.31,.25,2.23,.43,4.47,.86,6.7,1.29,.28,.05,.31,.08,.31,.36,0,1.28,0,2.56,0,3.84,.02,0-.01,.34,0,.34-.02,1.23,0,2.12-.04,3.34Z" style="fill:#fff;"/></g></g></g></svg>