<?xml version="1.0" encoding="UTF-8"?><svg id="uuid-b1fa5d42-ded9-4dd5-92cf-53a09016829a" xmlns="http://www.w3.org/2000/svg" viewBox="0 0 31.11 31.11"><g id="uuid-355c5227-0753-4262-85c9-d8e722e7b07c"><g><circle cx="15.56" cy="15.56" r="15.56" style="fill:#fb922b;"/><g><g><path d="M21.03,9.01c0-1.04-.68-1.72-1.72-1.72-2.4,0-4.79,0-7.19,0-.79,0-1.43,.52-1.59,1.28-.03,.13-.04,.28-.04,.41,0,5.58,0,11.16,0,16.75,0,1.01,.69,1.7,1.7,1.7,2.38,0,4.76,0,7.14,0,1.02,0,1.7-.69,1.7-1.71,0-2.79,0-5.58,0-8.37s0-5.56,0-8.34Zm-.51,8.34c0,2.81,0,5.62,0,8.44,0,.09,0,.17-.02,.26-.12,.56-.56,.88-1.19,.88-2.38,0-4.76,0-7.14,0-.12,0-.25-.02-.36-.05-.5-.14-.8-.57-.8-1.15,0-4.79,0-9.59,0-14.38,0-.8,0-1.61,0-2.41,0-.66,.48-1.13,1.14-1.13,2.41,0,4.82,0,7.23,0,.67,0,1.14,.47,1.14,1.14,0,2.8,0,5.6,0,8.4Z" style="fill:#fff;"/><path d="M15.55,17.45c-1.17,.01-2.16,1-2.16,2.21,0,1.21,1,2.19,2.23,2.18,1.18,0,2.17-1,2.17-2.19,0-1.22-1.01-2.21-2.24-2.2Zm.04,3.81c-.91,0-1.6-.69-1.61-1.61,0-.92,.68-1.62,1.59-1.62,.93,0,1.62,.68,1.62,1.61,0,.92-.69,1.62-1.61,1.62Z" style="fill:#fff;"/><path d="M16.84,23.82c.33,0,.61-.29,.61-.61,0-.33-.29-.61-.62-.6-.32,0-.6,.29-.59,.61,0,.33,.28,.61,.6,.6Z" style="fill:#fff;"/><path d="M14.35,23.84c.33,0,.6-.27,.6-.6,0-.33-.27-.61-.6-.61-.32,0-.61,.28-.61,.6,0,.33,.28,.61,.61,.61Z" style="fill:#fff;"/><path d="M14.36,24.72c-.32,0-.59,.27-.6,.59,0,.33,.28,.62,.6,.62,.32,0,.61-.29,.61-.6,0-.31-.3-.61-.62-.61Z" style="fill:#fff;"/><path d="M16.88,24.69c-.32,0-.62,.29-.62,.6,0,.32,.29,.61,.61,.61,.32,0,.59-.28,.59-.61,0-.33-.26-.6-.59-.6Z" style="fill:#fff;"/><path d="M15.59,19.09c-.31,0-.55,.23-.55,.54,0,.3,.25,.57,.55,.57,.3,0,.56-.26,.56-.56,0-.31-.24-.55-.56-.55Z" style="fill:#fff;"/><path d="M18.62,9.21h-5.71c-.32,0-.58,.26-.58,.58v5.71c0,.32,.26,.58,.58,.58h5.71c.32,0,.58-.26,.58-.58v-5.71c0-.32-.26-.58-.58-.58Zm-2.86,1.61c-.8,1.01-2,1.91-2,1.91,.86-1.17,2-1.91,2-1.91Zm1.49,.37c-1.19,1.55-2.99,2.92-2.99,2.92,1.29-1.78,2.99-2.92,2.99-2.92Zm-1.59,3.42c.86-1.17,2-1.91,2-1.91-.8,1.01-2,1.91-2,1.91Z" style="fill:#fff;"/></g><g><path d="M17.07,6.14c-.34-.32-.8-.52-1.3-.52-.5,0-.96,.2-1.3,.52" style="fill:none; stroke:#fff; stroke-miterlimit:10; stroke-width:.75px;"/><path d="M18.11,4.98c-.61-.58-1.43-.94-2.34-.94-.91,0-1.73,.36-2.34,.94" style="fill:none; stroke:#fff; stroke-miterlimit:10; stroke-width:.75px;"/><path d="M19.33,3.91c-.93-.88-2.18-1.48-3.56-1.48-1.38,0-2.63,.6-3.56,1.48" style="fill:none; stroke:#fff; stroke-miterlimit:10; stroke-width:.75px;"/></g></g></g></g></svg>