<?xml version="1.0" encoding="UTF-8"?><svg id="uuid-89fd0391-abd4-4632-80a9-a33ab66dd789" xmlns="http://www.w3.org/2000/svg" viewBox="0 0 39.45 39.45"><g id="uuid-55ca9f71-663d-4c2f-9ade-76080d7be877"><g><circle cx="19.72" cy="19.72" r="19.72" style="fill:#ea0029;"/><g><path d="M19.45,6.51c-7.47,0-13.53,6.06-13.53,13.53s6.06,13.53,13.53,13.53,13.53-6.06,13.53-13.53-6.06-13.53-13.53-13.53Zm0,25.51c-6.61,0-11.97-5.36-11.97-11.97s5.36-11.97,11.97-11.97,11.97,5.36,11.97,11.97-5.36,11.97-11.97,11.97Z" style="fill:#fff;"/><path d="M19.19,27.6s-.1-.04-.15-.06c-.15-.08-.19-.23-.2-.38-.01-.55-.02-1.09-.04-1.64,0-.14,0-.27,0-.43-.07,.05-.13,.08-.18,.12-.43,.29-.86,.58-1.29,.87-.17,.11-.35,.12-.52,.01-.23-.14-.29-.56-.04-.74,.62-.43,1.23-.88,1.85-1.31,.1-.07,.15-.15,.15-.27,0-.95,0-1.9,0-2.86,0-.03,0-.07,0-.11-.05,.02-.09,.04-.13,.06-.83,.47-1.65,.94-2.48,1.4-.1,.06-.11,.13-.12,.22-.04,.41-.07,.82-.11,1.23-.03,.33-.06,.66-.08,.99-.01,.21-.12,.36-.3,.44-.16,.07-.32,.05-.47-.06-.11-.08-.18-.19-.17-.33,0-.24,.02-.49,.04-.73,.02-.3,.05-.6,.07-.89,0-.07,.01-.13,.02-.21-.11,.06-.22,.12-.32,.17-.44,.25-.88,.5-1.33,.74-.08,.04-.16,.08-.24,.11-.21,.07-.45-.03-.55-.23-.09-.18-.05-.44,.1-.55,.13-.1,.28-.18,.42-.26,.45-.27,.9-.54,1.35-.81,.01,0,.02-.01,.04-.03-.07-.04-.14-.08-.2-.11-.38-.19-.76-.37-1.14-.55-.1-.05-.19-.1-.28-.15-.17-.1-.25-.31-.21-.49,.06-.23,.25-.37,.44-.36,.14,0,.28,.07,.41,.13,.66,.3,1.31,.62,1.97,.93,.04,.02,.08,.01,.11,0,.76-.45,1.52-.89,2.28-1.34,.11-.06,.22-.13,.34-.2-.15-.09-.28-.18-.42-.26-.73-.43-1.46-.87-2.2-1.3-.05-.03-.08-.03-.13,0-.65,.31-1.3,.62-1.95,.92-.09,.04-.19,.08-.28,.11-.32,.1-.55-.16-.58-.39-.02-.19,.04-.34,.21-.43,.29-.16,.59-.31,.89-.46,.24-.12,.49-.24,.75-.37-.11-.07-.21-.13-.3-.18-.48-.29-.96-.57-1.44-.86-.17-.1-.22-.26-.21-.44,.03-.33,.32-.51,.62-.38,.27,.12,.52,.27,.78,.41,.35,.19,.7,.39,1.06,.6,0-.1-.01-.18-.02-.27-.02-.3-.05-.59-.07-.89-.02-.25-.03-.49-.04-.74,0-.02,0-.03,0-.05,.06-.2,.3-.35,.53-.33,.2,.02,.38,.2,.4,.42,.04,.43,.08,.86,.12,1.3,.03,.33,.05,.66,.08,.99,0,.09,.02,.16,.12,.21,.86,.48,1.71,.96,2.56,1.44,.01,0,.02,.01,.05,.02,0-.07,.01-.14,.01-.21,0-.56,0-1.11,.01-1.67,0-.4,0-.79,0-1.19,0-.06-.02-.1-.07-.13-.65-.45-1.3-.91-1.94-1.36-.16-.11-.19-.28-.17-.45,.03-.19,.15-.31,.33-.36,.15-.04,.28-.02,.41,.07,.46,.32,.92,.63,1.38,.95,.02,.01,.03,.02,.08,.05,0-.22,0-.42,0-.62,0-.4,0-.81,.02-1.21,0-.09,0-.18,.02-.27,.03-.19,.17-.29,.33-.37h.19c.11,.02,.21,.07,.29,.15,.07,.07,.1,.15,.1,.25,.01,.57,.02,1.13,.03,1.7,0,.12,0,.23,0,.37,.14-.1,.26-.18,.39-.26,.38-.25,.75-.51,1.13-.75,.18-.12,.39-.09,.55,.05,.15,.14,.2,.38,.1,.56-.03,.06-.09,.11-.15,.16-.53,.38-1.07,.76-1.6,1.13-.12,.08-.23,.16-.35,.24-.02,.02-.04,.05-.04,.07,0,.99,0,1.98,0,2.97,0,.04,0,.09,.01,.14,.17-.09,.33-.18,.49-.27,.64-.36,1.28-.73,1.92-1.09,.05-.03,.09-.06,.14-.08,.14-.05,.18-.16,.19-.3,.04-.43,.07-.87,.11-1.3,.03-.33,.05-.67,.1-1,.03-.19,.18-.29,.35-.35,.28-.09,.58,.15,.57,.43,0,.3-.04,.6-.06,.9-.02,.3-.04,.59-.06,.91,.09-.05,.17-.09,.25-.13,.48-.27,.95-.53,1.43-.8,.14-.08,.29-.13,.45-.08,.19,.07,.3,.2,.32,.4,.02,.18-.04,.33-.2,.43-.5,.3-.99,.6-1.49,.9-.08,.05-.16,.1-.26,.16,.15,.07,.29,.14,.43,.21,.38,.19,.77,.38,1.15,.57,.12,.06,.23,.13,.25,.28,.03,.24,.01,.43-.27,.57-.14,.07-.28,.02-.41-.04-.52-.23-1.04-.48-1.56-.71-.18-.08-.36-.16-.53-.25-.06-.03-.11-.02-.17,0-.64,.38-1.29,.76-1.93,1.13-.2,.12-.39,.24-.59,.35-.02,.01-.05,.03-.08,.05,.21,.13,.42,.25,.62,.37,.64,.38,1.27,.75,1.91,1.13,.1,.06,.18,.07,.3,.02,.69-.33,1.37-.64,2.06-.96,.27-.12,.57,.02,.65,.31,.05,.19-.02,.4-.19,.49-.33,.18-.67,.34-1.01,.51-.19,.09-.38,.18-.56,.27-.02,0-.04,.02-.07,.04,.12,.07,.22,.14,.33,.2,.44,.26,.89,.52,1.33,.79,.12,.07,.25,.15,.28,.31,.04,.17,.02,.32-.09,.46-.12,.16-.42,.18-.59,.1-.25-.13-.5-.27-.75-.41-.33-.18-.66-.37-.99-.56,0,0-.02,0-.03-.01,.01,.16,.02,.31,.03,.47,.02,.23,.04,.46,.06,.7,.01,.21,.03,.43,.03,.64,0,.25-.22,.46-.47,.45-.26-.01-.43-.2-.46-.48-.03-.38-.07-.76-.11-1.14-.03-.31-.05-.62-.08-.93,0-.08-.02-.16-.03-.24,0-.07-.06-.09-.11-.12-.46-.26-.92-.53-1.38-.79-.37-.21-.75-.42-1.13-.63-.03-.02-.05-.03-.09-.05,0,.08-.01,.16-.01,.23,0,.72,0,1.44,0,2.16,0,.22,0,.44,0,.67,0,.05,.02,.08,.06,.11,.63,.44,1.26,.88,1.9,1.32,.28,.2,.31,.56,.06,.77-.15,.12-.37,.14-.54,.04-.44-.29-.87-.59-1.31-.88-.05-.04-.11-.07-.18-.11,0,.21-.01,.4-.02,.59,0,.42,0,.83-.02,1.25,0,.11,0,.22-.02,.33-.02,.15-.16,.28-.31,.31-.01,0-.02,0-.04,.01h-.2Z" style="fill:#fff;"/><g><path d="M5.72,20.46c-1.13,0-2.26,0-3.39,0-.15,0-.26-.14-.26-.34,0,0,0,0,0,0-.02-.35,.11-.47,.36-.47,2.03,0,4.07,0,6.1,0,.19,0,.38,0,.57,0,.19,0,.29,.13,.29,.38,0,.04,0,.08,0,.11,0,.18-.11,.32-.25,.32-1.03,0-2.06,0-3.09,0-.11,0-.21,0-.32,0,0,0,0,0,0,0Z" style="fill:#fff;"/><path d="M6.9,22.81c-.85,0-1.69,0-2.54,0-.21,0-.32-.13-.33-.35,0-.04,0-.08,0-.11,0-.21,.12-.34,.32-.34,.94,0,1.88,0,2.81,0,.75,0,1.49,0,2.24,0,.22,0,.38,.16,.36,.38,0,.03,0,.06,0,.09,0,.21-.12,.34-.32,.34-.85,0-1.7,0-2.55,0Z" style="fill:#fff;"/><path d="M6.9,18.21c-.85,0-1.69,0-2.54,0-.21,0-.32-.13-.33-.35,0-.04,0-.08,0-.11,0-.21,.12-.34,.32-.34,.94,0,1.88,0,2.81,0,.75,0,1.49,0,2.24,0,.22,0,.38,.16,.36,.38,0,.03,0,.06,0,.09,0,.21-.12,.34-.32,.34-.85,0-1.7,0-2.55,0Z" style="fill:#fff;"/><path d="M8.47,15.89c-.67,0-1.34,0-2,0-.16,0-.26-.13-.26-.35,0-.04,0-.08,0-.11,0-.21,.1-.34,.25-.34,.74,0,1.48,0,2.22,0,.59,0,1.18,0,1.77,0,.18,0,.3,.16,.28,.38,0,.03,0,.06,0,.09,0,.21-.1,.34-.25,.34-.67,0-1.34,0-2.01,0Z" style="fill:#fff;"/><path d="M8.47,25.11c-.67,0-1.34,0-2,0-.16,0-.26-.13-.26-.35,0-.04,0-.08,0-.11,0-.21,.1-.34,.25-.34,.74,0,1.48,0,2.22,0,.59,0,1.18,0,1.77,0,.18,0,.3,.16,.28,.38,0,.03,0,.06,0,.09,0,.21-.1,.34-.25,.34-.67,0-1.34,0-2.01,0Z" style="fill:#fff;"/></g></g></g></g></svg>