<?xml version="1.0" encoding="UTF-8"?><svg id="uuid-d2a16477-a197-4539-bbdf-97a7ba7295be" xmlns="http://www.w3.org/2000/svg" viewBox="0 0 37.98 37.98"><g id="uuid-aae042f2-7f61-4ca3-ac59-5d559595a265"><g><circle cx="18.99" cy="18.99" r="18.99" style="fill:#ea0029;"/><g><path d="M15.35,29.27c.12-.04,.24-.08,.37-.12-2.01-.42-3.88-1.38-5.41-2.77,.65-.59,1.37-1.11,2.14-1.54,.96,2.16,2.28,3.52,3.28,4.31,.28-.1,.58-.2,.87-.32,.03-.09,.06-.18,.09-.28-1.04-.75-2.34-2.04-3.28-4.19,1.32-.59,2.73-.92,4.17-.99v3.02c.29-.57,.64-1.16,1.06-1.77v-1.25c.31,.01,.61,.04,.91,.08,.27-.31,.56-.63,.88-.94-.59-.11-1.19-.18-1.8-.2v-3.97h5.4c-.01,.56-.05,1.11-.11,1.65,.37-.19,.75-.36,1.12-.5,.03-.38,.05-.76,.06-1.15h4.58c0,.05,0,.1,0,.15,.3-.02,.59-.02,.86-.02,.07,0,.14,0,.21,0,.01-.22,.02-.44,.02-.66,0-3.2-1.2-6.25-3.39-8.6-.22-.24-.45-.47-.69-.69-2.22-2.05-5.09-3.24-8.1-3.35-.13,0-.26,0-.39-.01-.01,0-.03,0-.04,0-.03,0-.07,0-.1,0-.01,0-.03,0-.04,0-.13,0-.26,0-.39,.01-3.01,.11-5.88,1.31-8.1,3.35-.23,.22-.47,.45-.69,.69-2.18,2.35-3.39,5.41-3.39,8.6s1.2,6.25,3.39,8.6c.22,.24,.45,.47,.69,.69,1.37,1.27,3,2.21,4.76,2.77,.31-.27,.67-.47,1.07-.6Zm14.33-11.99h-4.59c-.05-2.01-.37-3.86-.96-5.48,.91-.49,1.76-1.1,2.52-1.81,1.83,2,2.91,4.59,3.03,7.29Zm-3.78-8.04c-.66,.6-1.4,1.13-2.18,1.57-.99-2.17-2.34-3.56-3.35-4.36,2.06,.41,3.97,1.37,5.53,2.8Zm-7.26-2.69c1.03,.61,2.87,2.01,4.11,4.74-1.3,.57-2.69,.9-4.11,.96V6.55Zm0,6.76c1.57-.07,3.08-.41,4.52-1.04,.54,1.49,.83,3.18,.88,5.01h-5.4v-3.97Zm-1.06,9c-1.58,.07-3.12,.42-4.56,1.06-.51-1.49-.79-3.18-.84-5.03h5.4v3.97Zm0-5.03h-5.4c.05-1.84,.34-3.52,.87-5.01,1.43,.63,2.96,.98,4.53,1.05v3.97Zm0-5.03c-1.43-.06-2.82-.39-4.13-.97,1.25-2.75,3.09-4.14,4.13-4.74v5.71Zm-1.73-5.8c-1.01,.81-2.36,2.19-3.35,4.36-.78-.44-1.51-.96-2.18-1.57,1.56-1.42,3.47-2.39,5.53-2.8Zm-6.28,3.55c.77,.7,1.62,1.31,2.52,1.8-.59,1.63-.92,3.47-.96,5.48H6.53c.12-2.7,1.2-5.29,3.03-7.29Zm-3.03,8.35h4.58c.05,2.02,.36,3.87,.94,5.5-.89,.49-1.73,1.09-2.49,1.79-1.83-2-2.91-4.59-3.03-7.29Z" style="fill:#fff;"/><g><path d="M22.4,32.32c-2.06,0-3.46-.54-3.51-.56l-.49-.19,.04-.53c.01-.18,.39-4.56,4.7-7.9,2.58-2,5.45-2.42,7.4-2.42,1.32,0,2.2,.19,2.23,.2l.53,.12,.03,.54c.01,.24,.27,6.02-4.75,9.02-1.92,1.14-3.99,1.72-6.17,1.72Zm-2.45-1.73c.52,.13,1.38,.3,2.45,.3,1.92,0,3.74-.51,5.43-1.52,3.44-2.05,3.97-5.73,4.05-7.14-.33-.04-.8-.08-1.35-.08-1.73,0-4.26,.37-6.52,2.12-2.95,2.29-3.82,5.14-4.06,6.32Z" style="fill:#fff;"/><path d="M16.23,32.82c-.31,0-.59-.2-.68-.5-.12-.38,.09-.78,.47-.9,5.21-1.63,10.52-5.9,10.57-5.94,.31-.25,.76-.2,1.01,.11,.25,.31,.2,.76-.11,1.01-.23,.18-5.58,4.49-11.05,6.19-.07,.02-.14,.03-.21,.03Z" style="fill:#fff;"/></g></g></g></g></svg>