<?xml version="1.0" encoding="UTF-8"?><svg id="uuid-63e29999-28f8-4b72-afdd-510be28a61cd" xmlns="http://www.w3.org/2000/svg" viewBox="0 0 37.98 37.98"><g id="uuid-c6e61296-bc7e-47f5-88ea-628c1fceba52"><g><circle cx="18.99" cy="18.99" r="18.99" style="fill:#ea0029;"/><g><g><path d="M18.93,29.39c-5.74,0-10.41-4.67-10.41-10.41s4.67-10.41,10.41-10.41,10.41,4.67,10.41,10.41-4.67,10.41-10.41,10.41Zm0-19.91c-5.24,0-9.5,4.26-9.5,9.5s4.26,9.5,9.5,9.5,9.5-4.26,9.5-9.5-4.26-9.5-9.5-9.5Z" style="fill:#fff;"/><path d="M12.77,21.03c-.11,0-.21-.04-.3-.11-1.32-1.14-1.53-1.4-1.59-1.52-.1-.11-.48-.38-.59-.43-.29-.14-1.36-1.45-1.48-2.16l.9-.15c.06,.38,.82,1.34,1.03,1.52,.17,.1,.76,.46,.94,.78,.09,.11,.47,.46,.89,.83,.05-.15,.08-.28,.08-.36-.19-.25-.55-.7-.63-.78h0c-.16-.15-.56-.73-.53-1.15,.02-.2,.12-.38,.29-.47,.28-.16,.73-.12,1.29-.05,.05,0,.1,.01,.14,.02,.15-.09,.49-.38,.55-.58,.18-.59,.9-1.31,1.64-1.65,.58-.26,.78-.32,1.05-.33,.2-.26,.45-1.01,.36-1.21-.09-.12-.44-.32-.7-.46-.47-.26-.91-.5-1.06-.89-.05-.13-.19-.51,0-2.3l.9,.1c-.14,1.23-.1,1.76-.06,1.87,.06,.09,.43,.29,.65,.41,.39,.21,.8,.44,1.01,.74,.46,.64-.13,1.82-.19,1.95-.24,.47-.48,.68-.77,.68-.21,0-.25,0-.82,.26-.58,.26-1.06,.81-1.15,1.08-.17,.54-.93,1.22-1.36,1.22-.07,0-.15-.01-.31-.03-.09-.01-.26-.03-.42-.05,.04,.06,.07,.12,.1,.15,.2,.19,.73,.9,.8,.99,.09,.12,.31,.44-.26,1.78-.06,.13-.17,.23-.32,.26-.03,0-.07,.01-.1,.01Zm-1.06-2.01s0,0,0,0c0,0,0,0,0,0Zm-1.01-.87s.01,0,.04,.02c0,0-.02-.01-.04-.02Zm1.92-.19s.02,.01,.03,.02c-.01-.01-.02-.02-.03-.02Z" style="fill:#fff;"/><path d="M19.42,13.99c-.11,0-.25-.03-.41-.11-.3-.14-.8-.52-.8-1.04,0-.31,0-.92-.03-1.19-.17-.17-.33-.39-.3-.84,.01-.19,.11-.37,.26-.5,.45-.38,1.47-.32,1.88-.27h0c.21,.01,1.04,.08,1.34,.27,.2,.13,.34,.36,.49,.6,.06,.1,.13,.2,.2,.3,.14,.19,.18,.44,.11,.69-.11,.38-.47,.73-.74,.84-.12,.05-.29,.08-.51,.13-.23,.05-.59,.12-.73,.2-.05,.03-.12,.22-.15,.31-.06,.17-.13,.36-.28,.48-.08,.06-.2,.12-.36,.12Zm-.3-1.16s.07,.09,.12,.13c.09-.23,.23-.53,.53-.69,.26-.14,.64-.22,.98-.29,.13-.03,.3-.06,.35-.08,.05-.03,.15-.14,.19-.21-.07-.1-.13-.2-.19-.29-.07-.1-.16-.26-.21-.31-.17-.06-.74-.13-.9-.13h-.05c-.44-.05-.93-.03-1.14,.03,0,0,0,0,0,0,0,0,.01,.01,.02,.02,.08,.07,.23,.21,.26,.47,.04,.27,.04,.81,.04,1.35Z" style="fill:#fff;"/><path d="M16.26,27.96s-.09,0-.13-.02c-1.19-.35-1.34-.69-1.39-.8-.02-.03-.13-.13-.2-.2-.25-.24-.56-.53-.59-.93-.02-.22-.2-.87-.33-1.26,0-.02-.01-.04-.01-.05-.04-.22-.13-.48-.18-.58-.25-.13-.87-.49-1.02-.93-.13-.39-.04-1.75,.67-2.02,.05-.02,.12-.06,.19-.1,.32-.2,.92-.56,1.77,0,.36,.24,.46,.19,.6,.11,.09-.05,.2-.11,.34-.13,.52-.07,.69,.36,.76,.54,.02,.05,.04,.11,.08,.18,.04,.09,.06,.16,.08,.23,.01,0,.03,0,.04,0,.62,0,1.53,.1,2.04,.37,.58,.31,.5,1.29,.41,1.84,0,.04-.02,.08-.04,.12-.05,.1-.48,.96-1.25,1.22-.44,.15-.56,.27-.56,.32,0,.38-.29,.64-.49,.82-.02,.02-.04,.04-.07,.06-.02,.16-.09,.43-.29,.92-.07,.17-.24,.28-.42,.28Zm-.71-1.24c.07,.05,.24,.13,.44,.21,.04-.12,.07-.21,.08-.26-.03-.3,.2-.5,.37-.65,.05-.05,.15-.13,.18-.18,.03-.76,.87-1.04,1.18-1.14,.32-.11,.59-.52,.69-.7,.05-.33,.05-.71,0-.84-.31-.14-.96-.24-1.57-.24-.29,0-.89,0-.93-.67,0-.05,0-.07-.01-.08-.02-.04-.04-.08-.05-.12-.34,.15-.77,.2-1.41-.22-.36-.24-.51-.16-.79,.01-.1,.06-.19,.12-.3,.16-.11,.14-.2,.68-.17,.89,.06,.09,.34,.3,.61,.44,.35,.17,.53,.72,.61,1.16,.07,.22,.33,1.05,.36,1.44,.02,.07,.21,.25,.31,.34,.15,.14,.3,.28,.38,.44Zm1.42-.16s0,0,0,0c0,0,0,0,0,0Z" style="fill:#fff;"/><path d="M26.05,26.09c-.12-.07-.5-.32-.56-.7-.03-.2,.03-.4,.17-.55,.07-.08,.1-.28,.12-.42,.01-.1,.03-.2,.06-.29,.04-.13,.12-.25,.26-.45,.07-.1,.2-.29,.22-.36,.03-.13,.16-.58,.27-.94-.09,.03-.2,.06-.32,.06-.04,0-.16,.07-.24,.11-.28,.16-.76,.42-1.3,.11-.71-.4-1.23-.73-1.45-1.09-.06-.1-.24-.4-.24-2.15,0-.4,.81-1.46,1.08-1.7,.39-.36,1.4-.76,1.79-.76,.03,0,.13-.02,.19-.04,.27-.07,.84-.21,1.11,.27,.08,.15,.14,.22,.17,.25,.03,0,.06-.02,.09-.03,.15-.06,.35-.13,.6-.13,.5,0,1.11,.26,1.27,.75l-.86,.29s.01,.02,.01,.02c-.04-.05-.24-.15-.42-.15-.08,0-.17,.03-.27,.07-.15,.06-.33,.13-.55,.1-.38-.06-.61-.36-.75-.59-.05,.01-.12,.03-.16,.04-.13,.03-.27,.07-.41,.07-.18,.01-.94,.3-1.17,.52-.23,.21-.68,.88-.78,1.09,0,.88,.06,1.5,.12,1.63,.05,.09,.29,.3,1.1,.75,.09,.05,.16,.03,.42-.12,.18-.1,.37-.21,.61-.22,.05-.11,.15-.29,.38-.36,.45-.14,.81,.3,.98,.57l.11,.17-.06,.2c-.1,.34-.37,1.26-.42,1.44-.05,.21-.2,.43-.34,.64-.05,.08-.13,.2-.15,.24,0,.02,0,.07-.02,.12-.03,.2-.07,.48-.22,.74,.02,.01,.04,.03,.05,.04l-.46,.78Zm-2.12-6.58h0s0,0,0,0Z" style="fill:#fff;"/></g><path d="M18.99,33.66c-8.09,0-14.67-6.58-14.67-14.67S10.9,4.32,18.99,4.32s14.67,6.58,14.67,14.67-6.58,14.67-14.67,14.67Zm0-28.43c-7.59,0-13.76,6.17-13.76,13.76s6.17,13.76,13.76,13.76,13.76-6.17,13.76-13.76-6.17-13.76-13.76-13.76Z" style="fill:#fff;"/></g></g></g></svg>