<?xml version="1.0" encoding="UTF-8"?>
<svg id="Capa_2" data-name="Capa 2" xmlns="http://www.w3.org/2000/svg" viewBox="0 0 34.87 34.87">
  <defs>
    <style>
      .cls-1 {
        fill: #ea0029;
      }

      .cls-2 {
        fill: #fff;
        fill-rule: evenodd;
      }
    </style>
  </defs>
  <g id="Layer_1" data-name="Layer 1">
    <g>
      <path class="cls-1" d="m34.87,17.44c0,9.63-7.81,17.44-17.44,17.44S0,27.07,0,17.44,7.81,0,17.44,0s17.44,7.81,17.44,17.44Z"/>
      <path class="cls-2" d="m13.04,9.73l-1.74.69-1.48,1.6,1.74-.69,1.48-1.6Zm2.39,0l.46.69-1.48,1.6-.46-.69,1.48-1.6Zm-2.29,0l.46.69,1.74-.69-1.48,1.6-1.74.69-.46-.69,1.48-1.6Zm4.47,12.52l-1.56.62-1.32,1.43,1.55-.62,1.32-1.43Zm2.13,0l.41.62-1.32,1.43-.41-.62,1.32-1.43Zm-2.05,0l.41.62,1.55-.62-1.32,1.43-1.55.62-.41-.62,1.32-1.43Zm-8.05-.29h.5v2.95h-.5v-2.95Zm12.03-7.4c-.14,0-.23.02-.27.06-.04.04-.06.14-.06.29v.22s0,.2,0,.2c0,.17.02.27.06.31.04.04.14.06.3.06s.27-.03.3-.08c.03-.06.05-.22.05-.5s-.02-.44-.05-.49c-.03-.05-.14-.07-.33-.07Zm.02-.27c.3,0,.49.04.56.13.07.09.11.32.11.7s-.04.61-.11.7c-.07.09-.26.13-.56.13s-.49-.04-.56-.13c-.07-.09-.11-.32-.11-.7s.04-.61.11-.7c.07-.09.26-.13.56-.13Zm-2.16.27c-.14,0-.24.02-.27.06-.04.04-.06.14-.06.29v.22s0,.2,0,.2c0,.17.02.27.06.31.04.04.14.06.3.06s.27-.03.3-.08c.03-.06.05-.22.05-.5s-.02-.44-.05-.49c-.03-.05-.14-.07-.33-.07Zm.02-.27c.3,0,.49.04.56.13.07.09.11.32.11.7s-.04.61-.11.7c-.07.09-.26.13-.56.13s-.49-.04-.56-.13c-.07-.09-.11-.32-.11-.7s.04-.61.11-.7c.07-.09.26-.13.56-.13Zm-2.16.27c-.14,0-.23.02-.27.06-.04.04-.06.14-.06.29v.22s0,.2,0,.2c0,.17.02.27.06.31.04.04.14.06.3.06s.27-.03.3-.08c.03-.06.05-.22.05-.5s-.02-.44-.05-.49c-.03-.05-.14-.07-.33-.07Zm.02-.27c.3,0,.49.04.56.13.07.09.11.32.11.7s-.04.61-.11.7c-.07.09-.26.13-.56.13s-.49-.04-.56-.13c-.07-.09-.11-.32-.11-.7s.04-.61.11-.7c.07-.09.26-.13.56-.13Zm-2.16.27c-.14,0-.23.02-.27.06-.04.04-.06.14-.06.29v.22s0,.2,0,.2c0,.17.02.27.06.31.04.04.14.06.3.06s.27-.03.3-.08c.03-.06.05-.22.05-.5s-.02-.44-.05-.49c-.03-.05-.14-.07-.33-.07Zm.02-.27c.3,0,.49.04.56.13.07.09.11.32.11.7s-.04.61-.11.7c-.07.09-.26.13-.56.13s-.49-.04-.56-.13c-.07-.09-.11-.32-.11-.7s.04-.61.11-.7c.07-.09.26-.13.56-.13Zm-2.16.27c-.14,0-.23.02-.27.06-.04.04-.06.14-.06.29v.22s0,.2,0,.2c0,.17.02.27.06.31.04.04.14.06.3.06s.27-.03.3-.08c.03-.06.05-.22.05-.5s-.02-.44-.05-.49c-.03-.05-.14-.07-.33-.07Zm.02-.27c.3,0,.49.04.56.13.07.09.11.32.11.7s-.04.61-.11.7c-.07.09-.26.13-.56.13s-.49-.04-.56-.13c-.07-.09-.11-.32-.11-.7s.04-.61.11-.7c.07-.09.26-.13.56-.13Zm4.26-11.06c7.84,0,14.2,6.36,14.2,14.2s-6.36,14.2-14.2,14.2S3.24,25.28,3.24,17.44,9.6,3.24,17.44,3.24Zm8.52,4.83c2.26,2.14,3.25,5,4,8.11.25,1.04.2,3.72-1.3,3.72l-22.23-.05c-1.65,0-1.66-1.18-1.66-2.41,0-3.9,1.76-7.39,4.53-9.72,2.12-1.78,14.35-1.85,16.66.35Zm-5.12,10.68h-.09s0,0,0,0c0-.03,0-.05-.02-.05,0,0-.03,0-.07,0-.04,0-.07,0-.09.01-.01,0-.02.03-.02.05,0,.03,0,.05.02.05.01,0,.05.01.11.01.07,0,.12.01.14.03.02.02.03.05.03.1,0,.06-.01.11-.04.12-.03.02-.08.03-.17.03-.08,0-.13,0-.15-.03-.03-.02-.04-.06-.04-.11v-.02s.09,0,.09,0h0s0,.06.02.07c.01,0,.04.01.1.01.04,0,.07,0,.08-.01.01,0,.02-.03.02-.06,0-.02,0-.04-.01-.05,0,0-.03-.01-.06-.01h-.05c-.08,0-.13-.02-.15-.03-.02-.02-.03-.05-.03-.11s.01-.09.04-.11c.03-.02.08-.03.15-.03s.12,0,.15.03c.02.02.04.05.04.1v.02Zm-.82.1h.13s.05,0,.06-.02c.01-.01.02-.03.02-.07s0-.06-.01-.07c0-.01-.03-.02-.06-.02h-.14v.17Zm-.09.24v-.49h.24c.06,0,.1,0,.12.03.02.02.03.06.03.11,0,.05,0,.08-.02.1-.01.02-.03.03-.07.04h0c.05,0,.08.04.08.1v.11h-.09v-.09s-.02-.07-.07-.07h-.13v.16h-.09Zm-.26-.49h.09v.32c0,.07-.01.11-.04.14-.03.02-.08.03-.16.03-.08,0-.14-.01-.17-.03-.03-.02-.04-.06-.04-.13v-.33h.09v.33s0,.06.02.07c.01.01.04.01.09.01s.08,0,.09-.01c.01-.01.02-.03.02-.07v-.33Zm-.68.07c-.06,0-.1,0-.11.02,0,.02-.02.07-.02.17,0,.07,0,.11.02.13.01.01.05.02.11.02.06,0,.09,0,.1-.02.01-.02.02-.06.02-.15s0-.13-.02-.14c-.01-.02-.05-.02-.11-.02Zm0-.08c.09,0,.15.01.17.04.03.03.04.1.04.2,0,.11-.01.18-.04.21-.03.03-.09.04-.19.04-.09,0-.15-.01-.17-.04-.03-.03-.04-.09-.04-.19,0-.12.01-.19.04-.22.03-.03.09-.04.19-.04Zm-.37,0v.49h-.09v-.21h-.23v.21h-.09v-.49h.09v.2h.23v-.2h.09Zm-.69.08v.41h-.09v-.41h-.14v-.08h.38v.08h-.15Zm-.47,0v.41h-.09v-.41h-.14v-.08h.38v.08h-.15Zm-.47.24l-.08-.25-.08.25h.17Zm.02.07h-.21l-.03.09h-.1l.16-.49h.14l.16.49h-.1l-.03-.09Zm-.42-.39l-.13.49h-.14l-.07-.25s-.01-.05-.02-.09v-.03h0v.03s-.01.03-.01.03c0,.02-.01.04-.02.06l-.07.25h-.13l-.13-.49h.09l.07.27s.01.04.02.07v.04s.02.04.02.04h0s0-.03,0-.04v-.04s.02-.04.03-.07l.07-.27h.11l.07.27s.01.05.02.07v.04s.02.04.02.04h0v-.04s.01-.04.01-.04c0-.03.01-.05.02-.07l.07-.27h.1Zm-1.05.07c-.06,0-.1,0-.11.02-.01.02-.02.07-.02.17,0,.07,0,.11.02.13.01.01.05.02.11.02.06,0,.09,0,.1-.02.01-.02.02-.06.02-.15s0-.13-.02-.14c-.01-.02-.05-.02-.11-.02Zm0-.08c.09,0,.15.01.17.04.02.03.04.1.04.2,0,.11-.01.18-.04.21-.03.03-.09.04-.19.04-.09,0-.15-.01-.17-.04-.03-.03-.04-.09-.04-.19,0-.12.01-.19.04-.22.03-.03.09-.04.19-.04Zm-.56,0v.4h.23v.08h-.32v-.49h.09Zm-.26,0v.49h-.09v-.49h.09Zm-.56,0v.2h.04l.16-.2h.11l-.2.24.22.25h-.12l-.18-.21h-.05v.21h-.09v-.49h.09Zm13.78-5.74c-.28.12-.62.02-.78-.26-.16-.28-.08-.62.17-.81l.62,1.07Zm-.49-1.14c.28-.12.62-.02.78.26.16.28.08.62-.17.81l-.62-1.07Zm-15.73,2h11.43v2.81h-11.43v-2.81Zm5.96,14.31c-.29.12-.62.02-.78-.26-.16-.28-.08-.62.17-.81l.62,1.07Zm-.49-1.14c.28-.12.62-.02.78.26.16.28.08.62-.17.81l-.62-1.07Zm6.04-5.62c-.06,0-.1,0-.11.02-.01.02-.02.07-.02.17,0,.07,0,.11.02.13.01.01.05.02.11.02s.09,0,.1-.02c.01-.02.02-.06.02-.15s0-.13-.02-.14c-.01-.01-.05-.02-.11-.02Zm0-.08c.09,0,.15.01.17.04.02.03.04.1.04.2,0,.11-.01.18-.04.21-.02.03-.09.04-.19.04-.09,0-.15-.01-.17-.04-.02-.03-.04-.09-.04-.19,0-.12.01-.19.04-.22.03-.03.09-.04.19-.04Zm-.44.32h.09v.02c0,.07-.01.11-.04.13-.02.02-.08.03-.16.03-.1,0-.16-.02-.18-.05-.02-.03-.03-.11-.03-.25,0-.08.01-.13.05-.16.03-.02.09-.04.19-.04.07,0,.12.01.14.03.02.02.03.06.03.12h0s-.09.01-.09.01h0s0-.07-.02-.07c-.01,0-.04-.01-.08-.01-.06,0-.09,0-.1.02-.01.01-.02.05-.02.13,0,.09,0,.15.02.17,0,.02.04.03.1.03.05,0,.08,0,.09-.01.01,0,.02-.03.02-.06v-.02Zm-.47-.31v.49h-.09v-.49h.09Zm-.37.08v.4h-.09v-.4h-.14v-.08h.38v.08h-.15Zm-.59,0v.13h.23v.07h-.23v.14h.24v.08h-.33v-.49h.33v.08h-.24Zm-.45.15h.21v.1c0,.07-.01.12-.04.14-.03.02-.09.03-.18.03-.08,0-.14-.01-.17-.04-.03-.03-.04-.08-.04-.17,0-.11,0-.17.02-.2.01-.03.03-.06.06-.07.03-.01.07-.02.14-.02.09,0,.14,0,.17.03.03.02.04.06.04.12h-.09s0-.05-.02-.06c-.01,0-.04-.01-.09-.01-.05,0-.09,0-.1.02-.01.01-.02.04-.02.09v.11s0,.08.02.09c.01.01.05.02.1.02s.08,0,.1-.02c.01-.01.02-.04.02-.08v-.02h-.12v-.07Zm-.65.02h.13s.05,0,.06-.02c.01-.01.02-.03.02-.07s0-.06-.01-.07c0-.01-.03-.02-.06-.02h-.14v.17Zm-.09.24v-.49h.24c.06,0,.1.01.12.03.02.02.03.06.03.11,0,.05,0,.08-.02.1-.01.02-.03.03-.07.04h0c.05,0,.08.04.08.1v.11h-.09v-.09s-.02-.07-.07-.07h-.13v.16h-.09Zm-.4-.41v.13h.23v.07h-.23v.14h.24v.08h-.34v-.49h.33v.08h-.24Zm-.25-.08v.49h-.16l-.14-.27s-.02-.04-.03-.07l-.02-.03v-.03h-.02v.03s0,.03,0,.03v.06s0,.28,0,.28h-.09v-.49h.16l.13.25s.02.05.04.08l.02.04.02.04h0v-.03s0-.03,0-.03v-.06s0-.28,0-.28h.09Zm-.85.08v.13h.23v.07h-.23v.14h.24v.08h-.34v-.49h.33v.08h-.24Zm-.63,0c-.06,0-.1,0-.11.02,0,.02-.02.07-.02.17,0,.07,0,.11.02.13.01.01.05.02.11.02.06,0,.09,0,.1-.02.01-.02.02-.06.02-.15s0-.13-.02-.14c-.01-.01-.05-.02-.11-.02Zm0-.08c.09,0,.15.01.17.04.03.03.04.1.04.2,0,.11-.01.18-.04.21-.02.03-.09.04-.19.04-.09,0-.15-.01-.17-.04-.03-.03-.04-.09-.04-.19,0-.12.01-.19.04-.22.03-.03.09-.04.19-.04Zm-.67.25h.13s.05,0,.06-.02c.01-.01.02-.03.02-.07s0-.06-.01-.07c0-.01-.03-.02-.06-.02h-.14v.17Zm-.09.24v-.49h.24c.06,0,.1.01.12.03.02.02.03.06.03.11,0,.05,0,.08-.02.1-.01.02-.03.03-.07.04h0c.05,0,.08.04.08.1v.11h-.09v-.09s-.02-.07-.07-.07h-.13v.16h-.09Zm-.46-.24h.13s.05,0,.06-.02c.01-.01.02-.03.02-.07s0-.06-.01-.07c0-.01-.03-.02-.06-.02h-.14v.17Zm-.09.24v-.49h.24c.06,0,.1.01.12.03.02.02.03.06.03.11,0,.05,0,.08-.02.1-.01.02-.03.03-.07.04h0c.05,0,.08.04.08.1v.11h-.09v-.09s-.02-.07-.07-.07h-.13v.16h-.09Zm-.36-.41c-.06,0-.1,0-.11.02-.01.02-.02.07-.02.17,0,.07,0,.11.02.13.01.01.05.02.11.02s.09,0,.1-.02c.01-.02.02-.06.02-.15s0-.13-.02-.14c-.01-.01-.05-.02-.11-.02Zm0-.08c.09,0,.15.01.17.04.03.03.04.1.04.2,0,.11-.01.18-.04.21-.03.03-.09.04-.19.04-.09,0-.15-.01-.17-.04-.03-.03-.04-.09-.04-.19,0-.12.01-.19.04-.22.03-.03.09-.04.19-.04Zm-.37,0v.49h-.09v-.21h-.23v.21h-.09v-.49h.09v.2h.23v-.2h.09Zm-.69.32l-.08-.25-.08.25h.17Zm.02.07h-.21l-.03.09h-.1l.16-.49h.14l.16.49h-.1l-.03-.09Zm-.84-.32c-.06,0-.1,0-.11.02-.01.02-.02.07-.02.17,0,.07,0,.11.02.13.01.01.05.02.11.02s.09,0,.1-.02c.01-.02.02-.06.02-.15s0-.13-.02-.14c-.01-.01-.05-.02-.11-.02Zm0-.08c.09,0,.15.01.17.04.03.03.04.1.04.2,0,.11-.01.18-.04.21-.03.03-.09.04-.19.04-.09,0-.15-.01-.17-.04-.03-.03-.04-.09-.04-.19,0-.12.01-.19.04-.22.03-.03.09-.04.19-.04Zm-.37,0v.49h-.09v-.27s0-.04,0-.07v-.04s0-.04,0-.04h0v.03s-.02.03-.02.03c-.01.03-.02.05-.02.07l-.11.27h-.09l-.11-.27s-.01-.04-.02-.07v-.03s-.02-.03-.02-.03h0v.04s0,.04,0,.04c0,.03,0,.05,0,.07v.27h-.09v-.49h.15l.09.23s.01.04.02.07v.03s.02.03.02.03h0v-.03s.02-.03.02-.03c0-.03.02-.05.02-.07l.09-.23h.15Zm-.74,0v.49h-.09v-.49h.09Zm-.23,0l-.15.24.16.25h-.11l-.07-.12s-.02-.04-.03-.05v-.02s-.02-.02-.02-.02h0v.02s-.04.05-.05.07l-.07.12h-.11l.16-.25-.15-.24h.11l.06.11s.02.03.03.05v.02s.02.02.02.02h0s0-.01,0-.02v-.02s.03-.03.04-.05l.07-.11h.11Zm-.69.32l-.08-.25-.08.25h.17Zm.02.07h-.21l-.03.09h-.1l.16-.49h.14l.16.49h-.1l-.03-.09Zm-.47-.39v.49h-.09v-.27s0-.04,0-.07v-.04s0-.04,0-.04h0v.03s-.02.03-.02.03c0,.03-.02.05-.02.07l-.11.27h-.08l-.11-.27s-.01-.04-.02-.07v-.03s-.02-.03-.02-.03h0v.04s0,.04,0,.04c0,.03,0,.05,0,.07v.27h-.09v-.49h.15l.09.23s.01.04.02.07v.03s.02.03.02.03h0v-.03s.02-.03.02-.03c0-.03.02-.05.02-.07l.09-.23h.15Zm-4.05-1.02h18.81v.32H7.99v-.32Zm3.37,5.09h12.14v.78h-12.14v-.78Zm17.78-2.97c-1.4,3.36-4.2,5.99-7.68,7.15-1.68-.07-5.88-.21-8.19-.04-3.47-1.21-6.26-3.88-7.61-7.28-.26-.64-.15-1.34.76-1.34l21.59.05c1.14,0,1.54.49,1.14,1.45ZM7.22,12.87c-.29.12-.62.02-.78-.26-.16-.28-.08-.62.17-.81l.62,1.07Zm-.49-1.14c.28-.12.62-.02.78.26.16.28.08.62-.17.81l-.62-1.07Zm14.12-.69c-.07.01-.16.03-.3.04-.13.02-.23.03-.28.05-.08.03-.14.06-.17.1-.04.04-.04.07-.02.1.02.03.06.04.13.04.08,0,.17-.02.27-.05.07-.03.14-.06.18-.1.03-.02.08-.07.14-.14l.05-.06Zm-.38-.23c-.2-.07-.47-.14-.68-.07-.06.02-.13.06-.2.12-.07.06-.19.18-.35.36l-.29.33h-.43l.93-1.08h.4l-.13.15c.13-.07.23-.12.31-.14.07-.02.15-.03.22-.03.1,0,.18.02.24.05l-.19.14c.08-.05.17-.08.25-.12.15-.05.33-.07.54-.07.19,0,.32.01.39.04.07.03.1.07.1.11,0,.05-.05.13-.16.26l-.29.33c-.08.09-.13.16-.16.21-.02.04-.04.09-.05.15h-.43s.02-.05.03-.08c0-.02.01-.03.01-.03-.11.05-.22.08-.33.11-.1.02-.2.04-.3.04-.17,0-.27-.03-.32-.09-.04-.06-.03-.14.05-.23.05-.06.12-.12.21-.16.09-.05.18-.08.28-.11.1-.03.23-.05.4-.07.22-.02.38-.05.48-.07l.02-.03c.05-.06.06-.09.04-.12-.02-.02-.09-.04-.2-.04-.08,0-.15.01-.21.03-.06.02-.12.05-.19.11Zm-4.17-.33h.4l-.13.15c.24-.12.46-.17.65-.17.11,0,.18.01.24.04.05.03.08.07.08.13.12-.06.23-.1.34-.13.11-.03.21-.04.3-.04.12,0,.21.02.26.05.05.03.07.08.06.14,0,.05-.06.12-.15.22l-.59.69h-.43l.53-.62c.09-.11.14-.18.13-.21,0-.04-.05-.06-.13-.06-.06,0-.13.01-.2.04-.07.02-.14.06-.21.11-.06.05-.14.12-.23.22l-.44.52h-.43l.51-.59c.09-.11.14-.17.15-.2.01-.03,0-.05-.01-.07-.02-.01-.06-.02-.11-.02-.07,0-.14.01-.21.04-.07.02-.14.06-.2.1-.06.05-.14.12-.23.22l-.45.53h-.43l.93-1.08Zm7.85.45c.07-.08.09-.15.07-.19-.02-.04-.08-.07-.17-.07-.09,0-.19.02-.29.07-.1.05-.18.11-.25.19h.64Zm-.27.29l.39.05c-.14.1-.3.18-.47.24-.17.05-.34.08-.52.08-.28,0-.44-.06-.47-.18-.02-.1.03-.22.16-.37.15-.18.34-.32.57-.42.23-.1.45-.15.67-.15.24,0,.39.05.44.16.05.11-.02.27-.22.49h-1.08c-.07.08-.09.15-.07.2.03.05.09.07.19.07.07,0,.13-.01.2-.04.07-.02.14-.06.21-.12Zm-2.07-.22c-.1.11-.14.2-.12.25.02.05.08.08.18.08.1,0,.22-.03.34-.08.12-.05.23-.13.32-.24.1-.11.13-.19.11-.25-.02-.05-.09-.08-.19-.08s-.21.03-.32.08c-.11.05-.22.13-.31.24Zm-.93.63l.46.04s-.03.06-.01.08c.02.02.08.03.17.03.11,0,.21-.01.28-.03.05-.01.1-.04.15-.07.03-.02.08-.07.13-.13l.13-.16c-.23.12-.44.18-.64.18-.22,0-.34-.06-.36-.18-.02-.1.04-.22.16-.36.16-.18.34-.32.55-.42.21-.1.42-.14.61-.14s.32.06.35.18l.13-.15h.4l-.83.97c-.11.13-.21.22-.29.29-.08.06-.17.11-.26.15-.09.04-.19.06-.3.08-.11.02-.24.03-.39.03-.28,0-.44-.03-.51-.09-.06-.06-.05-.14.03-.24,0,0,.02-.02.03-.03Zm-2.95-.07l.93-1.08h.43s-.93,1.08-.93,1.08h-.43Zm1.05-1.23l.23-.26h.43l-.23.26h-.43Zm5.88,0h.02s.03,0,.03,0c0,0,0,0,0,0,0,0,0,0,0,0,0-.01,0-.01,0-.02,0,0,0,0-.01,0,0,0-.01,0-.02,0h-.02v.04Zm-.03.09v-.16h.07s.03,0,.04,0c0,0,.01,0,.02.02,0,0,0,.02,0,.02,0,.01,0,.02-.01.03,0,0-.02.01-.03.02,0,0,.01,0,.02.01,0,0,.01.01.02.03l.02.03h-.04l-.02-.03s-.01-.02-.02-.02c0,0,0,0,0,0,0,0,0,0-.02,0h0v.07h-.03Zm.06-.2h0s-.06.01-.08.04c-.02.02-.03.05-.03.08,0,.03.01.06.03.08.02.02.05.04.08.04s.06-.01.08-.04c.02-.02.04-.05.04-.08,0-.03-.01-.06-.04-.08-.02-.02-.05-.04-.08-.04Zm0-.03h0s.08.02.11.04c.03.03.04.07.04.11s-.02.08-.04.11c-.03.03-.07.04-.11.04s-.08-.02-.11-.04c-.03-.03-.04-.07-.04-.11s.02-.08.04-.11c.03-.03.07-.04.11-.04h0Zm-.34,11.77h.5v2.95h-.5v-2.95Z"/>
    </g>
  </g>
</svg>