<?xml version="1.0" encoding="UTF-8"?>
<svg id="Capa_2" data-name="Capa 2" xmlns="http://www.w3.org/2000/svg" viewBox="0 0 34.98 34.98">
  <defs>
    <style>
      .cls-1 {
        fill: #ea0029;
      }

      .cls-2 {
        fill: #fff;
      }

      .cls-3 {
        fill: none;
        stroke: #fff;
        stroke-miterlimit: 10;
      }
    </style>
  </defs>
  <g id="Layer_1" data-name="Layer 1">
    <g>
      <path class="cls-1" d="m34.98,17.49c0,9.66-7.83,17.49-17.49,17.49S0,27.15,0,17.49,7.83,0,17.49,0s17.49,7.83,17.49,17.49Z"/>
      <g>
        <path class="cls-3" d="m7.19,13.83l-1.39,1.12c-.84.68-.36,2.04.72,2.04h1.89c.19,0,.34.15.34.34v8.61c0,.63.51,1.15,1.15,1.15h15.61c.63,0,1.15-.51,1.15-1.15v-8.61c0-.19.15-.34.34-.34h1.45c1.08,0,1.56-1.36.73-2.04l-4.3-3.5s-.06-.07-.06-.12v-4.15c0-.21-.17-.37-.37-.37h-2.01c-.21,0-.37.17-.37.37v1.72c0,.13-.15.2-.25.12l-3.62-2.93c-.42-.34-1.02-.34-1.44,0l-1.49,1.2-8.08,6.53Z"/>
        <g>
          <path class="cls-2" d="m23.55,14.81c-.89.77-1.6,1.38-3.52.29-2.53-1.43-3.72-.41-4.67.41-.22.19-.24.52-.06.74.18.22.51.25.72.06.89-.77,1.6-1.38,3.52-.29.92.52,1.66.72,2.28.72,1.08,0,1.78-.6,2.39-1.12.22-.19.24-.52.06-.74-.18-.22-.51-.25-.72-.06Z"/>
          <path class="cls-2" d="m15.29,21.48c.18.22.51.25.72.06.89-.77,1.6-1.38,3.52-.29.92.52,1.66.72,2.28.72,1.08,0,1.78-.6,2.39-1.12.22-.19.24-.52.06-.74-.18-.22-.51-.25-.72-.06-.89.77-1.6,1.38-3.52.29-2.53-1.43-3.72-.41-4.67.41-.22.19-.24.52-.06.74Z"/>
          <path class="cls-2" d="m16.02,18.93c.89-.77,1.6-1.38,3.52-.29.92.52,1.66.72,2.28.72,1.08,0,1.78-.6,2.39-1.12.22-.19.24-.52.06-.74-.18-.22-.51-.25-.72-.06-.89.77-1.6,1.38-3.52.29-2.53-1.43-3.72-.41-4.67.41-.22.19-.24.52-.06.74.18.22.51.25.72.06Z"/>
        </g>
        <g>
          <path class="cls-2" d="m13.59,17.18c0,.66,0,1.32,0,1.97,0,.14.03.24.14.35.44.45.56.99.34,1.57-.23.59-.69.91-1.32.95-.56.04-1.14-.32-1.39-.84-.26-.55-.16-1.2.26-1.63.13-.13.17-.25.17-.43,0-1.28,0-2.57,0-3.85,0-.35.08-.64.41-.81.36-.18.72-.17,1.07.04.24.15.34.38.34.66,0,.68,0,1.35,0,2.03Zm-.29.11c0-.7,0-1.39,0-2.09,0-.19-.04-.36-.21-.46-.25-.15-.51-.15-.76-.02-.22.11-.26.32-.26.55,0,1.37,0,2.73,0,4.1,0,.12-.03.19-.13.27-.3.24-.45.56-.44.94.01.56.41,1.01.97,1.13.5.1,1.04-.17,1.27-.65.24-.5.11-1.08-.33-1.43-.09-.07-.12-.14-.12-.25,0-.7,0-1.39,0-2.09Z"/>
          <path class="cls-2" d="m11.5,15.87h-.42v-.29h.42v.29Z"/>
          <path class="cls-2" d="m11.07,16.37v-.28h.42v.28h-.42Z"/>
          <path class="cls-2" d="m11.5,17.11v.28h-.42v-.28h.42Z"/>
          <path class="cls-2" d="m11.5,17.6v.28h-.42v-.28h.42Z"/>
          <path class="cls-2" d="m11.07,18.9v-.28h.43v.28h-.43Z"/>
          <path class="cls-2" d="m11.07,15.34v-.26h.42v.26h-.42Z"/>
          <path class="cls-2" d="m11.07,18.38v-.26h.42v.26h-.42Z"/>
          <path class="cls-2" d="m11.08,16.6h.42v.26h-.42v-.26Z"/>
          <path class="cls-2" d="m12.29,17.09h.8c0,.08,0,.14,0,.21,0,.75,0,1.5,0,2.25,0,.1.03.17.12.23.37.25.5.7.34,1.1-.16.4-.59.64-1.01.56-.42-.07-.75-.43-.77-.87-.01-.34.13-.62.41-.8.09-.06.12-.13.12-.23,0-.75,0-1.49,0-2.24,0-.07,0-.14,0-.22Z"/>
        </g>
      </g>
    </g>
  </g>
</svg>