<?xml version="1.0" encoding="UTF-8"?>
<svg id="Capa_2" data-name="Capa 2" xmlns="http://www.w3.org/2000/svg" viewBox="0 0 34.83 34.83">
  <defs>
    <style>
      .cls-1 {
        fill: #ea0029;
      }

      .cls-2 {
        fill: #fff;
      }
    </style>
  </defs>
  <g id="Layer_1" data-name="Layer 1">
    <g>
      <path class="cls-1" d="m34.83,17.41c0,9.62-7.8,17.42-17.42,17.42S0,27.03,0,17.41,7.8,0,17.42,0s17.42,7.8,17.42,17.41Z"/>
      <g>
        <path class="cls-2" d="m28.23,9.71c-2.12-1.3-3.98-2.25-5.69-2.89-1.74-.64-3.35-.95-4.95-.95s-3.21.31-4.96.95c-1.72.64-3.56,1.59-5.68,2.89l-.3.18.02.34c.19,4.52.68,8.53,2.2,11.95.82,1.84,1.92,3.5,3.43,4.96-.1.23-.15.49-.15.76,0,.55.22,1.05.58,1.41.36.36.86.58,1.41.58s1.05-.22,1.41-.58c.36-.36.58-.86.58-1.41s-.22-1.05-.58-1.41c-.36-.36-.86-.58-1.41-.58-.4,0-.77.11-1.08.32-1.37-1.34-2.37-2.85-3.11-4.52-1.41-3.17-1.89-6.94-2.08-11.18,1.92-1.16,3.62-2.03,5.18-2.6,1.62-.6,3.09-.88,4.55-.88s2.93.28,4.54.88c1.56.58,3.25,1.44,5.19,2.6-.2,4.24-.68,8.01-2.09,11.18-1.27,2.87-3.32,5.27-6.63,7.14-.09.05-.2.04-.28,0-.09-.05-.15-.14-.15-.24v-3.83c4.26-.54,6.16-6.76,6.63-10.51.09-.72.12-1.36.1-1.85-.01-.35-.05-1.09-.61-1.23-.52-.13-1.62-.13-2.48-.1-.21-.39-.62-.65-1.09-.65-.69,0-1.24.56-1.24,1.24s.56,1.24,1.24,1.24c.51,0,.95-.31,1.14-.75.73-.02,1.5-.02,1.95.03.18,1.14-.44,6.08-2.52,9.17-1.06,1.57-2.31,2.37-3.71,2.37s-2.65-.8-3.71-2.37c-2.08-3.08-2.7-8.03-2.52-9.17.44-.05,1.22-.05,1.95-.03.19.44.63.75,1.14.75.69,0,1.24-.56,1.24-1.24s-.56-1.24-1.24-1.24c-.47,0-.88.26-1.09.65-.86-.03-1.97-.03-2.48.1-.56.14-.59.88-.61,1.23-.02.49.02,1.13.1,1.85.46,3.75,2.38,9.99,6.65,10.51v4.61c0,.75.78,1.23,1.44.88,3.99-2.04,6.4-4.77,7.87-8.08,1.52-3.43,2.01-7.44,2.2-11.95l.02-.34-.29-.18Zm-14.92,18.25h0v-.02h0v-.02h0v-.02c0-.46.38-.82.82-.82.22,0,.43.09.58.24.15.15.24.35.24.58s-.09.43-.24.58c-.15.15-.35.24-.58.24s-.43-.09-.58-.24c-.11-.11-.19-.26-.22-.41h0v-.02h0s0,0,0,0h0v-.02h0v-.02h0v-.02h0v-.02h0s0,0,0,0h0Z"/>
        <path class="cls-2" d="m16.86,14.59c-.02-.09-.1-.16-.2-.16s-.18.07-.2.16l-.48,2.51-.24-.79c-.03-.08-.1-.14-.19-.14-.09,0-.16.05-.19.14l-.14.4h-2.46c-.11,0-.2.09-.2.2s.09.2.2.2h2.61c.07,0,.14-.04.17-.1l.3.97c.03.09.11.15.2.14.09,0,.17-.07.19-.16l.43-2.27.88,4.64c.02.09.1.16.2.16s.18-.07.2-.16l.63-3.31h3.84c.11,0,.2-.09.2-.2s-.09-.2-.2-.2h-4.01c-.1,0-.18.07-.2.16l-.46,2.44-.88-4.64Z"/>
      </g>
    </g>
  </g>
</svg>