<?xml version="1.0" encoding="UTF-8"?>
<svg id="Capa_2" data-name="Capa 2" xmlns="http://www.w3.org/2000/svg" viewBox="0 0 34.77 34.77">
  <defs>
    <style>
      .cls-1 {
        fill: #ea0029;
      }

      .cls-2 {
        fill: #fff;
      }
    </style>
  </defs>
  <g id="Layer_1" data-name="Layer 1">
    <g>
      <path class="cls-1" d="m34.77,17.39c0,9.6-7.78,17.39-17.39,17.39S0,26.99,0,17.39,7.78,0,17.39,0s17.39,7.78,17.39,17.39Z"/>
      <path class="cls-2" d="m17.22,29.39c-.08-.03-.16-.06-.23-.1-.24-.13-.3-.35-.31-.6-.02-.85-.04-1.7-.05-2.55,0-.21,0-.42,0-.67-.11.08-.2.13-.28.19-.67.45-1.34.91-2.01,1.36-.26.18-.54.18-.82.02-.36-.22-.45-.88-.06-1.15.96-.67,1.92-1.36,2.88-2.04.16-.11.23-.23.23-.42,0-1.48,0-2.96.01-4.44,0-.05,0-.1-.01-.17-.08.04-.14.06-.2.1-1.29.73-2.57,1.46-3.87,2.18-.16.09-.17.2-.19.35-.06.64-.11,1.27-.17,1.91-.04.51-.09,1.02-.13,1.53-.02.33-.19.55-.47.69-.25.12-.5.07-.73-.09-.17-.13-.28-.3-.27-.52.01-.38.04-.76.06-1.13.03-.46.07-.93.11-1.39,0-.1.02-.2.03-.33-.18.1-.34.18-.49.27-.69.39-1.37.77-2.06,1.16-.12.07-.25.13-.38.17-.32.11-.7-.05-.86-.36-.15-.28-.08-.69.16-.86.21-.15.43-.28.65-.41.7-.42,1.4-.84,2.1-1.25.02-.01.03-.02.07-.05-.11-.06-.21-.12-.31-.17-.59-.29-1.18-.57-1.77-.86-.15-.07-.29-.16-.44-.24-.27-.16-.4-.48-.32-.77.09-.35.39-.58.68-.57.21,0,.43.11.63.2,1.02.47,2.04.96,3.06,1.44.07.03.12.02.18-.01,1.18-.7,2.37-1.39,3.55-2.09.17-.1.34-.2.53-.32-.23-.14-.43-.28-.65-.41-1.14-.68-2.28-1.35-3.42-2.02-.07-.04-.13-.05-.21-.01-1.01.48-2.02.96-3.04,1.43-.14.07-.29.13-.44.18-.49.16-.85-.25-.9-.61-.04-.3.06-.53.33-.68.46-.24.92-.48,1.39-.71.38-.19.76-.37,1.17-.57-.18-.11-.32-.2-.47-.29-.75-.44-1.49-.89-2.24-1.33-.27-.16-.34-.41-.32-.69.04-.51.5-.8.97-.59.42.18.82.42,1.22.64.54.3,1.08.61,1.65.93,0-.15-.02-.29-.03-.42-.04-.46-.08-.93-.11-1.39-.03-.38-.04-.77-.06-1.15,0-.02,0-.05,0-.07.1-.31.47-.54.82-.51.32.03.59.32.62.66.06.67.13,1.35.19,2.02.05.51.08,1.02.13,1.53.01.14.04.25.19.33,1.33.74,2.66,1.49,3.98,2.24.02,0,.04.02.07.04,0-.12.02-.22.02-.32,0-.87.01-1.73.02-2.6,0-.62,0-1.23.01-1.85,0-.1-.03-.15-.11-.21-1.01-.71-2.02-1.42-3.03-2.12-.25-.18-.3-.43-.26-.7.04-.29.23-.48.52-.56.23-.06.44-.03.64.11.72.5,1.44.98,2.15,1.47.03.02.05.03.12.08,0-.35,0-.66,0-.97,0-.63.01-1.26.03-1.89,0-.14.01-.28.03-.41.04-.3.26-.45.51-.57h.29c.18.03.33.11.45.24.1.11.16.24.16.38.02.88.03,1.76.05,2.64,0,.18,0,.37,0,.58.22-.15.41-.28.6-.41.58-.39,1.17-.79,1.76-1.17.29-.19.61-.15.85.08.24.22.31.59.16.87-.05.1-.14.18-.23.24-.83.59-1.66,1.18-2.49,1.77-.18.13-.36.25-.54.38-.03.02-.06.08-.06.11,0,1.54,0,3.08.01,4.62,0,.07.01.14.02.22.27-.15.52-.29.77-.43,1-.57,1.99-1.13,2.99-1.7.07-.04.14-.09.21-.12.22-.08.28-.25.3-.47.05-.67.11-1.35.17-2.02.05-.52.08-1.04.15-1.56.04-.3.28-.46.54-.54.43-.13.91.23.89.67-.01.47-.06.94-.09,1.4-.03.46-.06.92-.1,1.41.15-.08.27-.13.39-.2.74-.41,1.48-.83,2.22-1.24.22-.13.45-.21.71-.12.29.1.46.31.5.62.04.29-.07.51-.32.66-.77.47-1.54.93-2.32,1.4-.13.08-.25.16-.4.25.23.12.45.22.66.33.6.29,1.2.59,1.79.89.18.09.36.21.39.44.05.38.02.67-.42.89-.22.11-.43.03-.63-.06-.81-.37-1.62-.74-2.43-1.11-.28-.13-.55-.25-.83-.39-.1-.05-.17-.04-.26.02-1,.59-2,1.18-3.01,1.77-.31.18-.61.37-.92.55-.04.02-.07.05-.12.09.33.2.65.39.97.58.99.59,1.98,1.17,2.97,1.76.16.1.29.11.46.02,1.07-.51,2.14-1,3.21-1.5.42-.19.89.03,1.01.49.08.29-.04.62-.3.76-.52.27-1.05.53-1.58.79-.29.14-.59.28-.88.42-.03.02-.06.03-.12.06.18.11.34.21.51.31.69.41,1.38.82,2.06,1.23.19.12.39.24.44.48.06.26.03.49-.13.71-.18.25-.65.29-.91.15-.39-.21-.78-.42-1.17-.64-.51-.29-1.03-.58-1.54-.87-.01,0-.03,0-.05-.02.02.25.03.49.05.73.03.36.07.72.09,1.08.02.33.04.67.05,1,0,.39-.34.72-.73.7-.4-.02-.68-.3-.71-.75-.05-.59-.11-1.18-.17-1.78-.04-.48-.08-.97-.13-1.45-.01-.13-.04-.25-.05-.37-.01-.1-.09-.14-.17-.19-.72-.41-1.43-.82-2.15-1.23-.58-.33-1.17-.66-1.75-.98-.04-.02-.09-.05-.14-.08,0,.13-.02.25-.02.37,0,1.12,0,2.24-.01,3.36,0,.35,0,.69,0,1.04,0,.08.02.13.09.17.98.69,1.97,1.37,2.95,2.06.44.31.49.88.09,1.2-.23.19-.58.22-.83.06-.68-.45-1.36-.91-2.03-1.37-.08-.06-.17-.11-.28-.18,0,.32-.02.62-.03.92-.01.65-.02,1.3-.03,1.95,0,.17-.01.34-.04.51-.03.23-.25.44-.49.48-.02,0-.04.01-.06.02h-.32Z"/>
    </g>
  </g>
</svg>