<?xml version="1.0" encoding="UTF-8"?><svg id="uuid-2b3b42dc-e245-4b1e-adf6-b271bdaecb24" xmlns="http://www.w3.org/2000/svg" viewBox="0 0 31.11 31.11"><g id="uuid-c20e7966-6c07-4211-a840-ad68f9a88db2"><g><circle cx="15.56" cy="15.56" r="15.56" style="fill:#fb922b;"/><g><g><path d="M18.99,12.49c-.3-.25-.64-.39-1-.48-2.1-.51-4.15,.47-5.06,2.44-.5,1.08-.71,2.22-.57,3.41,.1,.91,.5,1.66,1.37,2.06,1.54,.72,3.85,.17,4.58-1.82,.21-.57,.28-1.16,.08-1.76-.27-.79-.85-1.22-1.65-1.35-.8-.13-1.56,0-2.24,.47-.01,0-.02,.01-.06,.02,.19-.73,.52-1.36,1.22-1.69,.82-.39,1.63-.35,2.4,.18l.94-1.5Zm-3.7,6.17c-.06,0-.12,0-.18,0-.44-.04-.77-.29-.84-.67-.05-.25-.01-.5,.1-.73,.26-.54,.88-.84,1.51-.72,.4,.07,.67,.3,.72,.65,.03,.19,.01,.4-.04,.59-.16,.57-.63,.88-1.27,.88Z" style="fill:#fff;"/><path d="M18.81,17.22c0,.6,.07,1.13,.29,1.64,.43,1,1.19,1.51,2.26,1.55,1.29,.04,2.27-.54,3.01-1.56,.63-.86,.92-1.85,1.05-2.89,.08-.66,.08-1.31-.11-1.96-.29-1-.9-1.67-1.95-1.87-.79-.15-1.54,0-2.24,.4-.82,.48-1.37,1.19-1.74,2.04-.38,.86-.54,1.77-.57,2.65Zm4.77-1.98c-.03,.78-.13,1.42-.33,2.04-.13,.4-.32,.77-.64,1.06-.28,.25-.6,.37-.97,.33-.44-.05-.73-.33-.85-.82-.1-.43-.08-.87-.03-1.31,.07-.6,.19-1.19,.45-1.74,.17-.36,.41-.67,.77-.86,.65-.33,1.32-.05,1.5,.66,.07,.25,.08,.51,.1,.65Z" style="fill:#fff;"/><path d="M7.05,20.05c.99,.25,1.97,.26,2.93-.11,1.01-.4,1.67-1.12,1.92-2.2,.08-.37,.1-.74,0-1.11-.18-.7-.66-1.11-1.34-1.32-.05-.02-.11-.03-.18-.05,.18-.19,.35-.36,.51-.53,.43-.44,.86-.88,1.29-1.32,.03-.03,.07-.07,.07-.1,.07-.42,.14-.84,.2-1.27H7.13l-.26,1.64h3.02c-.26,.26-.49,.5-.72,.73-.29,.3-.59,.6-.88,.9-.03,.04-.07,.08-.07,.13-.07,.42-.14,.84-.21,1.28,.18,0,.36,0,.53,0,.28,.01,.57,0,.85,.05,.28,.04,.55,.15,.63,.46,.09,.33-.03,.87-.28,1.12-.28,.28-.58,.35-.96,.36" style="fill:#fff;"/></g><path d="M14.2,2.28C8.44,2.86,3.66,7.28,2.58,12.96c-.47,2.46-.22,4.8,.53,6.91,.08,.21,.28,.35,.51,.35h4.72l1.04-1.53-3.86,.03c-.54,0-1.13,.19-1.26-.33-.42-1.6-.52-3.33-.18-5.13,.9-4.83,4.85-8.68,9.71-9.4,7.8-1.16,14.43,5.38,13.42,13.15-.64,4.9-5.42,9.55-10.32,10.08-3.57,.38-6.85-.86-9.22-3.05,.05-.16,.09-.32,.09-.5,0-.88-.72-1.6-1.6-1.6s-1.6,.72-1.6,1.6,.72,1.6,1.6,1.6c.13,0,.26-.02,.38-.05,2.83,2.67,6.82,4.1,11.15,3.44,5.72-.87,10.28-5.54,11.04-11.28,1.13-8.59-5.97-15.85-14.52-14.98Z" style="fill:#fff;"/></g></g></g></svg>