<?xml version="1.0" encoding="UTF-8"?><svg id="uuid-66d778dc-c7b5-4f80-8010-ad895077cfe6" xmlns="http://www.w3.org/2000/svg" viewBox="0 0 158.74 151.07"><g id="uuid-219b1daf-357b-40f6-a411-dabe953f8eef"><g><g><path d="M10.6,55.81c-1.7,6.29-2.61,12.9-2.61,19.73,0,2.85,.16,5.65,.47,8.42l15.44-18.29c.56-3.39,1.4-6.68,2.5-9.86H10.6Z" style="fill:#0082ca;"/><path d="M83.36,0C58.84,0,37.01,11.8,23.24,30.03h20.52c10.6-9.29,24.45-14.93,39.61-14.93,33.24,0,60.28,27.11,60.28,60.44s-27.04,60.43-60.28,60.43c-17.45,0-33.18-7.48-44.19-19.39H20.12c13.45,20.74,36.78,34.49,63.25,34.49,41.56,0,75.38-33.88,75.38-75.53S124.93,0,83.36,0Z" style="fill:#0082ca;"/></g><path d="M64.38,125.75l27.44-32.49v-.28h-19.23l1.68-8.7h32.84l-1.19,6.32-26.95,32v.28h21.12l-1.61,8.7H63.33l1.05-5.82Z" style="fill:#0082ca;"/><path d="M74.3,64.78l21.07-24.95v-.22h-14.76l1.29-6.68h25.21l-.92,4.85-20.69,24.57v.22h16.22l-1.24,6.68h-26.99l.81-4.47Z" style="fill:#0082ca;"/><path d="M1.66,101.37L44.86,50.21v-.44H14.58l2.65-13.7h51.71l-1.88,9.94L24.64,96.4v.44H57.9l-2.54,13.7H0l1.66-9.17Z" style="fill:#0082ca;"/></g></g></svg>