<?xml version="1.0" encoding="UTF-8"?><svg id="uuid-25d753a3-29e1-4665-b85c-536a1264e83f" xmlns="http://www.w3.org/2000/svg" viewBox="0 0 31.11 31.11"><g id="uuid-b0dd7b0d-5281-4f9b-a026-6c31a8502d4e"><g><circle cx="15.56" cy="15.56" r="15.56" style="fill:#fb922b;"/><g><path d="M18.03,10.81c-.54-.44-1.04-.84-1.53-1.24-.17-.14-.34-.27-.51-.41-.46-.36-1.14-.34-1.63,.05-.97,.78-1.94,1.56-2.91,2.35-1.63,1.32-3.26,2.64-4.89,3.95-.48,.39-.77,.84-.62,1.49,.13,.55,.62,1.03,1.26,1.03,.38,0,.75,0,1.16,0v.3c0,1.84,0,3.69,0,5.53,0,.99,.53,1.52,1.52,1.52,3.68,0,7.35,0,11.03,0,.8,0,1.34-.42,1.47-1.14,.02-.1,.02-.2,.02-.3,0-1.87,0-3.74,0-5.62v-.3c.26,0,.51,0,.76,0,.61,0,1.08-.31,1.29-.87,.2-.54,.06-1.12-.4-1.49-.94-.77-1.88-1.54-2.83-2.31-.11-.09-.16-.18-.16-.33,0-.84,0-1.68,0-2.52,0-.59-.3-.88-.89-.88-.44,0-.88,0-1.33,0-.47,0-.79,.31-.81,.78,0,.11,0,.23,0,.4Zm2-.17c0,.09,0,.17,0,.24,0,.78,.01,1.57,0,2.35,0,.35,.12,.58,.39,.8,.97,.78,1.94,1.57,2.9,2.36,.13,.11,.23,.22,.16,.41-.07,.18-.2,.22-.38,.22-.34,0-.68,0-1.02,0-.36,.01-.65,.28-.69,.63-.01,.11-.02,.22-.02,.33,0,1.97,0,3.95,0,5.92,0,.35-.09,.45-.41,.45-3.71,0-7.41,0-11.12,0-.38,0-.46-.09-.46-.46,0-2.02,0-4.03,0-6.05,0-.51-.3-.81-.81-.82-.42,0-.84,0-1.26,0-.17,0-.3-.05-.36-.22-.05-.16,0-.28,.13-.38,.02-.02,.05-.04,.07-.05,2.59-2.09,5.17-4.18,7.76-6.27,.26-.21,.34-.21,.6,0,.83,.67,1.66,1.34,2.49,2.01,.28,.22,.56,.24,.82,.04,.18-.13,.24-.32,.24-.53,0-.32,0-.65,0-.97h.98Z" style="fill:#fff;"/><path d="M10.86,5.28c.23,.2,.46,.38,.67,.58,.12,.11,.17,.02,.25-.04,.74-.66,1.61-1.09,2.59-1.24,1.59-.24,3.02,.16,4.25,1.21,.05,.05,.11,.09,.13,.11l.74-.67c-2.19-2.21-6.09-2.42-8.64,.05Z" style="fill:#fff;"/><path d="M17.81,7.12c-1.31-1.34-3.62-1.52-5.13-.07l.68,.72c.21-.14,.41-.29,.62-.41,.93-.51,2.1-.39,2.91,.29,.13,.11,.2,.12,.32,0,.18-.19,.39-.34,.6-.53Z" style="fill:#fff;"/><path d="M18.97,18.05c0-2.03-1.64-3.67-3.66-3.67-2.02,0-3.67,1.65-3.66,3.67,0,2.01,1.64,3.65,3.66,3.66,2.02,0,3.67-1.64,3.67-3.66Zm-6.3,0c0-1.43,1.16-2.63,2.57-2.64,1.51,0,2.7,1.15,2.71,2.62,0,1.43-1.16,2.61-2.54,2.66-1.43,.05-2.74-1.1-2.74-2.63Z" style="fill:#fff;"/><path d="M17.15,17.56l-.68-.67-1.4,1.4-.71-.76-.69,.72,1.38,1.39,2.09-2.09Z" style="fill:#fff;"/></g></g></g></svg>