<?xml version="1.0" encoding="UTF-8"?><svg id="uuid-f8390146-2871-476e-ae63-56d1ef0100bc" xmlns="http://www.w3.org/2000/svg" viewBox="0 0 148.84 164.7"><g id="uuid-7f466728-ada8-4551-bfba-0a9a47cbb9ab"><g><g><path d="M43.76,20.55s-.02,.01-.03,.03c0,0,.02,.02,.03,.03,0-.01,0-.03,0-.05Z" style="fill:#70d44b;"/><path d="M75.37,27.81c.27-1.28-.42-.97-1.39-1.51-.56-.31-.86-.71-1.55-.98-.09,.1-.18,.2-.27,.29-.38-.06-.48-.2-.71-.34,.07-.12,.14-.24,.2-.36-.21-.16-.41-.32-.61-.49-.41,.76-1.34,1.7-.89,2.65-.54,.14-1.12,.25-1.36,.69v.09c.63-.03,1.27-.06,1.91-.09,.1,.25,.1,.45,.05,.84,1.21,.12,1.38-.63,2.52-.58,.03-.02,.06-.04,.09-.05-.02-.14-.05-.28-.07-.43,.05-.06,.1-.12,.16-.17,1.14,.12,.89,.53,1.44,.9,.43,.29,1.27,.31,1.84,.48,.18-.15,.37-.21,.63-.3,.02,0,.04-.01,.06-.02-.19-.12-.38-.23-.57-.35-.42-.18-1.01-.16-1.51-.26Z" style="fill:#70d44b;"/><path d="M88.07,83.75c.05,.13,0,.3,.01,.44,.36,.11,.49,0,.87,.03,.5,.03,.82,.2,.96-.23-.32-.24-1.2-.28-1.69-.33-.05,.03-.1,.06-.15,.09Z" style="fill:#70d44b;"/><path d="M84.74,82.16c-.39-.09-.9-.07-1.08-.38-.19,0-.27,.05-.39,.07-.17-.03-.34-.06-.51-.09-.17,.01-.26,.13-.55,.07-.46-.1-.81-.27-1.36-.33-.12,0-.24,0-.36,0-.03,.02-.06,.05-.09,.07v.08c.26,.14,.81,.18,.94,.41,.17,.28-.37,.45,.34,.73,.02,.02,.03,.05,.05,.07-.57,.22-1.76-.05-2.44-.28-.06,.05-.12,.09-.18,.13l-.03,.04c.12,.23,.39,.3,.61,.46,.22-.02,.24-.13,.45-.15,.32,.07,.65,.13,.97,.2,.33,.01,.67,.02,1,.03,.2,.18,.42,.55,.71,.65,.22-.36,.46-.61,.95-.74,.09,.08,.17,.17,.25,.26,.31,.14,.5-.15,.78-.18,.19-.02,.31,.07,.41,.1,.57-.15,.76,.23,1.03,.38,.18-.08,.29-.22,.42-.34-.4-.54-1.7-.66-1.91-1.29Z" style="fill:#70d44b;"/><path d="M99.14,54.86c-.07-.04-.14-.08-.2-.13-.01-.33,.39-.26,.62-.43,.2-.14,.31-.48,.47-.63-.16-.11-.32-.22-.48-.32-.23,.32-1.16,.78-1.06,1.27,.15,.71,1.75,.64,2.01,.11-.56-.73-.83,.05-1.36,.12Z" style="fill:#70d44b;"/><path d="M87.38,95.55s-.04,.03-.06,.06c.18,.03,.18,.05,.26,.13-.06,.09-.07,.16-.03,.27-.15,.04-.3,.07-.45,.11-.02,.02-.04,.04-.06,.06v.02c.36,.04,.74,.06,1.03,.06,.11-.26,.02-.52,.21-.7v-.02l-.16-.02c-.19,.06-.49,.06-.74,.04Z" style="fill:#70d44b;"/><path d="M100.53,107.53c-.38,.37-.35,1.06-.2,1.42,.61,.18,1.83,.14,2.21-.14,.22-.17,.34-.65,.5-.85-.23-.2-1.88-.38-2.51-.43Z" style="fill:#70d44b;"/><path d="M118.27,33.25c-.05,.1-.41,.1-.49,.25,0,0,0,0,0,.01,.34,0,.52-.06,.69-.13,0-.05-.01-.07-.06-.11-.05-.01-.07-.02-.15-.01Z" style="fill:#70d44b;"/><path d="M109.04,53.39s-.01-.03-.02-.05c-.08-.03-.17-.06-.26-.09-.12,.05-.21,.1-.27,.21-.02,0-.03,0-.06,.02-.12-.14-.21-.39-.27-.58v-.02c.54-.14,.51-.03,.96-.29v-.11s-.11-.05-.17-.08c-.18,.05-.37,.1-.61,.09-.14-.09-.31-.21-.38-.36-.03-.02-.05-.05-.08-.07,.22-.11,.45-.23,.67-.34,.06-.04,.11-.09,.18-.13-.35-.21-.8-.41-1.38-.41-.06,.08-.12,.15-.19,.22-.6,.03-1.08-.3-1.43-.56v-.06c.17-.1,.34-.21,.5-.31-.18-.07-.37-.15-.55-.22-.48,.02-.47,.4-.95,.44,.06-.82,1.6-1.17,1.22-1.89,.2-.02,.45-.06,.62-.09,.01-.02,.02-.05,.04-.08-.01-.04-.03-.07-.05-.11-.05-.02-.11-.04-.16-.06-.34,.03-.68,.07-1.02,.11-.85,.33-1.98,1.44-2.41,2.18,.12,.13,.25,.28,.37,.41-.39,.26-.76-.06-1.06,.45-.02,.03-.04,.05-.06,.07,.2,.07,.41,.13,.61,.19-.41,.26-1.16,.26-1.46,.62-.08,.09,.02,.25,.07,.39,.42,0,.84,.01,1.26,.02,.51,.11,1.02,.21,1.53,.32,.46,.11,.98,.09,1.08-.17,.15,0,.29,0,.44,0l-.03,.31s.03,.05,.05,.07c.06,0,.11,0,.17,0,.14-.02,.2-.11,.24-.21,.24,.04,.48,.09,.72,.14v.04c-.54,.13-.71,.49-1.37,.57-.06,.08-.04,.05-.01,.15,.13,.07,.34,.1,.57,.11,.44-.3,1.24-.53,1.56-.88,.04,.02,.09,.04,.13,.06,.08,.1,.16,.2,.24,.3-.03,.22-.17,.35-.32,.46,0,.06,0,.11,0,.17,.08,.02,.15,.03,.22,.04,.12-.06,.23-.12,.35-.18,0,.12,.01,.24,.02,.36,.22,.07,.45,.14,.66,.21,.16-.29,.53-.59,.5-.94-.52-.02-.55-.14-.43-.42Z" style="fill:#70d44b;"/><path d="M67.04,149.32s.04,0,.06-.01c.09-.23,.17-.47,.26-.7-.07-.14-.15-.29-.23-.43,.17-.1,.33-.19,.5-.29,0-.17-.04-.23-.17-.32-.05-.05-.04-.04-.16-.06-.12,0-.24,0-.36,0-.25,.38-.24,1.07-.52,1.44,.13,.21,.33,.25,.62,.35Z" style="fill:#70d44b;"/><path d="M107.5,17.74c.19-.04,.38-.08,.58-.12,.25-.04,.43,.03,.67,0,.42-.06,.87-.24,1.03-.41,.25-.27-.48-.5-.76-.59-.27-.09-.41-.24-.58-.39-.33-.27-.81-.48-1.62-.44-.26,.09-.51,.15-.63,.29,.04,.13,.31,.11,.36,.27-.1-.02-.2-.03-.3-.05-.11,.05-.18,.07-.2,.15,.14,.12,.35,.2,.47,.34-.18-.03-.4-.05-.59-.01-.01,.04,0,.05,.04,.07,.12,.03,.25,.06,.37,.09,.18,.05,.35,.11,.53,.16,.09,0,.18,0,.28,0h.03s.02,.05,.03,.07c.09,.03,.22,.03,.34,.03,.01,0,.02,.02,.03,.03-.19,.04-.26,.03-.44-.01-.11,.01-.34,.07-.38,.12-.06,.13,.49,.44,.75,.4Z" style="fill:#70d44b;"/><path d="M105.18,9.78c-.17,.07-.29,.18-.36,.29,.05,.14,.31,.2,.53,.23,.07-.2,.05-.32-.13-.53-.01,0-.02,0-.04,0Z" style="fill:#70d44b;"/><path d="M79.46,64.03h.03c-.02-.05-.03-.1-.04-.16,0,.05,0,.1,0,.16Z" style="fill:#70d44b;"/><path d="M84.31,22.92c.04-.28,.07-.57,.11-.86-.2-.2-.6-.41-.96-.49-.28,.02-.55,.04-.83,.06-.49,.17-1.38,1.03-.72,1.5,.62,.45,2.18,.18,2.4-.21Z" style="fill:#70d44b;"/><path d="M74.55,82.35c-.11,.05-.21,.1-.32,.14,.07,.1,1.01,.66,1.28,.64,.19-.02,.27-.24,.62-.13,.21,.06,.26,.16,.53,.18,.02-.04,.03-.07,.04-.1-.28-.39-1.36-.66-2.14-.72Z" style="fill:#70d44b;"/><path d="M79.42,63.87h.03s-.01-.04-.02-.06v.06Z" style="fill:#70d44b;"/><path d="M79.56,81.12c-.5-.36-.82-.58-1.8-.66-.02-.02-.05-.04-.07-.07,.06-.09,.13-.17,.19-.25-.31-.3-1.51-.45-2.02-.67-.16-.16-.31-.33-.47-.49-.53-.35-1.34-.38-1.99-.69-.25-.2-.5-.4-.76-.61l-.35-.03c-.68-.19-1.42-.38-2.36-.46-.35,0-.71-.01-1.07-.02-.6,.05-1.14,.27-1.67,.37-.14,.14-.16,.24-.13,.46-.1,.05-.2,.11-.29,.16-.03,.03-.08,.05-.12,.07,.39,.19,.87-.03,.93-.27,.18-.05,.53,.04,.74-.02,.74-.19,.78-.57,2.05-.2,.02,.04,.05,.07,.07,.11v.02c-.21,.02-.41,.05-.61,.07,.43,.32,1.1,.23,1.76,.45,.48,.16,.85,.46,1.39,.63,.28,.08,.87,.01,1.1,.17,.18,.1,.25,.43,.24,.64,.4,.24,1.24,.32,1.61,.58-.05,.21-.26,.33-.47,.38-.09,.06-.18,.13-.27,.18v.02c.6,.08,1.15-.08,1.69,.04,.41,.08,.83,.15,1.24,.23,.46-.01,.87-.11,1.41-.09,0-.01,.02-.03,.03-.04Z" style="fill:#70d44b;"/><path d="M79.74,64.55c-.08-.17-.17-.35-.25-.53,.01,.21,.1,.32,.17,.48,.02,.01,.05,.03,.08,.05Z" style="fill:#70d44b;"/><path d="M66.25,160.15c-.06,.13-.16,.21-.09,.37,.05,.04,.28,.06,.41,.04h.03l-.05,.49c.05,.03,.1,.07,.15,.1,.03,.01,.05,.02,.08,.03,.21-.31,.34-.47,.37-.94-.04-.03-.09-.05-.13-.08-.22,.11-.45,.04-.77-.01Z" style="fill:#70d44b;"/><path d="M73.61,163.05c-.4-.38-.48-.87-1.25-.91-.17-.23,.17-.3,.38-.49v-.11c-.3-.23-.97-.3-1.31-.51-.45,.31-1.16,.4-1.4,.92v.02c.28,.18,.75,.06,1.2,.07,.03,.01,.05,.03,.08,.05l-.02,.19c-.3,.08-.6,.15-.9,.23-.01,.02-.02,.04-.03,.06,.24,.47,.28,.33,.79,.61,.19,.1,.33,.37,.44,.53-.12,0-.23,0-.36,0-.26-.34-.93-.32-1.5-.32-.08,.2-.13,.38-.25,.57v.02c.41,0,.71-.11,1.05-.13,.44-.03,.53,.24,.82,.31,.4,0,.8,0,1.21,0,.46,.07,.92,.15,1.37,.22,.2,.09,.4,.18,.61,.27,.35,.1,1.15-.07,1.64-.03,.05-.04,.08-.08,.12-.11,.01-.05,.03-.1,.04-.14-1.53-.15-2.03-.67-2.72-1.33Z" style="fill:#70d44b;"/><path d="M56.47,13.32s-.05-.05-.07-.07c-.22,.11-.44,.22-.66,.32,.08,.02,.15,.03,.23,.04,.16-.1,.33-.19,.49-.29Z" style="fill:#70d44b;"/><path d="M52.56,16.29c0-.37-.15-.63-.39-.85-.3,.17-.61,.34-.91,.51,.34,.17,.71,.33,1.24,.38,.02-.01,.04-.02,.06-.04Z" style="fill:#70d44b;"/><path d="M50.4,17.37c.42-.03,.58-.23,.96-.29,.02-.33-.23-.36-.35-.59-.15-.06-.43-.04-.72,0-.46,.27-.92,.53-1.38,.81,.49,.07,.99,.11,1.49,.07Z" style="fill:#70d44b;"/><path d="M21.29,43.83c0-.59-.41-.77-.87-.98-.19,.27-.38,.54-.57,.8,.37,.17,.8,.32,1.28,.36,.05-.06,.1-.12,.15-.18Z" style="fill:#70d44b;"/><path d="M79.41,63.72s-.01-.04-.02-.07v.06h.02Z" style="fill:#70d44b;"/><path d="M21.24,42.7c.3,.05,.42,0,.66-.04-.29,.48,.43,.71,.66,1.04,.07,.24,.14,.48,.2,.72,.1,.56-.43,.77-.55,1.16-.19-.04-.24-.2-.49-.26v-.02c.16-.12,.32-.25,.47-.38,.08-.62-.63-.41-1.2-.56-.36-.1-.74-.38-1.15-.33-.1,.61,.48,.97,.41,1.69h.03c.08-.04,.05,0,.09-.09,.09,.05,.19,.09,.29,.13-.09,.02-.19,.04-.28,.06l-.07,.74c.15,.04,.3,.09,.46,.13l-.32-.03c.07,.41-.01,1.17-.25,1.73-.1,.25-.45,.73-.35,1.07,.06,.1,.13,.21,.19,.31-.08,.12-.17,.24-.25,.36-.1,.07-.29,.07-.37,.17-.29,.38,.31,1.46,.36,1.86,.08,.6-.53,.82-.43,1.31,.07,.34,.58,.59,.65,.95-.05,.09-.09,.16-.14,.25-.03,.11,.1,.36,.09,.45v.04l1.21,1.31c.11,0,.13,.04,.21,.1,.02-.11,.03-.21,.06-.31h.03c.05,.25,.21,.51,.4,.68,0,.02,.01,.05,.02,.07-.25-.06-.32-.18-.37-.38-.03,0-.05-.02-.08-.03-.02,.03-.04,.05-.06,.08-.15,.24,.13,.35,0,.55,.26,.2,.29,.28,.73,.41,.06,.14,.13,.34-.14,.34-.05,.64,1.29,1.33,1.15,1.62,.09,.11,.16,.11,.32,.16,0,.15-.08,.29-.02,.46-.1,.18,.05,.15,.13,.31,.39,.05,.78,.1,1.16,.15,.48,.19,.39,.47,1.21,.54,.1,.13,.15,.15,.08,.29,.04,.02,.09,.05,.13,.07,.73-.28,1.26,1.06,1.41,1.5l-.04,.42c.13,.11,.27,.22,.4,.34-.3,.39,.12,.65,.34,.98,.12,.18,.05,.34,.13,.59,.05,.16,.27,.17,.35,.29,.06,.2,.13,.39,.19,.59,.12,.2,.93,.63,1.18,.82,.29,.22,.94,.81,.41,1.17-.21,.23-.7,.11-1.07,0,.23,.38,1.45,1.45,2.09,1.31,.13,.13,.27,.27,.4,.4,.14,.11,.34,.12,.5,.22,.23,.14,.36,.54,.45,.76,.09,.24-.22,.52-.07,.74,.25,.38,1.11,1.01,1.54,1.3,.23,.16,.55,.23,.67,.45,.09,.15,.12,.39,.17,.53,.06,.02,.12,.05,.19,.08,.26-.11,.53-.25,.63-.53-.1-.17-.24-.15-.41-.27-.15-.24-.3-.48-.45-.72-.13,.05-.28,.1-.42,.15-.4-.33-.12-.33-.25-.81-.19-.35-.39-.7-.58-1.05-.12-.31-.14-.69-.23-.96-.79,0-.55-.36-.79-.9-.15-.05-.3-.09-.45-.13-.13-.2-.18-.53-.2-.78-.18-.09-.37-.18-.55-.26-.25-.24-.28-.7-.48-.96-.26-.34-.86-.46-1.05-.85,0-.28,.02-.55,.03-.83-.09-.11-.18-.22-.27-.32-.08-.22,.15-.47,.2-.68,.32,.12,.54,.33,.92,.39,.05-.05,.1-.1,.15-.16,.09,.03,.18,.06,.27,.09,.06,.09,.09,.16,.08,.31,.26,.1,.52,.18,.74,.28-.12,.88,1.27,3.01,1.93,3.46,.26,.1,.52,.21,.79,.31,.1,.14,.06,.23-.01,.43,.26,.46,.74,.27,.95,.96,.4-.05,.63,.06,.75,.43-.23,.15-.35,.33-.26,.61,.05,.04,.1,.08,.15,.12,.05-.02,.28-.09,.39-.03,.1,.13,.19,.26,.29,.39,.21,.1,.42,.2,.63,.29,.05,.16,.08,.31,.12,.46,.23,.16,.46,.32,.69,.47,.69,.75,1.39,1.5,2.08,2.26-.06,.09-.11,.19-.17,.28,.24,.35,.66,.76,.14,1.12,0,.11,.06,.12,.15,.23-.11,.1-.53,.11-.52,.26,.08,.08,.15,.17,.22,.26,.18,.24,.32,.56,.59,.74,.31,.15,.61,.3,.92,.45,.26,.28,.53,.56,.79,.84,.49,.16,.99,.31,1.49,.46,.59,.02,.95,.51,1.41,.77,.45,.21,.9,.43,1.36,.64,.33,.08,.66,.16,.99,.24,.47,.26,.94,.51,1.4,.77,.25,.11,1.78,.55,2.06,.54,.89-.01,1.42-.62,2.49-.24,1.12,.39,2.31,1.8,3.24,2.44,.32,.22,.71,.1,1.2,.27,1.01,.33,1.92,.95,3.26,1.08,.08-.08,.13-.14,.19-.26,.3,.08,.36,.26,.45,.47l-.32-.03v.11c.47,.49,1.13,.89,1.58,1.4,.15,.17,.37,.58,.68,.64,0,.04,0,.07,.02,.11-.07,0-.14,0-.22,0,.09,.05,.19,.1,.28,.15,0,.04,0,.07,.01,.1-.06,.14-.22,.18-.33,.31,.2,.62,.69,.43,.85,.83,.02,.01,.04,.02,.05,.03,.1-.07,.2-.14,.29-.2-.08-.12-.16-.14-.34-.21-.03-.08-.06-.17-.08-.26v-.02c.2,.11,.4,.22,.6,.33,.08,.13,.06,.41,.23,.49,.53,.25,1.48,.38,.95,.94,.08,.15,.27,.24,.52,.28,0-.01,.02-.03,.03-.04-.07-.09-.15-.18-.22-.27,.03,0,.06,0,.09-.01,.29,.11,.43,.44,.39,.74,.07-.07,.14-.14,.22-.21,.56-.05,.85,.19,1.43,.27,.1,.29,.19,.45,.57,.55,.03-.09,.05-.18,.08-.27h.03c.08,.17,.29,.4,.21,.6,.03,.02,.05,.04,.08,.07,.47,.11,.63-.1,1.07-.09,0-.37-.37-.44-.5-.73,.19-.17,.62-.27,.93-.31,0-.13,0-.19,.06-.29,.86-.13,1.36,.07,1.55,.61,.19,.04,.33-.02,.47-.08-.02,.17,0,.23,.14,.29,0,.02,.02,.03,.02,.05-.26-.05-.41-.11-.52,.06-.13,.24,.2,.63,.3,.84-.24,.19-1.03,.25-1.46,.02-.2,.09-.28,.19-.29,.46-.07,.03-.14,.07-.2,.11-.04-.18-.07-.24-.27-.3-.14-.03-.29,.05-.42,.09-.9,.27-.61,.77-.96,1.37-.19,.01-.39,.02-.58,.03l-.98,.76c.05,.13,.11,.25,.16,.37-.06,.07-.06,.09-.15,.12-.02,.01-.04,.02-.06,.03-.26-.27-.32-.56-.69-.77h-.03c.05,.25,.32,.42,.37,.71-.2,.03-.34,.23-.52,.31-.07-.08-.11-.13-.2-.19,.04,.24-.17,.3-.28,.57,.19,.23,.48,.4,.62,.68-.04,.16-.14,.21-.23,.32,.01,.22,.24,.25,.34,.43-.09,.1-.19,.11-.37,.12-.06,.28,.17,.53,.19,.82-.09,.21-.18,.41-.28,.61,.13,.13,.25,.25,.37,.38-.32,.36-.64,.73-.95,1.1-.21,.12-.84,.03-1.09,.11-.03,.28,.14,.36,.03,.57-.22-.04-.31-.05-.54-.05-.03,.03-.06,.07-.09,.1,.06,.1,.12,.16,.13,.29-.4,.35-.8,.29-1.46,.41-.18,.12,.06,.48-.1,.73-.11,.19-.45,.19-.56,.43,.06,.08,.11,.15,.17,.23-.27,.09-.54,.17-.82,.26,.18,.37,.13,.66,.19,1.1-.07,.09-.1,.12-.23,.14-.02,.02-.04,.04-.06,.06,.61,.72,.87,.29,1.45,0-.03,.18,.08,.41,0,.59-.35,.72-1.71,.81-2.25,1.5,.02,.57,.75,.81,.58,1.35-.23-.02-.35,0-.5,.02-.01,.02-.04,.04-.06,.06,.42,.31,1.04,.47,1.43,.79,.24,.35,.48,.71,.72,1.07,.52,.75,2.02,2.74,1.83,3.66,.65,.4,.73,1.02,1.11,1.59,.15,.23,.46,.45,.53,.73l-.07,.67c.16,.21,.32,.43,.49,.64,.89,.98,2.39,1.67,3.74,2.36,.41,.2,.82,.39,1.23,.59,.1,.19,.21,.38,.3,.58,.28,.23,.84,.28,1.04,.56,.56,.8,.04,3.87-.26,4.83-.12,.05-.25,.1-.37,.14l-.03,.32c.09,.08,.18,.13,.25,.22-.17,.28-.34,.86-.28,1.22,.02,.16,.04,.3,.06,.45-.14,.16-.29,.32-.43,.49,.12,.42-.26,1.58-.46,1.95-.11,.11-.23,.21-.33,.31-.15,.34-.3,.67-.45,1.01-.11,.34,.34,.51,.15,.95-.12,.28-.48,.4-.61,.64-.15,.28,0,1.64,.06,1.96,.02,.13,.05,.26,.07,.39-.15,.13-.3,.27-.45,.4-.06,.12,.06,.36,.12,.5-.07,.3-.42,.45-.56,.73-.58,1.08-1.32,1.89-1.78,3.07-.19,.06-.42,.03-.64,.04-.02,.01-.03,.03-.06,.04,.09,.2,.18,.41,.28,.62l-.09,.89c.04,.31,.28,.64,.2,1v.07c-.25,.5-1.26,.79-1.02,1.7,.06,.22,.26,.38,.29,.66,.3,.23,.61,.14,.83-.09,.22,.02,.29,.06,.43,.11-.06,.11-.11,.23-.17,.34,.11,.12,.24,.16,.33,.31-.01,.05-.03,.1-.04,.16-.16,.02-.29,.03-.36,.13-.18,.28,.09,.56,.14,.78-.73,.1-.41,.24-.59,.74-.07,.18-.16,.26-.16,.5,.19,.11,.38,.22,.57,.33,.01,.05,.02,.1,.04,.15-.16,.17-.35,.34-.59,.43-.16,.06-.34,.05-.45,.15-.15,.18,.09,.28,.3,.35-.87,.38-.35,.29-.73,.99-.16,.16-.32,.31-.48,.46-.02,0-.04,0-.06,.01-.07-.14-.04-.27,0-.44-.04-.01-.07-.02-.1-.03-.2,.06-.23,.2-.39,.28-.02,0-.03-.02-.05-.02-.02-.09-.04-.19-.05-.28,.13-.12,.3-.19,.54-.2,0-.07,0-.14,0-.21-.17-.12-.28-.13-.59-.14-.29,.31-.63,.55-1.13,.65-.07,.06-.09,.06-.1,.14,.19,0,.38,0,.57,.02l-.02,.23c.55,.23,.87,.12,1.24,.48-.04,.07-.07,.14-.1,.2-.07,.07-.16,.06-.33,.03-.13,.14-.18,.33-.32,.46v.15l1.01,.08c.14,.09,.28,.18,.42,.27v.1s-.07,.07-.1,.1c-.46-.06-.48-.22-.96-.26,0,.2,.02,.41,.02,.62-.08,.08-.16,.17-.24,.25-.02,.31-.03,.61-.04,.91,.15-.07,.29-.14,.43-.21,.01,.08,.02,.16,.03,.23-.14,.07-.29,.13-.43,.19,.03,.27,.16,.34,.3,.52-.1,.05-.21,.11-.32,.16,.03,.14,.06,.28,.1,.42,.13,.13,.41,.04,.68,.04-.2,.34-.42,.57-.96,.59,.18,.19,.46,.26,.64,.4,.03,.05,.04,.11,.07,.18-.06,.07-.07,.09-.18,.13-.04,.03-.07,.06-.12,.09,.12,.08,.22,.19,.27,.31,.14-.02,.28-.04,.42-.07h.03c-.04,.21-.14,.25-.21,.41,.12,.05,.23,.09,.34,.14,.14-.06,.29-.13,.43-.19,.05,.2,.14,.29,.41,.35-.06,.22-.19,.24-.22,.51,.4,.03,.91,.05,1.1,.22-.53,.03-.9,.13-1.44,.15-.04,.15,0,.18,.02,.32,.69,.09,1.21-.17,1.72-.22,.11,.07,.22,.13,.34,.2v.06c-.37,.25-.7,.51-1.02,.81,.16,.1,.33,.2,.49,.3,.2,0,.4-.02,.6-.02,.31-.36,.1-.96,.46-1.31h.03c.25-.21,.63-.06,1.05-.13,.3-.05,.4-.26,.67-.34,.05,0,.11-.02,.16-.03,.27,.19,.61,.34,1.04,.27-.23-.64-1.39-1.79-.4-2.61,.33-.27,1.1-.16,1.44-.43,.34-.27,.1-.57,.26-.93,.14-.14,.28-.28,.42-.43,.69-.57,2.48-.48,2.23-1.78-.18-.13-.52-.13-.77-.22-.42-.15-.98-.57-1.14-.88-.45-.83,.6-1.51,1.34-1.67,.4,0,.8,0,1.21,0-.01-.13-.15-.2-.18-.38,.62-.35,.48-.48,.52-1.16,.29-.26,.79-.47,1.26-.54,.01-.01,.02-.02,.03-.04-.27-.09-.55-.17-.82-.25-.01-.03-.03-.06-.05-.09,.17-.11,.75-.19,1.05-.08,.11,.07,.09,.16,.19,.23,.12,.08,.34,.03,.49,0,.03-.02,.06-.05,.09-.08-.03-.23-.06-.47-.09-.7-.01,0-.02-.02-.02-.03-.23,.03-.46,.06-.69,.08,.06,.08,.12,.15,.17,.23-.03,0-.07,0-.11,.01-.41,.18-.73-.25-.93-.35-.03-.26,.17-.37,.14-.62-.02-.29-.21-.46-.22-.81,.05-.04,.1-.09,.15-.13,.51,0,1.01,.37,1.46,.5,.54,.16,1.12,.06,1.48-.02,.22-.05,.4-.04,.51-.19,.13-.25-.25-.39-.15-.67,.08-.25,.39-.49,.56-.73-.16-.14-.55-.48-.25-.77,.07-.04,.52,.11,.73,.16,.62,.16,1.49,.18,2.14,.15,.96-.06,2.58-.02,3.06-.47,.18-.16,.21-.39,.38-.53,.28-.24,.69-.47,.87-.78,.1-.09,0-.33,0-.49-.32-.2-.96-.4-.68-.9,.08-.14,.19-.14,.23-.38-.36-.47-1.13-.6-1.5-1.13-.01-.03-.01-.06-.02-.09,.09-.08,.19-.17,.27-.25,.27,.09,.41,.33,.61,.48,.9-.01,1.37,.07,1.8,.62,.42,.03,.68-.13,1.14-.1,.34,.02,.56,.29,1.04,.23,.76-.1,1.09-.58,1.55-.97,.48-.41,1.17-.64,1.51-1.19,.14-.36,.27-.72,.41-1.09,.18-.27,.7-.32,.91-.57,.1-.25,.21-.5,.32-.75v-.04c.2,.09,.45,.19,.73,.13h.03c0,.64-.96,.88-1.21,1.49,.47-.26,1.08-.63,1.39-1.03,.26-.38,.51-.76,.77-1.13,.83-.84,2.15-.79,1.96-2.65-.03-.26-.12-.39-.19-.59,.21-.15,.63-.62,.17-.83v-.13c.63,.11,.71-.17,1.06-.36,.36-.2,2.22-.99,2.62-1.01,.22-.01,.38,.11,.53,.16,.14-.11,.28-.22,.42-.32,.38-.13,.63-.05,.75-.44,.41,0,.88,.06,1.19,.14,.68,.17,1.43,.09,2.07,.11,.04-.6,.67-.74,1.33-.72-.02-.17-.04-.34-.06-.51,.11-.4,.57-.62,.83-.9,.17-.21,.34-.43,.5-.65,.15-.14,.47-.2,.56-.39,0-.2-.02-.41-.02-.62-.07-.57,.37-.92,.89-1.01,.02-.16-.1-.47,0-.74,.12-.35,.49-.77,.45-1.19-.03-.55-.05-1.11-.06-1.66,.18-.56,.49-.91,.56-1.49,.06,.01,.12,.02,.19,.04,.06,.12,.12,.24,.19,.35h.08c.51-.22,1.13-.91,1.39-1.34,.16-.26,.07-.42,.31-.57,.21-.05,.41-.1,.61-.15,1.24-.59,2.11-1.26,2.56-2.61,.17-.51-.35-2.48-.68-2.6-.67-.23-1.45-.11-1.93-.42-1.04-.66-1.72-1.62-2.94-2.18-.71-.32-1.23-.07-1.93-.23-.42-.09-.84-.18-1.26-.28-.36-.11-.72-.51-1.17-.52-.67,0-1.28,.34-1.75,.53-.15-.68,.14-.39,.27-.78,.08-.25-.43-.69-.72-.75-.08,.05-.16,.1-.23,.14h-.11c-.17-.6-.92-.62-1.61-.89-.27-.11-.43-.27-.65-.4-.23,0-.65-.02-.93,.01-.31,.06-.38,.4-.58,.58-.33,.31-1.01,.33-1.27,.7-.02,0-.04,.01-.06,.01,.02-.23,.09-.32,.18-.46-.48,.03-1.12,.05-1.69-.08-.11-.27-.22-.53-.33-.79-.38,.04-.92,.46-1.4,.27-.02-.02-.05-.03-.07-.05,.38-.18,.5-.62,.77-.9,.32-.32,.92-.36,1.27-.64,.31-.24,.46-.66,.92-.75,.17-.17,.1-.35,.03-.55-1.11-.23-1.06-1.29-1.28-2.06-.06-.23-.02-.48-.26-.6-.13-.03-.2,.09-.34,.05-.06-.02-1.26-1.17-1.59-1.35-.46-.16-.92-.33-1.37-.49-.37-.16-1.43-.51-2.07-.38-.07,.04-.09,.08-.1,.18-.4-.11-.8-.22-1.2-.33h-.02c-.07,.04-.14,.08-.21,.13-.23-.42-.81-1.13-1.56-1.13-.05,.07-.11,.13-.16,.2v.04c-.03-.31-.05-.61-.08-.92-.28-.45-1.25-1.07-1.91-1.25-.35-.1-.75-.05-1.04-.04-.28-.04-.56-.09-.83-.12v-.02c.82-.12,.64-.5,1.24-.63,.01-.01,.02-.02,.03-.04-.21-.14-.5-.2-.73-.35-.05-.07-.09-.14-.15-.2-.18-.11-.56-.12-.71-.22-.12,.05-.18,.1-.21,.23-.02,0-.04,0-.06,.01-.02-.38-.36-.55-.73-.71v-.15c.27,.03,.52,.06,.77,.09,.05-.01,.1-.03,.14-.05,.02-.03,.04-.05,.06-.08,0-.02-.02-.03-.02-.05-.54-.15-1.78-.3-2.31-.16-.33,.09-.54,.37-.94,.39-1.13,.08-1.38-.63-2.06-.73-.58-.08-1.59,.12-2.07-.11-.24-.12-.17-.21-.26-.43-.18-.44-.81-.61-1.55-.68-.12-.18-.27-.49-.32-.69-.22-.06-.42,.01-.51,.16,.06,.09,.11,.18,.16,.27,.12,0,.24,0,.36,.01,.05,.04,.1,.08,.15,.12-.09,.2-1.87,.41-2.27,.48,.03,.02,.06,.03,.08,.05-.05,.11-.09,.11-.18,.17,.22,.11,.75,1.07,.52,1.37-.13,.13-.43,.19-.68,.21-.26-.19-.36-.59-.55-.82,.1-.32,.36-.59,.6-.79-.02-.34-.19-.58-.3-.88,.19-.18,.64-.22,1.06-.19,.05-.04,.1-.07,.15-.11-.03-.21-.22-.36-.45-.45-.65-.26-.88,.38-1.23,.5-.18,.03-.35,.05-.53,.07,.1-.11,.22-.15,.17-.32,.11,.05,.12,.07,.15,.16h.03c.23-.09,.36-.23,.55-.34-.29-.58-.58-1.2-1.3-1.51-.24-.1-.58-.04-.86-.17-.1-.04-.5-.21-.67-.19-.21,.09-.41,.17-.63,.26-.13,.04-.27,.01-.44,.04-.53,.09-.77,.35-1.44,.18-.28-.34-.54,.05-.86-.24-.05-.15-.12-.31-.17-.46-.52-.43-1.6-1.28-1.76-1.89-.09-.36,.13-.84,.25-1.12,.16-.37,.09-.93,.29-1.26,.11-.1,.22-.19,.33-.29,.34-.39,.14-.82,.04-1.19-.26-.07-.5-.15-.75-.22-.15-.19-.09-.14-.04-.41-.17-.07-.33-.15-.5-.22-.43-.02-.87-.04-1.31-.06-.1-.05-.21-.1-.31-.16-.17,.04-.34,.08-.51,.12-.93,.06-1.59-.34-2.28-.16-.3-.04-.39-.16-.58-.27-.01,.07-.03,.14-.04,.21-.02,0-.04,0-.06,.01-.1-.06-.21-.12-.32-.18,.09-.34,.54-.29,.72-.55,.36-.53,.2-1.09,.51-1.6l.02-.23c-.12,0-.24,.02-.35,.03,.09-.11,.13-.21,.15-.41,.02,0,.05-.03,.08-.03,.04-.02,.08-.05,.12-.08,.09,.18,.18,.35,.27,.52,.02,.01,.04,.02,.06,.03,.12-.39,.24-.78,.36-1.17-.07,0-.13,.02-.19,.02-.02-.01-.03-.03-.05-.05,.02-.06,.4-.7,.45-.74,.24-.2,.63-.3,.82-.55,.08-.09,.06-.21,.06-.33-.99-.72-3.31-.37-4.56-.15-.07,.15-.16,.3-.24,.46,0,.2-.02,.4-.03,.59-.1,.05-.2,.11-.29,.16-.02,.13-.04,.26-.06,.4-.17,.22-.72,.26-.97,.41h-.05c.1,.09,.2,.1,.25,.23-.1,.05-.19,.09-.28,.14-.12,.04-.31-.05-.49-.09l.02-.23c-.76,0-2.26,.36-2.95,.2-.4-.09-.47-.36-.75-.52-.23-.13-.62-.14-.99-.18-.3-.38-.46-.82-.76-1.22-.32-.44-.76-.9-1.04-1.35-.41-.65-.41-2.29-.06-3.25,.07-.25,.16-.5,.23-.74,.21-.25,.43-.49,.65-.74,.19-.48-.38-.98-.1-1.54,.14-.12,.28-.22,.42-.34,.02-.01,.04-.03,.06-.04-.09-.09-.19-.18-.28-.26h-.05c.38-.24,.98-.1,1.27-.43-.07-.08-.15-.15-.23-.23,.17-.14,.59,.12,.98,.08,.61-.07,.91-.41,1.42-.54,.1-.13-.09-.27-.14-.44,.06-.03,.13-.06,.19-.09,.02,.08,.04,.16,.06,.24,.48,.1,.54-.01,.85-.06,.66-.1,1.34,.18,1.83,.31,.28,.07,.66,.14,.82,.06h.05c-.09-.06-.17-.13-.25-.19,0-.01-.02-.03-.02-.04,.11,0,.22,0,.33-.01,.21,.13,.42,.25,.62,.38,.07,.09,.13,.18,.19,.27,.17,.08,.33,.16,.5,.24,.18-.04,.37-.09,.56-.13,.05,.07,.09,.14,.15,.2h.03c.06-.02,.13-.04,.2-.06v-.02c-.06-.04-.12-.08-.18-.13-.02-.02-.03-.04-.05-.06,.04-.05,.08-.1,.13-.14,.28,.05,.74,.32,.8,.55,.24,.03,.4,.04,.62,.04-.18-.29-.72-.35-.75-.71,.13-.04,.26-.07,.4-.11-.09-.17-.3-.26-.49-.37-.28,0-.63,.16-.79-.1,.05-.06,.1-.12,.15-.18,.37-.11,.52,.3,.77,.27,.22-.03,.36-.15,.54-.18,.38-.06,1.11,.11,1.41,.18,.05-.1,.1-.2,.14-.3h.02c.09,.15,.19,.3,.29,.45,.15,0,.31-.01,.47-.02v-.15c.44,.12,.82,.1,1.29,.1,.25,.22,.46,.31,.92,.41,.13,.17,.16,.42,.33,.56,.25-.03,.5-.05,.75-.07,.19-.08,.35-.24,.61-.26,.66-.06,.99,.85,1.34,1.07,.23,.14,.51,.13,.54,.39-.13,.37-.25,.74-.38,1.1,.04,.01,.07,.02,.1,.03,.15,.09,.22-.03,.39-.07,0,.06,0,.13,0,.19-.12,.11-.19,.13-.37,.18,.14,.24,.28,.49,.42,.74l.24,.02c.01,.11,.03,.21,.05,.32,.08,.05,.16,.1,.23,.15,.18,.37-.13,.53,.51,.63,.13,.2,.23,.66,.39,.84,.2-.06,.48-.03,.77-.03-.02,.07-.05,.14-.07,.21h.05c.25-.44,.85-1.25,.66-1.97-.07-.28-.3-.58-.38-.9-.02-.28-.05-.56-.08-.84-.21-.62-1.21-1.61-.91-2.42,.16-.32,.34-.63,.5-.95,.26-.26,.61-.46,.8-.79,.65-.03,1.33-.16,1.63-.5,.23-.25,.26-.47,.61-.59,.33-.11,.93-.04,1.22-.14,.29-.24,.59-.48,.89-.72,.3,0,.61-.01,.9-.01,.12-.06,.23-.12,.35-.18,.01-.01,.02-.03,.03-.04-.11-.05-.14-.05-.18-.14-.12,.05-.3,.09-.42,.13-.06-.03-.12-.07-.18-.1-.08-.05-.09-.1-.12-.18,.1,.08,.13,.15,.28,.2,.24-.08,.22-.18,.41-.24v-.04c-.12-.12-.32-.22-.58-.25-.02-.03-.04-.07-.07-.11,.18,.06,.37,.14,.55,.21-.02-.04-.05-.08-.07-.12v-.02c.21,.09,.25,.2,.58,.27,.12-.09,.24-.17,.36-.26,.04-.05,.03,0,.16,.02,.03-.03,.06-.07,.09-.1,.01-.15-.03-.22-.13-.29-.04-.02,0-.02-.05,0-.13,.05-.15,.17-.22,.26v.04c-.09-.11,.01-.21,.06-.33-.02-.02-.03-.03-.05-.05-.26,0-.49,.02-.82-.02,.04-.12-.07-.24,.03-.36v-.04c.04,.06-.02,.12,0,.21,.03,.04,.07,.08,.1,.12,.1-.02,.18-.03,.28-.04,0-.06,0-.06-.04-.13,.09,.04,.18,.09,.26,.13,.04-.01,.08-.02,.11-.03,.01-.01,.02-.03,.03-.04-.04-.05-.08-.1-.12-.16,.14,.08,.23,.16,.37,.12,.01,.05,.02,.1,.04,.15h.08c-.03-.22-.15-.3-.26-.46l.17,.02c-.02-.1-.02-.07-.07-.14,.02-.02,.04-.05,.07-.07,0,.03,.01,.06,.02,.08h.03c-.02-.43-.34-.4-.76-.37,0-.23-.23-.36-.47-.43,0-.01-.02-.02-.03-.04,.05-.02,.09-.04,.14-.05,.18,.09,.31,.18,.38,.33,.12,.08,.09,.08,.29,.09,0-.07,0-.14,0-.21-.19-.13-.37-.18-.49-.35,.08,.07,.17,.13,.25,.19h.11s-.01-.07-.02-.12c.07,.03,.14,.06,.21,.08h.03c0-.14,0-.17-.14-.22,.04,0,.07-.02,.11-.03-.34-.17-.48-.23-.63-.51,.14,.11,.27,.22,.4,.33,.03,.03,.05,.05,.08,.07,.16-.06,.19-.11,.27-.25-.13-.17-.97-.53-1.28-.66-.04-.12-.01-.18,.03-.32,.07,0,.15-.01,.22-.02-.07,.04-.15,.08-.23,.12v.15c.28,.02,.3,.11,.51,.2,0-.04,0-.09-.01-.13,.17,.15,.4,.3,.62,.42-.04-.3-.31-.33-.35-.58h.03c.04,.11,.1,.16,.22,.22,.02,.02,.03,.03,.05,.04h.03c-.05-.12-.1-.25-.15-.37-.05-.36,.33-.14,.04-.66,.07,.01,.15,.03,.22,.04,.02-.07,.03-.12,.05-.19,.08,.05,.04,0,.07,.09h.02c.05-.04,.05-.05,.07-.14,0,.04,0,.07,.01,.11,.13-.05,.15-.06,.15-.13,.07-.03,.13-.05,.2-.09-.04,.06-.06,.11-.1,.16,.05,.03,.11,.06,.16,.08-.12,0-.22,.02-.33,.03-.05,.05-.1,.1-.16,.15v.02l.22,.02c-.07,.11-.1,.14-.31,.12-.02,.02-.04,.04-.06,.06,.06,.06,.11,.08,.24,.11,0,.02,.02,.03,.02,.05v.08c-.06-.03-.11-.05-.17-.08-.01,0-.04,.01-.05,.02-.02,.04-.05,.08-.07,.12v.02c.2-.06,.15-.02,.37,.08,.01,.02,.03,.04,.05,.07-.13,.02-.26,.05-.39,.07-.01,.01-.02,.03-.03,.04,.04,.05,.08,.11,.13,.16,.06,.04,.13,.08,.2,.13,.09-.04,.19-.07,.28-.11-.02,.18-.03,.11-.13,.22,.06,.04,.12,.07,.18,.1-.03,.04-.06,.08-.09,.12v.02h.03c.11-.02,.13-.03,.21,.02-.19,.22-.43,.41-.56,.71,.02,.04,.03,.09,.05,.13,.03,0,.07,0,.11,0,.08-.12,.17-.24,.25-.36,.09,0,.07,.02,.14-.01,.12-.17,.24-.35,.35-.52,.16-.17,.39-.21,.48-.42,0-.13,0-.27-.01-.4-.33-.14-.52-.74-.56-1.03,.11-.07,.16-.14,.29-.18,0,0,.01,.01,.03,.02-.08,.1-.18,.13-.27,.2,.2,.27,.24,.51,.74,.55,0,.12-.03,.15-.07,.26v.02s.03,.02,.04,.03c.24-.12,.69-.35,.72-.65,.05,.02,.11,.03,.16,.05,.16-.29,.4-.62,.51-.97-.23-.05-.27-.09-.36-.2,0-.03-.02-.05-.02-.07,.13-.06,.15-.09,.28-.05,.1-.17,.2-.33,.3-.5-.08,.14-.16,.29-.24,.44,.86-.36,1.84-.56,3.24-.42,.05-.14,.1-.27,.15-.41,0,0,.15,.01,.27-.02,0,.07-.05,.17-.05,.31,.01,0,.03,.02,.05,.03,.25,.02,.48-.12,.55-.24h.03c.05,.06,.04,.13,.03,.24,.31-.03,.62-.05,.94-.08,.02-.23-.04-.3-.12-.46-.07-.02-.14-.04-.21-.06v.02c.04,.07,.09,.14,.14,.21h.13v.12c-.14,.03-.27,.06-.4,.09-.07-.02-.14-.06-.21-.08-.04-.32-.2-.63-.64-.7,.07-.22,.31-.25,.57-.28,.01-.02,.02-.04,.03-.06-.21-.07-.22-.05-.33-.22,.22-.23,.49-.76,.87-.81l.02-.23c.12-.02,.24-.04,.36-.06-.01,.03-.02,.07-.04,.1,.05,.03,.1,.05,.16,.08h.02c.13-.11,.15-.08,.14-.24,.05-.03,.09-.05,.14-.07-.02,.04-.05,.09-.07,.14,.07,.03,.14,.05,.21,.07,.05-.07,.09-.14,.13-.2,.05,.04,.1,.07,.15,.1,.26-.12,.53-.45,.67-.68h.03s.04,.02,.05,.03c-.04,.06-.09,.13-.13,.2,0,.02,.01,.03,.02,.04,.11,.04,.23,.08,.34,.12,0-.06-.03-.13-.04-.2,.19,.05,.33-.04,.53-.05,.02,.06,.04,.13,.07,.2,.17-.08,.26-.21,.44-.28,.06,.04,.12,.08,.18,.12,.08-.04,.07-.03,.09-.14,.29,.07,.42,0,.66-.06,.05-.05,.05-.05,.07-.1l-.22-.02c.05-.04,.1-.09,.15-.13-.04-.08-.07-.16-.11-.24,.04,.03,.09,.07,.13,.1,.19-.11,.58,0,.75,.12,.15-.05,.3-.1,.46-.15-.03-.04-.05-.09-.07-.14,.09,.05,.19,.11,.28,.16,.6,0,.87-.39,1.51-.34,.06-.07,.12-.14,.19-.21-.02-.07-.04-.14-.06-.2,.1,.08,.16,.14,.16,.28,.09-.03,.17-.06,.26-.08h.02c-.12,.21-.48,.37-.78,.41-.04,.05-.06,.07-.08,.16,.48-.14,1.3,0,1.86,.09,.01,.02,.03,.05,.05,.07-.39-.04-.64,.05-1,.07v.15c-.11-.07-.09-.08-.2-.1,.02-.08,.03-.15,.05-.23-.35-.05-1.58,.4-1.84,.56h-.06s.09,.05,.13,.07v.02c-.11,0-.08,0-.16-.05-.18,.06-.36,.12-.54,.18-.01,.01-.02,.03-.03,.04,.03,.02,.05,.03,.07,.05,.14-.05,.27-.1,.4-.16-.08,.12-.1,.04-.2,.11-.35,.24-.17,.56-.11,.86,.07,0,.04,0,.12-.05,.07,.11,.14,.22,.21,.34,.2-.01,.2-.02,.32,.09,.04-.07,.09-.14,.13-.22,.15-.04,.23-.04,.47,0v-.14s.07,.03,.09,.05c.28-.1,.43-.53,.92-.48,.08-.16-.03-.18-.02-.37l.16,.02s.05,.08,.07,.12h.03c.1-.03,.15-.06,.21-.14,.02,0,.04-.01,.05-.02-.01,.05-.03,.1-.04,.15,.15,.03,.31,.05,.46,.08,.08-.1,.14-.07,.19-.21,.04,.02,.08,.05,.13,.08,.02-.05,.04-.1,.07-.14,.03,0,.06-.01,.08-.02,.14,.04,.11,.06,.18,.13,.55-.09,1.17-.36,1.79-.31,0-.03,0-.06-.02-.09,.13,.02,.27,.03,.4,.06-.02-.02-.03-.05-.05-.07,.03-.01,.06-.02,.09-.03,.11-.03,.09,0,.19,.06,.09-.02,.18-.04,.27-.06-.1-.12-.28-.15-.56-.16-.02-.03-.03-.05-.05-.07,.06-.01,.11-.03,.17-.04,.03-.02,.06-.05,.09-.07-.08-.08-.17-.16-.26-.24-.31-.12-.49,.1-.55-.27-.29,0-.38,.14-.59,.18-.14,.03-.31-.01-.41,0,.04-.04,.06-.08,.1-.12h-.05s-.02-.04-.03-.05c-.27-.13-.51,.04-.7-.04-.08-.05-.15-.1-.23-.16-.12,0-.24,0-.36-.01-.12-.05-.15-.18-.33-.22h-.06v-.03c.11-.01,.22-.03,.33-.05,.02,0,.04,0,.06-.01-.42-.21-1.28-.22-1.08-.74-.08-.1-.07-.09-.18-.08-.04-.18-.01-.26,.09-.4-.12-.12-.4-.13-.67-.15,.4-.26,.45-.12,.63-.53,.1-.06,.2-.12,.29-.18-.06-.04-.12-.08-.18-.12-.08,.02-.17,.04-.25,.06v-.1c-.23,.06-.48,.12-.72,.18-.25-.33-.44-.51-1.04-.61v-.02c.22-.03,.51-.14,.83-.05,.14,.06,.28,.13,.42,.19,.34,.01,1.53-.37,1.67-.56-.32-.86-1.67-1.02-2.83-.78-1.24,.25-2.6,.38-3.61,.84-.83,.37-1.48,1-2.31,1.41,.76-1.01,2.27-2.18,3.6-2.64,.35-.12,.96,0,1.3-.15,.49-.2,.38-.86,1.25-1,.51-.08,1.36,.05,1.87,.17,.75,.16,1.52,.07,2.2,.2,.69,.09,1.39,.19,2.08,.28,.95-.02,2,.07,2.66-.23,.38-.27,.77-.53,1.14-.8,.67,.02,1.33,.03,2,.04,.43-.06,1.29-.54,1.68-.73v-.04c-.16-.2-.32-.4-.49-.59,.17-.19,.32-.45,.48-.66,0-.33-.62-.66-.99-.75-.18-.05-.5,.09-.67,.15-.05-.07-.1-.14-.15-.21,.05-.14,.15-.2,.25-.29-1.02-.92-1.8-.08-2.65,.19-.39,.13-.94,.11-1.33,.19,.07-.23,.2-.56,.42-.66,.23,0,.46,.02,.68,.03,.47-.06,.72-.39,1.24-.43,.53-.04,1.04,0,1.29-.29-.46-.14-.92-.27-1.38-.41-.44-.19-.77-.52-1.33-.64-.43-.09-.7,.07-1.12,.01,.1-.16,.21-.32,.32-.48,0-.31-.92-1-1.23-1.12l-.41-.04c-.26-.1-.49-.67-.63-.87,.02,0,.04,0,.06-.01,.24-.08,.78,.15,1.11,.11,.06-.07,.08-.2,.09-.33-.34-.24-.73-.39-.97-.69,.12-.07,.25-.12,.45-.13-.08-.69-.94-.32-1-1.28-.12,0-.23-.01-.35-.02-.02-.24,.09-.25,.18-.43-.48-.52-1.37-2.01-1.97-2.29-.02-.02-.03-.03-.05-.05-.1,.13-.21,.26-.31,.39-.64,.26-1.17-.03-.56,.73-.45,.37-.83,.45-.91,1.21h-.02c-.21-.19-.19-.53-.6-.59-.17,.18-.33,.36-.49,.55-.35,.16-1.15,.07-1.52,.17-.05-.07-.1-.14-.15-.21,.07-.06,.09-.09,.11-.22-.57-.79-1.14-.49-2.05-.34h-.03c-.17-.21-.14-.3-.05-.6,.15,.02,.3,.04,.46,.07,.53-.5-.7-2.13,.28-2.39,.06-.07,.08-.18,.09-.31-.04-.06-.08-.12-.12-.18-.16-.05-.39,.16-.77,.05-.68-.2-1.28-.56-1.9-.72-.21-.24-.22-.22-.01-.47-.56-.38-1.37-1.13-1.97-1.4-.48-.21-1.59,.26-2.53,.03-.82-.2-1.42-.56-2.26-.73-.56-.11-1.28,.41-1.05,.91,.1,.21,.42,.39,.63,.53-.15,.48-.69,.72-1.01,1.07v.02c.31,.05,.63,.09,.94,.14-.03,.22-.2,.29-.18,.47,.07,.12,.14,.25,.21,.38,.03,.18,.06,.36,.09,.54-.23,.22-.4,.06-.6,.2-.06,.11-.13,.21-.2,.31-.25,.37-.51,.61-.93,.8,.11,.5,1.6,1.14,1.98,1.66,1.47,2.04-1.9,3.67-3.84,3.74,.03,.23,.06,.53,.2,.7,.25,.29,.64,.12,.59,.65l-.27-.03c.05,.21,.11,.42,.16,.63l-.04,.4c.09,.52,.67,1.19-.07,1.54,.03,.31-.01,.47-.11,.8-.21-.18-.22-.46-.54-.58-.22,.1-.34,.18-.45,.38,.12,.16,.2,.34,.28,.54-.44-.22-.54-.64-1.22-.7-.1-.56-.76-1.14-1.6-1.26,.15-.71-.23-.77-.65-1.14,.06-.38,.42-.67,.34-1.2-.09-.17-.17-.34-.25-.51,.12-.3,.24-.6,.36-.9-.58-.57-2.8-.46-3.62-.82-.33-.14-.58-.38-.96-.52-.62-.19-1.24-.38-1.86-.57-.17-.22-.34-.45-.51-.67-.72-.56-2.25-1.24-3.39-1.5-.87-.19-1.37,.15-2.2,.09,.04-.23,.08-.45,.12-.67-.07-.47-.51-1.52-.86-1.82-.73-.17-.96,.02-1.64-.31-.7-.93,.55-3.14,1.23-3.57,.21-.13,.52-.01,.67-.21,.09-.09,0-.33,0-.49,.45-.38,1.7-.56,1.95-.91,.02-.01,.04-.03,.05-.04-.21-.12-.43-.24-.65-.36v-.02s.04-.05,.07-.08c.28-.1,.78,.16,1.3,.13,.41-.02,.62-.12,.9-.25l.02-.19c-.51-.46-1.17-.49-2.04-.77-.37-.23-.74-.46-1.11-.68h-.05v-.03c.71,.15,1.41,.31,2.12,.46,.65,.21,1.13,.52,2.08,.57,.08-.27-.07-.59-.01-.96,.35,.14,.59,.34,1.05,.45,.7,.16,1.91-.48,2.18-.74,.13-.23,.27-.47,.4-.7v-.02c-.86-.11-1.62-.31-2.18-.64-.29-.21-.58-.42-.87-.64-.45-.16-.9-.32-1.35-.47-.02-.01-.04-.02-.05-.03,.41,0,.86-.14,1.37,0,.23,.11,.46,.23,.68,.34,.25,.09,.49,.18,.74,.26,.3,.19,.45,.48,.87,.62,.6,.2,2.22-.8,2.43-1.06-.29-.21-.73-.32-.98-.56h-.05s.06-.08,.1-.12c.39-.14,1.2-.04,1.78,.03,.14,.48,.33,.62,1.04,.61,.37,0,.59,.09,.95,.09-.31-.4-.86-.9-1.42-1.14,0-.02-.02-.03-.02-.05,.11-.05,.23-.1,.34-.16,.94,.13,1.05,1.05,1.9,1.29,.33-.21,.6-.17,1.05-.3,.4-.11,1.36-.78,1.41-1.26-.57-.7-1.51-1.16-1.57-2.2,.22-.05,.35-.15,.64-.12,.12,.18,.25,.37,.47,.49,.15-.05,.28-.1,.43-.15,.15-.13,.19-.84-.1-.99-.12-.14-.38-.07-.67-.09-.23-.2-.45-.4-.68-.6-.24-.08-.5-.16-.74-.24-.8-.28-1.21-.42-2.2-.51-.11,.06-.21,.12-.32,.18-.05,.23-.1,.46-.15,.69,.35,.21,.69,.42,1.04,.64-.03,.12-.06,.23-.09,.35-.27,.08-.65-.02-.98-.07-.37,.23-.31,.81-.58,1.15-.31,.4-.9,.34-1,1-.27,.1-.75,.19-1.09,.21-.23-.21-1.24-1.22-1.31-1.44-.05-.18,.13-.41,.19-.51,.21,.03,.43,.05,.65,.08,.27-.69-.6-1.64-1.42-1.77-.73,.35-.6,1.35-1.67,1.41,.04-.4,.07-.82-.11-1.09-.12-.18-.37-.26-.45-.49,.2-.13,.36-.21,.53-.39-.19-.14-.74-.47-1.16-.41-.18,.02-.32,.11-.63,.02-.28-.08-.45-.26-.82-.31,.09-.15,.18-.3,.26-.44,.25-.12,.41-.17,.86-.13,.06-.08,.13-.16,.19-.24-.21-.26-1.29-1.2-1.62-1.35-.04-.28,.21-.54,.05-.84-.24-.47-1.62-1.28-2.77-1.1-.22,.04-.24,.24-.5,.27,.03,.25,.21,.42,.42,.56-.03,.1-.06,.21-.09,.31-.38-.07-.48-.26-.9-.27-.3,.24-.57,.44-.77,.81,.29,.17,.66,.36,.85,.59-.16,.14-.42,.32-.67,.38-.08,.66,1.27,1.18,2,1.34,.16,0,.32-.02,.47-.02,.53,.15,.77,.6,1.71,.46h.02l-.09,.92c-.26-.13-.47-.31-.63-.5-.46-.04-.57,.12-1.03,.11-.1,.11-.2,.23-.3,.35v.02c.44,.06,.64,.08,.98,0,.33,.05,.37,.4,.43,.61-.31,.25-.59,.02-.92,.17-.23,.18-.45,.35-.68,.53-.14,.08-.64-.01-.87-.05-.6,.36-.09,1.07-.14,1.68-.45-.19-1.41-.42-1.24-1.01,.07-.26,.28-.5,.27-.8-.24-.13-.5-.14-.82-.27-.61-.24-.98-.48-1.87-.46-.02,.11-.04,.21-.06,.32,.57,.17,1.13,.15,1.46,.46,.19,.18-.04,.49-.12,.62-.66-.05-.91-.42-1.31-.7-.82,.18-1.97,.02-3.16-.08-.29-.02-.42,.07-.64,.08-1.05,.08-2.35-.53-2.67-.94-.75,0-1.2-.16-1.62-.33-1.22,.75-2.42,1.52-3.6,2.31,0,.02,0,.04,0,.05,0,0-.02-.02-.03-.03-9.04,6.08-16.76,13.35-22.78,21.55,.02,0,.03,0,.05,0,.06,.22,.16,.4,.24,.58Z" style="fill:#70d44b;"/><path d="M58.13,12.41c-.48,.23-.96,.46-1.44,.69,.09,.06,.18,.11,.31,.14,.87,.22,.96-.37,1.14-.84Z" style="fill:#70d44b;"/><path d="M79.43,63.78s-.02-.04-.02-.07v.06h.02Z" style="fill:#70d44b;"/><path d="M82.28,4.23c.05-.07,.06-.17,.06-.27-.6,.14-1.19,.29-1.78,.44,.69,.15,1.4,.21,1.72-.17Z" style="fill:#70d44b;"/><path d="M84.82,3.38c-.27,.06-.54,.12-.81,.18,.31,0,.61-.01,.84-.05,.02-.03,0-.08-.03-.14Z" style="fill:#70d44b;"/><path d="M62.11,12.11c-.17-.15-.33-.29-.5-.43-.06-.07-.13-.14-.19-.21,.61-.14,1.99,.22,2.77,.29,.86-.42,1.3-1.26,2.14-1.7v-.08c-.5-.57-1.11-.37-1.78-.37-1.55,.62-3.07,1.27-4.58,1.95,.16,.23,.32,.44,.32,.84,.77,.33,1.51,.26,1.83-.29Z" style="fill:#70d44b;"/><path d="M67.92,8.61c.07-.09,.14-.18,.21-.27,.18-.16,.61-.17,.95-.18-.03,.34,0,.62,.22,.81,.77,.19,1.55,.15,2.31,.14,.05-.13,.1-.25,.14-.36,.5,.1,.8,.36,1.26,.5,.51,.14,1.77,.11,2,.04,.01-.22,.02-.43,.03-.65,.05-.02,.09-.04,.14-.05,.15,.06,.3,.13,.45,.19,.15,.1,.18,.46,.19,.64,.21,.1,.42,.21,.63,.32,.37,.12,2.01,.09,2.56,.1-.07-.18-.13-.37-.19-.55-.04-.31,1.08-.53,1.37-.59,.02-.02,.04-.03,.06-.06-.36-.53-.81-.45-1.57-.75-.36-.22-.72-.45-1.08-.68-1.25-.36-4.47-.25-5.18,0-.16,.12-.33,.25-.5,.37-.45-.06-.68-.21-.91-.37-1.36,.46-2.71,.94-4.04,1.45,.27,.07,.58,.09,.94-.06Z" style="fill:#70d44b;"/><path d="M76.69,5.46v-.02c-.35,.1-.7,.21-1.05,.31,.29,.09,.67,.16,1.19,.21-.05-.17-.1-.33-.14-.5Z" style="fill:#70d44b;"/><path d="M78.14,5.71s.58,.85,.63,.91c.63,.03,.9-.14,1.36-.19,.66-.04,1.32-.07,1.98-.1,.16-.11,.33-.21,.5-.31l.03-.36c-.08-.09-.17-.19-.24-.28-.3-.17-.81-.11-1.24-.21-.57-.13-1.33-.25-2.05-.4-.76,.2-1.51,.41-2.27,.63,.21,.1,.42,.2,.63,.3,.23,0,.46,0,.68,0Z" style="fill:#70d44b;"/><path d="M110.61,17.31c.16-.07,.47-.37,.25-.56-.27,.18-.76,.19-.34,.54l.1,.02Z" style="fill:#70d44b;"/><path d="M108.51,13.72c.5-.03,.09-.28-.19-.31,0,0,0-.02,0-.02-.11,.09-.07,.29,.2,.34Z" style="fill:#70d44b;"/><path d="M56.06,16.38c-.19,.19-.28,.7-.55,.82-.37,.16-.86,.11-1.08,.41-.03,.02-.06,.04-.09,.05,.29,.17,.64,.17,1.02,.3,.62,.22,1.93,.95,2.82,.85,.3-.12,.61-.24,.91-.36,0-.01,.02-.03,.03-.04-.37-.42-.48-.28-.74-.88-.11-.14-1.65-1.07-1.91-1.16-.13,.01-.27,.02-.41,.03Z" style="fill:#70d44b;"/><path d="M108.1,14.49c.19-.13,0-.38-.11-.53-.02,0-.03,0-.06,0-.14,.06-.16,.11-.24,.19-.2,.21,.05,.24,.41,.33Z" style="fill:#70d44b;"/><path d="M99.18,25.48c.07-.14,.13-.27,.21-.41-.63-.1-1.25-.04-2.02-.11l.03-.31c.27-.02,.54-.05,.8-.07h.05c-.19-.34-.63-.83-1.05-1.01-.41-.18-.59,.13-.96,.03-.64-.16-.66-.43-1.4-.22-.14-.17-.12-.55-.31-.69-.59-.41-1.75-.51-2.06-1.09,.29,0,.59,0,.88,0,.03-.04,.06-.09,.1-.13-.21-.16-.41-.32-.61-.49v-.02c.06-.05,.12-.09,.18-.13,.4-.05,.75,.26,1.01,.33,.35,.1,.74,.1,1.11,.13,.01-.01,.02-.02,.03-.04-.14-.17-.21-.32-.45-.43-.38-.18-1.28-.19-1.43-.52,.02-.05,.03-.1,.04-.14,.38-.06,.93-.02,1.42,.03-.09-.38-.59-.86-1.11-.97-.17,.05-.29,.21-.44,.26-.22,0-.44,0-.66,0-.27,.03-.46,.14-.78,.13-.08-.07-.15-.14-.22-.21,.04-.05,.09-.1,.13-.16,.37-.3,1.18-.11,1.44-.54-.61-.78-1.37-.33-2.24-.33-.14-.11-.27-.21-.41-.32,0-.18,0-.35,0-.53-.59-.02-.9,.13-1.51,.1,.28-.22,.57-.44,.85-.66v-.02c-.44-.28-.95-.44-1.55-.66-.28,.24-.74,.41-.95,.71-.03,.01-.06,.03-.09,.04-.19-.33-.4-.67-.64-.98-.5-.06-.92,.11-1.18,.33-.09-.02-.18-.04-.27-.07-.07-.07-.15-.15-.22-.23,.19-.24,.8-.53,1.2-.56v-.15c-.16-.22-.45-.33-.7-.51-.2-.15-.27-.42-.47-.56-.31-.21-.67-.07-1.05-.14-1.18-.25-2.5-.99-3.16,.15,0,.24,.02,.48,.03,.73-.03,.02-.06,.04-.09,.06-.16-.06-.32-.11-.48-.18,0-.2-.02-.4-.02-.6-.32-.21-.61-.23-1.07-.23-.15,.52-.74,.65-1.38,.44l.06-.65c.11-.22,.9-.81,.84-1.06-.19-.21-.38-.42-.56-.63-.22-.25-.43-.51-.63-.76-.99-.64-3.38-.03-4.13,.16-.02,.03-.06,.05-.08,.08,.35,.2,.71,.39,1.06,.59,0,.02,.02,.03,.03,.05-.52-.05-1.03-.05-1.47-.19-.14,.06-.28,.12-.42,.17-.14,.14-.16,.43-.15,.66,.14,.1,.29,.2,.44,.3,.13,.02,.27,.04,.41,.06,.18,.13,.36,.25,.53,.37,.02,.03,.03,.05,.05,.07-.38-.02-.68-.02-1-.14-.23,.08-.52,.21-.64,.4,.14,.17,.29,.34,.44,.51,.26,.2,.64,.19,.77,.47,.16,.38-.22,.58-.36,.81-.45-.07-.89-.16-1.34-.23l.03-.26c.23-.05,.46-.11,.7-.16,.02-.03,.05-.07,.07-.1-.48-.53-1.91-1.05-1.02-1.9-.22-.16-.44-.33-.66-.49-.02-.12-.04-.24-.05-.37,.12-.32,1.63-1.3,2.03-1.39,.04-.03,.08-.06,.12-.09-2.21-.96-5.91,.42-5.95,2.07,.18,.12,.36,.23,.54,.35,.03,.07,.02,.09,0,.21-.7,.11-.8,.25-.9,.89,1.42,.44,2.66,.34,3.43,1.27-.27,.23-1.97-.13-2.48-.16-.27,.78,1.42,1.27,2.45,1.26,.07-.09,.15-.19,.22-.28,.22,.06,.42,.11,.64,.17,.08,.13,.06,.35,.03,.55,.16,.07,.32,.13,.48,.2l1.55,.15c.56,.14,1.12,.28,1.68,.42,.16-.02,.31-.03,.47-.04,.31,0,.68,.22,.84,.33,.2-.05,.39-.09,.59-.13,.44-.05,.91,.42,1.18,.56,.12-.3-.27-.41-.26-.73v-.02c.63-.25,1.47,.69,2.37,.67,.25,0,.38-.09,.57-.13,.05-.07,.06-.17,.03-.27-.28-.63-1.95-.75-2.2-1.26-.02-.02-.04-.03-.05-.05,.06-.01,.12-.03,.17-.05,.27-.09,.98,.4,1.29,.48,.16-.03,.32-.05,.47-.08,.17,.14,.34,.29,.51,.43,.54,.37,1.13,.35,1.16,1.07,.11,.07,.22,.14,.34,.2,.19,.03,.38,.05,.57,.08,.52,.36,1.04,.72,1.56,1.08-.02,.08-.03,.15-.05,.23-.45-.01-.89-.02-1.34-.03,.03,.18,.05,.37,.08,.56h.03c.35-.06,.85-.06,1.19-.11l.54,.05c.18-.09,.37-.16,.55-.25,.05,.08,.36,.69,.39,.72,.39,.37,.84,.46,1.43,.73,.34,.15,.9,1.35,.92,1.79-.25,.17-.49,.35-.74,.52-.11,.15-.21,.29-.31,.44-.3,.15-1.47,.39-1.62,.56-.03,.07,.83,1,.98,1.11-.02,.05-.05,.1-.07,.14v.05c-.27-.04-.52-.09-.79-.13-.5,.02-.92,.18-1.57,.13-.09,.18-.04,.3-.05,.55h-.03c-.15-.16-.3-.32-.45-.47-.15-.11-1.65-.52-1.9-.48-.08,.06-.08,.39-.13,.49-.7,0-.96,.22-.98,.8,.78,.29,1.55,.55,2.62,.61,.21-.13,.41-.25,.62-.39,.38,.13,.76,.25,1.14,.37,.11,0,.08,0,.14-.03,.09-.09,.01-.36-.03-.49v-.08c.68,.15,.88,.41,1.69,.48-.07,.56,.38,.98,.84,1.21,.21,.05,.43,.1,.65,.15,.24,.13,.48,.27,.72,.41-.13,.19-.35,.25-.55,.37,.18,.45,.77,.44,1.16,.75,.02,0,.27,.02,.43,.08,.11,.07,.22,.13,.34,.2,.2,.04,.41,.09,.61,.13,.16,.17,.32,.34,.47,.51,.39,.23,.86,.19,1.39,.35,.85,.32,1.69,.64,2.54,.96-.22-.74-.78-1.33-1.47-1.77-.62-.41-1.83-.78-1.88-1.52,.79,.08,.9,.36,1.43,.56-.02-.16-.04-.33-.06-.49,.76,.56,1.06,1.36,2.46,1.41,.26,.39,.56,.71,1.09,.93-.14-.27-.28-.55-.41-.83,.17,.05,.34,.09,.51,.13h.02c.04-.61-.66-.9-.51-1.49,.34,.23,.7,.64,.84,.97,.04,.03,.07,.05,.11,.07,.26-1.09-.67-1.03-1.1-1.7,.03-.04,.07-.08,.1-.12,.11-.01,.21-.02,.33-.03h.06c-.26-.12-.51-.24-.75-.37-.28-.16-.43-.47-.77-.58-.08,.04-.17,.08-.26,.12-.04,.03-.08,.05-.12,.08-.26-.43-.55-.89-.77-1.37-.22-.05-.45-.1-.67-.15-.16-.38-.43-.67-.53-1.09,.32,.16,.72,.39,.84,.68,.17,0,.35,0,.52,0,.03-.02,.06-.05,.09-.07-.21-.23-.43-.45-.65-.68,.04-.24,.47-.21,.64-.34,.97,.19,1.09,.76,1.78,1.09,.3,.14,.66,.11,.88,.26-.07,.11-.13,.23-.2,.34,0,.27,.21,.39,.33,.58,.18-.04,.37-.09,.56-.13,.12,.14,.07,.27,.17,.44,.08,.13,.82,.48,1.03,.44h.05c-.04-.21-.08-.43-.13-.64,.07-.25,.14-.5,.21-.75,.02,0,.04-.01,.05-.02,.14,.18,.34,.45,.64,.52,.18-.28,.53-.4,1-.41-.02-.29-.37-.55-.65-.68,0-.02-.02-.03-.02-.05,.67-.25,.76,.28,1.38,.14,.11-.05,.28-.3,.42-.38,.02-.02,.02-.04,.04-.06-.35-.24-.7-.48-1.05-.72-.42,.24-.73,.19-1.29,.04Z" style="fill:#70d44b;"/></g><g><path d="M43.76,20.55s-.02,.01-.03,.03c0,0,.02,.02,.03,.03,0-.01,0-.03,0-.05Z" style="fill:#70d44b;"/><path d="M75.37,27.81c.27-1.28-.42-.97-1.39-1.51-.56-.31-.86-.71-1.55-.98-.09,.1-.18,.2-.27,.29-.38-.06-.48-.2-.71-.34,.07-.12,.14-.24,.2-.36-.21-.16-.41-.32-.61-.49-.41,.76-1.34,1.7-.89,2.65-.54,.14-1.12,.25-1.36,.69v.09c.63-.03,1.27-.06,1.91-.09,.1,.25,.1,.45,.05,.84,1.21,.12,1.38-.63,2.52-.58,.03-.02,.06-.04,.09-.05-.02-.14-.05-.28-.07-.43,.05-.06,.1-.12,.16-.17,1.14,.12,.89,.53,1.44,.9,.43,.29,1.27,.31,1.84,.48,.18-.15,.37-.21,.63-.3,.02,0,.04-.01,.06-.02-.19-.12-.38-.23-.57-.35-.42-.18-1.01-.16-1.51-.26Z" style="fill:#70d44b;"/><path d="M88.07,83.75c.05,.13,0,.3,.01,.44,.36,.11,.49,0,.87,.03,.5,.03,.82,.2,.96-.23-.32-.24-1.2-.28-1.69-.33-.05,.03-.1,.06-.15,.09Z" style="fill:#70d44b;"/><path d="M84.74,82.16c-.39-.09-.9-.07-1.08-.38-.19,0-.27,.05-.39,.07-.17-.03-.34-.06-.51-.09-.17,.01-.26,.13-.55,.07-.46-.1-.81-.27-1.36-.33-.12,0-.24,0-.36,0-.03,.02-.06,.05-.09,.07v.08c.26,.14,.81,.18,.94,.41,.17,.28-.37,.45,.34,.73,.02,.02,.03,.05,.05,.07-.57,.22-1.76-.05-2.44-.28-.06,.05-.12,.09-.18,.13l-.03,.04c.12,.23,.39,.3,.61,.46,.22-.02,.24-.13,.45-.15,.32,.07,.65,.13,.97,.2,.33,.01,.67,.02,1,.03,.2,.18,.42,.55,.71,.65,.22-.36,.46-.61,.95-.74,.09,.08,.17,.17,.25,.26,.31,.14,.5-.15,.78-.18,.19-.02,.31,.07,.41,.1,.57-.15,.76,.23,1.03,.38,.18-.08,.29-.22,.42-.34-.4-.54-1.7-.66-1.91-1.29Z" style="fill:#70d44b;"/><path d="M99.14,54.86c-.07-.04-.14-.08-.2-.13-.01-.33,.39-.26,.62-.43,.2-.14,.31-.48,.47-.63-.16-.11-.32-.22-.48-.32-.23,.32-1.16,.78-1.06,1.27,.15,.71,1.75,.64,2.01,.11-.56-.73-.83,.05-1.36,.12Z" style="fill:#70d44b;"/><path d="M87.38,95.55s-.04,.03-.06,.06c.18,.03,.18,.05,.26,.13-.06,.09-.07,.16-.03,.27-.15,.04-.3,.07-.45,.11-.02,.02-.04,.04-.06,.06v.02c.36,.04,.74,.06,1.03,.06,.11-.26,.02-.52,.21-.7v-.02l-.16-.02c-.19,.06-.49,.06-.74,.04Z" style="fill:#70d44b;"/><path d="M100.53,107.53c-.38,.37-.35,1.06-.2,1.42,.61,.18,1.83,.14,2.21-.14,.22-.17,.34-.65,.5-.85-.23-.2-1.88-.38-2.51-.43Z" style="fill:#70d44b;"/><path d="M118.27,33.25c-.05,.1-.41,.1-.49,.25,0,0,0,0,0,.01,.34,0,.52-.06,.69-.13,0-.05-.01-.07-.06-.11-.05-.01-.07-.02-.15-.01Z" style="fill:#70d44b;"/><path d="M109.04,53.39s-.01-.03-.02-.05c-.08-.03-.17-.06-.26-.09-.12,.05-.21,.1-.27,.21-.02,0-.03,0-.06,.02-.12-.14-.21-.39-.27-.58v-.02c.54-.14,.51-.03,.96-.29v-.11s-.11-.05-.17-.08c-.18,.05-.37,.1-.61,.09-.14-.09-.31-.21-.38-.36-.03-.02-.05-.05-.08-.07,.22-.11,.45-.23,.67-.34,.06-.04,.11-.09,.18-.13-.35-.21-.8-.41-1.38-.41-.06,.08-.12,.15-.19,.22-.6,.03-1.08-.3-1.43-.56v-.06c.17-.1,.34-.21,.5-.31-.18-.07-.37-.15-.55-.22-.48,.02-.47,.4-.95,.44,.06-.82,1.6-1.17,1.22-1.89,.2-.02,.45-.06,.62-.09,.01-.02,.02-.05,.04-.08-.01-.04-.03-.07-.05-.11-.05-.02-.11-.04-.16-.06-.34,.03-.68,.07-1.02,.11-.85,.33-1.98,1.44-2.41,2.18,.12,.13,.25,.28,.37,.41-.39,.26-.76-.06-1.06,.45-.02,.03-.04,.05-.06,.07,.2,.07,.41,.13,.61,.19-.41,.26-1.16,.26-1.46,.62-.08,.09,.02,.25,.07,.39,.42,0,.84,.01,1.26,.02,.51,.11,1.02,.21,1.53,.32,.46,.11,.98,.09,1.08-.17,.15,0,.29,0,.44,0l-.03,.31s.03,.05,.05,.07c.06,0,.11,0,.17,0,.14-.02,.2-.11,.24-.21,.24,.04,.48,.09,.72,.14v.04c-.54,.13-.71,.49-1.37,.57-.06,.08-.04,.05-.01,.15,.13,.07,.34,.1,.57,.11,.44-.3,1.24-.53,1.56-.88,.04,.02,.09,.04,.13,.06,.08,.1,.16,.2,.24,.3-.03,.22-.17,.35-.32,.46,0,.06,0,.11,0,.17,.08,.02,.15,.03,.22,.04,.12-.06,.23-.12,.35-.18,0,.12,.01,.24,.02,.36,.22,.07,.45,.14,.66,.21,.16-.29,.53-.59,.5-.94-.52-.02-.55-.14-.43-.42Z" style="fill:#70d44b;"/><path d="M67.04,149.32s.04,0,.06-.01c.09-.23,.17-.47,.26-.7-.07-.14-.15-.29-.23-.43,.17-.1,.33-.19,.5-.29,0-.17-.04-.23-.17-.32-.05-.05-.04-.04-.16-.06-.12,0-.24,0-.36,0-.25,.38-.24,1.07-.52,1.44,.13,.21,.33,.25,.62,.35Z" style="fill:#70d44b;"/><path d="M107.5,17.74c.19-.04,.38-.08,.58-.12,.25-.04,.43,.03,.67,0,.42-.06,.87-.24,1.03-.41,.25-.27-.48-.5-.76-.59-.27-.09-.41-.24-.58-.39-.33-.27-.81-.48-1.62-.44-.26,.09-.51,.15-.63,.29,.04,.13,.31,.11,.36,.27-.1-.02-.2-.03-.3-.05-.11,.05-.18,.07-.2,.15,.14,.12,.35,.2,.47,.34-.18-.03-.4-.05-.59-.01-.01,.04,0,.05,.04,.07,.12,.03,.25,.06,.37,.09,.18,.05,.35,.11,.53,.16,.09,0,.18,0,.28,0h.03s.02,.05,.03,.07c.09,.03,.22,.03,.34,.03,.01,0,.02,.02,.03,.03-.19,.04-.26,.03-.44-.01-.11,.01-.34,.07-.38,.12-.06,.13,.49,.44,.75,.4Z" style="fill:#70d44b;"/><path d="M105.18,9.78c-.17,.07-.29,.18-.36,.29,.05,.14,.31,.2,.53,.23,.07-.2,.05-.32-.13-.53-.01,0-.02,0-.04,0Z" style="fill:#70d44b;"/><path d="M79.46,64.03h.03c-.02-.05-.03-.1-.04-.16,0,.05,0,.1,0,.16Z" style="fill:#70d44b;"/><path d="M84.31,22.92c.04-.28,.07-.57,.11-.86-.2-.2-.6-.41-.96-.49-.28,.02-.55,.04-.83,.06-.49,.17-1.38,1.03-.72,1.5,.62,.45,2.18,.18,2.4-.21Z" style="fill:#70d44b;"/><path d="M74.55,82.35c-.11,.05-.21,.1-.32,.14,.07,.1,1.01,.66,1.28,.64,.19-.02,.27-.24,.62-.13,.21,.06,.26,.16,.53,.18,.02-.04,.03-.07,.04-.1-.28-.39-1.36-.66-2.14-.72Z" style="fill:#70d44b;"/><path d="M79.42,63.87h.03s-.01-.04-.02-.06v.06Z" style="fill:#70d44b;"/><path d="M79.56,81.12c-.5-.36-.82-.58-1.8-.66-.02-.02-.05-.04-.07-.07,.06-.09,.13-.17,.19-.25-.31-.3-1.51-.45-2.02-.67-.16-.16-.31-.33-.47-.49-.53-.35-1.34-.38-1.99-.69-.25-.2-.5-.4-.76-.61l-.35-.03c-.68-.19-1.42-.38-2.36-.46-.35,0-.71-.01-1.07-.02-.6,.05-1.14,.27-1.67,.37-.14,.14-.16,.24-.13,.46-.1,.05-.2,.11-.29,.16-.03,.03-.08,.05-.12,.07,.39,.19,.87-.03,.93-.27,.18-.05,.53,.04,.74-.02,.74-.19,.78-.57,2.05-.2,.02,.04,.05,.07,.07,.11v.02c-.21,.02-.41,.05-.61,.07,.43,.32,1.1,.23,1.76,.45,.48,.16,.85,.46,1.39,.63,.28,.08,.87,.01,1.1,.17,.18,.1,.25,.43,.24,.64,.4,.24,1.24,.32,1.61,.58-.05,.21-.26,.33-.47,.38-.09,.06-.18,.13-.27,.18v.02c.6,.08,1.15-.08,1.69,.04,.41,.08,.83,.15,1.24,.23,.46-.01,.87-.11,1.41-.09,0-.01,.02-.03,.03-.04Z" style="fill:#70d44b;"/><path d="M79.74,64.55c-.08-.17-.17-.35-.25-.53,.01,.21,.1,.32,.17,.48,.02,.01,.05,.03,.08,.05Z" style="fill:#70d44b;"/><path d="M66.25,160.15c-.06,.13-.16,.21-.09,.37,.05,.04,.28,.06,.41,.04h.03l-.05,.49c.05,.03,.1,.07,.15,.1,.03,.01,.05,.02,.08,.03,.21-.31,.34-.47,.37-.94-.04-.03-.09-.05-.13-.08-.22,.11-.45,.04-.77-.01Z" style="fill:#70d44b;"/><path d="M73.61,163.05c-.4-.38-.48-.87-1.25-.91-.17-.23,.17-.3,.38-.49v-.11c-.3-.23-.97-.3-1.31-.51-.45,.31-1.16,.4-1.4,.92v.02c.28,.18,.75,.06,1.2,.07,.03,.01,.05,.03,.08,.05l-.02,.19c-.3,.08-.6,.15-.9,.23-.01,.02-.02,.04-.03,.06,.24,.47,.28,.33,.79,.61,.19,.1,.33,.37,.44,.53-.12,0-.23,0-.36,0-.26-.34-.93-.32-1.5-.32-.08,.2-.13,.38-.25,.57v.02c.41,0,.71-.11,1.05-.13,.44-.03,.53,.24,.82,.31,.4,0,.8,0,1.21,0,.46,.07,.92,.15,1.37,.22,.2,.09,.4,.18,.61,.27,.35,.1,1.15-.07,1.64-.03,.05-.04,.08-.08,.12-.11,.01-.05,.03-.1,.04-.14-1.53-.15-2.03-.67-2.72-1.33Z" style="fill:#70d44b;"/><path d="M56.47,13.32s-.05-.05-.07-.07c-.22,.11-.44,.22-.66,.32,.08,.02,.15,.03,.23,.04,.16-.1,.33-.19,.49-.29Z" style="fill:#70d44b;"/><path d="M52.56,16.29c0-.37-.15-.63-.39-.85-.3,.17-.61,.34-.91,.51,.34,.17,.71,.33,1.24,.38,.02-.01,.04-.02,.06-.04Z" style="fill:#70d44b;"/><path d="M50.4,17.37c.42-.03,.58-.23,.96-.29,.02-.33-.23-.36-.35-.59-.15-.06-.43-.04-.72,0-.46,.27-.92,.53-1.38,.81,.49,.07,.99,.11,1.49,.07Z" style="fill:#70d44b;"/><path d="M21.29,43.83c0-.59-.41-.77-.87-.98-.19,.27-.38,.54-.57,.8,.37,.17,.8,.32,1.28,.36,.05-.06,.1-.12,.15-.18Z" style="fill:#70d44b;"/><path d="M79.41,63.72s-.01-.04-.02-.07v.06h.02Z" style="fill:#70d44b;"/><path d="M21.24,42.7c.3,.05,.42,0,.66-.04-.29,.48,.43,.71,.66,1.04,.07,.24,.14,.48,.2,.72,.1,.56-.43,.77-.55,1.16-.19-.04-.24-.2-.49-.26v-.02c.16-.12,.32-.25,.47-.38,.08-.62-.63-.41-1.2-.56-.36-.1-.74-.38-1.15-.33-.1,.61,.48,.97,.41,1.69h.03c.08-.04,.05,0,.09-.09,.09,.05,.19,.09,.29,.13-.09,.02-.19,.04-.28,.06l-.07,.74c.15,.04,.3,.09,.46,.13l-.32-.03c.07,.41-.01,1.17-.25,1.73-.1,.25-.45,.73-.35,1.07,.06,.1,.13,.21,.19,.31-.08,.12-.17,.24-.25,.36-.1,.07-.29,.07-.37,.17-.29,.38,.31,1.46,.36,1.86,.08,.6-.53,.82-.43,1.31,.07,.34,.58,.59,.65,.95-.05,.09-.09,.16-.14,.25-.03,.11,.1,.36,.09,.45v.04l1.21,1.31c.11,0,.13,.04,.21,.1,.02-.11,.03-.21,.06-.31h.03c.05,.25,.21,.51,.4,.68,0,.02,.01,.05,.02,.07-.25-.06-.32-.18-.37-.38-.03,0-.05-.02-.08-.03-.02,.03-.04,.05-.06,.08-.15,.24,.13,.35,0,.55,.26,.2,.29,.28,.73,.41,.06,.14,.13,.34-.14,.34-.05,.64,1.29,1.33,1.15,1.62,.09,.11,.16,.11,.32,.16,0,.15-.08,.29-.02,.46-.1,.18,.05,.15,.13,.31,.39,.05,.78,.1,1.16,.15,.48,.19,.39,.47,1.21,.54,.1,.13,.15,.15,.08,.29,.04,.02,.09,.05,.13,.07,.73-.28,1.26,1.06,1.41,1.5l-.04,.42c.13,.11,.27,.22,.4,.34-.3,.39,.12,.65,.34,.98,.12,.18,.05,.34,.13,.59,.05,.16,.27,.17,.35,.29,.06,.2,.13,.39,.19,.59,.12,.2,.93,.63,1.18,.82,.29,.22,.94,.81,.41,1.17-.21,.23-.7,.11-1.07,0,.23,.38,1.45,1.45,2.09,1.31,.13,.13,.27,.27,.4,.4,.14,.11,.34,.12,.5,.22,.23,.14,.36,.54,.45,.76,.09,.24-.22,.52-.07,.74,.25,.38,1.11,1.01,1.54,1.3,.23,.16,.55,.23,.67,.45,.09,.15,.12,.39,.17,.53,.06,.02,.12,.05,.19,.08,.26-.11,.53-.25,.63-.53-.1-.17-.24-.15-.41-.27-.15-.24-.3-.48-.45-.72-.13,.05-.28,.1-.42,.15-.4-.33-.12-.33-.25-.81-.19-.35-.39-.7-.58-1.05-.12-.31-.14-.69-.23-.96-.79,0-.55-.36-.79-.9-.15-.05-.3-.09-.45-.13-.13-.2-.18-.53-.2-.78-.18-.09-.37-.18-.55-.26-.25-.24-.28-.7-.48-.96-.26-.34-.86-.46-1.05-.85,0-.28,.02-.55,.03-.83-.09-.11-.18-.22-.27-.32-.08-.22,.15-.47,.2-.68,.32,.12,.54,.33,.92,.39,.05-.05,.1-.1,.15-.16,.09,.03,.18,.06,.27,.09,.06,.09,.09,.16,.08,.31,.26,.1,.52,.18,.74,.28-.12,.88,1.27,3.01,1.93,3.46,.26,.1,.52,.21,.79,.31,.1,.14,.06,.23-.01,.43,.26,.46,.74,.27,.95,.96,.4-.05,.63,.06,.75,.43-.23,.15-.35,.33-.26,.61,.05,.04,.1,.08,.15,.12,.05-.02,.28-.09,.39-.03,.1,.13,.19,.26,.29,.39,.21,.1,.42,.2,.63,.29,.05,.16,.08,.31,.12,.46,.23,.16,.46,.32,.69,.47,.69,.75,1.39,1.5,2.08,2.26-.06,.09-.11,.19-.17,.28,.24,.35,.66,.76,.14,1.12,0,.11,.06,.12,.15,.23-.11,.1-.53,.11-.52,.26,.08,.08,.15,.17,.22,.26,.18,.24,.32,.56,.59,.74,.31,.15,.61,.3,.92,.45,.26,.28,.53,.56,.79,.84,.49,.16,.99,.31,1.49,.46,.59,.02,.95,.51,1.41,.77,.45,.21,.9,.43,1.36,.64,.33,.08,.66,.16,.99,.24,.47,.26,.94,.51,1.4,.77,.25,.11,1.78,.55,2.06,.54,.89-.01,1.42-.62,2.49-.24,1.12,.39,2.31,1.8,3.24,2.44,.32,.22,.71,.1,1.2,.27,1.01,.33,1.92,.95,3.26,1.08,.08-.08,.13-.14,.19-.26,.3,.08,.36,.26,.45,.47l-.32-.03v.11c.47,.49,1.13,.89,1.58,1.4,.15,.17,.37,.58,.68,.64,0,.04,0,.07,.02,.11-.07,0-.14,0-.22,0,.09,.05,.19,.1,.28,.15,0,.04,0,.07,.01,.1-.06,.14-.22,.18-.33,.31,.2,.62,.69,.43,.85,.83,.02,.01,.04,.02,.05,.03,.1-.07,.2-.14,.29-.2-.08-.12-.16-.14-.34-.21-.03-.08-.06-.17-.08-.26v-.02c.2,.11,.4,.22,.6,.33,.08,.13,.06,.41,.23,.49,.53,.25,1.48,.38,.95,.94,.08,.15,.27,.24,.52,.28,0-.01,.02-.03,.03-.04-.07-.09-.15-.18-.22-.27,.03,0,.06,0,.09-.01,.29,.11,.43,.44,.39,.74,.07-.07,.14-.14,.22-.21,.56-.05,.85,.19,1.43,.27,.1,.29,.19,.45,.57,.55,.03-.09,.05-.18,.08-.27h.03c.08,.17,.29,.4,.21,.6,.03,.02,.05,.04,.08,.07,.47,.11,.63-.1,1.07-.09,0-.37-.37-.44-.5-.73,.19-.17,.62-.27,.93-.31,0-.13,0-.19,.06-.29,.86-.13,1.36,.07,1.55,.61,.19,.04,.33-.02,.47-.08-.02,.17,0,.23,.14,.29,0,.02,.02,.03,.02,.05-.26-.05-.41-.11-.52,.06-.13,.24,.2,.63,.3,.84-.24,.19-1.03,.25-1.46,.02-.2,.09-.28,.19-.29,.46-.07,.03-.14,.07-.2,.11-.04-.18-.07-.24-.27-.3-.14-.03-.29,.05-.42,.09-.9,.27-.61,.77-.96,1.37-.19,.01-.39,.02-.58,.03l-.98,.76c.05,.13,.11,.25,.16,.37-.06,.07-.06,.09-.15,.12-.02,.01-.04,.02-.06,.03-.26-.27-.32-.56-.69-.77h-.03c.05,.25,.32,.42,.37,.71-.2,.03-.34,.23-.52,.31-.07-.08-.11-.13-.2-.19,.04,.24-.17,.3-.28,.57,.19,.23,.48,.4,.62,.68-.04,.16-.14,.21-.23,.32,.01,.22,.24,.25,.34,.43-.09,.1-.19,.11-.37,.12-.06,.28,.17,.53,.19,.82-.09,.21-.18,.41-.28,.61,.13,.13,.25,.25,.37,.38-.32,.36-.64,.73-.95,1.1-.21,.12-.84,.03-1.09,.11-.03,.28,.14,.36,.03,.57-.22-.04-.31-.05-.54-.05-.03,.03-.06,.07-.09,.1,.06,.1,.12,.16,.13,.29-.4,.35-.8,.29-1.46,.41-.18,.12,.06,.48-.1,.73-.11,.19-.45,.19-.56,.43,.06,.08,.11,.15,.17,.23-.27,.09-.54,.17-.82,.26,.18,.37,.13,.66,.19,1.1-.07,.09-.1,.12-.23,.14-.02,.02-.04,.04-.06,.06,.61,.72,.87,.29,1.45,0-.03,.18,.08,.41,0,.59-.35,.72-1.71,.81-2.25,1.5,.02,.57,.75,.81,.58,1.35-.23-.02-.35,0-.5,.02-.01,.02-.04,.04-.06,.06,.42,.31,1.04,.47,1.43,.79,.24,.35,.48,.71,.72,1.07,.52,.75,2.02,2.74,1.83,3.66,.65,.4,.73,1.02,1.11,1.59,.15,.23,.46,.45,.53,.73l-.07,.67c.16,.21,.32,.43,.49,.64,.89,.98,2.39,1.67,3.74,2.36,.41,.2,.82,.39,1.23,.59,.1,.19,.21,.38,.3,.58,.28,.23,.84,.28,1.04,.56,.56,.8,.04,3.87-.26,4.83-.12,.05-.25,.1-.37,.14l-.03,.32c.09,.08,.18,.13,.25,.22-.17,.28-.34,.86-.28,1.22,.02,.16,.04,.3,.06,.45-.14,.16-.29,.32-.43,.49,.12,.42-.26,1.58-.46,1.95-.11,.11-.23,.21-.33,.31-.15,.34-.3,.67-.45,1.01-.11,.34,.34,.51,.15,.95-.12,.28-.48,.4-.61,.64-.15,.28,0,1.64,.06,1.96,.02,.13,.05,.26,.07,.39-.15,.13-.3,.27-.45,.4-.06,.12,.06,.36,.12,.5-.07,.3-.42,.45-.56,.73-.58,1.08-1.32,1.89-1.78,3.07-.19,.06-.42,.03-.64,.04-.02,.01-.03,.03-.06,.04,.09,.2,.18,.41,.28,.62l-.09,.89c.04,.31,.28,.64,.2,1v.07c-.25,.5-1.26,.79-1.02,1.7,.06,.22,.26,.38,.29,.66,.3,.23,.61,.14,.83-.09,.22,.02,.29,.06,.43,.11-.06,.11-.11,.23-.17,.34,.11,.12,.24,.16,.33,.31-.01,.05-.03,.1-.04,.16-.16,.02-.29,.03-.36,.13-.18,.28,.09,.56,.14,.78-.73,.1-.41,.24-.59,.74-.07,.18-.16,.26-.16,.5,.19,.11,.38,.22,.57,.33,.01,.05,.02,.1,.04,.15-.16,.17-.35,.34-.59,.43-.16,.06-.34,.05-.45,.15-.15,.18,.09,.28,.3,.35-.87,.38-.35,.29-.73,.99-.16,.16-.32,.31-.48,.46-.02,0-.04,0-.06,.01-.07-.14-.04-.27,0-.44-.04-.01-.07-.02-.1-.03-.2,.06-.23,.2-.39,.28-.02,0-.03-.02-.05-.02-.02-.09-.04-.19-.05-.28,.13-.12,.3-.19,.54-.2,0-.07,0-.14,0-.21-.17-.12-.28-.13-.59-.14-.29,.31-.63,.55-1.13,.65-.07,.06-.09,.06-.1,.14,.19,0,.38,0,.57,.02l-.02,.23c.55,.23,.87,.12,1.24,.48-.04,.07-.07,.14-.1,.2-.07,.07-.16,.06-.33,.03-.13,.14-.18,.33-.32,.46v.15l1.01,.08c.14,.09,.28,.18,.42,.27v.1s-.07,.07-.1,.1c-.46-.06-.48-.22-.96-.26,0,.2,.02,.41,.02,.62-.08,.08-.16,.17-.24,.25-.02,.31-.03,.61-.04,.91,.15-.07,.29-.14,.43-.21,.01,.08,.02,.16,.03,.23-.14,.07-.29,.13-.43,.19,.03,.27,.16,.34,.3,.52-.1,.05-.21,.11-.32,.16,.03,.14,.06,.28,.1,.42,.13,.13,.41,.04,.68,.04-.2,.34-.42,.57-.96,.59,.18,.19,.46,.26,.64,.4,.03,.05,.04,.11,.07,.18-.06,.07-.07,.09-.18,.13-.04,.03-.07,.06-.12,.09,.12,.08,.22,.19,.27,.31,.14-.02,.28-.04,.42-.07h.03c-.04,.21-.14,.25-.21,.41,.12,.05,.23,.09,.34,.14,.14-.06,.29-.13,.43-.19,.05,.2,.14,.29,.41,.35-.06,.22-.19,.24-.22,.51,.4,.03,.91,.05,1.1,.22-.53,.03-.9,.13-1.44,.15-.04,.15,0,.18,.02,.32,.69,.09,1.21-.17,1.72-.22,.11,.07,.22,.13,.34,.2v.06c-.37,.25-.7,.51-1.02,.81,.16,.1,.33,.2,.49,.3,.2,0,.4-.02,.6-.02,.31-.36,.1-.96,.46-1.31h.03c.25-.21,.63-.06,1.05-.13,.3-.05,.4-.26,.67-.34,.05,0,.11-.02,.16-.03,.27,.19,.61,.34,1.04,.27-.23-.64-1.39-1.79-.4-2.61,.33-.27,1.1-.16,1.44-.43,.34-.27,.1-.57,.26-.93,.14-.14,.28-.28,.42-.43,.69-.57,2.48-.48,2.23-1.78-.18-.13-.52-.13-.77-.22-.42-.15-.98-.57-1.14-.88-.45-.83,.6-1.51,1.34-1.67,.4,0,.8,0,1.21,0-.01-.13-.15-.2-.18-.38,.62-.35,.48-.48,.52-1.16,.29-.26,.79-.47,1.26-.54,.01-.01,.02-.02,.03-.04-.27-.09-.55-.17-.82-.25-.01-.03-.03-.06-.05-.09,.17-.11,.75-.19,1.05-.08,.11,.07,.09,.16,.19,.23,.12,.08,.34,.03,.49,0,.03-.02,.06-.05,.09-.08-.03-.23-.06-.47-.09-.7-.01,0-.02-.02-.02-.03-.23,.03-.46,.06-.69,.08,.06,.08,.12,.15,.17,.23-.03,0-.07,0-.11,.01-.41,.18-.73-.25-.93-.35-.03-.26,.17-.37,.14-.62-.02-.29-.21-.46-.22-.81,.05-.04,.1-.09,.15-.13,.51,0,1.01,.37,1.46,.5,.54,.16,1.12,.06,1.48-.02,.22-.05,.4-.04,.51-.19,.13-.25-.25-.39-.15-.67,.08-.25,.39-.49,.56-.73-.16-.14-.55-.48-.25-.77,.07-.04,.52,.11,.73,.16,.62,.16,1.49,.18,2.14,.15,.96-.06,2.58-.02,3.06-.47,.18-.16,.21-.39,.38-.53,.28-.24,.69-.47,.87-.78,.1-.09,0-.33,0-.49-.32-.2-.96-.4-.68-.9,.08-.14,.19-.14,.23-.38-.36-.47-1.13-.6-1.5-1.13-.01-.03-.01-.06-.02-.09,.09-.08,.19-.17,.27-.25,.27,.09,.41,.33,.61,.48,.9-.01,1.37,.07,1.8,.62,.42,.03,.68-.13,1.14-.1,.34,.02,.56,.29,1.04,.23,.76-.1,1.09-.58,1.55-.97,.48-.41,1.17-.64,1.51-1.19,.14-.36,.27-.72,.41-1.09,.18-.27,.7-.32,.91-.57,.1-.25,.21-.5,.32-.75v-.04c.2,.09,.45,.19,.73,.13h.03c0,.64-.96,.88-1.21,1.49,.47-.26,1.08-.63,1.39-1.03,.26-.38,.51-.76,.77-1.13,.83-.84,2.15-.79,1.96-2.65-.03-.26-.12-.39-.19-.59,.21-.15,.63-.62,.17-.83v-.13c.63,.11,.71-.17,1.06-.36,.36-.2,2.22-.99,2.62-1.01,.22-.01,.38,.11,.53,.16,.14-.11,.28-.22,.42-.32,.38-.13,.63-.05,.75-.44,.41,0,.88,.06,1.19,.14,.68,.17,1.43,.09,2.07,.11,.04-.6,.67-.74,1.33-.72-.02-.17-.04-.34-.06-.51,.11-.4,.57-.62,.83-.9,.17-.21,.34-.43,.5-.65,.15-.14,.47-.2,.56-.39,0-.2-.02-.41-.02-.62-.07-.57,.37-.92,.89-1.01,.02-.16-.1-.47,0-.74,.12-.35,.49-.77,.45-1.19-.03-.55-.05-1.11-.06-1.66,.18-.56,.49-.91,.56-1.49,.06,.01,.12,.02,.19,.04,.06,.12,.12,.24,.19,.35h.08c.51-.22,1.13-.91,1.39-1.34,.16-.26,.07-.42,.31-.57,.21-.05,.41-.1,.61-.15,1.24-.59,2.11-1.26,2.56-2.61,.17-.51-.35-2.48-.68-2.6-.67-.23-1.45-.11-1.93-.42-1.04-.66-1.72-1.62-2.94-2.18-.71-.32-1.23-.07-1.93-.23-.42-.09-.84-.18-1.26-.28-.36-.11-.72-.51-1.17-.52-.67,0-1.28,.34-1.75,.53-.15-.68,.14-.39,.27-.78,.08-.25-.43-.69-.72-.75-.08,.05-.16,.1-.23,.14h-.11c-.17-.6-.92-.62-1.61-.89-.27-.11-.43-.27-.65-.4-.23,0-.65-.02-.93,.01-.31,.06-.38,.4-.58,.58-.33,.31-1.01,.33-1.27,.7-.02,0-.04,.01-.06,.01,.02-.23,.09-.32,.18-.46-.48,.03-1.12,.05-1.69-.08-.11-.27-.22-.53-.33-.79-.38,.04-.92,.46-1.4,.27-.02-.02-.05-.03-.07-.05,.38-.18,.5-.62,.77-.9,.32-.32,.92-.36,1.27-.64,.31-.24,.46-.66,.92-.75,.17-.17,.1-.35,.03-.55-1.11-.23-1.06-1.29-1.28-2.06-.06-.23-.02-.48-.26-.6-.13-.03-.2,.09-.34,.05-.06-.02-1.26-1.17-1.59-1.35-.46-.16-.92-.33-1.37-.49-.37-.16-1.43-.51-2.07-.38-.07,.04-.09,.08-.1,.18-.4-.11-.8-.22-1.2-.33h-.02c-.07,.04-.14,.08-.21,.13-.23-.42-.81-1.13-1.56-1.13-.05,.07-.11,.13-.16,.2v.04c-.03-.31-.05-.61-.08-.92-.28-.45-1.25-1.07-1.91-1.25-.35-.1-.75-.05-1.04-.04-.28-.04-.56-.09-.83-.12v-.02c.82-.12,.64-.5,1.24-.63,.01-.01,.02-.02,.03-.04-.21-.14-.5-.2-.73-.35-.05-.07-.09-.14-.15-.2-.18-.11-.56-.12-.71-.22-.12,.05-.18,.1-.21,.23-.02,0-.04,0-.06,.01-.02-.38-.36-.55-.73-.71v-.15c.27,.03,.52,.06,.77,.09,.05-.01,.1-.03,.14-.05,.02-.03,.04-.05,.06-.08,0-.02-.02-.03-.02-.05-.54-.15-1.78-.3-2.31-.16-.33,.09-.54,.37-.94,.39-1.13,.08-1.38-.63-2.06-.73-.58-.08-1.59,.12-2.07-.11-.24-.12-.17-.21-.26-.43-.18-.44-.81-.61-1.55-.68-.12-.18-.27-.49-.32-.69-.22-.06-.42,.01-.51,.16,.06,.09,.11,.18,.16,.27,.12,0,.24,0,.36,.01,.05,.04,.1,.08,.15,.12-.09,.2-1.87,.41-2.27,.48,.03,.02,.06,.03,.08,.05-.05,.11-.09,.11-.18,.17,.22,.11,.75,1.07,.52,1.37-.13,.13-.43,.19-.68,.21-.26-.19-.36-.59-.55-.82,.1-.32,.36-.59,.6-.79-.02-.34-.19-.58-.3-.88,.19-.18,.64-.22,1.06-.19,.05-.04,.1-.07,.15-.11-.03-.21-.22-.36-.45-.45-.65-.26-.88,.38-1.23,.5-.18,.03-.35,.05-.53,.07,.1-.11,.22-.15,.17-.32,.11,.05,.12,.07,.15,.16h.03c.23-.09,.36-.23,.55-.34-.29-.58-.58-1.2-1.3-1.51-.24-.1-.58-.04-.86-.17-.1-.04-.5-.21-.67-.19-.21,.09-.41,.17-.63,.26-.13,.04-.27,.01-.44,.04-.53,.09-.77,.35-1.44,.18-.28-.34-.54,.05-.86-.24-.05-.15-.12-.31-.17-.46-.52-.43-1.6-1.28-1.76-1.89-.09-.36,.13-.84,.25-1.12,.16-.37,.09-.93,.29-1.26,.11-.1,.22-.19,.33-.29,.34-.39,.14-.82,.04-1.19-.26-.07-.5-.15-.75-.22-.15-.19-.09-.14-.04-.41-.17-.07-.33-.15-.5-.22-.43-.02-.87-.04-1.31-.06-.1-.05-.21-.1-.31-.16-.17,.04-.34,.08-.51,.12-.93,.06-1.59-.34-2.28-.16-.3-.04-.39-.16-.58-.27-.01,.07-.03,.14-.04,.21-.02,0-.04,0-.06,.01-.1-.06-.21-.12-.32-.18,.09-.34,.54-.29,.72-.55,.36-.53,.2-1.09,.51-1.6l.02-.23c-.12,0-.24,.02-.35,.03,.09-.11,.13-.21,.15-.41,.02,0,.05-.03,.08-.03,.04-.02,.08-.05,.12-.08,.09,.18,.18,.35,.27,.52,.02,.01,.04,.02,.06,.03,.12-.39,.24-.78,.36-1.17-.07,0-.13,.02-.19,.02-.02-.01-.03-.03-.05-.05,.02-.06,.4-.7,.45-.74,.24-.2,.63-.3,.82-.55,.08-.09,.06-.21,.06-.33-.99-.72-3.31-.37-4.56-.15-.07,.15-.16,.3-.24,.46,0,.2-.02,.4-.03,.59-.1,.05-.2,.11-.29,.16-.02,.13-.04,.26-.06,.4-.17,.22-.72,.26-.97,.41h-.05c.1,.09,.2,.1,.25,.23-.1,.05-.19,.09-.28,.14-.12,.04-.31-.05-.49-.09l.02-.23c-.76,0-2.26,.36-2.95,.2-.4-.09-.47-.36-.75-.52-.23-.13-.62-.14-.99-.18-.3-.38-.46-.82-.76-1.22-.32-.44-.76-.9-1.04-1.35-.41-.65-.41-2.29-.06-3.25,.07-.25,.16-.5,.23-.74,.21-.25,.43-.49,.65-.74,.19-.48-.38-.98-.1-1.54,.14-.12,.28-.22,.42-.34,.02-.01,.04-.03,.06-.04-.09-.09-.19-.18-.28-.26h-.05c.38-.24,.98-.1,1.27-.43-.07-.08-.15-.15-.23-.23,.17-.14,.59,.12,.98,.08,.61-.07,.91-.41,1.42-.54,.1-.13-.09-.27-.14-.44,.06-.03,.13-.06,.19-.09,.02,.08,.04,.16,.06,.24,.48,.1,.54-.01,.85-.06,.66-.1,1.34,.18,1.83,.31,.28,.07,.66,.14,.82,.06h.05c-.09-.06-.17-.13-.25-.19,0-.01-.02-.03-.02-.04,.11,0,.22,0,.33-.01,.21,.13,.42,.25,.62,.38,.07,.09,.13,.18,.19,.27,.17,.08,.33,.16,.5,.24,.18-.04,.37-.09,.56-.13,.05,.07,.09,.14,.15,.2h.03c.06-.02,.13-.04,.2-.06v-.02c-.06-.04-.12-.08-.18-.13-.02-.02-.03-.04-.05-.06,.04-.05,.08-.1,.13-.14,.28,.05,.74,.32,.8,.55,.24,.03,.4,.04,.62,.04-.18-.29-.72-.35-.75-.71,.13-.04,.26-.07,.4-.11-.09-.17-.3-.26-.49-.37-.28,0-.63,.16-.79-.1,.05-.06,.1-.12,.15-.18,.37-.11,.52,.3,.77,.27,.22-.03,.36-.15,.54-.18,.38-.06,1.11,.11,1.41,.18,.05-.1,.1-.2,.14-.3h.02c.09,.15,.19,.3,.29,.45,.15,0,.31-.01,.47-.02v-.15c.44,.12,.82,.1,1.29,.1,.25,.22,.46,.31,.92,.41,.13,.17,.16,.42,.33,.56,.25-.03,.5-.05,.75-.07,.19-.08,.35-.24,.61-.26,.66-.06,.99,.85,1.34,1.07,.23,.14,.51,.13,.54,.39-.13,.37-.25,.74-.38,1.1,.04,.01,.07,.02,.1,.03,.15,.09,.22-.03,.39-.07,0,.06,0,.13,0,.19-.12,.11-.19,.13-.37,.18,.14,.24,.28,.49,.42,.74l.24,.02c.01,.11,.03,.21,.05,.32,.08,.05,.16,.1,.23,.15,.18,.37-.13,.53,.51,.63,.13,.2,.23,.66,.39,.84,.2-.06,.48-.03,.77-.03-.02,.07-.05,.14-.07,.21h.05c.25-.44,.85-1.25,.66-1.97-.07-.28-.3-.58-.38-.9-.02-.28-.05-.56-.08-.84-.21-.62-1.21-1.61-.91-2.42,.16-.32,.34-.63,.5-.95,.26-.26,.61-.46,.8-.79,.65-.03,1.33-.16,1.63-.5,.23-.25,.26-.47,.61-.59,.33-.11,.93-.04,1.22-.14,.29-.24,.59-.48,.89-.72,.3,0,.61-.01,.9-.01,.12-.06,.23-.12,.35-.18,.01-.01,.02-.03,.03-.04-.11-.05-.14-.05-.18-.14-.12,.05-.3,.09-.42,.13-.06-.03-.12-.07-.18-.1-.08-.05-.09-.1-.12-.18,.1,.08,.13,.15,.28,.2,.24-.08,.22-.18,.41-.24v-.04c-.12-.12-.32-.22-.58-.25-.02-.03-.04-.07-.07-.11,.18,.06,.37,.14,.55,.21-.02-.04-.05-.08-.07-.12v-.02c.21,.09,.25,.2,.58,.27,.12-.09,.24-.17,.36-.26,.04-.05,.03,0,.16,.02,.03-.03,.06-.07,.09-.1,.01-.15-.03-.22-.13-.29-.04-.02,0-.02-.05,0-.13,.05-.15,.17-.22,.26v.04c-.09-.11,.01-.21,.06-.33-.02-.02-.03-.03-.05-.05-.26,0-.49,.02-.82-.02,.04-.12-.07-.24,.03-.36v-.04c.04,.06-.02,.12,0,.21,.03,.04,.07,.08,.1,.12,.1-.02,.18-.03,.28-.04,0-.06,0-.06-.04-.13,.09,.04,.18,.09,.26,.13,.04-.01,.08-.02,.11-.03,.01-.01,.02-.03,.03-.04-.04-.05-.08-.1-.12-.16,.14,.08,.23,.16,.37,.12,.01,.05,.02,.1,.04,.15h.08c-.03-.22-.15-.3-.26-.46l.17,.02c-.02-.1-.02-.07-.07-.14,.02-.02,.04-.05,.07-.07,0,.03,.01,.06,.02,.08h.03c-.02-.43-.34-.4-.76-.37,0-.23-.23-.36-.47-.43,0-.01-.02-.02-.03-.04,.05-.02,.09-.04,.14-.05,.18,.09,.31,.18,.38,.33,.12,.08,.09,.08,.29,.09,0-.07,0-.14,0-.21-.19-.13-.37-.18-.49-.35,.08,.07,.17,.13,.25,.19h.11s-.01-.07-.02-.12c.07,.03,.14,.06,.21,.08h.03c0-.14,0-.17-.14-.22,.04,0,.07-.02,.11-.03-.34-.17-.48-.23-.63-.51,.14,.11,.27,.22,.4,.33,.03,.03,.05,.05,.08,.07,.16-.06,.19-.11,.27-.25-.13-.17-.97-.53-1.28-.66-.04-.12-.01-.18,.03-.32,.07,0,.15-.01,.22-.02-.07,.04-.15,.08-.23,.12v.15c.28,.02,.3,.11,.51,.2,0-.04,0-.09-.01-.13,.17,.15,.4,.3,.62,.42-.04-.3-.31-.33-.35-.58h.03c.04,.11,.1,.16,.22,.22,.02,.02,.03,.03,.05,.04h.03c-.05-.12-.1-.25-.15-.37-.05-.36,.33-.14,.04-.66,.07,.01,.15,.03,.22,.04,.02-.07,.03-.12,.05-.19,.08,.05,.04,0,.07,.09h.02c.05-.04,.05-.05,.07-.14,0,.04,0,.07,.01,.11,.13-.05,.15-.06,.15-.13,.07-.03,.13-.05,.2-.09-.04,.06-.06,.11-.1,.16,.05,.03,.11,.06,.16,.08-.12,0-.22,.02-.33,.03-.05,.05-.1,.1-.16,.15v.02l.22,.02c-.07,.11-.1,.14-.31,.12-.02,.02-.04,.04-.06,.06,.06,.06,.11,.08,.24,.11,0,.02,.02,.03,.02,.05v.08c-.06-.03-.11-.05-.17-.08-.01,0-.04,.01-.05,.02-.02,.04-.05,.08-.07,.12v.02c.2-.06,.15-.02,.37,.08,.01,.02,.03,.04,.05,.07-.13,.02-.26,.05-.39,.07-.01,.01-.02,.03-.03,.04,.04,.05,.08,.11,.13,.16,.06,.04,.13,.08,.2,.13,.09-.04,.19-.07,.28-.11-.02,.18-.03,.11-.13,.22,.06,.04,.12,.07,.18,.1-.03,.04-.06,.08-.09,.12v.02h.03c.11-.02,.13-.03,.21,.02-.19,.22-.43,.41-.56,.71,.02,.04,.03,.09,.05,.13,.03,0,.07,0,.11,0,.08-.12,.17-.24,.25-.36,.09,0,.07,.02,.14-.01,.12-.17,.24-.35,.35-.52,.16-.17,.39-.21,.48-.42,0-.13,0-.27-.01-.4-.33-.14-.52-.74-.56-1.03,.11-.07,.16-.14,.29-.18,0,0,.01,.01,.03,.02-.08,.1-.18,.13-.27,.2,.2,.27,.24,.51,.74,.55,0,.12-.03,.15-.07,.26v.02s.03,.02,.04,.03c.24-.12,.69-.35,.72-.65,.05,.02,.11,.03,.16,.05,.16-.29,.4-.62,.51-.97-.23-.05-.27-.09-.36-.2,0-.03-.02-.05-.02-.07,.13-.06,.15-.09,.28-.05,.1-.17,.2-.33,.3-.5-.08,.14-.16,.29-.24,.44,.86-.36,1.84-.56,3.24-.42,.05-.14,.1-.27,.15-.41,0,0,.15,.01,.27-.02,0,.07-.05,.17-.05,.31,.01,0,.03,.02,.05,.03,.25,.02,.48-.12,.55-.24h.03c.05,.06,.04,.13,.03,.24,.31-.03,.62-.05,.94-.08,.02-.23-.04-.3-.12-.46-.07-.02-.14-.04-.21-.06v.02c.04,.07,.09,.14,.14,.21h.13v.12c-.14,.03-.27,.06-.4,.09-.07-.02-.14-.06-.21-.08-.04-.32-.2-.63-.64-.7,.07-.22,.31-.25,.57-.28,.01-.02,.02-.04,.03-.06-.21-.07-.22-.05-.33-.22,.22-.23,.49-.76,.87-.81l.02-.23c.12-.02,.24-.04,.36-.06-.01,.03-.02,.07-.04,.1,.05,.03,.1,.05,.16,.08h.02c.13-.11,.15-.08,.14-.24,.05-.03,.09-.05,.14-.07-.02,.04-.05,.09-.07,.14,.07,.03,.14,.05,.21,.07,.05-.07,.09-.14,.13-.2,.05,.04,.1,.07,.15,.1,.26-.12,.53-.45,.67-.68h.03s.04,.02,.05,.03c-.04,.06-.09,.13-.13,.2,0,.02,.01,.03,.02,.04,.11,.04,.23,.08,.34,.12,0-.06-.03-.13-.04-.2,.19,.05,.33-.04,.53-.05,.02,.06,.04,.13,.07,.2,.17-.08,.26-.21,.44-.28,.06,.04,.12,.08,.18,.12,.08-.04,.07-.03,.09-.14,.29,.07,.42,0,.66-.06,.05-.05,.05-.05,.07-.1l-.22-.02c.05-.04,.1-.09,.15-.13-.04-.08-.07-.16-.11-.24,.04,.03,.09,.07,.13,.1,.19-.11,.58,0,.75,.12,.15-.05,.3-.1,.46-.15-.03-.04-.05-.09-.07-.14,.09,.05,.19,.11,.28,.16,.6,0,.87-.39,1.51-.34,.06-.07,.12-.14,.19-.21-.02-.07-.04-.14-.06-.2,.1,.08,.16,.14,.16,.28,.09-.03,.17-.06,.26-.08h.02c-.12,.21-.48,.37-.78,.41-.04,.05-.06,.07-.08,.16,.48-.14,1.3,0,1.86,.09,.01,.02,.03,.05,.05,.07-.39-.04-.64,.05-1,.07v.15c-.11-.07-.09-.08-.2-.1,.02-.08,.03-.15,.05-.23-.35-.05-1.58,.4-1.84,.56h-.06s.09,.05,.13,.07v.02c-.11,0-.08,0-.16-.05-.18,.06-.36,.12-.54,.18-.01,.01-.02,.03-.03,.04,.03,.02,.05,.03,.07,.05,.14-.05,.27-.1,.4-.16-.08,.12-.1,.04-.2,.11-.35,.24-.17,.56-.11,.86,.07,0,.04,0,.12-.05,.07,.11,.14,.22,.21,.34,.2-.01,.2-.02,.32,.09,.04-.07,.09-.14,.13-.22,.15-.04,.23-.04,.47,0v-.14s.07,.03,.09,.05c.28-.1,.43-.53,.92-.48,.08-.16-.03-.18-.02-.37l.16,.02s.05,.08,.07,.12h.03c.1-.03,.15-.06,.21-.14,.02,0,.04-.01,.05-.02-.01,.05-.03,.1-.04,.15,.15,.03,.31,.05,.46,.08,.08-.1,.14-.07,.19-.21,.04,.02,.08,.05,.13,.08,.02-.05,.04-.1,.07-.14,.03,0,.06-.01,.08-.02,.14,.04,.11,.06,.18,.13,.55-.09,1.17-.36,1.79-.31,0-.03,0-.06-.02-.09,.13,.02,.27,.03,.4,.06-.02-.02-.03-.05-.05-.07,.03-.01,.06-.02,.09-.03,.11-.03,.09,0,.19,.06,.09-.02,.18-.04,.27-.06-.1-.12-.28-.15-.56-.16-.02-.03-.03-.05-.05-.07,.06-.01,.11-.03,.17-.04,.03-.02,.06-.05,.09-.07-.08-.08-.17-.16-.26-.24-.31-.12-.49,.1-.55-.27-.29,0-.38,.14-.59,.18-.14,.03-.31-.01-.41,0,.04-.04,.06-.08,.1-.12h-.05s-.02-.04-.03-.05c-.27-.13-.51,.04-.7-.04-.08-.05-.15-.1-.23-.16-.12,0-.24,0-.36-.01-.12-.05-.15-.18-.33-.22h-.06v-.03c.11-.01,.22-.03,.33-.05,.02,0,.04,0,.06-.01-.42-.21-1.28-.22-1.08-.74-.08-.1-.07-.09-.18-.08-.04-.18-.01-.26,.09-.4-.12-.12-.4-.13-.67-.15,.4-.26,.45-.12,.63-.53,.1-.06,.2-.12,.29-.18-.06-.04-.12-.08-.18-.12-.08,.02-.17,.04-.25,.06v-.1c-.23,.06-.48,.12-.72,.18-.25-.33-.44-.51-1.04-.61v-.02c.22-.03,.51-.14,.83-.05,.14,.06,.28,.13,.42,.19,.34,.01,1.53-.37,1.67-.56-.32-.86-1.67-1.02-2.83-.78-1.24,.25-2.6,.38-3.61,.84-.83,.37-1.48,1-2.31,1.41,.76-1.01,2.27-2.18,3.6-2.64,.35-.12,.96,0,1.3-.15,.49-.2,.38-.86,1.25-1,.51-.08,1.36,.05,1.87,.17,.75,.16,1.52,.07,2.2,.2,.69,.09,1.39,.19,2.08,.28,.95-.02,2,.07,2.66-.23,.38-.27,.77-.53,1.14-.8,.67,.02,1.33,.03,2,.04,.43-.06,1.29-.54,1.68-.73v-.04c-.16-.2-.32-.4-.49-.59,.17-.19,.32-.45,.48-.66,0-.33-.62-.66-.99-.75-.18-.05-.5,.09-.67,.15-.05-.07-.1-.14-.15-.21,.05-.14,.15-.2,.25-.29-1.02-.92-1.8-.08-2.65,.19-.39,.13-.94,.11-1.33,.19,.07-.23,.2-.56,.42-.66,.23,0,.46,.02,.68,.03,.47-.06,.72-.39,1.24-.43,.53-.04,1.04,0,1.29-.29-.46-.14-.92-.27-1.38-.41-.44-.19-.77-.52-1.33-.64-.43-.09-.7,.07-1.12,.01,.1-.16,.21-.32,.32-.48,0-.31-.92-1-1.23-1.12l-.41-.04c-.26-.1-.49-.67-.63-.87,.02,0,.04,0,.06-.01,.24-.08,.78,.15,1.11,.11,.06-.07,.08-.2,.09-.33-.34-.24-.73-.39-.97-.69,.12-.07,.25-.12,.45-.13-.08-.69-.94-.32-1-1.28-.12,0-.23-.01-.35-.02-.02-.24,.09-.25,.18-.43-.48-.52-1.37-2.01-1.97-2.29-.02-.02-.03-.03-.05-.05-.1,.13-.21,.26-.31,.39-.64,.26-1.17-.03-.56,.73-.45,.37-.83,.45-.91,1.21h-.02c-.21-.19-.19-.53-.6-.59-.17,.18-.33,.36-.49,.55-.35,.16-1.15,.07-1.52,.17-.05-.07-.1-.14-.15-.21,.07-.06,.09-.09,.11-.22-.57-.79-1.14-.49-2.05-.34h-.03c-.17-.21-.14-.3-.05-.6,.15,.02,.3,.04,.46,.07,.53-.5-.7-2.13,.28-2.39,.06-.07,.08-.18,.09-.31-.04-.06-.08-.12-.12-.18-.16-.05-.39,.16-.77,.05-.68-.2-1.28-.56-1.9-.72-.21-.24-.22-.22-.01-.47-.56-.38-1.37-1.13-1.97-1.4-.48-.21-1.59,.26-2.53,.03-.82-.2-1.42-.56-2.26-.73-.56-.11-1.28,.41-1.05,.91,.1,.21,.42,.39,.63,.53-.15,.48-.69,.72-1.01,1.07v.02c.31,.05,.63,.09,.94,.14-.03,.22-.2,.29-.18,.47,.07,.12,.14,.25,.21,.38,.03,.18,.06,.36,.09,.54-.23,.22-.4,.06-.6,.2-.06,.11-.13,.21-.2,.31-.25,.37-.51,.61-.93,.8,.11,.5,1.6,1.14,1.98,1.66,1.47,2.04-1.9,3.67-3.84,3.74,.03,.23,.06,.53,.2,.7,.25,.29,.64,.12,.59,.65l-.27-.03c.05,.21,.11,.42,.16,.63l-.04,.4c.09,.52,.67,1.19-.07,1.54,.03,.31-.01,.47-.11,.8-.21-.18-.22-.46-.54-.58-.22,.1-.34,.18-.45,.38,.12,.16,.2,.34,.28,.54-.44-.22-.54-.64-1.22-.7-.1-.56-.76-1.14-1.6-1.26,.15-.71-.23-.77-.65-1.14,.06-.38,.42-.67,.34-1.2-.09-.17-.17-.34-.25-.51,.12-.3,.24-.6,.36-.9-.58-.57-2.8-.46-3.62-.82-.33-.14-.58-.38-.96-.52-.62-.19-1.24-.38-1.86-.57-.17-.22-.34-.45-.51-.67-.72-.56-2.25-1.24-3.39-1.5-.87-.19-1.37,.15-2.2,.09,.04-.23,.08-.45,.12-.67-.07-.47-.51-1.52-.86-1.82-.73-.17-.96,.02-1.64-.31-.7-.93,.55-3.14,1.23-3.57,.21-.13,.52-.01,.67-.21,.09-.09,0-.33,0-.49,.45-.38,1.7-.56,1.95-.91,.02-.01,.04-.03,.05-.04-.21-.12-.43-.24-.65-.36v-.02s.04-.05,.07-.08c.28-.1,.78,.16,1.3,.13,.41-.02,.62-.12,.9-.25l.02-.19c-.51-.46-1.17-.49-2.04-.77-.37-.23-.74-.46-1.11-.68h-.05v-.03c.71,.15,1.41,.31,2.12,.46,.65,.21,1.13,.52,2.08,.57,.08-.27-.07-.59-.01-.96,.35,.14,.59,.34,1.05,.45,.7,.16,1.91-.48,2.18-.74,.13-.23,.27-.47,.4-.7v-.02c-.86-.11-1.62-.31-2.18-.64-.29-.21-.58-.42-.87-.64-.45-.16-.9-.32-1.35-.47-.02-.01-.04-.02-.05-.03,.41,0,.86-.14,1.37,0,.23,.11,.46,.23,.68,.34,.25,.09,.49,.18,.74,.26,.3,.19,.45,.48,.87,.62,.6,.2,2.22-.8,2.43-1.06-.29-.21-.73-.32-.98-.56h-.05s.06-.08,.1-.12c.39-.14,1.2-.04,1.78,.03,.14,.48,.33,.62,1.04,.61,.37,0,.59,.09,.95,.09-.31-.4-.86-.9-1.42-1.14,0-.02-.02-.03-.02-.05,.11-.05,.23-.1,.34-.16,.94,.13,1.05,1.05,1.9,1.29,.33-.21,.6-.17,1.05-.3,.4-.11,1.36-.78,1.41-1.26-.57-.7-1.51-1.16-1.57-2.2,.22-.05,.35-.15,.64-.12,.12,.18,.25,.37,.47,.49,.15-.05,.28-.1,.43-.15,.15-.13,.19-.84-.1-.99-.12-.14-.38-.07-.67-.09-.23-.2-.45-.4-.68-.6-.24-.08-.5-.16-.74-.24-.8-.28-1.21-.42-2.2-.51-.11,.06-.21,.12-.32,.18-.05,.23-.1,.46-.15,.69,.35,.21,.69,.42,1.04,.64-.03,.12-.06,.23-.09,.35-.27,.08-.65-.02-.98-.07-.37,.23-.31,.81-.58,1.15-.31,.4-.9,.34-1,1-.27,.1-.75,.19-1.09,.21-.23-.21-1.24-1.22-1.31-1.44-.05-.18,.13-.41,.19-.51,.21,.03,.43,.05,.65,.08,.27-.69-.6-1.64-1.42-1.77-.73,.35-.6,1.35-1.67,1.41,.04-.4,.07-.82-.11-1.09-.12-.18-.37-.26-.45-.49,.2-.13,.36-.21,.53-.39-.19-.14-.74-.47-1.16-.41-.18,.02-.32,.11-.63,.02-.28-.08-.45-.26-.82-.31,.09-.15,.18-.3,.26-.44,.25-.12,.41-.17,.86-.13,.06-.08,.13-.16,.19-.24-.21-.26-1.29-1.2-1.62-1.35-.04-.28,.21-.54,.05-.84-.24-.47-1.62-1.28-2.77-1.1-.22,.04-.24,.24-.5,.27,.03,.25,.21,.42,.42,.56-.03,.1-.06,.21-.09,.31-.38-.07-.48-.26-.9-.27-.3,.24-.57,.44-.77,.81,.29,.17,.66,.36,.85,.59-.16,.14-.42,.32-.67,.38-.08,.66,1.27,1.18,2,1.34,.16,0,.32-.02,.47-.02,.53,.15,.77,.6,1.71,.46h.02l-.09,.92c-.26-.13-.47-.31-.63-.5-.46-.04-.57,.12-1.03,.11-.1,.11-.2,.23-.3,.35v.02c.44,.06,.64,.08,.98,0,.33,.05,.37,.4,.43,.61-.31,.25-.59,.02-.92,.17-.23,.18-.45,.35-.68,.53-.14,.08-.64-.01-.87-.05-.6,.36-.09,1.07-.14,1.68-.45-.19-1.41-.42-1.24-1.01,.07-.26,.28-.5,.27-.8-.24-.13-.5-.14-.82-.27-.61-.24-.98-.48-1.87-.46-.02,.11-.04,.21-.06,.32,.57,.17,1.13,.15,1.46,.46,.19,.18-.04,.49-.12,.62-.66-.05-.91-.42-1.31-.7-.82,.18-1.97,.02-3.16-.08-.29-.02-.42,.07-.64,.08-1.05,.08-2.35-.53-2.67-.94-.75,0-1.2-.16-1.62-.33-1.22,.75-2.42,1.52-3.6,2.31,0,.02,0,.04,0,.05,0,0-.02-.02-.03-.03-9.04,6.08-16.76,13.35-22.78,21.55,.02,0,.03,0,.05,0,.06,.22,.16,.4,.24,.58Z" style="fill:#70d44b;"/><path d="M58.13,12.41c-.48,.23-.96,.46-1.44,.69,.09,.06,.18,.11,.31,.14,.87,.22,.96-.37,1.14-.84Z" style="fill:#70d44b;"/><path d="M79.43,63.78s-.02-.04-.02-.07v.06h.02Z" style="fill:#70d44b;"/><path d="M82.28,4.23c.05-.07,.06-.17,.06-.27-.6,.14-1.19,.29-1.78,.44,.69,.15,1.4,.21,1.72-.17Z" style="fill:#70d44b;"/><path d="M84.82,3.38c-.27,.06-.54,.12-.81,.18,.31,0,.61-.01,.84-.05,.02-.03,0-.08-.03-.14Z" style="fill:#70d44b;"/><path d="M62.11,12.11c-.17-.15-.33-.29-.5-.43-.06-.07-.13-.14-.19-.21,.61-.14,1.99,.22,2.77,.29,.86-.42,1.3-1.26,2.14-1.7v-.08c-.5-.57-1.11-.37-1.78-.37-1.55,.62-3.07,1.27-4.58,1.95,.16,.23,.32,.44,.32,.84,.77,.33,1.51,.26,1.83-.29Z" style="fill:#70d44b;"/><path d="M67.92,8.61c.07-.09,.14-.18,.21-.27,.18-.16,.61-.17,.95-.18-.03,.34,0,.62,.22,.81,.77,.19,1.55,.15,2.31,.14,.05-.13,.1-.25,.14-.36,.5,.1,.8,.36,1.26,.5,.51,.14,1.77,.11,2,.04,.01-.22,.02-.43,.03-.65,.05-.02,.09-.04,.14-.05,.15,.06,.3,.13,.45,.19,.15,.1,.18,.46,.19,.64,.21,.1,.42,.21,.63,.32,.37,.12,2.01,.09,2.56,.1-.07-.18-.13-.37-.19-.55-.04-.31,1.08-.53,1.37-.59,.02-.02,.04-.03,.06-.06-.36-.53-.81-.45-1.57-.75-.36-.22-.72-.45-1.08-.68-1.25-.36-4.47-.25-5.18,0-.16,.12-.33,.25-.5,.37-.45-.06-.68-.21-.91-.37-1.36,.46-2.71,.94-4.04,1.45,.27,.07,.58,.09,.94-.06Z" style="fill:#70d44b;"/><path d="M76.69,5.46v-.02c-.35,.1-.7,.21-1.05,.31,.29,.09,.67,.16,1.19,.21-.05-.17-.1-.33-.14-.5Z" style="fill:#70d44b;"/><path d="M78.14,5.71s.58,.85,.63,.91c.63,.03,.9-.14,1.36-.19,.66-.04,1.32-.07,1.98-.1,.16-.11,.33-.21,.5-.31l.03-.36c-.08-.09-.17-.19-.24-.28-.3-.17-.81-.11-1.24-.21-.57-.13-1.33-.25-2.05-.4-.76,.2-1.51,.41-2.27,.63,.21,.1,.42,.2,.63,.3,.23,0,.46,0,.68,0Z" style="fill:#70d44b;"/><path d="M110.61,17.31c.16-.07,.47-.37,.25-.56-.27,.18-.76,.19-.34,.54l.1,.02Z" style="fill:#70d44b;"/><path d="M108.51,13.72c.5-.03,.09-.28-.19-.31,0,0,0-.02,0-.02-.11,.09-.07,.29,.2,.34Z" style="fill:#70d44b;"/><path d="M56.06,16.38c-.19,.19-.28,.7-.55,.82-.37,.16-.86,.11-1.08,.41-.03,.02-.06,.04-.09,.05,.29,.17,.64,.17,1.02,.3,.62,.22,1.93,.95,2.82,.85,.3-.12,.61-.24,.91-.36,0-.01,.02-.03,.03-.04-.37-.42-.48-.28-.74-.88-.11-.14-1.65-1.07-1.91-1.16-.13,.01-.27,.02-.41,.03Z" style="fill:#70d44b;"/><path d="M108.1,14.49c.19-.13,0-.38-.11-.53-.02,0-.03,0-.06,0-.14,.06-.16,.11-.24,.19-.2,.21,.05,.24,.41,.33Z" style="fill:#70d44b;"/><path d="M99.18,25.48c.07-.14,.13-.27,.21-.41-.63-.1-1.25-.04-2.02-.11l.03-.31c.27-.02,.54-.05,.8-.07h.05c-.19-.34-.63-.83-1.05-1.01-.41-.18-.59,.13-.96,.03-.64-.16-.66-.43-1.4-.22-.14-.17-.12-.55-.31-.69-.59-.41-1.75-.51-2.06-1.09,.29,0,.59,0,.88,0,.03-.04,.06-.09,.1-.13-.21-.16-.41-.32-.61-.49v-.02c.06-.05,.12-.09,.18-.13,.4-.05,.75,.26,1.01,.33,.35,.1,.74,.1,1.11,.13,.01-.01,.02-.02,.03-.04-.14-.17-.21-.32-.45-.43-.38-.18-1.28-.19-1.43-.52,.02-.05,.03-.1,.04-.14,.38-.06,.93-.02,1.42,.03-.09-.38-.59-.86-1.11-.97-.17,.05-.29,.21-.44,.26-.22,0-.44,0-.66,0-.27,.03-.46,.14-.78,.13-.08-.07-.15-.14-.22-.21,.04-.05,.09-.1,.13-.16,.37-.3,1.18-.11,1.44-.54-.61-.78-1.37-.33-2.24-.33-.14-.11-.27-.21-.41-.32,0-.18,0-.35,0-.53-.59-.02-.9,.13-1.51,.1,.28-.22,.57-.44,.85-.66v-.02c-.44-.28-.95-.44-1.55-.66-.28,.24-.74,.41-.95,.71-.03,.01-.06,.03-.09,.04-.19-.33-.4-.67-.64-.98-.5-.06-.92,.11-1.18,.33-.09-.02-.18-.04-.27-.07-.07-.07-.15-.15-.22-.23,.19-.24,.8-.53,1.2-.56v-.15c-.16-.22-.45-.33-.7-.51-.2-.15-.27-.42-.47-.56-.31-.21-.67-.07-1.05-.14-1.18-.25-2.5-.99-3.16,.15,0,.24,.02,.48,.03,.73-.03,.02-.06,.04-.09,.06-.16-.06-.32-.11-.48-.18,0-.2-.02-.4-.02-.6-.32-.21-.61-.23-1.07-.23-.15,.52-.74,.65-1.38,.44l.06-.65c.11-.22,.9-.81,.84-1.06-.19-.21-.38-.42-.56-.63-.22-.25-.43-.51-.63-.76-.99-.64-3.38-.03-4.13,.16-.02,.03-.06,.05-.08,.08,.35,.2,.71,.39,1.06,.59,0,.02,.02,.03,.03,.05-.52-.05-1.03-.05-1.47-.19-.14,.06-.28,.12-.42,.17-.14,.14-.16,.43-.15,.66,.14,.1,.29,.2,.44,.3,.13,.02,.27,.04,.41,.06,.18,.13,.36,.25,.53,.37,.02,.03,.03,.05,.05,.07-.38-.02-.68-.02-1-.14-.23,.08-.52,.21-.64,.4,.14,.17,.29,.34,.44,.51,.26,.2,.64,.19,.77,.47,.16,.38-.22,.58-.36,.81-.45-.07-.89-.16-1.34-.23l.03-.26c.23-.05,.46-.11,.7-.16,.02-.03,.05-.07,.07-.1-.48-.53-1.91-1.05-1.02-1.9-.22-.16-.44-.33-.66-.49-.02-.12-.04-.24-.05-.37,.12-.32,1.63-1.3,2.03-1.39,.04-.03,.08-.06,.12-.09-2.21-.96-5.91,.42-5.95,2.07,.18,.12,.36,.23,.54,.35,.03,.07,.02,.09,0,.21-.7,.11-.8,.25-.9,.89,1.42,.44,2.66,.34,3.43,1.27-.27,.23-1.97-.13-2.48-.16-.27,.78,1.42,1.27,2.45,1.26,.07-.09,.15-.19,.22-.28,.22,.06,.42,.11,.64,.17,.08,.13,.06,.35,.03,.55,.16,.07,.32,.13,.48,.2l1.55,.15c.56,.14,1.12,.28,1.68,.42,.16-.02,.31-.03,.47-.04,.31,0,.68,.22,.84,.33,.2-.05,.39-.09,.59-.13,.44-.05,.91,.42,1.18,.56,.12-.3-.27-.41-.26-.73v-.02c.63-.25,1.47,.69,2.37,.67,.25,0,.38-.09,.57-.13,.05-.07,.06-.17,.03-.27-.28-.63-1.95-.75-2.2-1.26-.02-.02-.04-.03-.05-.05,.06-.01,.12-.03,.17-.05,.27-.09,.98,.4,1.29,.48,.16-.03,.32-.05,.47-.08,.17,.14,.34,.29,.51,.43,.54,.37,1.13,.35,1.16,1.07,.11,.07,.22,.14,.34,.2,.19,.03,.38,.05,.57,.08,.52,.36,1.04,.72,1.56,1.08-.02,.08-.03,.15-.05,.23-.45-.01-.89-.02-1.34-.03,.03,.18,.05,.37,.08,.56h.03c.35-.06,.85-.06,1.19-.11l.54,.05c.18-.09,.37-.16,.55-.25,.05,.08,.36,.69,.39,.72,.39,.37,.84,.46,1.43,.73,.34,.15,.9,1.35,.92,1.79-.25,.17-.49,.35-.74,.52-.11,.15-.21,.29-.31,.44-.3,.15-1.47,.39-1.62,.56-.03,.07,.83,1,.98,1.11-.02,.05-.05,.1-.07,.14v.05c-.27-.04-.52-.09-.79-.13-.5,.02-.92,.18-1.57,.13-.09,.18-.04,.3-.05,.55h-.03c-.15-.16-.3-.32-.45-.47-.15-.11-1.65-.52-1.9-.48-.08,.06-.08,.39-.13,.49-.7,0-.96,.22-.98,.8,.78,.29,1.55,.55,2.62,.61,.21-.13,.41-.25,.62-.39,.38,.13,.76,.25,1.14,.37,.11,0,.08,0,.14-.03,.09-.09,.01-.36-.03-.49v-.08c.68,.15,.88,.41,1.69,.48-.07,.56,.38,.98,.84,1.21,.21,.05,.43,.1,.65,.15,.24,.13,.48,.27,.72,.41-.13,.19-.35,.25-.55,.37,.18,.45,.77,.44,1.16,.75,.02,0,.27,.02,.43,.08,.11,.07,.22,.13,.34,.2,.2,.04,.41,.09,.61,.13,.16,.17,.32,.34,.47,.51,.39,.23,.86,.19,1.39,.35,.85,.32,1.69,.64,2.54,.96-.22-.74-.78-1.33-1.47-1.77-.62-.41-1.83-.78-1.88-1.52,.79,.08,.9,.36,1.43,.56-.02-.16-.04-.33-.06-.49,.76,.56,1.06,1.36,2.46,1.41,.26,.39,.56,.71,1.09,.93-.14-.27-.28-.55-.41-.83,.17,.05,.34,.09,.51,.13h.02c.04-.61-.66-.9-.51-1.49,.34,.23,.7,.64,.84,.97,.04,.03,.07,.05,.11,.07,.26-1.09-.67-1.03-1.1-1.7,.03-.04,.07-.08,.1-.12,.11-.01,.21-.02,.33-.03h.06c-.26-.12-.51-.24-.75-.37-.28-.16-.43-.47-.77-.58-.08,.04-.17,.08-.26,.12-.04,.03-.08,.05-.12,.08-.26-.43-.55-.89-.77-1.37-.22-.05-.45-.1-.67-.15-.16-.38-.43-.67-.53-1.09,.32,.16,.72,.39,.84,.68,.17,0,.35,0,.52,0,.03-.02,.06-.05,.09-.07-.21-.23-.43-.45-.65-.68,.04-.24,.47-.21,.64-.34,.97,.19,1.09,.76,1.78,1.09,.3,.14,.66,.11,.88,.26-.07,.11-.13,.23-.2,.34,0,.27,.21,.39,.33,.58,.18-.04,.37-.09,.56-.13,.12,.14,.07,.27,.17,.44,.08,.13,.82,.48,1.03,.44h.05c-.04-.21-.08-.43-.13-.64,.07-.25,.14-.5,.21-.75,.02,0,.04-.01,.05-.02,.14,.18,.34,.45,.64,.52,.18-.28,.53-.4,1-.41-.02-.29-.37-.55-.65-.68,0-.02-.02-.03-.02-.05,.67-.25,.76,.28,1.38,.14,.11-.05,.28-.3,.42-.38,.02-.02,.02-.04,.04-.06-.35-.24-.7-.48-1.05-.72-.42,.24-.73,.19-1.29,.04Z" style="fill:#70d44b;"/></g><path d="M74.42,0C33.39,0,0,33.46,0,74.58c0,36.39,26.14,66.76,60.59,73.28,.08-.44,.2-.88,.38-1.3,.06-.23,.15-.53,.27-.85,.07-.76,.26-1.6,.71-2.47-.35-2.19,.55-4.43,2.38-5.75,.1-.15,.19-.29,.27-.42,.14-.21,.27-.41,.37-.57,.03-.12,.06-.24,.1-.35-.04-1.11,.08-1.93,.27-2.59-28.52-4.4-50.44-29.17-50.44-58.97,0-32.9,26.7-59.67,59.52-59.67s59.51,26.77,59.51,59.67c0,13.12-4.26,25.27-11.45,35.13,2.65,2.34,3.06,6.73,2.36,8.88-1.13,3.38-3.52,5.02-4.93,5.78-.19,.22-.4,.46-.65,.7-.08,.65-.25,1.21-.43,1.67-.12,1.09-.53,2.1-1.16,2.94-.07,.22-.16,.43-.26,.63-.4,.83-.96,1.53-1.67,2.12-.63,1.53-1.87,2.75-3.42,3.33-1.02,.73-2.28,1.13-3.63,1.09h-.66c-.32,0-.7,0-1.11-.04-.37,.17-.75,.3-1.14,.39-.49,1.36-1.45,2.72-3.17,3.86l-.15,.23c-.07,.11-.15,.21-.22,.31-.96,1.23-2.2,2.02-3.17,2.57-.6,.62-1.2,1.04-1.63,1.31,29.79-9.74,51.38-37.85,51.38-70.91C148.84,33.46,115.46,0,74.42,0Z" style="fill:#70d44b;"/></g></g></svg>