<?xml version="1.0" encoding="UTF-8"?><svg id="uuid-0425352d-a261-4397-957c-05c89baacaa5" xmlns="http://www.w3.org/2000/svg" viewBox="0 0 148.84 146.1"><g id="uuid-32ca4e97-61d7-4958-a5a2-bf6397457f3d"><g><path d="M74.42,0C33.39,0,0,33.46,0,74.58c0,15.86,4.97,30.57,13.42,42.67l4.79-23.1c-2.13-6.14-3.3-12.72-3.3-19.57,0-32.9,26.7-59.67,59.52-59.67s59.51,26.77,59.51,59.67c0,21.19-11.08,39.82-27.73,50.41l-1.87,9.01c-1.05,5.09-4.45,9.49-8.83,12.11,30.8-9.13,53.34-37.74,53.34-71.52C148.84,33.46,115.46,0,74.42,0Z" style="fill:#ee3124;"/><g><path d="M104.2,59.08h-2.63l1.44-6.97c3.3-15.92-6.97-28.88-22.89-28.88s-31.57,12.96-34.87,28.88l-1.45,6.97h-2.64c-6.13,0-12.15,4.98-13.42,11.11l-13.05,62.9c-1.27,6.12,2.68,11.11,8.81,11.11h63.03c6.13,0,12.14-4.98,13.41-11.11l13.05-62.9c1.27-6.12-2.68-11.11-8.81-11.11m-45.74-6.97c1.79-8.64,10.28-15.67,18.92-15.67s14.21,7.03,12.42,15.67l-1.45,6.97h-31.33l1.44-6.97Zm28.72,78.87H28.35l12.17-58.68h58.83l-12.17,58.68Z" style="fill:#ee3124;"/><path d="M56.6,104.86l-4.51,15.25h15.86l1.81-15.25c3.62-2.12,6.46-5.74,7.31-9.84,1.36-6.54-2.84-11.85-9.39-11.85s-12.94,5.31-14.3,11.85c-.85,4.11,.49,7.72,3.22,9.84" style="fill:#ee3124;"/></g></g></g></svg>