<?xml version="1.0" encoding="UTF-8"?><svg id="uuid-4966f86d-3f0a-4f64-a2f4-784b8e268918" xmlns="http://www.w3.org/2000/svg" viewBox="0 0 31.11 31.11"><g id="uuid-0611225a-0b14-4d26-afac-922f0e80a154"><g><circle cx="15.56" cy="15.56" r="15.56" style="fill:#5c900f;"/><g><path d="M16.46,24.62c-.08,0-.15-.03-.21-.08l-3.29-2.78c-.07-.06-.11-.15-.11-.25V9.37c0-.1,.04-.19,.11-.25l3.29-2.78c.1-.08,.23-.1,.35-.05,.11,.05,.19,.17,.19,.29V24.3c0,.13-.07,.24-.19,.29-.04,.02-.09,.03-.14,.03Zm-2.97-3.26l2.64,2.24V7.28l-2.64,2.24v11.84Z" style="fill:#fff;"/><g><path d="M3.73,15.57v-.88h.17c2.23,0,4.46,0,6.69,0,.27,0,.5-.06,.67-.29,.18-.24,.2-.5,.07-.76-.14-.28-.39-.42-.71-.39-.29,.03-.49,.18-.6,.44-.03,.08-.05,.17-.07,.26h-.85c-.01-.28,.06-.54,.2-.78,.34-.59,.97-.89,1.63-.79,.69,.11,1.21,.62,1.33,1.31,.16,.9-.51,1.78-1.41,1.85-.13,.01-.26,.02-.39,.02-2.18,0-4.37,0-6.55,0h-.17Z" style="fill:#fff;"/><path d="M3.73,16.73v-.87h.13c1.69,0,3.38,0,5.07,0,.8,0,1.49,.58,1.59,1.38,.12,.95-.55,1.66-1.31,1.79-.87,.15-1.66-.43-1.83-1.23-.02-.11-.03-.22-.05-.33h.86c.03,.1,.04,.21,.09,.3,.16,.33,.52,.49,.86,.39,.34-.11,.56-.44,.51-.8-.05-.36-.36-.62-.75-.63-.79,0-1.57,0-2.36,0-.9,0-1.79,0-2.69,0-.04,0-.08,0-.13,0Z" style="fill:#fff;"/></g><g><path d="M22.65,13.36c.09,0,.15,.05,.17,.16,.08,.32,.15,.65,.22,.97,.18,.8,.67,1.29,1.47,1.48,.19,.05,.38,.09,.57,.14,.02,0,.04,.01,.06,.02,.09,.04,.13,.09,.13,.17,0,.07-.06,.14-.15,.16-.26,.07-.53,.12-.79,.2-.69,.22-1.11,.69-1.27,1.39-.08,.34-.15,.67-.23,1.01-.02,.1-.09,.15-.17,.15-.09,0-.15-.05-.18-.15-.08-.33-.15-.66-.23-.99-.18-.78-.66-1.26-1.44-1.45-.24-.06-.47-.11-.71-.17-.1-.02-.15-.09-.15-.18,0-.08,.05-.15,.15-.17,.28-.07,.56-.12,.84-.2,.46-.13,.81-.4,1.07-.81,.14-.23,.22-.48,.27-.74,.06-.28,.13-.57,.2-.85,.02-.1,.09-.16,.17-.16Z" style="fill:#fff;"/><path d="M21.52,12.45c0,.07-.04,.12-.12,.14-.15,.04-.31,.07-.46,.12-.48,.13-.77,.44-.88,.91-.05,.21-.1,.42-.14,.63-.02,.09-.08,.14-.16,.14-.07,0-.13-.05-.15-.14-.05-.22-.1-.44-.15-.66-.12-.47-.41-.76-.88-.88-.17-.04-.34-.08-.5-.12-.08-.02-.13-.09-.11-.17,.01-.07,.06-.11,.13-.13,.17-.04,.34-.08,.51-.12,.47-.13,.75-.43,.86-.9,.05-.21,.1-.42,.14-.63,.02-.1,.07-.15,.15-.15,.08,0,.13,.05,.16,.15,.05,.23,.1,.45,.16,.68,.08,.33,.26,.59,.56,.74,.15,.08,.33,.11,.49,.16,.09,.03,.18,.04,.26,.07,.08,.02,.12,.08,.13,.15Z" style="fill:#fff;"/><path d="M18.3,15.42c.48,0,.85,.39,.85,.86,0,.47-.39,.85-.87,.85-.47,0-.84-.39-.84-.86,0-.48,.38-.85,.85-.85Zm.48,.86c0-.27-.21-.49-.48-.49-.27,0-.5,.22-.5,.49,0,.26,.22,.48,.48,.49,.28,0,.49-.21,.5-.48Z" style="fill:#fff;"/><path d="M21.43,19.23c0,.38-.29,.67-.67,.67-.38,0-.67-.29-.67-.67,0-.37,.31-.67,.68-.67,.37,0,.67,.3,.67,.67Zm-.67-.3c-.17,0-.31,.14-.31,.3,0,.17,.14,.31,.31,.31,.16,0,.31-.14,.31-.31,0-.17-.14-.31-.31-.31Z" style="fill:#fff;"/><path d="M23.04,11.77c-.33,0-.58-.25-.58-.58,0-.32,.25-.58,.57-.58,.32,0,.58,.25,.58,.57,0,.33-.25,.58-.57,.58Zm-.22-.58c0,.11,.09,.21,.21,.22,.11,0,.21-.1,.21-.21,0-.12-.09-.21-.21-.21-.11,0-.21,.1-.21,.21Z" style="fill:#fff;"/></g></g></g></g></svg>