<?xml version="1.0" encoding="UTF-8"?><svg id="uuid-2d09aba8-64af-4513-9fc1-9a9bb42925f6" xmlns="http://www.w3.org/2000/svg" viewBox="0 0 38.1 38.1"><g id="uuid-e0077e2b-430a-4df6-8e3e-af41413ca8cb"><g><circle cx="19.05" cy="19.05" r="19.05" style="fill:#00adee;"/><g><path d="M22.94,20.71h-.19V9.74c0-1.22-.99-2.22-2.22-2.22-.57,0-1.09,.22-1.49,.57-.39-.36-.91-.57-1.49-.57-1.22,0-2.22,.99-2.22,2.22v10.97h-.19c-.24,0-.47,.12-.6,.32-.14,.2-.16,.45-.08,.68l1.12,2.82v2.74c0,.67,.3,1.27,.78,1.67v.79c0,1.47,1.2,2.67,2.67,2.67h.01c1.47,0,2.67-1.2,2.67-2.67v-.79c.48-.4,.78-1,.78-1.67v-2.74l1.12-2.82c.09-.22,.06-.48-.08-.68-.14-.2-.36-.32-.6-.32Zm-1.9,6.55c0,.4-.33,.73-.73,.73h-2.53c-.4,0-.73-.33-.73-.73v-2.15h3.99v2.15Zm-4.22-3.6l-.59-1.49h5.63l-.59,1.49h-4.45Zm3.71-14.68c.42,0,.76,.34,.76,.76v10.97h-1.51V9.72c.01-.41,.34-.74,.76-.74Zm-3.73,.76c0-.42,.34-.76,.76-.76s.75,.33,.76,.74v10.99h-1.51V9.74Zm3.46,19.99c0,.67-.54,1.21-1.21,1.21h-.01c-.67,0-1.21-.54-1.21-1.21v-.27h2.43v.27Z" style="fill:#fff;"/><path d="M11.94,15.19c0-.4-.33-.73-.73-.73h-2.17c-.4,0-.73,.33-.73,.73s.33,.73,.73,.73h2.17c.4,0,.73-.33,.73-.73Z" style="fill:#fff;"/><path d="M12.11,11.31c.14,.14,.33,.21,.52,.21s.37-.07,.52-.21c.28-.28,.28-.75,0-1.03l-1.46-1.46c-.28-.28-.75-.28-1.03,0-.28,.28-.28,.75,0,1.03l1.46,1.46Z" style="fill:#fff;"/><path d="M12.12,19.1l-1.48,1.48c-.28,.28-.28,.75,0,1.03,.14,.14,.33,.21,.52,.21s.37-.07,.52-.21l1.48-1.48c.28-.28,.28-.75,0-1.03s-.75-.28-1.03,0Z" style="fill:#fff;"/><path d="M29.07,14.52h-2.17c-.4,0-.73,.33-.73,.73s.33,.73,.73,.73h2.17c.4,0,.73-.33,.73-.73s-.33-.73-.73-.73Z" style="fill:#fff;"/><path d="M25.99,19.12c-.28-.28-.75-.28-1.03,0-.28,.28-.28,.75,0,1.03l1.46,1.46c.14,.14,.33,.21,.52,.21s.37-.07,.52-.21c.28-.28,.28-.75,0-1.03l-1.46-1.46Z" style="fill:#fff;"/><path d="M25.47,11.54c.19,0,.37-.07,.52-.21l1.48-1.48c.28-.28,.28-.75,0-1.03-.28-.28-.75-.28-1.03,0l-1.48,1.48c-.28,.28-.28,.75,0,1.03,.14,.14,.33,.21,.52,.21Z" style="fill:#fff;"/></g></g></g></svg>