<?xml version="1.0" encoding="UTF-8"?><svg id="uuid-7d2af979-8ca6-40bb-8222-2ee4debd8dd3" xmlns="http://www.w3.org/2000/svg" viewBox="0 0 31.11 31.11"><g id="uuid-9926dc16-b173-4297-aa90-65b89534b1b8"><g><circle cx="15.56" cy="15.56" r="15.56" style="fill:#fb922b;"/><g><g><path d="M15.51,16.08c3.31,0,6.63,0,9.94,0,.41,0,.54,.13,.54,.53,0,.48,0,.96,0,1.43,0,.29-.16,.45-.45,.45-.04,0-.08,0-.13,0-6.62,0-13.24,0-19.86,0-.07,0-.15,0-.22,0-.2-.03-.34-.18-.35-.39,0-.55,0-1.09,0-1.64,0-.22,.17-.37,.38-.39,.06,0,.13,0,.19,0,3.31,0,6.63,0,9.94,0Z" style="fill:#fff;"/><g><path d="M20.14,10.43c-.06,0-.13,0-.21,0-.2-.02-.36-.19-.37-.39,0-.2,.14-.4,.34-.41,.44-.01,.88-.01,1.32,0,.2,0,.35,.17,.35,.38,0,.41,0,.83,0,1.24,0,.23-.19,.39-.41,.39-.21,0-.38-.17-.39-.4,0-.06,0-.12,0-.23-.06,.06-.1,.09-.14,.13-1.25,1.25-2.51,2.5-3.76,3.75-.29,.29-.47,.29-.76,0-1.47-1.47-2.94-2.94-4.42-4.41-.05-.05-.1-.1-.15-.16-.17-.18-.18-.43-.01-.59,.16-.16,.4-.15,.58,.02,.2,.2,.4,.4,.6,.6,1.22,1.21,2.43,2.43,3.65,3.64,.04,.04,.08,.08,.12,.11l3.65-3.68Z" style="fill:#fff;"/><path d="M13.78,13.65c0,.24-.1,.38-.25,.44-.17,.06-.32,.03-.45-.1-.42-.42-.84-.84-1.26-1.26-1.13-1.12-2.25-2.25-3.38-3.37-.13-.13-.19-.28-.12-.46,.05-.16,.18-.25,.34-.26,.16-.02,.28,.06,.39,.17,.63,.64,1.27,1.27,1.91,1.9,.88,.88,1.77,1.76,2.65,2.65,.09,.09,.15,.22,.18,.28Z" style="fill:#fff;"/></g><g><path d="M9.74,24.7c.06,0,.13,0,.21,0,.2,.02,.36,.19,.37,.39,0,.2-.14,.4-.34,.41-.44,.01-.88,.01-1.32,0-.2,0-.35-.17-.35-.38,0-.41,0-.83,0-1.24,0-.23,.19-.39,.41-.39,.21,0,.38,.17,.39,.4,0,.06,0,.12,0,.23,.06-.06,.1-.09,.14-.13,1.25-1.25,2.51-2.5,3.76-3.75,.29-.29,.47-.29,.76,0,1.47,1.47,2.94,2.94,4.42,4.41,.05,.05,.1,.1,.15,.16,.17,.18,.18,.43,.01,.59-.16,.16-.4,.15-.58-.02-.2-.2-.4-.4-.6-.6-1.22-1.21-2.43-2.43-3.65-3.64-.04-.04-.08-.08-.12-.11l-3.65,3.68Z" style="fill:#fff;"/><path d="M16.09,21.48c0-.24,.1-.38,.25-.44,.17-.06,.32-.03,.45,.1,.42,.42,.84,.84,1.26,1.26,1.13,1.12,2.25,2.25,3.38,3.37,.13,.13,.19,.28,.12,.46-.05,.16-.18,.25-.34,.26-.16,.02-.28-.06-.39-.17-.63-.64-1.27-1.27-1.91-1.9-.88-.88-1.77-1.76-2.65-2.65-.09-.09-.15-.22-.18-.28Z" style="fill:#fff;"/></g></g><g><path d="M17.36,4.87s-.03,.08-.08,.1c-.1,.03-.2,.05-.3,.08-.31,.09-.5,.3-.57,.63-.03,.15-.06,.29-.09,.44-.01,.07-.05,.1-.1,.1-.05,0-.08-.04-.1-.1-.03-.15-.06-.31-.1-.46-.08-.32-.27-.53-.57-.61-.11-.03-.22-.06-.33-.09-.05-.01-.08-.06-.07-.12,0-.05,.04-.08,.08-.09,.11-.03,.22-.05,.33-.09,.3-.09,.49-.3,.56-.63,.03-.14,.06-.29,.09-.43,.01-.07,.05-.1,.1-.1,.05,0,.09,.04,.1,.11,.03,.16,.07,.31,.1,.47,.05,.23,.17,.41,.36,.52,.1,.05,.21,.08,.32,.11,.06,.02,.11,.03,.17,.05,.05,.01,.08,.05,.08,.11Z" style="fill:#fff;"/><path d="M15.21,6.15s-.02,.05-.04,.05c-.06,.02-.11,.03-.17,.05-.18,.05-.28,.17-.32,.36-.02,.08-.04,.17-.05,.25,0,.04-.03,.06-.06,.06-.03,0-.05-.02-.05-.06-.02-.09-.04-.17-.06-.26-.04-.18-.15-.3-.32-.34-.06-.02-.12-.03-.19-.05-.03,0-.05-.04-.04-.07,0-.03,.02-.04,.05-.05,.06-.02,.13-.03,.19-.05,.17-.05,.28-.17,.32-.36,.02-.08,.04-.16,.05-.25,0-.04,.03-.06,.06-.06,.03,0,.05,.02,.06,.06,.02,.09,.04,.18,.06,.27,.03,.13,.1,.23,.21,.29,.06,.03,.12,.04,.18,.06,.03,.01,.06,.02,.1,.03,.03,0,.05,.03,.05,.06Z" style="fill:#fff;"/><path d="M14.57,2.41s.05,.02,.06,.06c.03,.12,.05,.24,.08,.36,.06,.3,.24,.48,.51,.55,.07,.02,.13,.04,.2,.05h.02s.05,.04,.04,.07c0,.03-.02,.05-.05,.06-.09,.03-.19,.05-.28,.08-.24,.08-.39,.26-.45,.52-.03,.13-.05,.25-.08,.38,0,.04-.03,.06-.06,.06-.03,0-.05-.02-.06-.06-.03-.12-.05-.25-.08-.37-.06-.29-.23-.47-.51-.54-.08-.02-.17-.04-.25-.06-.04,0-.05-.03-.05-.07,0-.03,.02-.05,.05-.06,.1-.03,.2-.05,.29-.08,.16-.05,.29-.15,.37-.3,.05-.09,.08-.18,.1-.28,.02-.11,.05-.21,.07-.32,0-.04,.03-.06,.06-.06Z" style="fill:#fff;"/></g></g></g></g></svg>