<?xml version="1.0" encoding="UTF-8"?><svg id="uuid-699552f4-89d5-4ed0-810e-8425f0ab5b9e" xmlns="http://www.w3.org/2000/svg" viewBox="0 0 38.51 38.51"><g id="uuid-8223a4b7-5f5c-4319-a6da-9a188447ea0d"><g><circle cx="19.26" cy="19.26" r="19.26" style="fill:#026fd1;"/><g><path d="M14.53,22.72c.77-.77,.77-2.03,0-2.8-.37-.37-.87-.58-1.4-.58-.31,0-.6,.07-.87,.2-.94-1.35-1.44-2.92-1.44-4.58,0-4.24,3.31-7.75,7.54-8,.29-.02,.51-.26,.49-.55-.02-.29-.26-.51-.55-.49-4.78,.28-8.52,4.25-8.52,9.04,0,1.91,.58,3.73,1.69,5.27-.51,.77-.42,1.81,.25,2.49,.37,.37,.87,.58,1.4,.58s1.03-.21,1.4-.58Zm-2.06-2.06c.18-.18,.42-.27,.66-.27s.48,.09,.66,.27c.37,.37,.37,.96,0,1.33-.37,.37-.96,.37-1.33,0s-.37-.96,0-1.33Z" style="fill:#fff;"/><path d="M26.87,23.98c-.33,0-.64,.09-.91,.24-.24-.76-.95-1.3-1.78-1.3-.53,0-1,.22-1.34,.57-.09-.1-.2-.18-.31-.26,1.2-.54,2.28-1.34,3.16-2.35,1.42-1.64,2.2-3.74,2.2-5.92,0-1.91-.58-3.73-1.69-5.27,.51-.77,.42-1.81-.25-2.49-.77-.77-2.03-.77-2.8,0-.77,.77-.77,2.03,0,2.8,.39,.39,.89,.58,1.4,.58,.3,0,.59-.07,.87-.2,.94,1.35,1.44,2.92,1.44,4.58,0,3.77-2.56,6.96-6.17,7.8v-2.81c2.07-.76,3.48-2.76,3.48-4.99,0-2.93-2.39-5.32-5.32-5.32s-5.32,2.39-5.32,5.32c0,1.16,.37,2.26,1.06,3.18,.6,.81,1.44,1.43,2.37,1.79v7.67l-.65-1.07c-.55-.9-1.7-1.2-2.61-.67-.87,.5-1.21,1.61-.77,2.52l1.94,3.93c.09,.18,.28,.29,.47,.29,.08,0,.16-.02,.23-.05,.26-.13,.36-.44,.24-.7l-1.94-3.92c-.2-.42-.04-.92,.36-1.16,.41-.24,.95-.1,1.2,.31l1.62,2.66c.12,.2,.36,.29,.59,.23s.38-.27,.38-.5v-11.96c0-.45,.37-.82,.82-.82s.82,.37,.82,.82v2.06h0v7.84c0,.29,.23,.52,.52,.52s.52-.23,.52-.52v-2.62c0-.45,.37-.82,.82-.82s.82,.37,.82,.82v2.81c0,.29,.23,.52,.52,.52s.52-.23,.52-.52v-2.81c0-.45,.37-.82,.82-.82s.82,.37,.82,.82v2.84c0,.29,.23,.52,.52,.52s.52-.23,.52-.52v-1.78c0-.45,.37-.82,.82-.82s.82,.37,.82,.82v6.23c0,.29,.23,.52,.52,.52s.52-.23,.52-.52v-6.23c0-1.03-.84-1.86-1.86-1.86Zm-2.99-14.72c-.37-.37-.37-.96,0-1.33,.18-.18,.42-.27,.66-.27s.48,.09,.66,.27c.37,.37,.37,.96,0,1.33-.37,.37-.96,.37-1.33,0Zm-9.32,5.7c0-2.36,1.92-4.28,4.28-4.28s4.28,1.92,4.28,4.28c0,1.66-.97,3.16-2.44,3.86v-1.32c0-.29-.07-.57-.19-.82,.46-.45,.74-1.07,.74-1.72,0-1.32-1.07-2.39-2.39-2.39s-2.39,1.07-2.39,2.39c0,.64,.26,1.25,.7,1.69-.13,.25-.2,.54-.2,.85v1.3c-1.45-.71-2.39-2.18-2.39-3.84Zm3.31,.93c-.24-.25-.38-.58-.38-.93,0-.74,.6-1.35,1.34-1.35s1.35,.6,1.35,1.35c0,.36-.15,.7-.39,.95-.28-.18-.62-.28-.98-.28s-.67,.09-.95,.26Z" style="fill:#fff;"/><path d="M20.68,7.15c.14,0,.27-.06,.37-.15,.1-.1,.15-.23,.15-.37s-.06-.27-.15-.37c-.1-.1-.23-.15-.37-.15s-.27,.06-.37,.15-.15,.23-.15,.37,.06,.27,.15,.37c.1,.1,.23,.15,.37,.15Z" style="fill:#fff;"/></g></g></g></svg>