<?xml version="1.0" encoding="UTF-8"?><svg id="uuid-f6289071-5b0f-41ad-9808-19d1ac987b3a" xmlns="http://www.w3.org/2000/svg" viewBox="0 0 31.11 31.11"><g id="uuid-3a3da731-6e4e-4a2a-a1af-23b0a0e0cd9f"><g><circle cx="15.56" cy="15.56" r="15.56" style="fill:#5c900f;"/><g><path d="M15.62,27.08c6.11,0,11.1-4.82,11.37-10.87h-3.83c-.83,4.5-3.71,7.88-7.99,7.88-4.9,0-8.87-4.43-8.87-9.89,0-4.6,2.81-8.46,6.63-9.57-4.99,1.21-8.7,5.7-8.7,11.06,0,6.29,5.1,11.38,11.38,11.38Z" style="fill:#fff;"/><polygon points="23.14 12.08 12.66 22.13 16.47 13.98 11.2 13.98 15.13 3.5 21.24 3.5 17.43 12.08 23.14 12.08" style="fill:#fff;"/><rect x="23.14" y="14.24" width="3.85" height=".75" style="fill:#fff;"/></g></g></g></svg>