<svg xmlns="http://www.w3.org/2000/svg" xmlns:xlink="http://www.w3.org/1999/xlink" id="Layer_2" viewBox="0 0 128.56 30.12"><defs><style>.cls-1{fill:url(#Degradado_sin_nombre_7-3);}.cls-2{fill:#231f20;}.cls-3{fill:url(#Degradado_sin_nombre_7);}.cls-4{fill:url(#Degradado_sin_nombre_7-2);}</style><linearGradient id="Degradado_sin_nombre_7" x1="-5.53" y1="22.02" x2="37.4" y2="22.02" gradientUnits="userSpaceOnUse"><stop offset="0" stop-color="#02a05e"></stop><stop offset=".14" stop-color="#027d50"></stop><stop offset=".31" stop-color="#025c43"></stop><stop offset=".45" stop-color="#02483b"></stop><stop offset=".54" stop-color="#034139"></stop><stop offset="1" stop-color="#071f24"></stop></linearGradient><linearGradient id="Degradado_sin_nombre_7-2" x1="-5.53" y1="13.3" x2="37.4" y2="13.3" xlink:href="#Degradado_sin_nombre_7"></linearGradient><linearGradient id="Degradado_sin_nombre_7-3" x1="-5.53" y1="7.06" x2="37.4" y2="7.06" xlink:href="#Degradado_sin_nombre_7"></linearGradient></defs><g id="ATRIBUTOS"><path class="cls-3" d="M.33,30.12c-.02-.77-.02-1.54-.03-2.31,0-.42-.08-.89-.03-1.31.03-.24,1.06-1.53,1.28-1.79,2.72-3.2,5.87-4.53,10.02-4.93,2.02-.19,3.59,0,5.57.21,5.42.56,10.74-.69,14.42-4.89l.94-1.19c0,.24,0,.49,0,.73.09,2.74-.04,4.83-1.19,7.35-1.97,4.3-6.37,7.48-11.15,7.74-2.96.16-5.98.01-8.94.18l-10.89.21Z"></path><path class="cls-4" d="M.24,23.77s-.03-.04-.03-.07c-.12-2.35-.04-4.73-.14-7.08,1.96-4.18,6.49-6.3,11-6.16.89.03,1.75.24,2.62.35,4.63.59,10.63.34,14.35-2.8,1.4-1.18,2.61-2.58,3.6-4.11l.64-1.07c0,.38,0,.77,0,1.15.03,1.6.09,3.2.12,4.79.01.67-.19,1.26-.42,1.88-1.41,3.91-4.41,6.08-8.31,7.18-2.17.61-4.52.5-6.75.4-2-.08-4.03-.37-6.02-.21-3.96.32-7.53,2.16-10.16,5.09-.18.2-.38.43-.52.66Z"></path><path class="cls-1" d="M31.73,0c-1.08,3.5-3.83,6.34-7.13,7.84-2.99,1.36-5.76,1.49-9,1.31-2.43-.14-4.63-.69-7.09-.41-3.07.35-6.02,1.93-7.85,4.43l-.63.96c-.04-.24-.04-.49-.03-.73C.22,6.46,5.48.75,12.47.39c3.1-.16,6.3-.15,9.41-.21L29.6.03c.71-.01,1.42,0,2.13-.03Z"></path><path class="cls-2" d="M47.1,9.42h5.04v1.39h-3.47v2.88h3.26v1.37h-3.26v4.53h-1.57v-10.16Z"></path><path class="cls-2" d="M53.31,9.42h1.58v8.8h3.53l-.17,1.36h-4.94v-10.16Z"></path><path class="cls-2" d="M60.7,9.42v7.04c0,.93.25,1.96,1.44,1.96s1.44-.86,1.44-1.95v-7.04h1.58v7.07c0,1.83-.7,3.26-3.05,3.26s-3-1.34-3-3.24v-7.09h1.58Z"></path><path class="cls-2" d="M69.07,16.99c0,1.58-.33,2.72-2.27,2.72-.37,0-.71-.04-.92-.08v-1.32c.17.02.39.04.65.04.83,0,.96-.43.96-1.27v-7.67h1.58v7.57Z"></path><path class="cls-2" d="M76.85,14.41c0,3.63-.95,5.33-3.24,5.33-2.16,0-3.15-1.66-3.15-5.34s1.16-5.15,3.23-5.15c2.18,0,3.17,1.66,3.17,5.16ZM72.08,14.39c0,2.58.44,4.02,1.57,4.02s1.58-1.36,1.58-4.01-.42-3.79-1.58-3.79-1.57,1.35-1.57,3.78Z"></path><path class="cls-2" d="M81.17,19.58v-10.16h1.83c2.34,6.1,2.74,7.13,2.87,7.61h.02c-.08-1.27-.09-2.78-.09-4.44v-3.17h1.43v10.16h-1.75c-2.43-6.47-2.8-7.5-2.93-7.94h-.02c.08,1.26.08,2.81.08,4.64v3.3h-1.43Z"></path><path class="cls-2" d="M90.4,16.79l-.58,2.79h-1.58l2.39-10.16h2.05l2.43,10.16h-1.66l-.59-2.79h-2.45ZM92.55,15.41c-.45-2.13-.78-3.61-.93-4.53h-.04c-.13.92-.48,2.55-.9,4.53h1.87Z"></path><path class="cls-2" d="M96.62,10.8h-2.2v-1.39h5.99v1.39h-2.2v8.77h-1.58v-8.77Z"></path><path class="cls-2" d="M102.91,9.42v7.04c0,.93.25,1.96,1.44,1.96s1.44-.86,1.44-1.95v-7.04h1.58v7.07c0,1.83-.7,3.26-3.05,3.26s-3-1.34-3-3.24v-7.09h1.58Z"></path><path class="cls-2" d="M110.64,15.13v4.45h-1.57v-10.16h2.95c1.8,0,2.79.96,2.79,2.72,0,1.49-.77,2.12-1.33,2.33.84.36,1.18,1.08,1.18,2.56v.41c0,1.08.05,1.6.14,2.14h-1.54c-.15-.46-.17-1.3-.17-2.16v-.36c0-1.39-.31-1.93-1.53-1.93h-.93ZM110.64,13.83h1c1.15,0,1.59-.55,1.59-1.63,0-.92-.44-1.49-1.43-1.49h-1.16v3.12Z"></path><path class="cls-2" d="M117.8,16.79l-.58,2.79h-1.58l2.39-10.16h2.05l2.43,10.16h-1.66l-.59-2.79h-2.45ZM119.96,15.41c-.45-2.13-.78-3.61-.93-4.53h-.04c-.13.92-.48,2.55-.9,4.53h1.87Z"></path><path class="cls-2" d="M123.45,9.42h1.58v8.8h3.53l-.17,1.36h-4.94v-10.16Z"></path></g></svg>