<?xml version="1.0" encoding="UTF-8"?><svg id="uuid-5f20e633-dfe1-4196-852c-9a6af99e9246" xmlns="http://www.w3.org/2000/svg" viewBox="0 0 70.91 70.91"><g id="uuid-93812eac-1095-444d-b1f1-14e82ad69928"><path d="M35.46,0C15.87,0,0,15.88,0,35.46c0,19.58,15.87,35.46,35.45,35.46s35.46-15.88,35.46-35.45C70.91,15.88,55.04,0,35.46,0Zm14.34,56.74c-.29,.21-.64,.32-.99,.32s-.69-.11-.98-.32l-12.26-8.82-12.26,8.82c-.59,.42-1.38,.42-1.97,0-.59-.43-.83-1.18-.61-1.87l4.6-14.38-12.17-8.93c-.58-.43-.83-1.19-.6-1.88,.22-.69,.87-1.16,1.59-1.16l8.63-.04h0c.93,0,1.68,.75,1.68,1.67,0,.93-.74,1.69-1.67,1.69l-3.54,.02,9.04,6.63c.58,.43,.83,1.18,.61,1.87l-3.42,10.68,9.1-6.55c.59-.42,1.38-.42,1.97,0l9.1,6.55-1.43-4.48c-.28-.88,.2-1.83,1.09-2.11,.88-.28,1.83,.2,2.11,1.09l2.99,9.34c.22,.69-.03,1.45-.61,1.87Zm8.19-25.19l-13.15,9.65c-.3,.22-.65,.33-.99,.33-.52,0-1.03-.24-1.36-.69-.55-.75-.39-1.8,.36-2.35l9.04-6.63-11.21-.05c-.72,0-1.36-.47-1.59-1.16l-3.51-10.65-3.51,10.65c-.29,.88-1.24,1.36-2.13,1.07-.88-.29-1.36-1.24-1.07-2.13l5.11-15.49c.23-.69,.87-1.16,1.6-1.16s1.37,.47,1.6,1.16l4.73,14.34,15.1,.07c.73,0,1.37,.47,1.59,1.16,.22,.69-.02,1.45-.6,1.88Z" style="fill:#6ba3bc;"/></g></svg>