<?xml version="1.0" encoding="UTF-8"?><svg id="uuid-47afd82f-5276-4413-a037-461aea80c571" xmlns="http://www.w3.org/2000/svg" viewBox="0 0 70.87 70.87"><g id="uuid-ea44fb39-4a1e-4da1-99ba-c4d1b66f648f"><g><circle cx="35.43" cy="35.43" r="35.43" style="fill:#ed1c24;"/><g><path d="M43.58,61.77h-14.33c-2.15,0-3.89-1.74-3.89-3.89V21.87c0-2.15,1.74-3.89,3.89-3.89h14.33c2.15,0,3.89,1.74,3.89,3.89V57.88c0,2.15-1.74,3.89-3.89,3.89h0ZM29.25,19.54c-1.28,0-2.32,1.04-2.32,2.32V57.88c0,1.28,1.04,2.32,2.32,2.32h14.33c1.28,0,2.32-1.04,2.32-2.32V21.87c0-1.28-1.04-2.32-2.32-2.32h-14.33Z" style="fill:#fff;"/><path d="M31.48,23.52h-1.17c-.43,0-.79-.35-.79-.79s.35-.79,.79-.79h1.17c.43,0,.79,.35,.79,.79s-.35,.79-.79,.79Z" style="fill:#fff;"/><path d="M42.51,23.52h-1.17c-.43,0-.79-.35-.79-.79s.35-.79,.79-.79h1.17c.43,0,.79,.35,.79,.79s-.35,.79-.79,.79Z" style="fill:#fff;"/><path d="M31.48,28.39h-1.17c-.43,0-.79-.35-.79-.79s.35-.79,.79-.79h1.17c.43,0,.79,.35,.79,.79s-.35,.79-.79,.79Z" style="fill:#fff;"/><path d="M37,28.39h-1.17c-.43,0-.79-.35-.79-.79s.35-.79,.79-.79h1.17c.43,0,.79,.35,.79,.79s-.35,.79-.79,.79Z" style="fill:#fff;"/><path d="M42.51,28.39h-1.17c-.43,0-.79-.35-.79-.79s.35-.79,.79-.79h1.17c.43,0,.79,.35,.79,.79s-.35,.79-.79,.79Z" style="fill:#fff;"/><path d="M31.48,33.32h-1.17c-.43,0-.79-.35-.79-.79s.35-.79,.79-.79h1.17c.43,0,.79,.35,.79,.79s-.35,.79-.79,.79Z" style="fill:#fff;"/><path d="M37,33.32h-1.17c-.43,0-.79-.35-.79-.79s.35-.79,.79-.79h1.17c.43,0,.79,.35,.79,.79s-.35,.79-.79,.79Z" style="fill:#fff;"/><path d="M42.51,33.32h-1.17c-.43,0-.79-.35-.79-.79s.35-.79,.79-.79h1.17c.43,0,.79,.35,.79,.79s-.35,.79-.79,.79Z" style="fill:#fff;"/><path d="M31.48,56.73h-1.17c-.43,0-.79-.35-.79-.79s.35-.79,.79-.79h1.17c.43,0,.79,.35,.79,.79s-.35,.79-.79,.79Z" style="fill:#fff;"/><path d="M37,56.73h-1.17c-.43,0-.79-.35-.79-.79s.35-.79,.79-.79h1.17c.43,0,.79,.35,.79,.79s-.35,.79-.79,.79Z" style="fill:#fff;"/><path d="M42.51,56.73h-1.17c-.43,0-.79-.35-.79-.79s.35-.79,.79-.79h1.17c.43,0,.79,.35,.79,.79s-.35,.79-.79,.79Z" style="fill:#fff;"/><path d="M31.48,38.26h-1.17c-.43,0-.79-.35-.79-.79s.35-.79,.79-.79h1.17c.43,0,.79,.35,.79,.79s-.35,.79-.79,.79Z" style="fill:#fff;"/><path d="M37,38.26h-1.17c-.43,0-.79-.35-.79-.79s.35-.79,.79-.79h1.17c.43,0,.79,.35,.79,.79s-.35,.79-.79,.79Z" style="fill:#fff;"/><path d="M42.51,38.26h-1.17c-.43,0-.79-.35-.79-.79s.35-.79,.79-.79h1.17c.43,0,.79,.35,.79,.79s-.35,.79-.79,.79Z" style="fill:#fff;"/><path d="M31.48,43.19h-1.17c-.43,0-.79-.35-.79-.79s.35-.79,.79-.79h1.17c.43,0,.79,.35,.79,.79s-.35,.79-.79,.79Z" style="fill:#fff;"/><path d="M42.51,43.19h-1.17c-.43,0-.79-.35-.79-.79s.35-.79,.79-.79h1.17c.43,0,.79,.35,.79,.79s-.35,.79-.79,.79Z" style="fill:#fff;"/><path d="M36.41,52.95c-2.84,0-5.15-2.3-5.15-5.15,0-2.84,2.3-5.15,5.15-5.15s5.15,2.3,5.15,5.15h0c0,2.84-2.31,5.14-5.15,5.15Zm0-8.72c-1.97,0-3.58,1.6-3.58,3.58s1.6,3.58,3.58,3.58,3.58-1.6,3.58-3.58h0c0-1.97-1.6-3.58-3.58-3.58h0Z" style="fill:#fff;"/><path d="M43.86,10.66c-.21,0-.41-.08-.56-.23-3.81-3.8-9.98-3.8-13.79,0-.3,.31-.8,.32-1.11,.02-.31-.3-.32-.8-.02-1.11,0,0,.01-.01,.02-.02,4.42-4.41,11.59-4.41,16.01,0,.31,.31,.31,.8,0,1.11-.15,.15-.35,.23-.56,.23Z" style="fill:#fff;"/><path d="M41.34,13.18c-.21,0-.41-.08-.56-.23-2.42-2.41-6.33-2.41-8.74,0-.31,.3-.81,.29-1.11-.02-.29-.3-.29-.79,0-1.09,3.03-3.02,7.94-3.02,10.97,0,.31,.31,.31,.8,0,1.11-.15,.15-.35,.23-.56,.23Z" style="fill:#fff;"/><path d="M38.82,15.71c-.21,0-.41-.08-.56-.23-1.02-1.02-2.68-1.02-3.7,0-.31,.3-.81,.29-1.11-.02-.29-.3-.29-.79,0-1.09,1.64-1.63,4.28-1.63,5.92,0,.31,.31,.31,.8,0,1.11-.15,.15-.35,.23-.56,.23h0Z" style="fill:#fff;"/></g></g></g></svg>