<?xml version="1.0" encoding="UTF-8"?><svg id="uuid-f9ad28c0-801e-4d50-a2e6-db2674b81429" xmlns="http://www.w3.org/2000/svg" viewBox="0 0 70.87 70.87"><g id="uuid-8fc64b4d-e96d-4bf5-aa5a-e2c93ce1b636"><g><circle cx="35.43" cy="35.43" r="35.43" style="fill:#1c75bc;"/><g><path d="M53.02,36.12v-5.27H20.33v5.27h1.99v12.65h-1.99v5.27H53.02v-5.27h-1.99v-12.65h1.99Zm-13.45,13.04h-5.76l.42-7.32c-.65-.63-1.05-1.52-1.05-2.5,0-1.93,1.56-3.49,3.49-3.49s3.49,1.56,3.49,3.49c0,.98-.4,1.86-1.04,2.49l.44,7.33Z" style="fill:#fff;"/><path d="M28.51,28.77c0-.12,0-.24,0-.36v-5.01c0-4.51,3.67-8.17,8.17-8.17s8.17,3.67,8.17,8.17v5.01c0,.12,0,.24,0,.36h4.39c0-.12,0-.24,0-.36v-5.01c0-6.93-5.64-12.56-12.56-12.56s-12.56,5.64-12.56,12.56v5.01c0,.12,0,.24,0,.36h4.39Z" style="fill:#fff;"/></g></g></g></svg>