<?xml version="1.0" encoding="UTF-8"?><svg id="uuid-5ec0af04-7c16-4297-9ddb-6012579638ce" xmlns="http://www.w3.org/2000/svg" viewBox="0 0 70.91 70.91"><g id="uuid-e47832df-daca-4060-97a2-f079226721f0"><g><path d="M0,35.46C0,15.88,15.87,0,35.46,0c19.58,0,35.45,15.88,35.45,35.46,0,19.58-15.87,35.45-35.46,35.45S0,55.04,0,35.46Z" style="fill:#27aae1;"/><path d="M54.04,25.43l-1.32-.77-3.03,1.76-.02-2.52-1.28-.74-1.29,.74,.03,3.98-1.18,.69v-2.13s-1.29-.75-1.29-.75l-1.29,.75,.02,1.82-3.87-2.23,1.58-.9v-1.48l-1.28-.74-1.85,1.05v-1.36l3.46-1.97v-1.47l-1.28-.75-2.19,1.24v-3.51l-1.32-.76-1.32,.76v13.49l1.29-.74,6.02,3.46v6.95l-6.02,3.47-1.29-.75v12.73l1.32,.76,1.32-.76v-3.51l2.19,1.24,1.28-.74v-1.48l-3.46-1.96v-1.37l1.85,1.05,1.28-.74v-1.48l-1.58-.9,3.87-2.22-.02,1.81,1.29,.75,1.28-.75v-2.13s1.2,.69,1.2,.69l-.03,3.98,1.29,.74,1.28-.74,.02-2.51,3.03,1.75,1.32-.77v-1.52l-3.03-1.75,2.16-1.28v-1.48l-1.28-.74-3.44,2.02-1.18-.69,1.84-1.07v-1.48l-1.28-.74-1.58,.92v-4.46l1.58,.92,1.28-.74v-1.48l-1.84-1.07,1.18-.69,3.44,2.02,1.28-.74v-1.48l-2.16-1.28,3.03-1.75v-1.52Z" style="fill:#fff; isolation:isolate;"/><g><path d="M23.45,39.66l-.4,2.53H13.83l5.49-5.1c.79-.73,1.58-1.77,1.75-2.82,.12-.73-.27-1.49-1.07-1.49s-1.35,.62-1.48,1.4c-.02,.15-.03,.32-.03,.49h-3.29c.52-2.63,2.47-4.41,5.18-4.41,2.4,0,4.19,1.58,3.79,4.08-.26,1.64-1.1,2.6-2.44,3.67l-2.06,1.66h3.76Z" style="fill:#fff;"/><path d="M34.47,37.53l-.35,2.28h-1.39l-.38,2.37h-2.77l.38-2.37h-5.57l.3-1.9,5.56-7.2h3.91l-1.08,6.82h1.39Zm-3.46-4.41h-.03l-3.38,4.41h2.71l.7-4.41Z" style="fill:#fff;"/></g><path d="M37.2,32.66c-.1,.64-.52,1.33-1.26,1.33s-.93-.69-.83-1.33c.1-.64,.52-1.33,1.25-1.33s.94,.69,.84,1.33Zm-1.45,0c-.04,.24-.04,.77,.29,.77s.49-.53,.53-.77c.04-.24,.04-.76-.29-.76s-.49,.52-.53,.76Z" style="fill:#fff;"/><path d="M40.43,35.92c-.22-.38-.65-.59-1.13-.59-.85,0-1.53,.65-1.66,1.48-.13,.84,.35,1.45,1.22,1.45,.45,0,.94-.22,1.29-.57l-.27,1.67c-.48,.14-.83,.25-1.26,.25-.74,0-1.41-.28-1.89-.79-.5-.53-.66-1.23-.53-2.02,.11-.73,.5-1.43,1.09-1.96,.61-.54,1.43-.87,2.18-.87,.45,0,.84,.1,1.23,.27l-.27,1.67Z" style="fill:#fff;"/></g></g></svg>