<?xml version="1.0" encoding="UTF-8"?><svg id="uuid-45f8b2f1-e499-4577-ad68-10affd22ade6" xmlns="http://www.w3.org/2000/svg" viewBox="0 0 31.11 31.11"><g id="uuid-6d080515-0b00-40f2-af13-b2ba5988d80e"><g><circle cx="15.56" cy="15.56" r="15.56" style="fill:#fb922b;"/><path d="M26.18,12.83c-.04-.8-.25-1.58-.53-2.33-.86-2.26-2.31-4.01-4.52-5.09-.89-.44-1.86-.64-2.82-.85-.07-.02-.14-.04-.22-.04-.06,0-.13,.03-.18,.06-.02,.01,0,.1,.03,.14,.27,.41,.55,.81,.81,1.23,.56,.87,.88,1.82,.92,2.85,.05,1.17-.13,2.29-.54,3.38-.18,.47-.44,.88-.82,1.22-.05,.04-.1,.07-.15,.11-.53-.54-1.16-.88-1.91-.99-.18-.02-.32-.06-.37-.24,0-.02-.03-.04-.05-.06-.48-.41-.88-.9-1.4-1.26-.66-.46-1.39-.77-2.17-.98-.3-.08-.59-.17-.89-.24-.73-.18-.89-.79-.71-1.33,.07-.21,.18-.41,.24-.63,.04-.15,.06-.31,.04-.46-.04-.34-.36-.54-.71-.45-.28,.08-.56,.18-.83,.3-1.46,.63-2.59,1.65-3.48,2.95-.46,.67-.89,1.35-1.17,2.11-.37,1.02-.55,2.07-.56,3.15,0,.63,.13,1.25,.27,1.86,.1,.45,.18,.9,.28,1.35,.03,.13,.08,.26,.13,.39,.02,.05,.07,.1,.11,.11,.03,0,.09-.05,.11-.09,.17-.31,.33-.62,.49-.93,.27-.54,.57-1.06,.96-1.53,.49-.58,1.1-1.01,1.77-1.37,.87-.47,1.79-.76,2.77-.91,.5-.07,.99-.04,1.46,.12,.03,.01,.07,.02,.1,.04,.02,.01,.04,.03,.06,.04-.07,.25-.15,.49-.19,.74-.15,.86,.01,1.66,.49,2.4,.03,.05,.05,.12,.04,.16-.33,1.27-.21,2.5,.22,3.72,.09,.26,.17,.52,.25,.78,.22,.69-.09,1.21-.8,1.37-.17,.04-.35,.06-.52,.1-.08,.02-.16,.05-.23,.08-.48,.23-.55,.74-.13,1.07,.32,.25,.67,.47,1.02,.68,.86,.53,1.8,.82,2.79,.95,1.44,.19,2.87,.18,4.26-.27,1.12-.37,2.13-.93,3.05-1.67,.7-.57,1.29-1.22,1.83-1.93,.01-.02,.03-.03,.04-.05,.01-.05,.04-.1,.02-.14,0-.03-.08-.04-.12-.04-.24,.02-.48,.04-.73,.07-.63,.08-1.26,.14-1.89,.1-.75-.05-1.45-.28-2.12-.62-1.03-.51-1.92-1.21-2.65-2.09-.23-.28-.41-.59-.52-.95,.05-.02,.09-.04,.13-.06,.74-.29,1.31-.79,1.71-1.48,.03-.06,.1-.12,.17-.14,.22-.08,.45-.15,.68-.22,.99-.29,1.85-.81,2.58-1.53,.3-.3,.6-.6,.89-.91,.57-.62,1.23-.34,1.57,.08,.14,.16,.27,.33,.41,.49,.05,.06,.12,.11,.19,.15,.38,.22,.77,.07,.89-.34,.07-.25,.11-.51,.12-.77,.02-.46,.04-.92,.02-1.38ZM10,7.86c-.52,.82-.42,1.36-.42,1.59,0,.26-.27,.42-.51,.32-.21-.09-.47-.2-.78-.05-.64,.3-2.44,3.08-1.64,1.21,.72-1.68,3.63-3.5,3.36-3.07Zm6.98,17.86c-1.81,.25-4.87-1.31-4.36-1.3,.97,.02,1.38-.33,1.58-.45,.22-.13,.5,.01,.54,.27,.03,.23,.07,.51,.36,.7,.59,.39,3.9,.51,1.89,.78Zm-1.32-8.38c-.89,0-1.62-.72-1.62-1.62s.72-1.62,1.62-1.62,1.62,.72,1.62,1.62-.72,1.62-1.62,1.62Zm9.72-3.05c-.5-.84-1.02-.99-1.23-1.1-.23-.12-.25-.43-.06-.6,.18-.15,.39-.33,.4-.68,.02-.7-1.65-3.57-.34-2.01,1.18,1.4,1.49,4.82,1.23,4.38Z" style="fill:#fff;"/></g></g></svg>