<?xml version="1.0" encoding="UTF-8"?><svg id="uuid-dbe6b3db-0839-4b2a-ba6a-eb24410fad8d" xmlns="http://www.w3.org/2000/svg" viewBox="0 0 70.87 70.87"><g id="uuid-539cb8c1-e76b-42ef-b55b-42b02e0c1021"><g><circle cx="35.43" cy="35.43" r="35.43" style="fill:#9e1f63;"/><g><path d="M36.03,61.22c-.21,0-.42-.07-.59-.22l-9.25-7.82c-.2-.17-.32-.43-.32-.69V18.37c0-.27,.12-.52,.32-.69l9.25-7.82c.27-.23,.65-.28,.97-.13,.32,.15,.53,.47,.53,.83V60.31c0,.35-.21,.68-.53,.83-.12,.06-.25,.08-.38,.08Zm-8.34-9.15l7.43,6.28V12.51l-7.43,6.28V52.07Z" style="fill:#fff;"/><path d="M19.12,32.33c-.06,0-.12,0-.18-.02-.06-.01-.12-.03-.17-.05-.05-.02-.11-.05-.16-.08-.05-.03-.1-.07-.14-.11-.04-.04-.08-.09-.11-.14-.03-.05-.06-.1-.08-.16-.02-.05-.04-.11-.05-.17-.01-.06-.02-.12-.02-.18s0-.12,.02-.18c.01-.06,.03-.11,.05-.17,.02-.05,.05-.11,.08-.16,.03-.05,.07-.1,.11-.14,.04-.04,.09-.08,.14-.11,.05-.03,.1-.06,.16-.08s.11-.04,.17-.05c.12-.02,.24-.02,.35,0,.06,.01,.12,.03,.17,.05,.05,.02,.11,.05,.16,.08,.05,.03,.1,.07,.14,.11,.04,.04,.08,.09,.11,.14,.03,.05,.06,.1,.08,.16,.02,.05,.04,.11,.05,.17,.01,.06,.02,.12,.02,.18s0,.12-.02,.18c-.01,.06-.03,.12-.05,.17-.02,.05-.05,.11-.08,.16-.03,.05-.07,.1-.11,.14-.04,.04-.09,.08-.14,.11-.05,.03-.1,.06-.16,.08-.05,.02-.11,.04-.17,.05-.06,.01-.12,.02-.18,.02Z" style="fill:#fff;"/><path d="M31.4,34.46c-.06,0-.12,0-.18-.02-.06-.01-.11-.03-.17-.05-.06-.02-.11-.05-.16-.08-.05-.03-.1-.07-.14-.11s-.08-.09-.11-.14c-.03-.05-.06-.1-.08-.16-.02-.05-.04-.11-.05-.17-.01-.06-.02-.12-.02-.18s0-.12,.02-.18c.01-.06,.03-.11,.05-.17,.02-.06,.05-.11,.08-.16,.03-.05,.07-.1,.11-.14,.04-.04,.09-.08,.14-.11,.05-.03,.1-.06,.16-.08,.05-.02,.11-.04,.17-.05,.12-.02,.24-.02,.36,0,.06,.01,.11,.03,.17,.05,.05,.02,.11,.05,.16,.08,.05,.03,.1,.07,.14,.11,.04,.04,.08,.09,.11,.14,.03,.05,.06,.1,.08,.16,.02,.05,.04,.11,.05,.17,.01,.06,.02,.12,.02,.18,0,.24-.1,.47-.27,.64-.04,.04-.09,.08-.14,.11-.05,.03-.1,.06-.16,.08-.06,.02-.11,.04-.17,.05-.06,.01-.12,.02-.18,.02Z" style="fill:#fff;"/><path d="M20.39,49.46c-.24,0-.47-.1-.64-.27-.04-.04-.08-.09-.11-.14-.03-.05-.06-.1-.08-.16-.02-.05-.04-.11-.05-.17-.01-.06-.02-.12-.02-.18s0-.12,.02-.18c.01-.06,.03-.12,.05-.17,.02-.05,.05-.11,.08-.16,.03-.05,.07-.1,.11-.14,.21-.21,.53-.31,.82-.25,.06,.01,.12,.03,.17,.05s.11,.05,.16,.08c.05,.03,.1,.07,.14,.11,.04,.04,.08,.09,.11,.14,.03,.05,.06,.1,.08,.16,.02,.05,.04,.11,.05,.17,.01,.06,.02,.12,.02,.18s0,.12-.02,.18c-.01,.06-.03,.12-.05,.17-.02,.05-.05,.11-.08,.16-.03,.05-.07,.1-.11,.14-.04,.04-.09,.08-.14,.11-.05,.03-.1,.06-.16,.08-.06,.02-.11,.04-.17,.05-.06,.01-.12,.02-.18,.02Z" style="fill:#fff;"/><path d="M12.14,36.88c-.06,0-.12,0-.18-.02-.06-.01-.11-.03-.17-.05-.05-.02-.11-.05-.16-.08-.05-.03-.1-.07-.14-.11-.04-.04-.08-.09-.11-.14-.03-.05-.06-.1-.08-.16-.02-.05-.04-.11-.05-.17-.01-.06-.02-.12-.02-.18s0-.12,.02-.18c.01-.06,.03-.11,.05-.17,.02-.05,.05-.11,.08-.16,.03-.05,.07-.1,.11-.14,.04-.04,.09-.08,.14-.11,.05-.03,.1-.06,.16-.08,.05-.02,.11-.04,.17-.05,.12-.02,.24-.02,.36,0,.06,.01,.12,.03,.17,.05,.05,.02,.11,.05,.16,.08,.05,.03,.1,.07,.14,.11,.04,.04,.08,.09,.11,.14,.03,.05,.06,.1,.08,.16,.02,.06,.04,.11,.05,.17,.01,.06,.02,.12,.02,.18s0,.12-.02,.18c-.01,.06-.03,.11-.05,.17-.02,.05-.05,.11-.08,.16-.03,.05-.07,.1-.11,.14-.04,.04-.09,.08-.14,.11-.05,.03-.1,.06-.16,.08-.05,.02-.11,.04-.17,.05-.06,.01-.12,.02-.18,.02Z" style="fill:#fff;"/><path d="M17.76,23.53c-.24,0-.47-.1-.64-.27-.17-.17-.27-.4-.27-.64,0-.06,0-.12,.02-.18,.01-.06,.03-.11,.05-.17,.02-.05,.05-.11,.08-.16,.03-.05,.07-.1,.11-.14,.21-.21,.53-.31,.82-.25,.06,.01,.12,.03,.17,.05,.05,.02,.11,.05,.16,.08,.05,.03,.1,.07,.14,.11,.04,.04,.08,.09,.11,.14,.03,.05,.06,.1,.08,.16,.02,.05,.04,.11,.05,.17,.01,.06,.02,.12,.02,.18,0,.24-.1,.47-.27,.64-.17,.17-.4,.27-.64,.27Z" style="fill:#fff;"/><path d="M15.1,42.79c-.06,0-.12,0-.18-.02-.06-.01-.11-.03-.17-.05-.06-.02-.11-.05-.16-.08-.05-.03-.1-.07-.14-.11-.17-.17-.27-.4-.27-.64,0-.06,0-.12,.02-.18,.01-.06,.03-.11,.05-.17,.02-.05,.05-.11,.08-.16,.03-.05,.07-.1,.11-.14,.04-.04,.09-.08,.14-.11,.05-.03,.1-.06,.16-.08,.05-.02,.11-.04,.17-.05,.12-.02,.24-.02,.36,0,.06,.01,.11,.03,.17,.05,.05,.02,.11,.05,.16,.08,.05,.03,.1,.07,.14,.11,.04,.04,.08,.09,.11,.14,.03,.05,.06,.1,.08,.16,.02,.06,.04,.11,.05,.17,.01,.06,.02,.12,.02,.18,0,.24-.1,.47-.27,.64-.04,.04-.09,.08-.14,.11-.05,.03-.1,.06-.16,.08-.06,.02-.11,.04-.17,.05-.06,.01-.12,.02-.18,.02Z" style="fill:#fff;"/><path d="M10.4,25.58c-.06,0-.12,0-.18-.02-.06-.01-.11-.03-.17-.05-.05-.02-.11-.05-.16-.08-.05-.03-.1-.07-.14-.11-.17-.17-.27-.4-.27-.64,0-.06,0-.12,.02-.18,.01-.06,.03-.11,.05-.17,.02-.06,.05-.11,.08-.16,.03-.05,.07-.1,.11-.14,.04-.04,.09-.08,.14-.11,.05-.03,.1-.06,.16-.08,.06-.02,.11-.04,.17-.05,.12-.02,.24-.02,.36,0,.06,.01,.11,.03,.17,.05,.06,.02,.11,.05,.16,.08,.05,.03,.1,.07,.14,.11,.04,.04,.08,.09,.11,.14,.03,.05,.06,.1,.08,.16,.02,.05,.04,.11,.05,.17,.01,.06,.02,.12,.02,.18,0,.24-.1,.47-.27,.64-.04,.04-.09,.08-.14,.11-.05,.03-.1,.06-.16,.08-.05,.02-.11,.04-.17,.05-.06,.01-.12,.02-.18,.02Z" style="fill:#fff;"/><path d="M10.02,48.33c-.06,0-.12,0-.18-.02-.06-.01-.12-.03-.17-.05-.05-.02-.11-.05-.16-.08-.05-.03-.1-.07-.14-.11-.04-.04-.08-.09-.11-.14-.03-.05-.06-.1-.08-.16-.02-.06-.04-.11-.05-.17-.01-.06-.02-.12-.02-.18s0-.12,.02-.18c.01-.06,.03-.11,.05-.17,.02-.05,.05-.11,.08-.16,.03-.05,.07-.1,.11-.14,.04-.04,.09-.08,.14-.11,.05-.03,.1-.06,.16-.08s.11-.04,.17-.05c.12-.02,.24-.02,.35,0,.06,.01,.12,.03,.17,.05,.05,.02,.11,.05,.16,.08,.05,.03,.1,.07,.14,.11,.17,.17,.27,.4,.27,.64,0,.06,0,.12-.02,.18-.01,.06-.03,.11-.05,.17-.02,.05-.05,.11-.08,.16-.03,.05-.07,.1-.11,.14-.04,.04-.09,.08-.14,.11-.05,.03-.1,.06-.16,.08-.05,.02-.11,.04-.17,.05-.06,.01-.12,.02-.18,.02Z" style="fill:#fff;"/><path d="M22.19,39.46c-.06,0-.12,0-.18-.02-.06-.01-.11-.03-.17-.05-.06-.02-.11-.05-.16-.08-.05-.03-.1-.07-.14-.11-.04-.04-.08-.09-.11-.14-.03-.05-.06-.1-.08-.16-.02-.06-.04-.11-.05-.17-.01-.06-.02-.12-.02-.18s0-.12,.02-.18c.01-.06,.03-.11,.05-.17,.02-.06,.05-.11,.08-.16,.03-.05,.07-.1,.11-.14,.04-.04,.09-.08,.14-.11,.05-.03,.1-.06,.16-.08,.05-.02,.11-.04,.17-.05,.3-.06,.61,.04,.82,.25,.04,.04,.08,.09,.11,.14,.03,.05,.06,.1,.08,.16,.02,.05,.04,.11,.05,.17,.01,.06,.02,.12,.02,.18s0,.12-.02,.18c-.01,.06-.03,.11-.05,.17-.02,.05-.05,.11-.08,.16-.03,.05-.07,.1-.11,.14-.17,.17-.4,.27-.64,.27Z" style="fill:#fff;"/><path d="M30.17,46.66c-.06,0-.12,0-.18-.02-.06-.01-.12-.03-.17-.05-.05-.02-.11-.05-.16-.08-.05-.03-.1-.07-.14-.11-.04-.04-.08-.09-.11-.14-.03-.05-.06-.1-.08-.16-.02-.06-.04-.11-.05-.17-.01-.06-.02-.12-.02-.18s0-.12,.02-.18c.01-.06,.03-.11,.05-.17,.02-.06,.05-.11,.08-.16,.03-.05,.07-.1,.11-.14,.17-.17,.4-.27,.64-.27s.47,.1,.64,.27c.04,.04,.08,.09,.11,.14,.03,.05,.06,.1,.08,.16,.02,.05,.04,.11,.05,.17,.01,.06,.02,.12,.02,.18s0,.12-.02,.18c-.01,.06-.03,.11-.05,.17-.02,.05-.05,.11-.08,.16-.03,.05-.07,.1-.11,.14-.04,.04-.09,.08-.14,.11-.05,.03-.1,.06-.16,.08-.06,.02-.11,.04-.17,.05-.06,.01-.12,.02-.18,.02Z" style="fill:#fff;"/><path d="M29.66,26.87c-.24,0-.47-.1-.64-.27-.04-.04-.08-.09-.11-.14-.03-.05-.06-.1-.08-.16-.02-.05-.04-.11-.05-.17-.01-.06-.02-.12-.02-.18s0-.12,.02-.18c.01-.06,.03-.11,.05-.17,.02-.05,.05-.11,.08-.16,.03-.05,.07-.1,.11-.14,.21-.21,.53-.31,.82-.25,.06,.01,.12,.03,.17,.05,.05,.02,.11,.05,.16,.08,.05,.03,.1,.07,.14,.11,.04,.04,.08,.09,.11,.14,.03,.05,.06,.1,.08,.16,.02,.05,.04,.11,.05,.17,.01,.06,.02,.12,.02,.18s0,.12-.02,.18c-.01,.06-.03,.12-.05,.17-.02,.05-.05,.11-.08,.16-.03,.05-.07,.1-.11,.14-.04,.04-.09,.08-.14,.11-.05,.03-.1,.06-.16,.08-.06,.02-.11,.04-.17,.05-.06,.01-.12,.02-.18,.02Z" style="fill:#fff;"/><path d="M22.6,29.07c-.06,0-.12,0-.18-.02-.06-.01-.12-.03-.17-.05-.05-.02-.11-.05-.16-.08-.05-.03-.1-.07-.14-.11-.17-.17-.27-.4-.27-.64,0-.06,0-.12,.02-.18,.01-.06,.03-.12,.05-.17,.02-.05,.05-.11,.08-.16,.03-.05,.07-.1,.11-.14,.04-.04,.09-.08,.14-.11,.05-.03,.1-.06,.16-.08,.05-.02,.11-.04,.17-.05,.3-.06,.61,.04,.82,.25,.04,.04,.08,.09,.11,.14,.03,.05,.06,.1,.08,.16,.02,.05,.04,.11,.05,.17,.01,.06,.02,.12,.02,.18s0,.12-.02,.18c-.01,.06-.03,.12-.05,.17-.02,.05-.05,.11-.08,.16-.03,.05-.07,.1-.11,.14-.17,.17-.4,.27-.64,.27Z" style="fill:#fff;"/><g><rect x="41.78" y="21.71" width="11.47" height="1.82" style="fill:#fff;"/><polygon points="49.65 27.51 48.36 26.22 51.96 22.62 48.36 19.03 49.65 17.74 54.53 22.62 49.65 27.51" style="fill:#fff;"/></g><g><rect x="49" y="35.35" width="11.47" height="1.82" style="fill:#fff;"/><polygon points="56.87 41.14 55.59 39.85 59.19 36.26 55.59 32.66 56.87 31.37 61.76 36.26 56.87 41.14" style="fill:#fff;"/></g><g><rect x="41.78" y="47.64" width="11.47" height="1.82" style="fill:#fff;"/><polygon points="49.65 53.44 48.36 52.15 51.96 48.55 48.36 44.95 49.65 43.67 54.53 48.55 49.65 53.44" style="fill:#fff;"/></g></g></g></g></svg>