<?xml version="1.0" encoding="UTF-8"?><svg id="uuid-aaab25a2-bf79-488f-938d-216fc1829009" xmlns="http://www.w3.org/2000/svg" viewBox="0 0 70.87 70.87"><g id="uuid-52e6c760-e8e8-4d96-a0d2-e477d66e6228"><g><circle cx="35.43" cy="35.43" r="35.43" style="fill:#ffcc32;"/><g><path d="M55.03,24.34c-4.28,0-7.77,3.49-7.77,7.77,0,1.07,.87,1.94,1.94,1.94s1.94-.87,1.94-1.94c0-2.14,1.74-3.88,3.88-3.88s3.88,1.74,3.88,3.88-1.74,3.88-3.88,3.88H10.51c-1.07,0-1.94,.87-1.94,1.94s.87,1.94,1.94,1.94H55.03c4.28,0,7.77-3.49,7.77-7.77s-3.48-7.77-7.77-7.77Z" style="fill:#fff;"/><path d="M35.61,16.57c-4.28,0-7.77,3.49-7.77,7.77,0,1.07,.87,1.94,1.94,1.94s1.94-.87,1.94-1.94c0-2.14,1.74-3.88,3.88-3.88s3.88,1.74,3.88,3.88-1.74,3.88-3.88,3.88H10.36c-1.07,0-1.94,.87-1.94,1.94s.87,1.94,1.94,1.94h25.25c4.28,0,7.77-3.49,7.77-7.77s-3.48-7.77-7.77-7.77Z" style="fill:#fff;"/><path d="M35.61,43.76H10.36c-1.07,0-1.94,.87-1.94,1.94s.87,1.94,1.94,1.94h25.25c2.14,0,3.88,1.74,3.88,3.88s-1.74,3.88-3.88,3.88-3.88-1.74-3.88-3.88c0-1.07-.87-1.94-1.94-1.94s-1.94,.87-1.94,1.94c0,4.28,3.48,7.77,7.77,7.77s7.77-3.49,7.77-7.77-3.48-7.77-7.77-7.77Z" style="fill:#fff;"/></g></g></g></svg>