<?xml version="1.0" encoding="UTF-8"?><svg id="uuid-ca04ec12-2a5d-40a0-9ce7-a51479d6bff0" xmlns="http://www.w3.org/2000/svg" viewBox="0 0 70.87 70.87"><g id="uuid-5fe2034b-32d2-45eb-b4d0-a261390d55b9"><g><circle cx="35.43" cy="35.43" r="35.43" style="fill:#8dc63f;"/><g><path d="M34.85,13.25c.58,0,1.04-.47,1.04-1.04v-2.33c0-.58-.47-1.04-1.04-1.04s-1.04,.47-1.04,1.04v2.33c0,.58,.47,1.04,1.04,1.04Z" style="fill:#fff;"/><path d="M59.9,30.39h-2.33c-.58,0-1.04,.47-1.04,1.04s.47,1.04,1.04,1.04h2.33c.58,0,1.04-.47,1.04-1.04s-.47-1.04-1.04-1.04Z" style="fill:#fff;"/><path d="M14.34,31.43c0-.58-.47-1.04-1.04-1.04h-2.33c-.58,0-1.04,.47-1.04,1.04s.47,1.04,1.04,1.04h2.33c.58,0,1.04-.47,1.04-1.04Z" style="fill:#fff;"/><path d="M51.09,19.15c.27,0,.53-.1,.74-.31l1.65-1.65c.41-.41,.41-1.07,0-1.48s-1.07-.41-1.48,0l-1.65,1.65c-.41,.41-.41,1.07,0,1.48,.2,.2,.47,.31,.74,.31Z" style="fill:#fff;"/><path d="M19.35,17.37l-1.65-1.65c-.41-.41-1.07-.41-1.48,0s-.41,1.07,0,1.48l1.65,1.65c.2,.2,.47,.31,.74,.31s.53-.1,.74-.31c.41-.41,.41-1.07,0-1.48Z" style="fill:#fff;"/><path d="M54.16,45.37c-.41-.41-1.07-.41-1.48,0-.41,.41-.41,1.07,0,1.48l1.65,1.65c.2,.2,.47,.31,.74,.31s.53-.1,.74-.31c.41-.41,.41-1.07,0-1.48l-1.65-1.65Z" style="fill:#fff;"/><path d="M15.55,45.37l-1.65,1.65c-.41,.41-.41,1.07,0,1.48,.2,.2,.47,.31,.74,.31s.53-.1,.74-.31l1.65-1.65c.41-.41,.41-1.07,0-1.48-.41-.41-1.07-.41-1.48,0Z" style="fill:#fff;"/><path d="M42.77,48.51c5.48-2.71,9.26-8.36,9.26-14.88,0-9.15-7.45-16.6-16.6-16.6s-16.6,7.45-16.6,16.6c0,6.77,4.07,12.6,9.9,15.18v7.51c0,.76,.62,1.38,1.38,1.38h10.63c.76,0,1.38-.62,1.38-1.38v-7.51l.64-.31Zm-16.01-9.18c-.86,0-1.56-.7-1.56-1.56s.7-1.56,1.56-1.56,1.56,.7,1.56,1.56-.7,1.56-1.56,1.56Zm8.67,10.89h0c1.6,0,3.15-.23,4.61-.65v2.37h-9.22v-2.37c1.46,.42,3.01,.65,4.61,.65Zm0-13.85c-1.71,0-3.1-1.39-3.1-3.09s1.39-3.1,3.1-3.1,3.09,1.39,3.09,3.1-1.39,3.09-3.09,3.09Zm7.44,1.4c0-.86,.7-1.56,1.56-1.56s1.56,.7,1.56,1.56-.7,1.56-1.56,1.56-1.56-.7-1.56-1.56Zm-12.06,17.85v-1.59h9.22v1.59h-9.22Zm12.25-9.66v-3.44l.39-1.23c.31,.09,.64,.13,.98,.13,2.01,0,3.65-1.64,3.65-3.65s-1.64-3.65-3.65-3.65-3.65,1.64-3.65,3.65c0,.89,.32,1.7,.85,2.34l-.61,1.94c-.03,.1-.05,.21-.05,.31v4.67c-1.41,.58-2.92,.95-4.51,1.07v-9.74c2.36-.48,4.14-2.58,4.14-5.08,0-2.86-2.32-5.18-5.18-5.18s-5.18,2.32-5.18,5.18c0,2.5,1.78,4.59,4.14,5.08v9.74c-1.46-.1-2.87-.43-4.18-.93v-4.8c0-.11-.02-.21-.05-.31l-.61-1.94c.53-.63,.85-1.45,.85-2.34,0-2.01-1.64-3.65-3.65-3.65s-3.65,1.64-3.65,3.65,1.64,3.65,3.65,3.65c.34,0,.67-.05,.98-.13l.39,1.23v3.64c-4.3-2.52-7.2-7.19-7.2-12.53,0-8,6.51-14.51,14.51-14.51s14.51,6.51,14.51,14.51c0,5.2-2.75,9.77-6.87,12.33Z" style="fill:#fff;"/><path d="M40.1,22.69c-3.01-1.76-6.7-1.68-9.63,.21-.48,.31-.62,.96-.31,1.44,.2,.31,.54,.48,.88,.48,.19,0,.39-.05,.56-.17,2.27-1.46,5.12-1.52,7.45-.16,.5,.29,1.14,.12,1.43-.37,.29-.5,.12-1.14-.37-1.43Z" style="fill:#fff;"/><path d="M43.94,25.64c-.19-.54-.79-.83-1.33-.64-.54,.19-.83,.79-.64,1.33v.02c.16,.43,.56,.7,.99,.7,.12,0,.23-.02,.35-.06,.54-.19,.83-.79,.64-1.33v-.02Z" style="fill:#fff;"/><path d="M42.07,60.62c-.19-.54-.79-.83-1.33-.64-.54,.19-.83,.79-.64,1.33v.02c.16,.43,.56,.7,.99,.7,.12,0,.23-.02,.35-.06,.54-.19,.83-.79,.64-1.33v-.02Z" style="fill:#fff;"/><path d="M36.78,59.95h-7.01c-.58,0-1.04,.47-1.04,1.04s.47,1.04,1.04,1.04h7.01c.58,0,1.04-.47,1.04-1.04s-.47-1.04-1.04-1.04Z" style="fill:#fff;"/></g></g></g></svg>