<?xml version="1.0" encoding="UTF-8"?><svg id="uuid-c149977e-8664-45e2-8412-3637da677689" xmlns="http://www.w3.org/2000/svg" viewBox="0 0 81.58 81.58"><g id="uuid-8c5b1510-ed49-4aa9-8b4a-04e03f7292df"><g><path d="M0,40.79C0,18.26,18.26,0,40.79,0c22.53,0,40.79,18.27,40.79,40.79,0,22.52-18.26,40.79-40.79,40.79S0,63.32,0,40.79Z" style="fill:#28903b;"/><g><path d="M23.98,36.75h6.31c3.16,0,5.73-2.55,5.83-5.71,0-.03,0-.06,0-.09,0-.02,0-.03,0-.05,0-.02,0-.03,0-.05,0-.03,0-.06,0-.09-.06-1.95-1.06-3.66-2.56-4.68,.21-.34,.39-.7,.53-1.08,.22-.61,.33-1.24,.33-1.89,0-3.07-2.5-5.57-5.57-5.57h-4.87c-1,0-1.81,.81-1.81,1.81v15.59c0,1,.81,1.81,1.81,1.81Zm1.81-15.59h3.06c1.07,0,1.95,.87,1.95,1.95,0,.23-.04,.45-.11,.66-.28,.77-1.01,1.29-1.83,1.29-.05,0-.1,0-.15,0h-2.91v-3.91Zm0,7.53h4.49c1.19,0,2.2,1.01,2.22,2.21-.02,1.21-1.02,2.22-2.21,2.22h-4.5v-4.43Z" style="fill:#fff;"/><path d="M53.16,36.75c3.6,0,6.53-2.93,6.53-6.53v-6.16c0-3.6-2.93-6.53-6.53-6.53s-6.53,2.93-6.53,6.53v6.16c0,3.6,2.93,6.53,6.53,6.53Zm-2.9-12.69c0-1.6,1.3-2.9,2.9-2.9s2.9,1.3,2.9,2.9v6.16c0,1.6-1.3,2.9-2.9,2.9s-2.9-1.3-2.9-2.9v-6.16Z" style="fill:#fff;"/><path d="M64.03,40.3s0-.02,0-.03c.03-.99-.75-1.83-1.75-1.86-.41-.02-10.02-.3-15.65,5.33-2.17,2.17-3.26,4.53-3.24,7.01,.01,1.63,.51,3,.97,3.98-1.6,1.72-2.76,3.17-3.57,4.27-.81-1.1-1.97-2.55-3.57-4.27,.46-.98,.96-2.35,.97-3.98,.02-2.48-1.08-4.84-3.24-7.01-5.63-5.63-15.25-5.34-15.65-5.33-.99,.04-1.77,.86-1.74,1.85-.03,1.15-.05,10.17,5.33,15.55,2.15,2.15,4.51,3.24,7,3.24,.03,0,2.98-.02,5.19-1.3,2.95,3.26,4.05,5.27,4.08,5.32,.32,.6,.93,.95,1.57,.97,.04,0,.09,0,.13,0,.65,0,1.28-.35,1.61-.97,.03-.06,3.12-5.75,13.12-13.64,.79-.62,.92-1.76,.3-2.55s-1.76-.92-2.55-.3c-2.41,1.9-4.43,3.68-6.14,5.3-.09-.37-.15-.76-.15-1.17,0-1.5,.7-2.95,2.18-4.42,3.22-3.22,8.42-4.02,11.15-4.21-.19,2.73-.99,7.93-4.21,11.16-.78,.78-1.58,1.36-2.37,1.72-.91,.41-1.31,1.49-.9,2.4,.3,.67,.96,1.06,1.65,1.06,.25,0,.51-.05,.75-.16,1.19-.54,2.34-1.37,3.43-2.46,5.32-5.32,5.36-14.2,5.33-15.5Zm-29.63,11.59c-1.7-1.62-3.73-3.4-6.14-5.3-.79-.62-1.93-.49-2.55,.3-.62,.79-.49,1.93,.3,2.55,2.55,2.01,4.65,3.88,6.36,5.55-.88,.29-1.92,.44-2.52,.44-1.52,0-2.97-.71-4.43-2.18-3.22-3.22-4.02-8.43-4.21-11.16,2.73,.19,7.93,.99,11.15,4.21,1.48,1.48,2.19,2.92,2.18,4.42,0,.41-.06,.8-.15,1.17Z" style="fill:#fff;"/><path d="M41.2,36.85c1,0,1.81-.81,1.81-1.81v-15.68c0-1-.81-1.81-1.81-1.81s-1.81,.81-1.81,1.81v15.68c0,1,.81,1.81,1.81,1.81Z" style="fill:#fff;"/></g></g></g></svg>