<?xml version="1.0" encoding="UTF-8"?><svg id="uuid-c1a6de26-241e-46fd-b59c-b975394f2706" xmlns="http://www.w3.org/2000/svg" viewBox="0 0 50.03 50.03"><g id="uuid-c2eb0470-a62d-4f3c-a794-a9d871f1d48c"><g><path d="M0,25.02C0,11.2,11.2,0,25.02,0c13.82,0,25.02,11.2,25.02,25.02,0,13.81-11.2,25.02-25.02,25.02S0,38.83,0,25.02Z" style="fill:#299045;"/><g><path d="M14.7,22.54h3.87c1.94,0,3.52-1.56,3.57-3.5,0-.02,0-.04,0-.05,0,0,0-.02,0-.03,0,0,0-.02,0-.03,0-.02,0-.04,0-.06-.04-1.19-.65-2.24-1.57-2.87,.13-.21,.24-.43,.33-.66,.13-.37,.2-.76,.2-1.16,0-1.89-1.53-3.42-3.42-3.42h-2.99c-.61,0-1.11,.5-1.11,1.11v9.56c0,.61,.5,1.11,1.11,1.11Zm1.11-9.56h1.87c.66,0,1.2,.54,1.2,1.2,0,.14-.02,.28-.07,.41-.17,.47-.62,.79-1.12,.79-.03,0-.06,0-.09,0h-1.78v-2.4Zm0,4.62h2.75c.73,0,1.35,.62,1.36,1.36-.02,.74-.63,1.36-1.35,1.36h-2.76v-2.72Z" style="fill:#fff;"/><path d="M32.6,22.54c2.21,0,4-1.8,4-4v-3.78c0-2.21-1.8-4-4-4s-4,1.8-4,4v3.78c0,2.21,1.8,4,4,4Zm-1.78-7.78c0-.98,.8-1.78,1.78-1.78s1.78,.8,1.78,1.78v3.78c0,.98-.8,1.78-1.78,1.78s-1.78-.8-1.78-1.78v-3.78Z" style="fill:#fff;"/><path d="M39.27,24.71s0-.01,0-.02c.02-.61-.46-1.12-1.07-1.14-.25,0-6.15-.19-9.6,3.27-1.33,1.33-2,2.78-1.99,4.3,0,1,.31,1.84,.59,2.44-.98,1.06-1.7,1.94-2.19,2.62-.5-.68-1.21-1.57-2.19-2.62,.28-.6,.59-1.44,.59-2.44,0-1.52-.66-2.97-1.99-4.3-3.45-3.45-9.35-3.28-9.6-3.27-.61,.02-1.08,.53-1.07,1.14-.02,.7-.03,6.23,3.27,9.53,1.32,1.32,2.76,1.99,4.29,1.99,.02,0,1.83-.01,3.18-.8,1.81,2,2.48,3.23,2.5,3.27,.19,.37,.57,.59,.96,.59,.03,0,.05,0,.08,0,.4,0,.79-.22,.98-.6,.02-.03,1.91-3.53,8.04-8.36,.48-.38,.56-1.08,.18-1.56s-1.08-.56-1.56-.18c-1.48,1.16-2.72,2.26-3.76,3.25-.06-.22-.09-.46-.09-.71,0-.92,.43-1.81,1.34-2.71,1.98-1.98,5.16-2.47,6.84-2.58-.12,1.67-.61,4.87-2.58,6.84-.48,.48-.97,.84-1.45,1.06-.56,.25-.81,.91-.55,1.47,.19,.41,.59,.65,1.01,.65,.15,0,.31-.03,.46-.1,.73-.33,1.44-.84,2.11-1.51,3.26-3.26,3.29-8.71,3.27-9.51Zm-18.17,7.11c-1.04-.99-2.29-2.09-3.76-3.25-.48-.38-1.18-.3-1.56,.18-.38,.48-.3,1.18,.18,1.56,1.56,1.23,2.85,2.38,3.9,3.4-.54,.18-1.18,.27-1.54,.27-.93,0-1.82-.44-2.72-1.34-1.98-1.98-2.47-5.17-2.58-6.84,1.68,.12,4.86,.61,6.84,2.58,.91,.91,1.34,1.79,1.34,2.71,0,.25-.04,.49-.09,.71Z" style="fill:#fff;"/><path d="M25.27,22.6c.61,0,1.11-.5,1.11-1.11V11.87c0-.61-.5-1.11-1.11-1.11s-1.11,.5-1.11,1.11v9.62c0,.61,.5,1.11,1.11,1.11Z" style="fill:#fff;"/></g></g></g></svg>