<?xml version="1.0" encoding="UTF-8"?><svg id="uuid-564e47da-d15c-439f-92f0-e41d27aabc4e" xmlns="http://www.w3.org/2000/svg" viewBox="0 0 35.91 35.88"><g id="uuid-a6e489ea-da7b-4965-9e12-3bddc3121df7"><g><path d="M17.89,0C7.91,.01-.02,8.02,0,18.07c.02,9.81,8.12,17.83,17.99,17.81,9.89-.02,17.92-8.1,17.91-18.01C35.89,7.97,27.85-.01,17.89,0Zm5.95,14.01c-.02-.3-.01-.69-.06-1.07-.24-2.09-1.39-3.45-3.35-4.15-1.89-.67-3.43,0-4.61,1.44-.8,.98-1.4,2.12-2.03,3.23-.32,.57-.69,.98-1.35,.68-.66-.3-.73-.89-.39-1.46,.78-1.31,1.46-2.73,2.46-3.86,3.74-4.25,9.67-1.68,10.9,2.49,.58,1.97,.49,3.94-.12,5.86-1.29,4.03-3.86,7.24-6.74,10.23-.36,.38-.89,.63-1.38,.84-1.04,.43-2.14,.34-2.83-.52-.77-.98-1.32-2.15-1.84-3.29-.1-.23,.29-.95,.54-1.01,.35-.07,.8,.25,1.18,.46,.13,.08,.16,.34,.23,.51,1.05,2.63,1.98,2.84,3.77,.66,1.42-1.73,2.72-3.56,3.94-5.43,1.08-1.65,1.66-3.52,1.7-5.61Zm-7.62,8.16c.09-.25,.18-.47,.25-.71,.16-.59,.54-.86,1.14-.75,.64,.12,.83,.63,.67,1.17-.18,.63-.4,1.29-.78,1.82-.51,.71-1.3,.78-2.07,.41-1.21-.57-2.44-2.84-2.17-4.12,.1-.49,.48-.94,.82-1.34,.33-.39,.78-.66,1.14-1.02,.48-.48,.45-.91-.13-1.35-1.26-.94-1.45-1.89-.65-3.22,.84-1.4,2.07-2.36,3.62-2.83,2.03-.61,3.67,.27,4.2,2.33,.25,.94,.27,1.95,.32,2.94,.03,.69-.09,1.45-1.03,1.39-.87-.05-.84-.76-.87-1.43-.05-.88-.15-1.77-.35-2.64-.15-.68-.7-1.01-1.4-.84-1.37,.34-2.39,1.13-2.9,2.19,.56,.91,1.21,1.6,1.43,2.4,.33,1.26-.51,2.16-1.41,2.95-1.12,.98-1.09,1.58,.17,2.65Z" style="fill:#e3001b;"/><path d="M23.85,14.01c-.04,2.09-.62,3.95-1.7,5.61-1.22,1.87-2.52,3.71-3.94,5.43-1.79,2.18-2.72,1.97-3.77-.66-.07-.18-.1-.44-.23-.51-.37-.21-.83-.54-1.18-.46-.26,.05-.65,.78-.54,1.01,.52,1.14,1.07,2.32,1.84,3.29,.68,.86,1.79,.95,2.83,.52,.49-.21,1.02-.46,1.38-.84,2.89-2.99,5.46-6.2,6.74-10.23,.61-1.92,.71-3.88,.12-5.86-1.23-4.17-7.16-6.73-10.9-2.49-1,1.13-1.67,2.55-2.46,3.86-.34,.57-.27,1.16,.39,1.46,.67,.3,1.03-.11,1.35-.68,.63-1.11,1.23-2.25,2.03-3.23,1.18-1.44,2.72-2.11,4.61-1.44,1.96,.69,3.11,2.06,3.35,4.15,.04,.38,.04,.77,.06,1.07Z" style="fill:#fff;"/><path d="M16.23,22.17c-1.26-1.07-1.29-1.67-.17-2.65,.9-.78,1.74-1.69,1.41-2.95-.21-.8-.86-1.49-1.43-2.4,.51-1.06,1.53-1.85,2.9-2.19,.7-.17,1.24,.16,1.4,.84,.2,.86,.3,1.75,.35,2.64,.04,.67,0,1.38,.87,1.43,.95,.06,1.06-.7,1.03-1.39-.04-.98-.07-1.99-.32-2.94-.54-2.06-2.17-2.95-4.2-2.33-1.56,.47-2.78,1.44-3.62,2.83-.8,1.33-.61,2.27,.65,3.22,.59,.44,.61,.87,.13,1.35-.36,.36-.81,.63-1.14,1.02-.34,.4-.72,.86-.82,1.34-.27,1.29,.96,3.55,2.17,4.12,.77,.37,1.56,.3,2.07-.41,.37-.53,.6-1.18,.78-1.82,.15-.54-.03-1.04-.67-1.17-.6-.12-.98,.16-1.14,.75-.06,.24-.16,.46-.25,.71Z" style="fill:#fff;"/></g></g></svg>