<?xml version="1.0" encoding="UTF-8"?><svg id="uuid-1aa231c0-5395-4f20-aa00-d2308ab8813c" xmlns="http://www.w3.org/2000/svg" viewBox="0 0 36.17 36.2"><g id="uuid-a57e30f3-944f-46a5-a572-68f62c9adaf1"><g><path d="M18.1,0C8.09,0,0,8.09,0,18.09c0,9.98,8.18,18.16,18.1,18.12,10.03-.04,18.07-8.09,18.08-18.12C36.18,8.06,28.12,0,18.1,0Z" style="fill:#71d7ff;"/><g><path d="M10.17,32.03c.23-.12,.5-.2,.69-.37,.64-.58,.76-1.25,.4-2.03-.14-.3-.32-.58-.48-.87-.07-.13-.14-.26-.22-.42,.09,0,.14-.02,.2-.02,.89,0,1.79,0,2.68,0,.14,0,.21,.04,.26,.18,.11,.25,.25,.48,.38,.72,.11,.21,.24,.42,.33,.64,.24,.58,.12,1.1-.32,1.54-.09,.09-.18,.18-.27,.26,.19,.24,.44,.26,.71,.02,.64-.56,.85-1.16,.5-1.92-.18-.38-.41-.74-.62-1.11-.05-.1-.1-.2-.17-.33,.11,0,.19,0,.26,0,.86,0,1.71,0,2.57,0,.18,0,.25,.06,.34,.22,.14,.26,.3,.51,.49,.73,.58,.69,.59,1.28,.02,1.98-.13,.16-.22,.34-.32,.5,.09,.2,.21,.2,.38,.13,.88-.41,1.24-1.51,.77-2.35-.1-.17-.23-.32-.34-.48-.14-.22-.28-.44-.44-.7,.12,0,.18-.02,.25-.02,.88,0,1.76,0,2.63,0,.15,0,.22,.04,.3,.18,.18,.32,.38,.61,.58,.92,.23,.35,.41,.72,.28,1.15-.06,.2-.2,.39-.3,.58-.08,.15-.18,.3-.27,.44-.1,.16-.09,.3,.11,.38,.56-.29,.94-.74,1.07-1.37,.08-.37-.01-.73-.18-1.05-.15-.29-.35-.56-.53-.85-.07-.11-.15-.22-.25-.37,.13,0,.21,0,.29,0,.98,0,1.95,0,2.93,0,.53,0,.73-.16,.89-.66,.03-.08,.08-.16,.14-.23,1.18-1.46,2.36-2.92,3.54-4.38,.11-.14,.15-.28,.15-.45,0-4.52,0-9.04,0-13.57v-.96c-.14,0-.27,0-.4,0-5.6,0-11.21,0-16.81,0-.23,0-.4,.07-.56,.22-1.4,1.3-2.8,2.59-4.2,3.89-.05,.05-.12,.09-.19,.12-.34,.14-.5,.4-.51,.76,0,.05,0,.09,0,.14,0,4.73,0,9.45,0,14.18,0,.18,.02,.37,.09,.53,.14,.31,.42,.41,.75,.41,.64,0,1.29,0,1.93,0,.14,0,.2,.05,.26,.18,.14,.31,.31,.6,.48,.9,.08,.14,.19,.27,.27,.42,.26,.51,.18,.89-.17,1.34-.19,.24-.31,.54-.46,.82,.02,.02,.04,.04,.07,.07ZM7.69,12.99H25.06c0,.05,.01,.09,.01,.13,0,4.7,0,9.39,0,14.09,0,.24-.16,.39-.39,.39-.98,0-1.95,0-2.93,0-.06,0-.11-.01-.19-.02,.04-.11,.07-.2,.11-.27,.16-.26,.35-.5,.49-.76,.1-.18,.15-.4,.22-.59-.03-.02-.06-.03-.09-.05-.85,.22-1.11,.94-1.35,1.68h-3.02c.05-.42,.28-.73,.51-1.06,.11-.15,.16-.36,.2-.56,.03-.13-.12-.21-.23-.13-.13,.09-.27,.2-.37,.32-.34,.43-.65,.87-.76,1.42h-3.1c.03-.11,.03-.2,.07-.27,.18-.31,.37-.6,.54-.91,.13-.24,.23-.49,.35-.74l-.06-.03c-.81,.41-1.34,1.04-1.48,1.96h-3.18c.13-.27,.23-.52,.37-.74,.15-.24,.34-.46,.52-.69,.13-.16,.16-.3-.03-.45-.92,.27-1.18,1.05-1.4,1.87h-2.17V12.99Zm17.87-.64c-.29-.04-.53-.09-.76-.09-5.27,0-10.54,0-15.81,0-.09,0-.19,0-.31,0,.03-.05,.04-.08,.06-.09,1.19-1.1,2.38-2.2,3.57-3.3,.06-.05,.16-.07,.25-.07,5.37,0,10.75,0,16.12,0,.05,0,.11,.01,.19,.02-1.14,1.21-2.25,2.4-3.31,3.54Zm.25,14.08c0-.09-.01-.13-.01-.16,0-4.32,0-8.64,0-12.95,0-.1,.06-.22,.13-.29,.81-.87,1.62-1.74,2.43-2.61,.16-.17,.33-.35,.54-.57v.33c0,3.87,0,7.74,.01,11.61,0,.56-.12,1-.49,1.43-.89,1.03-1.72,2.11-2.61,3.21Z" style="fill:#fff;"/><path d="M9.06,24.82h14.63V15.07H9.06v9.76Zm.71-1.89h13.19v1.16H9.78v-1.16Zm13.19-5.98H9.78v-1.17h13.19v1.17Zm0,5.57H9.78v-.99h13.19v.99Zm0-1.39H9.78v-1h13.19v1Zm0-2.79H9.78v-1h13.19v1Zm0,1.38H9.78v-.98h13.19v.98Z" style="fill:#fff;"/></g></g></g></svg>