<?xml version="1.0" encoding="UTF-8"?><svg id="uuid-7322542e-974e-4d66-80bd-40f9d7941d94" xmlns="http://www.w3.org/2000/svg" viewBox="0 0 37.03 36.98"><g id="uuid-1449ceac-ca31-4a7d-993d-6816ddfd96ca"><g><path d="M37.03,18.51C37.04,8.28,28.75,0,18.54,0,8.29,0-.04,8.36,0,18.6c.04,10.16,8.33,18.39,18.53,18.38,10.27,0,18.5-8.22,18.51-18.47Z" style="fill:#182983;"/><g><g><path d="M14.42,5.33c0,.74,.04,1.47-.02,2.19-.02,.22-.28,.5-.5,.61-3.3,1.66-5.38,4.27-6.21,7.87-1.47,6.32,3.3,12.84,9.72,13.52,5.8,.61,11.58-3.34,12.48-9.83,.62-4.52-1.91-9.31-6.13-11.39-.61-.3-.89-.61-.81-1.29,.06-.54,.01-1.1,.01-1.65,4.82,.41,9.73,7.38,9.53,13.47-.24,7.18-6.2,13.11-13.33,13.26-7.69,.16-13.76-5.35-14.22-13.16-.41-6.96,4.6-12.33,9.48-13.59Z" style="fill:#fff;"/><path d="M17.45,2.04h2.47v6.47h-2.47V2.04Z" style="fill:#fff;"/></g><path d="M19.26,19.3c2.02,0,3.95,0,5.87,0,.25,0,.5,0,.74,0,.59,.02,1.04,.25,1.04,.92,0,.66-.43,.9-1.04,.9-1.19,0-2.37,0-3.56,0-1.24,0-2.48-.01-3.72,0-.75,0-1.15-.34-1.15-1.08,0-2.89,0-5.79,0-8.68,0-.6,.27-1.06,.9-1.06,.68,0,.92,.47,.92,1.12-.01,2.59,0,5.18,0,7.89Z" style="fill:#fff;"/></g></g></g></svg>