<?xml version="1.0" encoding="UTF-8"?><svg id="uuid-29a307b0-2f6a-42f9-92dc-6d28067b7ec6" xmlns="http://www.w3.org/2000/svg" viewBox="0 0 35.93 35.87"><g id="uuid-b9a3f47d-bbb2-40d9-8174-ac1c7002a62f"><g><path d="M35.93,17.94C35.91,8.01,27.87-.02,17.97,0,8.07,.02,0,8.09,0,17.97c0,9.97,8.08,17.92,18.18,17.91,9.78-.02,17.76-8.09,17.74-17.94Z" style="fill:#ff6700;"/><path d="M23.26,23.57c.75,0,1.35,.02,1.94,0,2.73-.12,4.6-1.6,5.3-4.22,.46-1.7,.51-3.42-.17-5.09-.99-2.46-3.44-3.2-5.67-1.76-.16,.11-.33,.21-.5,.33-.06-1-.01-1.96-.18-2.88-.68-3.76-3.97-4.89-7.34-4.66-.34,.02-.67,.09-1,.17-3.2,.78-4.13,3.24-2.37,6.42-.82,.05-1.62,.03-2.39,.15-3.44,.51-5.13,2.77-5.09,7,0,.53,.13,1.08,.28,1.59,.85,2.96,3.23,3.92,5.91,2.39,.11-.06,.23-.11,.47-.23,0,.43,0,.75,0,1.07,0,3.8,2.01,6.1,5.79,6.35,1.27,.08,2.67-.13,3.85-.6,2.22-.89,2.83-3.17,1.64-5.25-.13-.22-.26-.44-.47-.8Zm-7.64-8.57c-.28,.93-.51,1.79-.8,2.63-.08,.23-.3,.54-.5,.58-1.2,.22-1.96,.95-2.57,1.96-.29,.48-.7,.93-1.16,1.24-.63,.42-1.33,.46-1.93-.17-1.5-1.56-.89-5.65,.99-6.7,1.7-.95,4.58-.68,5.97,.45Zm-.08,5.33c.92,.38,1.66,.79,2.46,.97,.51,.12,.65,.33,.88,.75,.41,.74,.96,1.4,1.52,2.04,.26,.3,.67,.45,.98,.71,1.36,1.16,1.11,2.61-.57,3.17-1.58,.52-3.17,.36-4.61-.44-.57-.32-1.1-.97-1.31-1.59-.7-1.98-.51-3.91,.65-5.61Zm5.69-5.47c-.99-.31-1.86-.54-2.7-.85-.29-.11-.56-.35-.76-.59-.55-.65-1.03-1.36-1.6-1.99-.38-.42-.95-.67-1.33-1.09-.67-.74-.62-1.67,.04-2.26,1.54-1.39,5.51-.82,6.6,.95,.95,1.55,.78,4.49-.25,5.83Zm-.05,5.81c.37-1.05,.67-1.96,1.02-2.85,.09-.23,.33-.42,.53-.59,.65-.55,1.35-1.06,1.97-1.64,.37-.34,.58-.84,.95-1.18,1.05-.97,2.35-.75,2.73,.6,.31,1.09,.29,2.32,.2,3.48-.08,1.03-.59,1.94-1.55,2.5-1.54,.89-4.51,.68-5.85-.32Zm-2.64-.94c-1.17,.03-2.06-.84-2.07-2.01,0-1.1,.85-2.02,1.93-2.06,1.11-.04,2.09,.87,2.14,1.98,.05,1.11-.86,2.06-2.01,2.09Z" style="fill:#fff;"/><path d="M20.8,2.48c2.01,.34,3.94,1.06,5.59,2.16s3.27,2.63,4.15,4.79c0,0-2.5-4.35-9.74-6.96h0Z" style="fill:#fff;"/><path d="M18.02,33.61c-2.04,.03-4.07-.32-5.89-1.11s-3.7-1.99-4.95-3.96c0,0,3.25,3.82,10.84,5.07h0Z" style="fill:#fff;"/></g></g></svg>