<?xml version="1.0" encoding="UTF-8"?><svg id="uuid-62df1bcc-1990-4a24-a9a0-50b0bc2fc256" xmlns="http://www.w3.org/2000/svg" viewBox="0 0 35.91 35.88"><g id="uuid-8e0644ff-b26a-4e58-b80a-7c20af6a1a2b"><g><path d="M0,17.94c0,9.93,7.99,17.93,17.93,17.94,9.92,.01,17.98-8.02,17.97-17.92C35.9,8.04,27.86,0,17.96,0,8.03,0,0,8.01,0,17.94Zm19.38,8.33c-2.19,.36-4.16,.15-5.98-.9-1.85-1.07-3.15-2.62-3.79-4.65-1.1-3.46,.11-7.08,3.03-9.21,3.15-2.31,6.54-2.07,10.78,.8,.27-.94,.52-1.86,.82-2.75,.09-.25,.36-.63,.56-.63,2.51-.04,5.02-.03,7.53-.03,.03,.09,.06,.19,.09,.28-2.14,2.33-4.27,4.65-6.41,6.98,.04,.08,.08,.16,.12,.24h4.41c-4,4.3-7.81,8.39-11.63,12.48-.07-.04-.14-.09-.2-.13,.21-.76,.41-1.52,.67-2.47Z" style="fill:#009136;"/><path d="M19.38,26.27c-.26,.95-.46,1.71-.67,2.47,.07,.04,.14,.09,.2,.13,3.81-4.09,7.62-8.19,11.63-12.48h-4.41c-.04-.08-.08-.16-.12-.24,2.14-2.33,4.27-4.65,6.41-6.98-.03-.09-.06-.19-.09-.28-2.51,0-5.02-.01-7.53,.03-.19,0-.47,.38-.56,.63-.31,.9-.55,1.81-.82,2.75-4.24-2.87-7.63-3.11-10.78-.8-2.91,2.13-4.12,5.75-3.03,9.21,.65,2.04,1.94,3.59,3.79,4.65,1.82,1.05,3.79,1.26,5.98,.9Zm-2.1-14.38c2.09,.05,3.72,.76,4.96,2.25,.23,.27,.41,.78,.32,1.1-.75,2.74-1.54,5.47-2.37,8.18-.09,.29-.46,.61-.77,.71-2.53,.78-4.79,.22-6.56-1.72-1.8-1.97-2.2-4.31-1.1-6.77,1.08-2.42,3.07-3.58,5.52-3.74Z" style="fill:#fff;"/><path d="M17.28,11.89c-2.45,.16-4.44,1.33-5.52,3.74-1.1,2.46-.7,4.8,1.1,6.77,1.77,1.94,4.03,2.51,6.56,1.72,.31-.09,.68-.42,.77-.71,.83-2.71,1.63-5.44,2.37-8.18,.09-.32-.09-.83-.32-1.1-1.24-1.48-2.87-2.19-4.96-2.25Zm-4,8.17c.12-.55,.19-.92,.27-1.29q.44-1.98,2.45-1.98c1.49,0,2.98,0,4.57,0-.22,1.04-.37,1.92-.61,2.78-.05,.2-.37,.47-.58,.47-1.98,.04-3.96,.02-6.1,.02Z" style="fill:#009136;"/><path d="M13.28,20.07c2.15,0,4.13,.01,6.1-.02,.2,0,.52-.27,.58-.47,.23-.86,.39-1.74,.61-2.78-1.59,0-3.08,0-4.57,0q-2,0-2.45,1.98c-.08,.37-.15,.74-.27,1.29Z" style="fill:#fff;"/></g></g></svg>