<?xml version="1.0" encoding="UTF-8"?><svg id="uuid-2f1e551d-217c-4b81-b7be-39f182db89cc" xmlns="http://www.w3.org/2000/svg" viewBox="0 0 49.02 49.02"><g id="uuid-3591714f-e8b8-4f97-b6c2-8b00a884e873"><g><path d="M0,24.51C0,10.98,10.97,0,24.51,0c13.54,0,24.51,10.98,24.51,24.51,0,13.54-10.97,24.51-24.51,24.51S0,38.05,0,24.51Z" style="fill:#6ca2bb;"/><g><path d="M39.76,23.94h-1.18c-.3-7.5-6.5-13.5-14.06-13.5-5.12,0-9.84,2.8-12.32,7.3-.1,.18-.1,.4,0,.57,.1,.18,.29,.28,.5,.28h5c.16,0,.31-.06,.42-.18,1.69-1.77,3.96-2.75,6.4-2.75,4.68,0,8.53,3.66,8.83,8.27h-1.15c-.24,0-.45,.14-.53,.36-.09,.22-.03,.47,.14,.63l3.79,3.63c.11,.11,.26,.16,.4,.16s.29-.05,.4-.16l3.79-3.63c.17-.16,.22-.41,.14-.63-.09-.22-.3-.36-.53-.36Z" style="fill:#fff;"/><path d="M36.34,30.43h-5.01c-.16,0-.31,.06-.42,.18-1.69,1.77-3.96,2.75-6.4,2.75-4.68,0-8.53-3.66-8.83-8.27h1.15c.24,0,.45-.14,.53-.36,.09-.22,.03-.47-.14-.63l-3.79-3.63c-.22-.21-.58-.21-.8,0l-3.79,3.63c-.17,.16-.22,.41-.14,.63,.09,.22,.3,.36,.53,.36h1.18c.3,7.5,6.5,13.5,14.06,13.5,5.13,0,9.85-2.8,12.34-7.3,.1-.18,.1-.4,0-.57-.1-.18-.29-.28-.5-.28Z" style="fill:#fff;"/><path d="M25.09,27.9c0-.32-.26-.58-.58-.58-.78,0-1.42-.64-1.42-1.42,0-.32-.26-.58-.58-.58s-.58,.26-.58,.58c0,1.42,1.15,2.57,2.57,2.57,.32,0,.58-.26,.58-.58Z" style="fill:#fff;"/><path d="M28.78,26.03c0-2.91-3.68-6.95-3.84-7.12-.22-.24-.63-.24-.85,0-.16,.17-3.84,4.21-3.84,7.12,0,2.35,1.91,4.27,4.27,4.27s4.27-1.91,4.27-4.27Zm-7.38,0c0-1.79,1.97-4.49,3.11-5.85,1.15,1.36,3.11,4.06,3.11,5.85s-1.4,3.11-3.11,3.11-3.11-1.4-3.11-3.11Z" style="fill:#fff;"/></g></g></g></svg>