<?xml version="1.0" encoding="UTF-8"?><svg id="uuid-e47f63a7-f9b8-4e73-ba63-d65dd635953e" xmlns="http://www.w3.org/2000/svg" viewBox="0 0 70.87 70.87"><g id="uuid-9103b445-afb8-4393-9774-05352c56d400"><g><circle cx="35.43" cy="35.43" r="35.43" style="fill:#92278f;"/><g><path d="M58.94,23.21H18.41c-.43,0-.78,.35-.78,.78s.35,.78,.78,.78H58.94c.88,0,1.59,.71,1.59,1.59v8.6c0,.88-.71,1.59-1.59,1.59H11.92c-.88,0-1.59-.71-1.59-1.59v-8.6c0-.88,.71-1.59,1.59-1.59h3.36c.43,0,.78-.35,.78-.78s-.35-.78-.78-.78h-3.36c-1.74,0-3.15,1.41-3.15,3.15v13.86c0,1.74,1.41,3.15,3.15,3.15h3.18c.17,1.68,1.59,3.01,3.32,3.01h15.44c.43,0,.78-.35,.78-.78s-.35-.78-.78-.78h-.57v-4.01h4.27v4.01h-.57c-.43,0-.78,.35-.78,.78s.35,.78,.78,.78h15.44c1.73,0,3.15-1.32,3.32-3.01h3.18c1.74,0,3.15-1.41,3.15-3.15v-13.86c0-1.74-1.41-3.15-3.15-3.15h0ZM16.65,43.04v-2.12c0-.06,.05-.11,.11-.11h3.53v4.01h-1.87c-.98,0-1.78-.8-1.78-1.78Zm9.39-2.24v4.01h-4.18v-4.01h4.18Zm5.7,4.01h-4.13v-4.01h4.13v4.01Zm7.39-4.01h4.13v4.01h-4.13v-4.01Zm9.88,0v4.01h-4.18v-4.01h4.18Zm5.2,2.24c0,.98-.8,1.78-1.78,1.78h-1.87v-4.01h3.53c.06,0,.11,.05,.11,.11v2.12Zm4.73-1.23h-3.17v-.89c0-.92-.75-1.68-1.68-1.68H16.77c-.92,0-1.68,.75-1.68,1.68v.89h-3.17c-.88,0-1.59-.71-1.59-1.59v-2.54c.47,.27,1.01,.43,1.59,.43H58.94c.58,0,1.12-.16,1.59-.43v2.54c0,.88-.71,1.59-1.59,1.59Z" style="fill:#fff;"/><path d="M36.71,31.89c.43,0,.78-.35,.78-.78s-.35-.78-.78-.78h-2.55c-.43,0-.78,.35-.78,.78s.35,.78,.78,.78h2.55Z" style="fill:#fff;"/><path d="M57.43,32.81c0-1.37-1.12-2.49-2.49-2.49s-2.49,1.12-2.49,2.49,1.12,2.49,2.49,2.49,2.49-1.12,2.49-2.49Zm-3.42,0c0-.51,.42-.93,.93-.93s.93,.42,.93,.93-.42,.93-.93,.93-.93-.42-.93-.93Z" style="fill:#fff;"/><path d="M29.03,49.4c-.43,0-.78,.35-.78,.78v1.38c0,1.5-1.22,2.71-2.71,2.71h-.97c-.43,0-.78,.35-.78,.78s.35,.78,.78,.78h.97c2.36,0,4.28-1.92,4.28-4.28v-1.38c0-.43-.35-.78-.78-.78Z" style="fill:#fff;"/><path d="M25.35,49.52v-.87c0-.43-.35-.78-.78-.78s-.78,.35-.78,.78v.87c0,.78-.64,1.42-1.42,1.42h-.61c-.43,0-.78,.35-.78,.78s.35,.78,.78,.78h.61c1.64,0,2.98-1.34,2.98-2.98Z" style="fill:#fff;"/><path d="M46.3,54.28h-.97c-1.5,0-2.71-1.22-2.71-2.71v-1.38c0-.43-.35-.78-.78-.78s-.78,.35-.78,.78v1.38c0,2.36,1.92,4.28,4.28,4.28h.97c.43,0,.78-.35,.78-.78s-.35-.78-.78-.78Z" style="fill:#fff;"/><path d="M49.11,50.94h-.61c-.78,0-1.42-.64-1.42-1.42v-.87c0-.43-.35-.78-.78-.78s-.78,.35-.78,.78v.87c0,1.64,1.34,2.98,2.98,2.98h.61c.43,0,.78-.35,.78-.78s-.35-.78-.78-.78Z" style="fill:#fff;"/></g></g></g></svg>