<?xml version="1.0" encoding="UTF-8"?><svg id="uuid-fcde695d-ffeb-4c29-a1ed-c5a5ec095f1f" xmlns="http://www.w3.org/2000/svg" viewBox="0 0 80.54 80.54"><g id="uuid-4e36e4c9-00a8-4e54-b9e6-9e55ea5b539d"><g><circle cx="40.27" cy="40.27" r="40.27" style="fill:#f6863c;"/><g><path d="M21.34,35.99h5.79v2.7h-5.79v-2.7Z" style="fill:#fff;"/><path d="M54.99,18.22V54.67c0,1.5-1.21,2.71-2.71,2.71s-2.71-1.21-2.71-2.71V27.71c0-4.5-3.64-8.14-8.14-8.14h-.72c-4.5,0-8.14,3.64-8.14,8.14v26.95c0,1.5-1.21,2.71-2.71,2.71s-2.71-1.21-2.71-2.71v-13.34h-5.79v13.7c0,4.5,3.64,8.14,8.14,8.14h.72c4.5,0,8.14-3.64,8.14-8.14V28.07c0-1.5,1.21-2.71,2.71-2.71s2.71,1.21,2.71,2.71v26.95c0,4.5,3.64,8.14,8.14,8.14h.72c4.5,0,8.14-3.64,8.14-8.14V18.22h-5.79Z" style="fill:#fff;"/><path d="M21.42,33.36h5.63l-.75-12.47h2.41v-2.63h-8.95v2.63h2.41l-.75,12.47Z" style="fill:#fff;"/></g></g></g></svg>