<?xml version="1.0" encoding="UTF-8"?><svg id="uuid-35ee7421-5a63-4b31-9a2c-c1a897bb048f" xmlns="http://www.w3.org/2000/svg" viewBox="0 0 31.11 31.11"><g id="uuid-add0207f-41c8-46ca-8c1c-57b0001b3107"><g><circle cx="15.56" cy="15.56" r="15.56" style="fill:#5c900f;"/><g><path d="M25.97,15.42c0-5.83-4.73-10.56-10.56-10.56S4.85,9.59,4.85,15.42c0,5.09,3.6,9.31,8.39,10.31-.12,.2-.08,.36,.13,.5,.61,.43,1.29,.71,2.01,.91,1.18,.32,2.37,.31,3.55,.01,.05-.01,.1-.02,.17-.04,.05,.52,.2,1,.45,1.45,.36,.64,.87,1.12,1.48,1.51,.14,.09,.27,.07,.4-.04,.54-.44,.97-.96,1.31-1.57,.67-1.19,.98-2.49,1.09-3.83,.07-.84,.03-1.68,.08-2.52,.01-.21,.06-.42,.14-.62,.01-.04,.02-.07,.04-.11,1.17-1.7,1.86-3.76,1.86-5.98Zm-20.09,0c0-5.3,4.27-9.6,9.53-9.6s9.53,4.3,9.53,9.6c0,2.01-.62,3.88-1.68,5.42-1.19,.08-2.37,.2-3.54,.42-.95,.18-1.88,.42-2.74,.87-1.07,.56-2,1.29-2.76,2.23-.13,.16-.26,.34-.38,.51-4.52-.75-7.97-4.69-7.97-9.45Zm12.48,11.38c-1.26,.26-2.49,.22-3.7-.22-.31-.11-.6-.26-.94-.41,.16-.22,.3-.42,.45-.61,.63-.83,1.38-1.54,2.27-2.11,.92-.59,1.7-.9,2.76-1.11,1.02-.2,2.3-.34,3.34-.42,.04,0,.08-.02,.15-.03-.18,.19-.33,.36-.49,.5-.94,.84-1.97,1.55-3.14,2.06-.77,.34-1.57,.58-2.41,.71-.25,.04-.38,.31-.24,.5,.08,.12,.2,.13,.34,.11,1.1-.15,2.13-.5,3.11-.99,1.04-.53,1.98-1.19,2.88-1.95-.04,.1-.08,.2-.13,.3-.34,.65-.71,1.29-1.2,1.85-.81,.94-1.81,1.56-3.05,1.82Zm4.53-2.64c-.07,1.02-.22,2.03-.58,3-.27,.74-.64,1.41-1.19,1.98-.07,.07-.15,.14-.24,.21-.85-.59-1.36-1.37-1.42-2.4,.44-.24,.87-.47,1.28-.68-.05,.28-.12,.59-.17,.9-.02,.14-.02,.28,0,.42,.01,.16,.17,.29,.32,.28,.15-.01,.3-.15,.29-.3-.03-.57,.14-1.09,.33-1.61,.09-.24,.18-.49,.3-.71,.11-.2,.28-.35,.41-.54,.24-.34,.46-.7,.69-1.06,0,.17,0,.34-.02,.51Z" style="fill:#fff;"/><path d="M16.22,13.77c.05-.13,.09-.21,.13-.3,.43-.94,.86-1.89,1.28-2.83,.22-.49-.03-.88-.56-.88-.57,0-1.15,0-1.73,0-.31,0-.52,.13-.65,.41-.2,.43-.4,.85-.61,1.28-.66,1.39-1.33,2.78-1.98,4.17-.23,.48,.01,.86,.54,.87,.51,0,1.02,0,1.54,0,.08,0,.16,0,.28,.01-.04,.12-.07,.21-.09,.29-.48,1.41-.95,2.83-1.43,4.24-.12,.37-.03,.65,.25,.79,.27,.14,.55,.05,.76-.27,1.56-2.27,3.12-4.54,4.68-6.81,.15-.21,.23-.43,.09-.68-.13-.23-.34-.3-.6-.29-.62,0-1.24,0-1.9,0Z" style="fill:#fff;"/></g></g></g></svg>