<?xml version="1.0" encoding="UTF-8"?><svg id="uuid-2ae62b1a-ae77-4575-9aa7-df3b62d2216a" xmlns="http://www.w3.org/2000/svg" viewBox="0 0 70.87 70.87"><g id="uuid-c0223164-fdd3-40d3-ac53-cd90044fc2ae"><g><circle cx="35.43" cy="35.43" r="35.43" style="fill:#f6863c;"/><g><path d="M33.16,57.11c-.19,0-.38-.07-.53-.19l-8.26-6.99c-.18-.15-.29-.38-.29-.62V18.82c0-.24,.11-.47,.29-.62l8.26-6.99c.24-.2,.58-.25,.87-.12,.29,.13,.47,.42,.47,.74V56.3c0,.32-.18,.6-.47,.74-.11,.05-.23,.08-.34,.08Zm-7.45-8.18l6.64,5.61V13.58l-6.64,5.61v29.74Z" style="fill:#fff;"/><path d="M44.78,57.11c-.19,0-.38-.07-.53-.19l-8.26-6.99c-.18-.15-.29-.38-.29-.62V18.82c0-.24,.11-.47,.29-.62l8.26-6.99c.24-.2,.58-.25,.87-.12,.29,.13,.47,.42,.47,.74V56.3c0,.32-.18,.6-.47,.74-.11,.05-.23,.08-.34,.08Zm-7.45-8.18l6.64,5.61V13.58l-6.64,5.61v29.74Z" style="fill:#fff;"/><path d="M57.54,57.11c-.19,0-.38-.07-.53-.19l-8.26-6.99c-.18-.15-.29-.38-.29-.62V18.82c0-.24,.11-.47,.29-.62l8.26-6.99c.24-.2,.58-.25,.87-.12,.29,.13,.47,.42,.47,.74V56.3c0,.32-.18,.6-.47,.74-.11,.05-.23,.08-.34,.08Zm-7.45-8.18l6.64,5.61V13.58l-6.64,5.61v29.74Z" style="fill:#fff;"/><path d="M18.05,31.29c-.05,0-.11,0-.16-.02-.05-.01-.1-.03-.15-.05-.05-.02-.1-.05-.14-.08-.04-.03-.09-.06-.12-.1-.04-.04-.07-.08-.1-.12-.03-.04-.05-.09-.08-.14-.02-.05-.04-.1-.05-.15-.01-.05-.02-.11-.02-.16s0-.11,.02-.16c.01-.05,.03-.1,.05-.15,.02-.05,.05-.1,.08-.14,.03-.04,.06-.09,.1-.12,.04-.04,.08-.07,.12-.1,.04-.03,.09-.05,.14-.08s.1-.04,.15-.05c.1-.02,.21-.02,.32,0,.05,.01,.1,.03,.15,.05,.05,.02,.1,.05,.14,.08,.04,.03,.09,.06,.12,.1,.04,.04,.07,.08,.1,.12,.03,.04,.05,.09,.08,.14,.02,.05,.04,.1,.05,.15,.01,.05,.02,.11,.02,.16s0,.11-.02,.16c-.01,.05-.03,.1-.05,.15-.02,.05-.05,.1-.08,.14-.03,.04-.06,.09-.1,.12-.04,.04-.08,.07-.12,.1-.04,.03-.09,.05-.14,.08-.05,.02-.1,.04-.15,.05-.05,.01-.11,.02-.16,.02Z" style="fill:#fff;"/><path d="M29.03,33.19c-.05,0-.11,0-.16-.02-.05-.01-.1-.03-.15-.05-.05-.02-.1-.05-.14-.07-.04-.03-.09-.06-.12-.1s-.07-.08-.1-.12c-.03-.04-.05-.09-.07-.14-.02-.05-.04-.1-.05-.15-.01-.05-.02-.11-.02-.16s0-.11,.02-.16c.01-.05,.03-.1,.05-.15,.02-.05,.05-.1,.07-.14,.03-.04,.06-.09,.1-.12,.04-.04,.08-.07,.12-.1,.04-.03,.09-.05,.14-.07,.05-.02,.1-.04,.15-.05,.1-.02,.21-.02,.32,0,.05,.01,.1,.03,.15,.05,.05,.02,.1,.04,.14,.07,.04,.03,.09,.06,.12,.1,.04,.04,.07,.08,.1,.12,.03,.04,.05,.09,.07,.14,.02,.05,.04,.1,.05,.15,.01,.05,.02,.11,.02,.16,0,.21-.09,.42-.24,.57-.04,.04-.08,.07-.12,.1-.04,.03-.09,.05-.14,.07-.05,.02-.1,.04-.15,.05-.05,.01-.11,.02-.16,.02Z" style="fill:#fff;"/><path d="M19.19,46.6c-.21,0-.42-.09-.58-.24-.04-.04-.07-.08-.1-.12-.03-.04-.05-.09-.08-.14-.02-.05-.04-.1-.05-.15-.01-.05-.02-.11-.02-.16s0-.11,.02-.16c.01-.05,.03-.1,.05-.15,.02-.05,.05-.1,.08-.14,.03-.04,.06-.09,.1-.12,.19-.19,.47-.28,.73-.22,.05,.01,.1,.03,.15,.05s.1,.05,.14,.08c.04,.03,.09,.06,.12,.1,.04,.04,.07,.08,.1,.12,.03,.04,.05,.09,.08,.14,.02,.05,.04,.1,.05,.15,.01,.05,.02,.11,.02,.16s0,.11-.02,.16c-.01,.05-.03,.1-.05,.15-.02,.05-.05,.1-.08,.14-.03,.04-.06,.09-.1,.12-.04,.04-.08,.07-.12,.1-.04,.03-.09,.05-.14,.08-.05,.02-.1,.04-.15,.05-.05,.01-.11,.02-.16,.02Z" style="fill:#fff;"/><path d="M11.82,35.35c-.05,0-.11,0-.16-.02-.05-.01-.1-.03-.15-.05-.05-.02-.1-.05-.14-.08-.04-.03-.09-.06-.12-.1-.04-.04-.07-.08-.1-.12-.03-.04-.05-.09-.08-.14-.02-.05-.04-.1-.05-.15-.01-.05-.02-.11-.02-.16s0-.11,.02-.16c.01-.05,.03-.1,.05-.15,.02-.05,.05-.1,.08-.14,.03-.04,.06-.09,.1-.12,.04-.04,.08-.07,.12-.1,.04-.03,.09-.05,.14-.07,.05-.02,.1-.04,.15-.05,.11-.02,.21-.02,.32,0,.05,.01,.1,.03,.15,.05,.05,.02,.1,.04,.14,.07,.04,.03,.09,.06,.12,.1,.04,.04,.07,.08,.1,.12,.03,.04,.05,.09,.08,.14,.02,.05,.04,.1,.05,.15,.01,.05,.02,.11,.02,.16s0,.11-.02,.16c-.01,.05-.03,.1-.05,.15-.02,.05-.05,.1-.08,.14-.03,.04-.06,.09-.1,.12-.04,.04-.08,.07-.12,.1-.04,.03-.09,.05-.14,.08-.05,.02-.1,.04-.15,.05-.05,.01-.11,.02-.16,.02Z" style="fill:#fff;"/><path d="M16.84,23.43c-.21,0-.42-.09-.58-.24-.15-.15-.24-.36-.24-.58,0-.05,0-.11,.02-.16,.01-.05,.03-.1,.05-.15,.02-.05,.05-.1,.08-.14,.03-.04,.06-.09,.1-.12,.19-.19,.47-.28,.73-.22,.05,.01,.1,.03,.15,.05,.05,.02,.1,.05,.14,.08,.04,.03,.09,.06,.12,.1,.04,.04,.07,.08,.1,.12,.03,.04,.05,.09,.08,.14,.02,.05,.04,.1,.05,.15,.01,.05,.02,.11,.02,.16,0,.21-.09,.42-.24,.58-.15,.15-.36,.24-.58,.24Z" style="fill:#fff;"/><path d="M14.47,40.64c-.05,0-.11,0-.16-.02-.05-.01-.1-.03-.15-.05-.05-.02-.1-.05-.14-.08-.04-.03-.09-.06-.12-.1-.15-.15-.24-.36-.24-.58,0-.05,0-.11,.02-.16,.01-.05,.03-.1,.05-.15,.02-.05,.05-.1,.08-.14,.03-.04,.06-.09,.1-.12,.04-.04,.08-.07,.12-.1,.04-.03,.09-.05,.14-.07,.05-.02,.1-.04,.15-.05,.1-.02,.21-.02,.32,0,.05,.01,.1,.03,.15,.05,.05,.02,.1,.04,.14,.07,.04,.03,.09,.06,.12,.1,.04,.04,.07,.08,.1,.12,.03,.04,.05,.09,.07,.14,.02,.05,.04,.1,.05,.15,.01,.05,.02,.11,.02,.16,0,.21-.09,.42-.24,.58-.04,.04-.08,.07-.12,.1-.04,.03-.09,.05-.14,.08-.05,.02-.1,.04-.15,.05-.05,.01-.11,.02-.16,.02Z" style="fill:#fff;"/><path d="M10.26,25.26c-.05,0-.11,0-.16-.02-.05-.01-.1-.03-.15-.05-.05-.02-.1-.05-.14-.07-.04-.03-.09-.06-.12-.1-.15-.15-.24-.36-.24-.57,0-.05,0-.11,.02-.16,.01-.05,.03-.1,.05-.15,.02-.05,.04-.1,.07-.14,.03-.04,.06-.09,.1-.12,.04-.04,.08-.07,.12-.1,.04-.03,.09-.05,.14-.07,.05-.02,.1-.04,.15-.05,.1-.02,.21-.02,.32,0,.05,.01,.1,.03,.15,.05,.05,.02,.1,.05,.14,.07,.04,.03,.09,.06,.12,.1,.04,.04,.07,.08,.1,.12,.03,.04,.05,.09,.07,.14,.02,.05,.04,.1,.05,.15,.01,.05,.02,.11,.02,.16,0,.21-.09,.42-.24,.57-.04,.04-.08,.07-.12,.1-.04,.03-.09,.05-.14,.07-.05,.02-.1,.04-.15,.05-.05,.01-.11,.02-.16,.02Z" style="fill:#fff;"/><path d="M9.92,45.59c-.05,0-.11,0-.16-.02-.05-.01-.1-.03-.15-.05-.05-.02-.1-.05-.14-.07-.04-.03-.09-.06-.12-.1-.04-.04-.07-.08-.1-.12-.03-.04-.05-.09-.08-.14-.02-.05-.04-.1-.05-.15-.01-.05-.02-.11-.02-.16s0-.11,.02-.16c.01-.05,.03-.1,.05-.15,.02-.05,.05-.1,.08-.14,.03-.04,.06-.09,.1-.12,.04-.04,.08-.07,.12-.1,.04-.03,.09-.05,.14-.07s.1-.04,.15-.05c.1-.02,.21-.02,.32,0,.05,.01,.1,.03,.15,.05,.05,.02,.1,.04,.14,.07,.04,.03,.09,.06,.12,.1,.15,.15,.24,.36,.24,.58,0,.05,0,.11-.02,.16-.01,.05-.03,.1-.05,.15-.02,.05-.05,.1-.08,.14-.03,.04-.06,.09-.1,.12-.04,.04-.08,.07-.12,.1-.04,.03-.09,.05-.14,.07-.05,.02-.1,.04-.15,.05-.05,.01-.11,.02-.16,.02Z" style="fill:#fff;"/><path d="M20.8,37.66c-.05,0-.11,0-.16-.02-.05-.01-.1-.03-.15-.05-.05-.02-.1-.05-.14-.07-.04-.03-.09-.06-.12-.1-.04-.04-.07-.08-.1-.12-.03-.04-.05-.09-.07-.14-.02-.05-.04-.1-.05-.15-.01-.05-.02-.11-.02-.16s0-.11,.02-.16c.01-.05,.03-.1,.05-.15,.02-.05,.05-.1,.07-.14,.03-.04,.06-.09,.1-.12,.04-.04,.08-.07,.12-.1,.04-.03,.09-.05,.14-.07,.05-.02,.1-.04,.15-.05,.26-.05,.54,.03,.73,.22,.04,.04,.07,.08,.1,.12,.03,.04,.05,.09,.07,.14,.02,.05,.04,.1,.05,.15,.01,.05,.02,.11,.02,.16s0,.11-.02,.16c-.01,.05-.03,.1-.05,.15-.02,.05-.05,.1-.07,.14-.03,.04-.06,.09-.1,.12-.15,.15-.36,.24-.57,.24Z" style="fill:#fff;"/><path d="M27.93,44.1c-.05,0-.11,0-.16-.02-.05-.01-.1-.03-.15-.05-.05-.02-.1-.05-.14-.07-.04-.03-.09-.06-.12-.1-.04-.04-.07-.08-.1-.12-.03-.04-.05-.09-.08-.14-.02-.05-.04-.1-.05-.15-.01-.05-.02-.11-.02-.16s0-.11,.02-.16c.01-.05,.03-.1,.05-.15,.02-.05,.05-.1,.08-.14,.03-.04,.06-.09,.1-.12,.15-.15,.36-.24,.58-.24s.42,.09,.58,.24c.04,.04,.07,.08,.1,.12,.03,.04,.05,.09,.08,.14,.02,.05,.04,.1,.05,.15,.01,.05,.02,.11,.02,.16s0,.11-.02,.16c-.01,.05-.03,.1-.05,.15-.02,.05-.05,.1-.08,.14-.03,.04-.06,.09-.1,.12-.04,.04-.08,.07-.12,.1-.04,.03-.09,.05-.14,.07-.05,.02-.1,.04-.15,.05-.05,.01-.11,.02-.16,.02Z" style="fill:#fff;"/><path d="M27.47,26.41c-.21,0-.42-.09-.58-.24-.04-.04-.07-.08-.1-.12-.03-.04-.05-.09-.08-.14-.02-.05-.04-.1-.05-.15-.01-.05-.02-.11-.02-.16s0-.11,.02-.16c.01-.05,.03-.1,.05-.15,.02-.05,.05-.1,.08-.14,.03-.04,.06-.09,.1-.12,.19-.19,.47-.28,.73-.22,.05,.01,.1,.03,.15,.05,.05,.02,.1,.05,.14,.08,.04,.03,.09,.06,.12,.1,.04,.04,.07,.08,.1,.12,.03,.04,.05,.09,.08,.14,.02,.05,.04,.1,.05,.15,.01,.05,.02,.11,.02,.16s0,.11-.02,.16c-.01,.05-.03,.1-.05,.15-.02,.05-.05,.1-.08,.14-.03,.04-.06,.09-.1,.12-.04,.04-.08,.07-.12,.1-.04,.03-.09,.05-.14,.08-.05,.02-.1,.04-.15,.05-.05,.01-.11,.02-.16,.02Z" style="fill:#fff;"/><path d="M21.17,28.38c-.05,0-.11,0-.16-.02-.05-.01-.1-.03-.15-.05-.05-.02-.1-.05-.14-.08-.04-.03-.09-.06-.12-.1-.15-.15-.24-.36-.24-.58,0-.05,0-.11,.02-.16,.01-.05,.03-.1,.05-.15,.02-.05,.05-.1,.08-.14,.03-.04,.06-.09,.1-.12,.04-.04,.08-.07,.12-.1,.04-.03,.09-.05,.14-.08,.05-.02,.1-.04,.15-.05,.27-.05,.55,.03,.73,.22,.04,.04,.07,.08,.1,.12,.03,.04,.05,.09,.07,.14,.02,.05,.04,.1,.05,.15,.01,.05,.02,.11,.02,.16s0,.11-.02,.16c-.01,.05-.03,.1-.05,.15-.02,.05-.04,.1-.07,.14-.03,.04-.06,.09-.1,.12-.15,.15-.36,.24-.57,.24Z" style="fill:#fff;"/><g><rect x="38.34" y="29.75" width="3.07" height=".57" style="fill:#fff;"/><polygon points="40.45 31.55 40.11 31.15 41.07 30.03 40.11 28.91 40.45 28.51 41.76 30.03 40.45 31.55" style="fill:#fff;"/></g><g><rect x="40.28" y="33.99" width="3.07" height=".57" style="fill:#fff;"/><polygon points="42.38 35.79 42.04 35.39 43 34.27 42.04 33.15 42.38 32.75 43.69 34.27 42.38 35.79" style="fill:#fff;"/></g><g><rect x="38.34" y="37.81" width="3.07" height=".57" style="fill:#fff;"/><polygon points="40.45 39.61 40.11 39.21 41.07 38.1 40.11 36.98 40.45 36.58 41.76 38.1 40.45 39.61" style="fill:#fff;"/></g><g><rect x="50.73" y="29.75" width="3.07" height=".57" style="fill:#fff;"/><polygon points="52.84 31.55 52.49 31.15 53.46 30.03 52.49 28.91 52.84 28.51 54.14 30.03 52.84 31.55" style="fill:#fff;"/></g><g><rect x="52.66" y="33.99" width="3.07" height=".57" style="fill:#fff;"/><polygon points="54.77 35.79 54.43 35.39 55.39 34.27 54.43 33.15 54.77 32.75 56.08 34.27 54.77 35.79" style="fill:#fff;"/></g><g><rect x="50.73" y="37.81" width="3.07" height=".57" style="fill:#fff;"/><polygon points="52.84 39.61 52.49 39.21 53.46 38.1 52.49 36.98 52.84 36.58 54.14 38.1 52.84 39.61" style="fill:#fff;"/></g></g></g></g></svg>