<?xml version="1.0" encoding="UTF-8"?><svg id="uuid-1a4526cb-7ecd-46e9-bcd7-dda9672ff8b1" xmlns="http://www.w3.org/2000/svg" viewBox="0 0 46.75 46.75"><g id="uuid-9694d0d7-c09f-4dc0-a60c-9da93d799149"><g><circle cx="23.38" cy="23.38" r="23.38" style="fill:#ec297b;"/><g><polygon points="27.03 20.84 19.34 20.84 23.02 29.76 27.03 20.84" style="fill:#fff;"/><rect x="21.86" y="9.2" width="2.83" height="12.28" style="fill:#fff;"/><path d="M25.87,34.8c0,1.52-1.24,2.76-2.76,2.76s-2.76-1.24-2.76-2.76,1.24-2.76,2.76-2.76,2.76,1.24,2.76,2.76Z" style="fill:#fff;"/><path d="M37.06,23.64l-5.18,5.25,1.66,2.35h-5.73l.14-6.07,2.28,1.66,5.59-4.9s1.86,.14,1.24,1.73Z" style="fill:#fff;"/><path d="M10.78,22.1l5.34,5.07,2.31-1.7,.11,5.73-6.07-.02,1.61-2.31-5.01-5.5s.1-1.87,1.7-1.27Z" style="fill:#fff;"/></g></g></g></svg>