<?xml version="1.0" encoding="UTF-8"?><svg id="uuid-6ff20972-ef1d-4e40-aa85-789df4dd5c30" xmlns="http://www.w3.org/2000/svg" viewBox="0 0 46.75 46.75"><g id="uuid-97d7c43b-6378-4a02-a4d1-c73e63c34686"><g><circle cx="23.38" cy="23.38" r="23.38" style="fill:#f15a24;"/><g><path d="M27.29,20.96V10.8c0-2.09-1.7-3.79-3.79-3.79h-1.54c-2.09,0-3.79,1.7-3.79,3.79v10.16c-2.48,1.56-4,4.3-4,7.25,0,4.72,3.84,8.56,8.56,8.56s8.56-3.84,8.56-8.56c0-2.95-1.52-5.69-4-7.25Zm-4.56,14.16c-3.81,0-6.91-3.1-6.91-6.91,0-2.52,1.37-4.84,3.58-6.06l.43-.24V10.8c0-1.18,.96-2.14,2.14-2.14h1.54c1.18,0,2.14,.96,2.14,2.14v11.11l.43,.24c2.21,1.22,3.58,3.54,3.58,6.06,0,3.81-3.1,6.91-6.91,6.91Z" style="fill:#fff;"/><path d="M24.23,23.5v-6.54h-2.99v6.54c-1.99,.63-3.44,2.5-3.44,4.7,0,2.72,2.21,4.94,4.94,4.94s4.94-2.21,4.94-4.94c0-2.2-1.45-4.07-3.44-4.7Z" style="fill:#fff;"/><rect x="28.54" y="9.48" width="2.48" height="1.19" style="fill:#fff;"/><rect x="28.54" y="12.92" width="2.48" height="1.19" style="fill:#fff;"/><rect x="28.54" y="16.37" width="2.48" height="1.19" style="fill:#fff;"/><rect x="28.54" y="19.81" width="2.48" height="1.19" style="fill:#fff;"/></g></g></g></svg>