<?xml version="1.0" encoding="UTF-8"?><svg id="uuid-7f7208d1-5970-4ae4-982e-7894a60a8529" xmlns="http://www.w3.org/2000/svg" viewBox="0 0 46.75 46.75"><g id="uuid-a9ee5b46-cee2-42f0-8500-f0b38490a49f"><g><circle cx="23.38" cy="23.38" r="23.38" style="fill:#00a99d;"/><g><path d="M20.68,26.27c0,.75,.6,1.35,1.35,1.35s1.35-.6,1.35-1.35-.6-1.35-1.35-1.35-1.35,.6-1.35,1.35Z" style="fill:#fff;"/><path d="M26.93,31.95c.49,.15,1.01-.12,1.16-.61,.15-.49-.12-1.01-.61-1.16-.49-.15-1.01,.12-1.16,.61-.15,.49,.12,1.01,.61,1.16Z" style="fill:#fff;"/><path d="M14.55,24.68v10.76h17.94v-10.76l-8.97-8.32-8.97,8.32Zm13.02,4.28l.22-.72,.55,.17-.22,.72c.34,.16,.63,.4,.84,.7l.67-.35,.27,.51-.66,.35c.12,.34,.16,.71,.1,1.09l.72,.22-.17,.55-.72-.22c-.16,.34-.4,.63-.7,.84l.35,.67-.51,.27-.35-.67c-.34,.12-.71,.16-1.09,.1l-.22,.72-.55-.17,.22-.72c-.34-.16-.63-.4-.84-.7l-.67,.35-.27-.51,.67-.35c-.12-.34-.16-.71-.1-1.09l-.72-.22,.17-.55,.72,.22c.16-.34,.4-.63,.7-.84l-.35-.67,.51-.27,.35,.67c.34-.12,.71-.16,1.09-.1Zm-2.87-5.95l.59,.59-.77,.77c.32,.42,.54,.92,.61,1.47h1.1v.84h-1.1c-.07,.55-.29,1.05-.61,1.47l.77,.77-.59,.59-.77-.77c-.42,.32-.92,.54-1.47,.61v1.1h-.84v-1.1c-.55-.07-1.05-.29-1.47-.61l-.77,.77-.59-.59,.77-.77c-.32-.42-.54-.92-.61-1.47h-1.1v-.84h1.1c.07-.55,.29-1.05,.61-1.47l-.77-.77,.59-.59,.77,.77c.42-.32,.92-.54,1.47-.61v-1.1h.84v1.1c.55,.07,1.05,.29,1.47,.61l.77-.77Z" style="fill:#fff;"/><polygon points="23.41 10.55 18.01 15.82 18.01 12.62 15.02 12.62 15.02 18.73 9.9 23.72 11.94 25.73 23.41 14.23 35.09 25.73 37.13 23.68 23.41 10.55" style="fill:#fff;"/><path d="M23.38,26.27c0,.75-.6,1.35-1.35,1.35s-1.35-.6-1.35-1.35,.6-1.35,1.35-1.35,1.35,.6,1.35,1.35Z" style="fill:#fff;"/></g></g></g></svg>