<?xml version="1.0" encoding="UTF-8"?><svg id="uuid-5b7b2bb4-fa63-425f-b6c3-768a68eab594" xmlns="http://www.w3.org/2000/svg" viewBox="0 0 46.75 46.75"><g id="uuid-044841cb-0e4d-48e9-83b6-3ecfbaf3a756"><g><circle cx="23.38" cy="23.38" r="23.38" style="fill:#f7931e;"/><g><path d="M23.37,8.66h0c.62,.43,1.24,.85,1.87,1.27,1.14,.75,2.3,1.47,3.49,2.15,.93,.53,1.87,1.04,2.84,1.51,.47,.22,.94,.44,1.42,.64,.51,.21,1.03,.41,1.55,.58,.3,.1,.6,.19,.91,.25,.03,0,.06,0,.09,.02h0s-.01,.06-.02,.08c-.06,.33-.11,.66-.15,.98-.08,.63-.16,1.26-.23,1.9-.07,.65-.14,1.31-.2,1.96-.03,.31-.05,.61-.09,.92-.08,.66-.18,1.31-.3,1.96-.21,1.16-.47,2.32-.81,3.45-.16,.53-.34,1.06-.55,1.58-.39,.99-.91,1.92-1.51,2.8-.56,.81-1.19,1.58-1.88,2.29-.17,.17-.34,.34-.52,.51-.19,.18-.39,.36-.6,.53-.87,.72-1.73,1.43-2.6,2.15-.05,.04-.09,.08-.15,.11-.85,.59-1.69,1.19-2.54,1.78,0,0-.01,0-.02,.01h0c-.1-.08-.21-.15-.31-.22-.74-.52-1.48-1.04-2.22-1.55-.1-.07-.19-.15-.29-.23-.78-.64-1.56-1.29-2.34-1.93-.09-.08-.19-.15-.28-.23-.19-.16-.37-.33-.55-.49-.06-.06-.13-.12-.19-.18-.09-.1-.19-.19-.28-.28-.16-.17-.32-.34-.48-.51-.07-.08-.14-.16-.22-.24h0s-.03-.04-.05-.06c-.67-.78-1.27-1.63-1.79-2.52-.26-.46-.5-.93-.71-1.42-.22-.52-.41-1.04-.58-1.58-.19-.61-.36-1.22-.5-1.84-.21-.89-.38-1.78-.53-2.68-.07-.46-.14-.93-.19-1.4-.02-.16-.03-.31-.05-.47-.06-.61-.12-1.23-.18-1.84-.07-.64-.14-1.29-.22-1.93-.05-.36-.1-.73-.16-1.09-.02-.1-.03-.19-.05-.29v-.02h0c.06,0,.11-.02,.17-.03,.48-.11,.95-.27,1.42-.44,.5-.18,.99-.38,1.47-.6,.71-.31,1.4-.65,2.08-1.01,1.49-.78,2.94-1.65,4.36-2.56,.85-.55,1.7-1.11,2.53-1.69,.04-.03,.08-.06,.13-.09m-.19,1.75c-1.07,.74-2.15,1.45-3.26,2.13-.86,.53-1.74,1.03-2.63,1.51-.81,.43-1.64,.83-2.49,1.19-.57,.24-1.15,.46-1.75,.63-.15,.04-.31,.08-.47,.11-.02,0-.03,0-.04,.01,.01,.05,.02,.11,.03,.16,.06,.32,.1,.64,.14,.95,.08,.6,.15,1.21,.21,1.81,.07,.63,.13,1.26,.19,1.89,.01,.16,.03,.31,.05,.47,.09,.73,.21,1.45,.35,2.17,.08,.43,.18,.85,.28,1.27,.15,.6,.31,1.2,.5,1.79,.17,.52,.37,1.03,.6,1.53,.11,.24,.23,.47,.36,.7,.49,.89,1.08,1.73,1.75,2.49,.3,.35,.62,.69,.96,1.01,.18,.18,.37,.35,.56,.51,.78,.64,1.55,1.28,2.33,1.93,.09,.07,.17,.14,.26,.2,.74,.52,1.49,1.04,2.23,1.56,.01,0,.03,.03,.04,.01,.77-.54,1.54-1.08,2.31-1.62,.63-.52,1.26-1.04,1.88-1.56,.2-.17,.4-.33,.61-.5,.3-.25,.58-.51,.85-.79,.35-.35,.68-.72,.99-1.1,.65-.8,1.23-1.67,1.69-2.59,.25-.5,.46-1.01,.64-1.54,.19-.54,.35-1.09,.49-1.65,.14-.56,.27-1.13,.38-1.7,.12-.62,.22-1.25,.31-1.88,.04-.29,.08-.58,.1-.87,.09-.95,.19-1.89,.3-2.84,.08-.62,.15-1.24,.26-1.85-.04-.01-.08-.01-.12-.03-.23-.05-.46-.12-.68-.19-.52-.16-1.03-.36-1.54-.57-.98-.42-1.94-.9-2.88-1.41-1.1-.6-2.18-1.25-3.24-1.93-.8-.51-1.59-1.04-2.37-1.59-.07,.04-.13,.09-.19,.13h0Z" style="fill:#fff;"/><path d="M33,16.72c-.21-.04-.41-.1-.61-.17-.47-.15-.93-.33-1.38-.52-.89-.38-1.75-.81-2.59-1.27-.99-.54-1.96-1.13-2.92-1.74-.72-.46-1.43-.94-2.13-1.43-.06,.04-.11,.08-.17,.12-.96,.66-1.93,1.31-2.93,1.92-.78,.47-1.56,.93-2.37,1.36-.73,.39-1.47,.75-2.24,1.07-.51,.21-1.04,.41-1.57,.57-.14,.04-.28,.08-.42,.1-.01,0-.03,0-.04,.01,.01,.05,.02,.1,.03,.14,.05,.28,.09,.57,.13,.86,.07,.54,.13,1.09,.19,1.63,.06,.56,.12,1.13,.17,1.7,.01,.14,.03,.28,.05,.42,.08,.65,.19,1.31,.32,1.95,.08,.38,.16,.77,.25,1.15,.13,.54,.28,1.08,.45,1.6,.15,.47,.33,.93,.54,1.37,.1,.21,.21,.42,.32,.63,.44,.8,.97,1.55,1.57,2.24,.27,.32,.56,.62,.86,.91,.16,.16,.33,.31,.51,.46,.7,.58,1.4,1.15,2.09,1.73,.08,.06,.15,.13,.23,.18,.67,.47,1.34,.94,2,1.4,.01,0,.02,.02,.04,.01,.69-.48,1.38-.97,2.07-1.45,.56-.47,1.13-.93,1.69-1.4,.18-.15,.36-.3,.55-.45,.27-.22,.52-.46,.76-.71,.31-.32,.61-.65,.89-.99,.59-.72,1.1-1.5,1.52-2.33,.22-.45,.41-.91,.58-1.38,.17-.49,.31-.98,.44-1.48,.13-.5,.24-1.01,.34-1.53,.11-.56,.2-1.12,.28-1.69,.04-.26,.07-.52,.09-.78,.08-.85,.17-1.7,.27-2.55,.07-.56,.13-1.11,.24-1.66-.03-.01-.07-.01-.1-.02Zm-11.66,12.95h-.01s-.01,0-.01,0l-4.75-4.75,1.83-1.83,2.93,2.93,8.51-8.51,1.83,1.83-10.33,10.33Z" style="fill:#fff;"/></g></g></g></svg>