<?xml version="1.0" encoding="UTF-8"?><svg id="uuid-7c1e9211-cd61-4d05-8fd1-466995ef2b1f" xmlns="http://www.w3.org/2000/svg" xmlns:xlink="http://www.w3.org/1999/xlink" viewBox="0 0 81.91 81.91"><defs><clipPath id="uuid-b89d33c0-2cc5-43e4-bf64-65005b9f01db"><path d="M59.37,57.88c0,2.96-3.48,4.8-7.53,4.15l-30.67-4.94c-2.14-.35-3.81-2.24-3.81-4.24V31.92c0-2,1.66-3.89,3.81-4.24l30.67-4.94c4.05-.65,7.53,1.19,7.53,4.15v30.98Z" style="fill:none;"/></clipPath></defs><g id="uuid-21e4a332-648e-467b-a4fe-88c81c4ce589"><g><path d="M0,40.96C0,18.34,18.33,0,40.95,0c22.62,0,40.95,18.34,40.95,40.96,0,22.61-18.34,40.95-40.95,40.95S0,63.57,0,40.96Z" style="fill:#006937;"/><path d="M59.37,57.88c0,2.96-3.48,4.8-7.53,4.15l-30.67-4.94c-2.14-.35-3.81-2.24-3.81-4.24V31.92c0-2,1.66-3.89,3.81-4.24l30.67-4.94c4.05-.65,7.53,1.19,7.53,4.15v30.98Z" style="fill:#8dc63f;"/><g style="clip-path:url(#uuid-b89d33c0-2cc5-43e4-bf64-65005b9f01db);"><line x1="16.27" y1="30.15" x2="62.16" y2="23.65" style="fill:none; stroke:#fff; stroke-miterlimit:10;"/><line x1="16.27" y1="32.47" x2="62.16" y2="27.2" style="fill:none; stroke:#fff; stroke-miterlimit:10;"/><line x1="16.27" y1="34.79" x2="62.16" y2="30.75" style="fill:none; stroke:#fff; stroke-miterlimit:10;"/><line x1="16.27" y1="37.11" x2="62.16" y2="34.3" style="fill:none; stroke:#fff; stroke-miterlimit:10;"/><line x1="16.27" y1="39.42" x2="62.16" y2="37.85" style="fill:none; stroke:#fff; stroke-miterlimit:10;"/><line x1="16.27" y1="41.74" x2="62.16" y2="41.4" style="fill:none; stroke:#fff; stroke-miterlimit:10;"/><line x1="16.27" y1="44.06" x2="62.16" y2="44.95" style="fill:none; stroke:#fff; stroke-miterlimit:10;"/><line x1="16.27" y1="46.38" x2="62.16" y2="48.5" style="fill:none; stroke:#fff; stroke-miterlimit:10;"/><line x1="16.27" y1="48.7" x2="62.16" y2="52.05" style="fill:none; stroke:#fff; stroke-miterlimit:10;"/><line x1="16.27" y1="51.02" x2="62.16" y2="55.6" style="fill:none; stroke:#fff; stroke-miterlimit:10;"/><line x1="16.27" y1="53.33" x2="62.16" y2="59.15" style="fill:none; stroke:#fff; stroke-miterlimit:10;"/><line x1="16.27" y1="55.65" x2="62.16" y2="62.71" style="fill:none; stroke:#fff; stroke-miterlimit:10;"/><line x1="53.16" y1="20.58" x2="53.16" y2="64.01" style="fill:none; stroke:#fff; stroke-miterlimit:10;"/><line x1="48.63" y1="21.38" x2="48.63" y2="63.22" style="fill:none; stroke:#fff; stroke-miterlimit:10;"/><line x1="44.43" y1="22.13" x2="44.43" y2="62.48" style="fill:none; stroke:#fff; stroke-miterlimit:10;"/><line x1="40.51" y1="22.82" x2="40.51" y2="61.79" style="fill:none; stroke:#fff; stroke-miterlimit:10;"/><line x1="36.85" y1="23.47" x2="36.85" y2="61.15" style="fill:none; stroke:#fff; stroke-miterlimit:10;"/><line x1="33.43" y1="24.07" x2="33.43" y2="60.55" style="fill:none; stroke:#fff; stroke-miterlimit:10;"/><line x1="30.22" y1="24.64" x2="30.22" y2="59.98" style="fill:none; stroke:#fff; stroke-miterlimit:10;"/><line x1="27.2" y1="25.17" x2="27.2" y2="59.45" style="fill:none; stroke:#fff; stroke-miterlimit:10;"/><line x1="24.36" y1="25.68" x2="24.36" y2="58.96" style="fill:none; stroke:#fff; stroke-miterlimit:10;"/><line x1="21.68" y1="26.15" x2="21.68" y2="58.49" style="fill:none; stroke:#fff; stroke-miterlimit:10;"/><line x1="19.15" y1="26.6" x2="19.15" y2="58.04" style="fill:none; stroke:#fff; stroke-miterlimit:10;"/></g><path d="M51.71,61.62l-30.62-4.84c-1.98-.31-3.52-2.06-3.52-3.91V31.89c0-1.85,1.55-3.6,3.52-3.91l30.62-4.84c3.72-.59,6.91,1.12,6.91,3.83v30.81c0,2.72-3.19,4.42-6.91,3.83ZM21.1,29.3c-1.24,.18-2.23,1.27-2.23,2.44v21.29c0,1.17,.99,2.27,2.23,2.44l30.62,4.4c2.29,.33,4.22-.74,4.22-2.4V27.3c0-1.66-1.93-2.73-4.22-2.4l-30.62,4.4Z" style="fill:#006937;"/><path d="M51.84,62.9l-30.67-5.16c-2.5-.42-4.44-2.64-4.44-4.97V32c0-2.33,1.94-4.55,4.44-4.97l30.67-5.16c4.77-.8,8.94,1.35,8.94,4.86v31.32c0,3.51-4.17,5.66-8.94,4.86ZM21.17,28.34c-1.78,.27-3.17,1.84-3.17,3.5v21.08c0,1.66,1.39,3.23,3.17,3.5l30.67,4.72c3.32,.51,6.16-1.02,6.16-3.44V27.06c0-2.42-2.84-3.95-6.16-3.44l-30.67,4.72Z" style="fill:#fff;"/></g></g></svg>