<?xml version="1.0" encoding="UTF-8"?><svg id="uuid-e78a892c-e26b-4eed-b7e2-6a97c5c7a2cb" xmlns="http://www.w3.org/2000/svg" viewBox="0 0 70.87 70.87"><g id="uuid-7984fc7c-5e01-4733-863d-e7ef2027c368"><g><circle cx="35.43" cy="35.43" r="35.43" style="fill:#ed1c24;"/><g><path d="M54.78,20.29c-4.37,3.76-7.82,6.72-17.2,1.43-12.38-6.99-18.18-2.01-22.84,1.99-1.06,.91-1.19,2.52-.31,3.6,.89,1.08,2.47,1.22,3.53,.31,4.37-3.75,7.83-6.72,17.19-1.43,4.5,2.54,8.13,3.5,11.15,3.5,5.29,0,8.72-2.94,11.68-5.49,1.06-.91,1.19-2.52,.31-3.6-.89-1.08-2.47-1.22-3.53-.31Z" style="fill:#fff;"/><path d="M14.44,52.86c.89,1.08,2.47,1.22,3.53,.31,4.37-3.75,7.82-6.72,17.19-1.43,4.5,2.54,8.13,3.5,11.15,3.5,5.29,0,8.72-2.94,11.68-5.49,1.06-.91,1.19-2.52,.31-3.6-.89-1.08-2.47-1.22-3.53-.31-4.37,3.76-7.82,6.72-17.2,1.43-12.38-6.99-18.18-2.01-22.84,1.99-1.06,.91-1.19,2.52-.31,3.6Z" style="fill:#fff;"/><path d="M17.97,40.4c4.37-3.75,7.83-6.72,17.19-1.43,4.5,2.54,8.13,3.5,11.15,3.5,5.29,0,8.72-2.94,11.68-5.49,1.06-.91,1.19-2.52,.31-3.6-.89-1.08-2.47-1.22-3.53-.31-4.37,3.76-7.82,6.72-17.2,1.43-12.38-6.99-18.18-2.01-22.84,1.99-1.06,.91-1.19,2.52-.31,3.6,.89,1.08,2.47,1.22,3.53,.31Z" style="fill:#fff;"/></g></g></g></svg>