<?xml version="1.0" encoding="UTF-8"?><svg id="uuid-4fd9bc46-2ca3-4d60-b0dc-20a4acdd8a6a" xmlns="http://www.w3.org/2000/svg" viewBox="0 0 74.89 74.89"><g id="uuid-33346636-e62b-48c9-b81c-8fff227466df"><g><path d="M0,37.45C0,16.77,16.76,0,37.44,0c20.68,0,37.44,16.77,37.44,37.45,0,20.68-16.76,37.44-37.44,37.44S0,58.12,0,37.45Z" style="fill:#0054a6;"/><g><path d="M19.37,54.55c.63,.51,1.25,1.03,1.89,1.52,3.49,2.67,7.35,4.34,11.57,5.03,4.43,.72,8.67,.27,12.69-1.36,1.79-.72,3.47-1.62,4.95-2.83,.87-.71,1.73-1.43,2.52-2.23,2.56-2.57,4.33-5.66,5.33-9.2,1.64-5.82,1.09-11.63-1.56-17.38-.83-1.8-1.89-3.49-3.15-5.04-.35-.43-.68-.86-1.02-1.29-.64-.65-1.29-1.3-1.93-1.95-.62-.5-1.23-1-1.86-1.49-1.42-1.11-2.96-2.02-4.57-2.8-.43-.21-.87-.2-1.22,.13-.38,.36-.35,.81-.17,1.3,.5,1.38,1.06,2.76,1.45,4.16,.84,3.07,.92,6.13,.38,9.17-.47,2.68-1.42,5.14-2.85,7.38-1.23,1.93-2.76,3.6-4.55,5.02-2.77,2.19-5.94,3.55-9.5,4.1-3.59,.56-7.18,.18-10.73-1.08-.78-.28-1.55-.61-2.32-.94-.5-.21-.96-.28-1.34,.12-.39,.41-.33,.9-.08,1.39,1.05,2.13,2.28,4.16,3.9,5.95,.09,.11,.16,.24,.24,.36,.64,.65,1.29,1.3,1.93,1.95Zm-2.85-6.72c9.27,2.72,17.44,1.38,24-5.11,6.55-6.47,7.98-14.63,5.39-23.91,9.46,6.15,12.48,16.45,10.72,24.55-1.77,8.16-8.36,14.72-17.51,15.78-8.19,.94-17.31-2.85-22.59-11.32Z" style="fill:#fff;"/><path d="M22.83,16.88c-.68,1.24-1.35,2.48-2.03,3.72-.19,.34-.35,.7-.56,1.03-.06,.1-.24,.17-.38,.18-1.81,.13-3.62,.23-5.43,.38-.38,.03-.83,.15-1.09,.39-.52,.47-.41,1.15,.18,1.76,1.05,1.08,2.09,2.16,3.15,3.24,1.06,1.08,1.05,1.08,.77,2.49-.28,1.39-.54,2.79-.81,4.18-.1,.51-.01,.97,.42,1.34,.47,.4,.97,.36,1.46,.15,1.58-.67,3.15-1.35,4.72-2.04,.35-.15,.63-.23,1.03,.02,1.28,.79,2.58,1.53,3.88,2.28,.38,.22,.75,.45,1.15,.65,.85,.42,1.73-.08,1.67-1-.05-.8-.22-1.6-.34-2.39-.17-1.08-.34-2.15-.54-3.23-.06-.32,0-.51,.24-.71,1.35-1.14,2.68-2.3,4.03-3.44,.39-.33,.55-.72,.41-1.24-.14-.53-.53-.8-1.04-.92-1.85-.42-3.69-.83-5.54-1.22-.33-.07-.49-.2-.63-.49-.76-1.62-1.56-3.22-2.32-4.84-.25-.52-.57-.92-1.17-1.01-.63-.09-.98,.26-1.25,.74Zm-3.36,15.78c.23-1.24,.42-2.44,.7-3.62,.17-.72,.02-1.29-.55-1.8-.19-.17-.37-.35-.54-.53-.72-.74-1.43-1.49-2.19-2.29,.23-.02,.37-.03,.51-.04,1.15-.07,2.31-.14,3.46-.21,.53-.04,1-.19,1.26-.68,.61-1.15,1.23-2.3,1.87-3.5,.62,1.28,1.22,2.5,1.79,3.73,.24,.52,.62,.81,1.19,.92,.9,.17,1.8,.38,2.7,.58,.42,.09,.85,.2,1.32,.31-.29,.26-.52,.46-.76,.65-.75,.64-1.5,1.28-2.25,1.91-.64,.53-.43,1.24-.32,1.93,.17,1.07,.35,2.14,.55,3.33-1.11-.66-2.13-1.23-3.11-1.86-.81-.52-1.53-.67-2.39-.21-1.01,.54-2.12,.93-3.23,1.4Z" style="fill:#fff;"/></g></g></g></svg>