<?xml version="1.0" encoding="UTF-8"?><svg id="uuid-ddc9f6e7-c2f2-4622-84c1-3dbe90427104" xmlns="http://www.w3.org/2000/svg" viewBox="0 0 31.11 31.11"><g id="uuid-2b1f2c2c-8475-48e6-ab64-2db250e7a684"><circle cx="15.56" cy="15.56" r="15.56" style="fill:#5c900f;"/><g><path d="M7.48,23.58c.31,.25,.61,.5,.92,.74,1.69,1.3,3.57,2.11,5.63,2.44,2.16,.35,4.21,.13,6.17-.66,.87-.35,1.69-.79,2.41-1.38,.42-.34,.84-.7,1.22-1.08,1.24-1.25,2.1-2.75,2.59-4.47,.8-2.83,.53-5.65-.76-8.45-.4-.88-.92-1.69-1.53-2.45-.17-.21-.33-.42-.5-.63l-.94-.95c-.3-.24-.6-.49-.9-.72-.69-.54-1.44-.98-2.22-1.36-.21-.1-.42-.1-.59,.06-.19,.18-.17,.39-.08,.63,.24,.67,.52,1.34,.7,2.02,.41,1.49,.44,2.98,.19,4.46-.23,1.3-.69,2.5-1.39,3.59-.6,.94-1.34,1.75-2.21,2.44-1.35,1.07-2.89,1.73-4.62,1.99-1.75,.27-3.49,.09-5.21-.52-.38-.14-.75-.3-1.13-.46-.24-.1-.47-.13-.65,.06-.19,.2-.16,.44-.04,.68,.51,1.04,1.11,2.02,1.89,2.89,.05,.05,.08,.12,.11,.17l.94,.95Zm-1.39-3.27c4.51,1.32,8.48,.67,11.67-2.48,3.18-3.15,3.88-7.11,2.62-11.62,4.6,2.99,6.06,8,5.21,11.94-.86,3.96-4.06,7.16-8.51,7.67-3.98,.46-8.42-1.38-10.98-5.5Z" style="fill:#fff;"/><path d="M9.16,5.27c-.33,.6-.66,1.21-.98,1.81-.09,.17-.17,.34-.27,.5-.03,.05-.12,.08-.18,.09-.88,.06-1.76,.11-2.64,.18-.19,.02-.4,.07-.53,.19-.25,.23-.2,.56,.09,.85,.51,.53,1.02,1.05,1.53,1.57,.51,.53,.51,.52,.37,1.21-.14,.68-.26,1.35-.39,2.03-.05,.25,0,.47,.2,.65,.23,.19,.47,.17,.71,.07,.77-.33,1.53-.66,2.3-.99,.17-.07,.31-.11,.5,.01,.62,.38,1.26,.74,1.89,1.11,.18,.11,.37,.22,.56,.31,.41,.2,.84-.04,.81-.49-.03-.39-.11-.78-.17-1.16-.08-.52-.16-1.05-.26-1.57-.03-.15,0-.25,.12-.35,.66-.55,1.3-1.12,1.96-1.67,.19-.16,.27-.35,.2-.6-.07-.26-.26-.39-.51-.45-.9-.2-1.8-.4-2.69-.59-.16-.03-.24-.1-.3-.24-.37-.79-.76-1.57-1.13-2.35-.12-.25-.28-.45-.57-.49-.31-.04-.48,.12-.61,.36Zm-1.63,7.67c.11-.6,.2-1.19,.34-1.76,.08-.35,0-.63-.27-.88-.09-.08-.18-.17-.26-.26-.35-.36-.69-.72-1.07-1.11,.11,0,.18-.02,.25-.02,.56-.03,1.12-.07,1.68-.1,.26-.02,.49-.09,.61-.33,.3-.56,.6-1.12,.91-1.7,.3,.62,.59,1.22,.87,1.81,.12,.25,.3,.39,.58,.44,.44,.08,.87,.18,1.31,.28,.21,.05,.41,.1,.64,.15-.14,.12-.25,.22-.37,.32-.36,.31-.73,.62-1.09,.93-.31,.26-.21,.6-.15,.94,.09,.52,.17,1.04,.27,1.62-.54-.32-1.03-.6-1.51-.91-.39-.25-.74-.32-1.16-.1-.49,.26-1.03,.45-1.57,.68Z" style="fill:#fff;"/></g></g></svg>