<?xml version="1.0" encoding="UTF-8"?><svg id="uuid-48c85e39-0d57-49c9-a856-49126abddae4" xmlns="http://www.w3.org/2000/svg" viewBox="0 0 70.87 70.87"><g id="uuid-be05e5a2-868b-438e-a699-fc51b200eab8"><g><circle cx="35.43" cy="35.43" r="35.43" style="fill:#ee2a7b;"/><g><g><path d="M35.89,60.58c-.3,0-.6-.1-.85-.29-.24-.19-5.85-4.69-12.09-16.73-6.25-12.07-6.43-21.2-6.43-21.59v-.95s18.88-7.37,18.88-7.37c.71-.28,1.51,.07,1.78,.78,.28,.71-.07,1.5-.78,1.78l-17.07,6.66c.22,2.56,1.25,10.12,6.07,19.42,5.97,11.52,11.3,15.8,11.35,15.84,.6,.47,.7,1.33,.23,1.93-.27,.35-.67,.53-1.08,.53Z" style="fill:#fff;"/><path d="M35.89,60.58c-.41,0-.81-.18-1.08-.53-.47-.6-.37-1.46,.23-1.93,.05-.04,5.42-4.39,11.35-15.84,4.81-9.3,5.85-16.86,6.07-19.42l-17.07-6.66c-.71-.28-1.06-1.07-.78-1.78,.28-.71,1.07-1.06,1.78-.78l18.89,7.37v.95c-.02,.38-.19,9.51-6.45,21.59-6.24,12.05-11.86,16.55-12.09,16.73-.25,.2-.55,.29-.85,.29Z" style="fill:#fff;"/></g><polygon points="30.81 29.99 26.47 34.34 26.46 34.34 34.65 42.52 48.48 28.69 45.31 25.48 34.74 34.26 30.81 29.99" style="fill:#fff;"/></g></g></g></svg>