<?xml version="1.0" encoding="UTF-8"?><svg id="uuid-0b99630f-36e0-4edc-a7cd-59e0128b79ad" xmlns="http://www.w3.org/2000/svg" viewBox="0 0 71.76 71.76"><g id="uuid-ebe59d68-0995-4595-8f06-caf7df4f4dce"><g><path d="M0,35.88C0,16.07,16.06,0,35.88,0c19.82,0,35.88,16.07,35.88,35.88,0,19.81-16.06,35.88-35.88,35.88S0,55.7,0,35.88Z" style="fill:#f7941d;"/><g><path d="M35.87,15.19c-10.48,0-19.04,8.27-19.5,18.64h6.56c1.43-7.72,6.35-13.52,13.7-13.52,8.4,0,15.21,7.59,15.21,16.96,0,7.89-4.83,14.51-11.36,16.41,8.56-2.07,14.92-9.78,14.92-18.97,0-10.78-8.74-19.52-19.52-19.52Z" style="fill:#fff;"/><polygon points="45.53 40.96 27.56 58.21 34.09 44.23 25.05 44.23 31.79 26.26 42.26 26.26 35.72 40.96 45.53 40.96" style="fill:#fff;"/></g></g></g></svg>