<?xml version="1.0" encoding="UTF-8"?><svg id="uuid-b8e8e1ef-2b00-40f9-9249-c4737eb6d164" xmlns="http://www.w3.org/2000/svg" viewBox="0 0 49.47 49.47"><g id="uuid-0e0baa35-a397-4160-a11e-df77629d6e71"><g><path d="M0,24.74C0,11.08,11.07,0,24.74,0c13.66,0,24.73,11.08,24.73,24.74,0,13.66-11.07,24.73-24.74,24.73S0,38.4,0,24.74Z" style="fill:#ec2179;"/><polygon points="28.83 20.28 20.52 20.28 24.5 29.93 28.83 20.28" style="fill:#fff;"/><rect x="23.24" y="7.69" width="3.06" height="13.28" style="fill:#fff;"/><path d="M27.57,35.37c0,1.65-1.34,2.98-2.98,2.98s-2.98-1.34-2.98-2.98,1.34-2.98,2.98-2.98,2.98,1.34,2.98,2.98Z" style="fill:#fff;"/><path d="M39.67,23.31l-5.6,5.67,1.79,2.54h-6.19l.15-6.57,2.46,1.79,6.04-5.3s2.01,.15,1.34,1.87Z" style="fill:#fff;"/><path d="M11.26,21.64l5.78,5.49,2.5-1.84,.12,6.19-6.57-.02,1.74-2.5-5.41-5.94s.11-2.02,1.84-1.38Z" style="fill:#fff;"/></g></g></svg>