<?xml version="1.0" encoding="UTF-8"?><svg id="uuid-64f4f9e8-c8ec-46fd-b5a1-03fa6ec7e8d5" xmlns="http://www.w3.org/2000/svg" viewBox="0 0 50.03 50.03"><g id="uuid-c9c8fbca-dc73-461f-8241-67f4cd7db6e9"><g><path d="M0,25.02C0,11.2,11.2,0,25.02,0c13.82,0,25.02,11.2,25.02,25.02,0,13.81-11.2,25.02-25.02,25.02S0,38.83,0,25.02Z" style="fill:#ea0029;"/><g><path d="M25.01,8.7c-7.96,0-14.45,6.27-14.8,14.14h4.98c1.08-5.86,4.82-10.26,10.39-10.26,6.37,0,11.54,5.76,11.54,12.87,0,5.98-3.66,11.01-8.62,12.46,6.49-1.57,11.32-7.42,11.32-14.4,0-8.18-6.63-14.81-14.81-14.81Z" style="fill:#fff;"/><polygon points="32.34 28.25 18.7 41.34 23.66 30.73 16.8 30.73 21.91 17.09 29.86 17.09 24.9 28.25 32.34 28.25" style="fill:#fff;"/></g></g></g></svg>