<?xml version="1.0" encoding="UTF-8"?><svg id="uuid-46cae9b4-4e51-4120-887d-4b9238489c6e" xmlns="http://www.w3.org/2000/svg" viewBox="0 0 70.87 70.87"><g id="uuid-1e7103ab-ee83-4b47-9217-fab60596e70a"><g><circle cx="35.43" cy="35.43" r="35.43" style="fill:#ed1c24;"/><g><g><path d="M23.97,59.37c-.29,0-.59-.1-.83-.32-3.67-3.27-6.08-7.49-6.95-12.21-.88-4.72-.15-9.52,2.1-13.89,.32-.61,1.07-.85,1.68-.54,.61,.32,.85,1.07,.54,1.68-4.07,7.9-2.34,17.18,4.3,23.09,.51,.46,.56,1.25,.1,1.76-.25,.28-.59,.42-.93,.42Z" style="fill:#fff;"/><path d="M27.02,55.1c-.32,0-.64-.12-.88-.37-4.97-4.99-6.35-12.37-3.51-18.81,.28-.63,1.01-.91,1.64-.64,.63,.28,.92,1.01,.64,1.64-1.19,2.71-1.54,5.64-1.01,8.49,.53,2.85,1.92,5.46,4.01,7.56,.49,.49,.49,1.28,0,1.76-.24,.24-.56,.36-.88,.36Z" style="fill:#fff;"/><path d="M30.13,50.75c-.37,0-.73-.16-.98-.47-2.52-3.17-3.31-7.38-2.12-11.25,.2-.66,.9-1.03,1.56-.82,.66,.2,1.03,.9,.82,1.56-.95,3.08-.32,6.43,1.69,8.96,.43,.54,.34,1.32-.2,1.75-.23,.18-.5,.27-.77,.27Z" style="fill:#fff;"/></g><g><path d="M55.68,55.44h-6.5c-4.41,0-6.95-2.05-8.31-3.77-1.46-1.85-1.88-3.72-1.9-3.8-.14-.66,.26-1.31,.91-1.47,.01,0,1.73-.46,3.21-1.83,1.69-1.55,2.41-3.64,2.16-6.22h-7.11c-.69,0-1.25-.56-1.25-1.25v-6.23h-3.32c-1.3,0-2.49-.65-3.19-1.75-.7-1.09-.79-2.45-.25-3.62l6.87-15.25c.28-.63,1.02-.91,1.65-.62,.63,.28,.91,1.02,.62,1.65l-6.88,15.26s0,0,0,.01c-.19,.41-.16,.86,.08,1.24,.24,.38,.64,.6,1.09,.6h4.57c.69,0,1.25,.56,1.25,1.25v6.23h6.94c.6,0,1.11,.43,1.22,1.02,.93,4.98-1.04,7.98-2.86,9.61-1.03,.92-2.12,1.52-2.93,1.87,.7,1.62,2.64,4.59,7.42,4.59h6.5c.69,0,1.25,.56,1.25,1.25s-.56,1.25-1.25,1.25Z" style="fill:#fff;"/><circle cx="48.47" cy="16.73" r="2.85" style="fill:#fff;"/></g></g></g></g></svg>