<?xml version="1.0" encoding="UTF-8"?><svg id="uuid-3215901f-6d36-472f-bfca-ad5194d78a0f" xmlns="http://www.w3.org/2000/svg" viewBox="0 0 70.87 70.87"><g id="uuid-3825d8f5-87e2-4cec-aed9-ba874486aae1"><g><circle cx="35.43" cy="35.43" r="35.43" style="fill:#00aeef;"/><g><path d="M38.49,59.88h-6.11c-1.43,0-3.06-1.22-3.06-3.67v-4.28c0-2.04-1.02-3.87-2.65-5.3-3.67-2.85-5.5-6.93-5.5-11.41,.2-7.74,6.52-13.85,14.06-14.06,3.87,0,7.54,1.43,10.19,4.07,2.65,2.65,4.28,6.32,4.28,10.19,0,4.28-1.83,8.35-5.3,11-1.83,1.43-2.85,3.67-2.85,5.7v4.69c0,1.63-1.43,3.06-3.06,3.06h0Zm-3.06-36.67c-6.52,0-12.02,5.5-12.22,12.02,0,3.87,1.63,7.54,4.69,9.78,2.24,1.83,3.46,4.28,3.46,6.93v4.28c0,.41,0,1.63,1.02,1.63h6.11c.61,0,1.02-.41,1.02-1.02v-4.69c0-2.65,1.43-5.5,3.67-7.33,2.85-2.24,4.48-5.7,4.48-9.37,0-3.26-1.22-6.32-3.67-8.76-2.24-2.24-5.3-3.46-8.56-3.46h0Z" style="fill:#fff;"/><path d="M40.53,53.77h-10.19c-.61,0-1.02-.41-1.02-1.02s.41-1.02,1.02-1.02h10.19c.61,0,1.02,.41,1.02,1.02s-.41,1.02-1.02,1.02Z" style="fill:#fff;"/><path d="M35.43,17.1c-.61,0-1.02-.41-1.02-1.02v-4.07c0-.61,.41-1.02,1.02-1.02s1.02,.41,1.02,1.02v4.07c0,.61-.41,1.02-1.02,1.02Z" style="fill:#fff;"/><path d="M49.08,22.8c-.2,0-.61,0-.81-.2-.41-.41-.41-1.02,0-1.43l2.85-2.85c.41-.41,1.02-.41,1.43,0s.41,1.02,0,1.43l-2.85,2.85s-.41,.2-.61,.2h0Z" style="fill:#fff;"/><path d="M58.86,36.45h-4.07c-.61,0-1.02-.41-1.02-1.02s.41-1.02,1.02-1.02h4.07c.61,0,1.02,.41,1.02,1.02s-.41,1.02-1.02,1.02Z" style="fill:#fff;"/><path d="M51.93,52.95c-.2,0-.61,0-.81-.2l-2.85-2.85c-.41-.41-.41-1.02,0-1.43s1.02-.41,1.43,0l2.85,2.85c.41,.41,.41,1.02,0,1.43,0,.2-.2,.2-.61,.2h0Z" style="fill:#fff;"/><path d="M18.93,52.95c-.2,0-.61,0-.81-.2-.41-.41-.41-1.02,0-1.43l2.85-2.85c.41-.41,1.02-.41,1.43,0s.41,1.02,0,1.43l-2.85,2.85c-.2,.2-.41,.2-.61,.2Z" style="fill:#fff;"/><path d="M16.08,36.45h-4.07c-.61,0-1.02-.41-1.02-1.02s.41-1.02,1.02-1.02h4.07c.61,0,1.02,.41,1.02,1.02s-.41,1.02-1.02,1.02Z" style="fill:#fff;"/><path d="M21.78,22.8c-.2,0-.61,0-.81-.2l-2.85-3.06c-.41-.41-.41-1.02,0-1.43s1.02-.41,1.43,0l2.85,2.85c.41,.41,.41,1.02,0,1.43-.2,.2-.41,.41-.61,.41h0Z" style="fill:#fff;"/><path d="M43.58,36.45c-.61,0-1.02-.41-1.02-1.02,0-3.87-3.26-7.13-7.13-7.13-.61,0-1.02-.41-1.02-1.02s.41-1.02,1.02-1.02c5.09,0,9.17,4.07,9.17,9.17,0,.61-.41,1.02-1.02,1.02Z" style="fill:#fff;"/></g></g></g></svg>