<?xml version="1.0" encoding="UTF-8"?><svg id="uuid-fd2d3e9a-fe12-4c6f-81bf-64d8061c5993" xmlns="http://www.w3.org/2000/svg" viewBox="0 0 70.87 70.87"><g id="uuid-70e0c5de-955a-4410-bd2b-6ba455ce3c36"><g><circle cx="35.43" cy="35.43" r="35.43" style="fill:#00aeef;"/><path d="M44.85,43.13c-.86,0-1.55,.69-1.55,1.55,0,4.82-3.92,8.74-8.74,8.74s-8.74-3.92-8.74-8.74c0-.86-.69-1.55-1.55-1.55s-1.55,.69-1.55,1.55c0,6.53,5.31,11.84,11.84,11.84s11.84-5.31,11.84-11.84c0-.86-.69-1.55-1.55-1.55Z" style="fill:#fff;"/><path d="M34.56,30.32c-3.2,0-5.8,2.6-5.8,5.8v8.93c0,3.2,2.6,5.8,5.8,5.8s5.8-2.6,5.8-5.8v-8.93c0-3.2-2.6-5.8-5.8-5.8Zm2.7,14.73c0,1.49-1.21,2.7-2.7,2.7s-2.7-1.21-2.7-2.7v-8.93c0-1.49,1.21-2.7,2.7-2.7s2.7,1.21,2.7,2.7v8.93Z" style="fill:#fff;"/><path d="M34.56,53.42c-.86,0-1.55,.69-1.55,1.55v4.79c0,.86,.69,1.55,1.55,1.55s1.55-.69,1.55-1.55v-4.79c0-.86-.69-1.55-1.55-1.55Z" style="fill:#fff;"/><path d="M44.47,27.99c-2.65-2.65-6.16-4.1-9.91-4.1s-7.26,1.46-9.91,4.1c-.61,.61-.61,1.59,0,2.19,.61,.61,1.59,.61,2.19,0,2.06-2.06,4.8-3.2,7.71-3.2s5.65,1.13,7.71,3.2c.3,.3,.7,.45,1.1,.45s.79-.15,1.1-.45c.6-.61,.6-1.59,0-2.19Z" style="fill:#fff;"/><path d="M49.68,22.78c-8.34-8.34-21.91-8.34-30.25,0-.61,.61-.61,1.59,0,2.19s1.59,.6,2.19,0c7.13-7.13,18.74-7.13,25.87,0,.3,.3,.7,.45,1.1,.45s.79-.15,1.1-.45c.61-.61,.61-1.59,0-2.19Z" style="fill:#fff;"/><path d="M54.6,17.86c-5.35-5.35-12.47-8.3-20.04-8.3s-14.69,2.95-20.04,8.3c-.61,.61-.61,1.59,0,2.19s1.59,.61,2.19,0c9.84-9.84,25.86-9.84,35.7,0,.3,.3,.7,.45,1.1,.45s.79-.15,1.1-.45c.61-.61,.61-1.59,0-2.19Z" style="fill:#fff;"/></g></g></svg>