<?xml version="1.0" encoding="UTF-8"?><svg id="uuid-0ce3b15a-ac1d-4f17-88f1-8001bff5aaa3" xmlns="http://www.w3.org/2000/svg" viewBox="0 0 81.52 81.52"><g id="uuid-7a4eca2f-5869-4218-a9d5-6ad9e0b538bd"><g><path d="M0,40.76C0,18.25,18.25,0,40.76,0c22.51,0,40.76,18.25,40.76,40.77,0,22.51-18.25,40.76-40.76,40.76S0,63.27,0,40.76Z" style="fill:#15aa87;"/><path d="M42.72,54.02l-.36-.36c-.79-.8-2.09-.8-2.89,0l-.15,.16c-.8,.79-.8,2.08,0,2.89l2.69,2.7,.36,.35c.79,.8,2.09,.8,2.89,0l.15-.16c.8-.79,.8-2.08,0-2.88l-2.7-2.7Zm-1.27,5.95l-2.7-2.7c-.79-.79-2.09-.79-2.89,0l-.15,.15c-.8,.79-.8,2.09,0,2.89l2.69,2.7,.36,.35c.79,.8,2.09,.8,2.89,0l.15-.16c.79-.79,.8-2.09,0-2.89l-.36-.35Zm-13.11,8.91l-12.06-12.06c-1.01-1.01-1.01-2.65,0-3.66l2.07-2.07-2.19-2.2s-3.24-3.26-2.32-7.7c0-.03,.01-.07,.02-.1,.04-.19,.1-.39,.15-.58,.05-.16,.1-.33,.17-.49,.06-.16,.11-.32,.18-.48,.15-.33,.31-.66,.5-.99,.06-.09,.13-.2,.2-.3,.18-.28,.37-.56,.58-.84,.08-.1,.17-.22,.26-.33,.31-.38,.63-.76,1.01-1.14,4.27-4.27,8.07-4.08,9.99-3.29,0,0,2.4,.66,5.26,1.44,.82,.23,1.66,.47,2.51,.69l5.02-5.01c1-1.01,2.64-1.01,3.65,0l12.06,12.05c1.01,1.01,1.01,2.65,0,3.66l-6.99,6.99,.64,.63c.79,.8,.79,2.09,0,2.89l-.16,.16c-.8,.79-2.09,.79-2.89,0l-.36-.37-2.34-2.33-.36-.36c-.79-.79-.8-2.08,0-2.89l.15-.15c.8-.8,2.1-.8,2.89,0l.36,.36h0l.79,.79,5.92-5.92-13.17-13.17-3.23,3.24c1.97,.55,3.69,1.04,4.5,1.3,2.59,.81,2.5,2.89,.92,3.87-1.22,.76-3.99,.17-7.12-.23-.62-.08-1.64-.28-2.72-.53l-13.12,13.12,13.16,13.16,.98-.98-1.15-1.14c-.79-.8-.79-2.09,0-2.89l.16-.16c.79-.79,2.08-.79,2.89,0l.36,.36,2.69,2.7c.79,.8,.79,2.09,0,2.89l-.16,.15c-.79,.8-2.09,.8-2.89,0l-.35-.36h0s-.28-.28-.28-.28l-2.54,2.53c-1.01,1.01-2.64,1.01-3.65,0h0Zm17.33-33.68c-.12,.12-.12,.32,0,.44l3.86,3.85c.12,.12,.32,.12,.44,0,.12-.12,.12-.32,0-.44l-3.86-3.86c-.12-.12-.32-.12-.44,0h0Zm-20.62,26.74c.51-.5,.51-1.32,0-1.83-.5-.5-1.32-.5-1.83,0-.5,.51-.5,1.33,0,1.83,.51,.5,1.33,.5,1.83,0h0Z" style="fill:#fff;"/><g><path d="M67.84,33.13s0-.03,0-.05c0-4.37-1.7-8.48-4.79-11.57s-7.2-4.79-11.57-4.79c-.07,0-.13,.03-.18,.07s-.07,.11-.07,.18v2.39c0,.07,.03,.13,.07,.18s.11,.07,.18,.07c3.6,0,6.98,1.4,9.52,3.94,2.54,2.54,3.94,5.92,3.94,9.52,0,.07,.03,.13,.07,.18s.11,.07,.18,.07h2.39c.07,0,.13-.03,.18-.07,.04-.04,.06-.08,.07-.13h0Z" style="fill:#fff;"/><path d="M59.9,24.68c-2.24-2.24-5.23-3.48-8.4-3.48-.14,0-.26,.11-.26,.26v2.38c0,.07,.03,.13,.07,.18s.11,.07,.18,.07c2.4,0,4.66,.93,6.36,2.63s2.63,3.95,2.63,6.36c0,.07,.03,.13,.07,.18s.11,.07,.18,.07h2.38c.07,0,.13-.03,.18-.07s.07-.11,.07-.18c0-3.18-1.23-6.16-3.48-8.4h0Z" style="fill:#fff;"/><path d="M56.73,27.85c-1.4-1.4-3.26-2.17-5.24-2.17-.07,0-.13,.03-.18,.07s-.07,.11-.07,.18v2.38c0,.07,.03,.13,.07,.18s.11,.07,.18,.07c1.21,0,2.34,.47,3.19,1.32s1.32,1.99,1.32,3.19c0,.07,.03,.13,.07,.18s.11,.07,.18,.07h2.38c.14,0,.26-.11,.26-.26,0-1.98-.77-3.84-2.17-5.24h0Z" style="fill:#fff;"/><path d="M53.38,31.2c-.49-.49-1.14-.76-1.83-.76-.14,0-.26,.11-.26,.26v2.33c0,.07,.03,.13,.07,.18s.11,.07,.18,.07h2.33c.14,0,.26-.11,.26-.26,0-.69-.27-1.34-.76-1.83h0Z" style="fill:#fff;"/></g></g></g></svg>