<?xml version="1.0" encoding="UTF-8"?><svg id="uuid-d0c8b85b-54f3-4123-bb47-dac486afb82f" xmlns="http://www.w3.org/2000/svg" viewBox="0 0 78.81 78.81"><g id="uuid-caf3d2de-fd70-4ae8-9629-a51044ffc461"><g><circle cx="39.4" cy="39.4" r="39.4" style="fill:#9e1f63;"/><g><path d="M40.06,68.08c-.23,0-.47-.08-.65-.24l-10.28-8.7c-.23-.19-.36-.47-.36-.77V20.43c0-.3,.13-.58,.36-.77l10.28-8.7c.3-.25,.72-.31,1.08-.15,.36,.17,.59,.52,.59,.92v55.34c0,.39-.23,.75-.59,.92-.14,.06-.28,.09-.43,.09Zm-9.27-10.18l8.26,6.99V13.92l-8.26,6.98V57.9Z" style="fill:#fff;"/><path d="M21.26,35.96c-.07,0-.13,0-.2-.02-.06-.01-.13-.03-.19-.06-.06-.03-.12-.06-.17-.09-.06-.04-.11-.08-.15-.13-.05-.05-.09-.1-.13-.15-.04-.05-.07-.11-.09-.17-.03-.06-.04-.13-.06-.19-.01-.06-.02-.13-.02-.2s0-.13,.02-.2c.01-.06,.03-.13,.06-.19,.03-.06,.06-.12,.09-.17,.04-.06,.08-.11,.13-.15,.05-.05,.1-.09,.15-.13,.05-.04,.11-.07,.17-.09s.13-.04,.19-.06c.13-.03,.26-.03,.39,0,.06,.01,.13,.03,.19,.06,.06,.03,.12,.06,.17,.09,.06,.04,.11,.08,.15,.13,.05,.05,.09,.1,.13,.15,.04,.05,.07,.11,.09,.17,.03,.06,.04,.12,.06,.19,.01,.07,.02,.13,.02,.2s0,.13-.02,.2c-.01,.06-.03,.13-.06,.19-.03,.06-.06,.12-.09,.17-.04,.06-.08,.11-.13,.15-.05,.05-.1,.09-.15,.13-.05,.04-.11,.07-.17,.09-.06,.03-.13,.04-.19,.06-.06,.01-.13,.02-.2,.02Z" style="fill:#fff;"/><path d="M34.92,38.32c-.07,0-.13,0-.2-.02-.06-.01-.13-.03-.19-.06-.06-.03-.12-.06-.17-.09-.06-.04-.11-.08-.15-.13s-.09-.1-.13-.15c-.04-.06-.07-.11-.09-.18-.03-.06-.05-.12-.06-.19-.01-.07-.02-.13-.02-.2s0-.13,.02-.2c.01-.06,.03-.13,.06-.19,.03-.06,.06-.12,.09-.18,.04-.05,.08-.11,.13-.15,.05-.05,.1-.09,.15-.13,.05-.04,.11-.07,.17-.09,.06-.03,.12-.05,.19-.06,.13-.03,.27-.03,.4,0,.06,.01,.13,.03,.19,.06,.06,.03,.12,.06,.17,.09,.05,.04,.11,.08,.15,.13,.05,.05,.09,.1,.13,.15,.04,.06,.07,.11,.09,.18,.03,.06,.05,.12,.06,.19,.01,.07,.02,.13,.02,.2,0,.27-.11,.53-.3,.71-.05,.05-.1,.09-.15,.13-.06,.04-.11,.07-.17,.09-.06,.03-.13,.05-.19,.06-.07,.01-.13,.02-.2,.02Z" style="fill:#fff;"/><path d="M22.68,55c-.27,0-.53-.11-.72-.3-.05-.05-.09-.1-.13-.15-.04-.05-.07-.11-.09-.17-.03-.06-.04-.13-.06-.19-.01-.06-.02-.13-.02-.2s0-.13,.02-.2c.01-.06,.03-.13,.06-.19,.03-.06,.06-.12,.09-.17,.04-.06,.08-.11,.13-.15,.24-.23,.58-.34,.91-.28,.06,.01,.13,.03,.19,.06s.12,.06,.17,.09c.06,.04,.11,.08,.15,.13,.05,.05,.09,.1,.13,.15,.04,.05,.07,.11,.09,.17,.03,.06,.04,.13,.06,.19,.01,.06,.02,.13,.02,.2s0,.13-.02,.2c-.01,.06-.03,.13-.06,.19-.03,.06-.06,.12-.09,.17-.04,.06-.08,.11-.13,.15-.05,.05-.1,.09-.15,.13-.05,.04-.11,.07-.17,.09-.06,.03-.13,.04-.19,.06-.07,.01-.13,.02-.2,.02Z" style="fill:#fff;"/><path d="M13.5,41.01c-.07,0-.13,0-.2-.02-.06-.01-.13-.03-.19-.06-.06-.03-.12-.06-.17-.09-.06-.04-.11-.08-.15-.13-.05-.05-.09-.1-.13-.15-.04-.05-.07-.11-.09-.17-.03-.06-.04-.12-.06-.19-.01-.07-.02-.13-.02-.2s0-.13,.02-.2c.01-.06,.03-.13,.06-.19,.03-.06,.06-.12,.09-.17,.04-.06,.08-.11,.13-.15,.05-.05,.1-.09,.15-.13,.05-.04,.11-.07,.17-.09,.06-.03,.12-.05,.19-.06,.13-.03,.27-.03,.4,0,.06,.01,.13,.03,.19,.06,.06,.03,.12,.06,.17,.09,.06,.04,.11,.08,.15,.13,.05,.05,.09,.1,.13,.15,.04,.06,.07,.11,.09,.17,.03,.06,.04,.13,.06,.19,.01,.07,.02,.13,.02,.2s0,.13-.02,.2c-.01,.06-.03,.13-.06,.19-.03,.06-.06,.12-.09,.17-.04,.06-.08,.11-.13,.15-.05,.05-.1,.09-.15,.13-.05,.04-.11,.07-.17,.09-.06,.03-.13,.04-.19,.06-.06,.01-.13,.02-.2,.02Z" style="fill:#fff;"/><path d="M19.75,26.17c-.27,0-.53-.11-.72-.3-.19-.19-.3-.45-.3-.72,0-.07,0-.13,.02-.2,.01-.06,.03-.13,.06-.19,.03-.06,.06-.12,.09-.17,.04-.06,.08-.11,.13-.15,.24-.24,.58-.34,.91-.28,.06,.01,.13,.03,.19,.06,.06,.03,.12,.06,.17,.09,.06,.04,.11,.08,.15,.13,.05,.05,.09,.1,.13,.15,.04,.05,.07,.11,.09,.17,.03,.06,.04,.12,.06,.19,.01,.07,.02,.13,.02,.2,0,.27-.11,.53-.3,.72-.19,.19-.45,.3-.72,.3Z" style="fill:#fff;"/><path d="M16.8,47.59c-.07,0-.13,0-.2-.02-.06-.01-.13-.03-.19-.06-.06-.03-.12-.06-.17-.09-.06-.04-.11-.08-.15-.13-.19-.19-.3-.45-.3-.72,0-.07,0-.13,.02-.2,.01-.06,.03-.13,.06-.19,.03-.06,.06-.12,.09-.17,.04-.06,.08-.11,.13-.15,.05-.05,.1-.09,.15-.13,.05-.04,.11-.07,.17-.09,.06-.03,.12-.05,.19-.06,.13-.03,.27-.03,.4,0,.06,.01,.13,.03,.19,.06,.06,.02,.12,.06,.17,.09,.06,.04,.11,.08,.15,.13,.05,.05,.09,.1,.13,.15,.04,.06,.07,.11,.09,.17,.03,.06,.05,.13,.06,.19,.01,.07,.02,.13,.02,.2,0,.27-.11,.53-.3,.72-.05,.05-.1,.09-.15,.13-.06,.04-.11,.07-.17,.09-.06,.03-.13,.04-.19,.06-.07,.01-.13,.02-.2,.02Z" style="fill:#fff;"/><path d="M11.56,28.45c-.07,0-.13,0-.2-.02-.06-.01-.13-.03-.19-.06-.06-.03-.12-.06-.17-.09-.05-.04-.11-.08-.15-.13-.19-.19-.3-.45-.3-.71,0-.07,0-.13,.02-.2,.01-.06,.03-.13,.06-.19,.03-.06,.06-.12,.09-.17,.04-.06,.08-.11,.13-.15,.05-.05,.1-.09,.15-.13,.06-.04,.11-.07,.17-.09,.06-.03,.13-.05,.19-.06,.13-.03,.27-.03,.4,0,.06,.01,.13,.03,.19,.06,.06,.03,.12,.06,.18,.09,.05,.04,.11,.08,.15,.13,.05,.05,.09,.1,.13,.15,.04,.05,.07,.11,.09,.17,.03,.06,.05,.12,.06,.19,.01,.07,.02,.13,.02,.2,0,.27-.11,.53-.3,.71-.05,.05-.1,.09-.15,.13-.06,.04-.11,.07-.18,.09-.06,.03-.12,.04-.19,.06-.07,.01-.13,.02-.2,.02Z" style="fill:#fff;"/><path d="M11.14,53.75c-.07,0-.13,0-.2-.02-.06-.01-.13-.03-.19-.06-.06-.03-.12-.06-.17-.09-.06-.04-.11-.08-.15-.13-.05-.05-.09-.1-.13-.15-.04-.06-.07-.11-.09-.17-.03-.06-.04-.13-.06-.19-.01-.07-.02-.13-.02-.2s0-.13,.02-.2c.01-.06,.03-.13,.06-.19,.03-.06,.06-.12,.09-.17,.04-.05,.08-.11,.13-.15,.05-.05,.1-.09,.15-.13,.05-.04,.11-.07,.17-.09s.13-.05,.19-.06c.13-.03,.26-.03,.39,0,.06,.01,.13,.03,.19,.06,.06,.03,.12,.06,.17,.09,.06,.04,.11,.08,.15,.13,.19,.19,.3,.45,.3,.72,0,.07,0,.13-.02,.2-.01,.06-.03,.13-.06,.19-.03,.06-.06,.12-.09,.17-.04,.05-.08,.11-.13,.15-.05,.05-.1,.09-.15,.13-.05,.04-.11,.07-.17,.09-.06,.03-.13,.04-.19,.06-.06,.01-.13,.02-.2,.02Z" style="fill:#fff;"/><path d="M24.67,43.88c-.07,0-.13,0-.2-.02-.06-.01-.13-.03-.19-.06-.06-.03-.12-.06-.18-.09-.05-.04-.11-.08-.15-.13-.05-.05-.09-.1-.13-.15-.04-.06-.07-.11-.09-.17-.03-.06-.05-.13-.06-.19-.01-.07-.02-.13-.02-.2s0-.13,.02-.2c.01-.06,.03-.13,.06-.19,.03-.06,.06-.12,.09-.18,.04-.05,.08-.11,.13-.15,.05-.05,.1-.09,.15-.13,.06-.04,.11-.07,.18-.09,.06-.03,.12-.05,.19-.06,.33-.07,.68,.04,.91,.28,.05,.05,.09,.1,.13,.15,.04,.06,.07,.11,.09,.18,.03,.06,.05,.12,.06,.19,.01,.07,.02,.13,.02,.2s0,.13-.02,.2c-.01,.06-.03,.13-.06,.19-.03,.06-.06,.12-.09,.17-.04,.05-.08,.11-.13,.15-.19,.19-.45,.3-.71,.3Z" style="fill:#fff;"/><path d="M33.55,51.89c-.07,0-.13,0-.2-.02-.07-.01-.13-.03-.19-.06-.06-.03-.12-.06-.17-.09-.06-.04-.11-.08-.15-.13-.05-.05-.09-.1-.13-.15-.04-.06-.07-.11-.09-.17-.03-.06-.04-.13-.06-.19-.01-.07-.02-.13-.02-.2s0-.13,.02-.2c.01-.06,.03-.13,.06-.19,.03-.06,.06-.12,.09-.18,.04-.05,.08-.11,.13-.15,.19-.19,.45-.3,.72-.3s.53,.11,.72,.3c.05,.05,.09,.1,.13,.15,.04,.06,.07,.11,.09,.18,.03,.06,.04,.12,.06,.19,.01,.07,.02,.13,.02,.2s0,.13-.02,.2c-.01,.06-.03,.13-.06,.19-.03,.06-.06,.12-.09,.17-.04,.06-.08,.11-.13,.15-.05,.05-.1,.09-.15,.13-.05,.04-.11,.07-.17,.09-.06,.03-.13,.05-.19,.06-.07,.01-.13,.02-.2,.02Z" style="fill:#fff;"/><path d="M32.98,29.89c-.27,0-.53-.11-.72-.3-.05-.05-.09-.1-.13-.15-.04-.06-.07-.11-.09-.17-.03-.06-.04-.13-.06-.19-.01-.06-.02-.13-.02-.2s0-.13,.02-.2c.01-.06,.03-.13,.06-.19,.03-.06,.06-.12,.09-.17,.04-.06,.08-.11,.13-.15,.24-.24,.58-.34,.91-.28,.06,.01,.13,.03,.19,.06,.06,.03,.12,.06,.17,.09,.06,.04,.11,.08,.15,.13,.05,.05,.09,.1,.13,.15,.04,.05,.07,.11,.09,.17,.03,.06,.04,.12,.06,.19,.01,.07,.02,.13,.02,.2s0,.13-.02,.2c-.01,.06-.03,.13-.06,.19-.03,.06-.06,.12-.09,.17-.04,.06-.08,.11-.13,.15-.05,.05-.1,.09-.15,.13-.06,.04-.11,.07-.17,.09-.06,.03-.13,.04-.19,.06-.06,.01-.13,.02-.2,.02Z" style="fill:#fff;"/><path d="M25.14,32.33c-.07,0-.13,0-.2-.02-.07-.01-.13-.03-.19-.06-.06-.03-.12-.06-.17-.09-.06-.04-.11-.08-.15-.13-.19-.19-.3-.45-.3-.72,0-.07,0-.13,.02-.2,.01-.06,.03-.13,.06-.19,.03-.06,.06-.12,.09-.17,.04-.06,.08-.11,.13-.15,.05-.05,.1-.09,.15-.13,.05-.04,.11-.07,.17-.09,.06-.03,.12-.04,.19-.06,.33-.07,.68,.04,.91,.28,.05,.05,.09,.1,.13,.15,.04,.05,.07,.11,.09,.17,.03,.06,.05,.13,.06,.19,.01,.06,.02,.13,.02,.2s0,.13-.02,.2c-.01,.07-.03,.13-.06,.19-.02,.06-.06,.12-.09,.17-.04,.06-.08,.11-.13,.15-.19,.19-.45,.3-.71,.3Z" style="fill:#fff;"/><g><rect x="46.46" y="24.15" width="12.75" height="2.02" style="fill:#fff;"/><polygon points="55.21 30.59 53.78 29.16 57.78 25.16 53.78 21.16 55.21 19.73 60.64 25.16 55.21 30.59" style="fill:#fff;"/></g><g><rect x="54.5" y="39.31" width="12.75" height="2.02" style="fill:#fff;"/><polygon points="63.25 45.75 61.82 44.32 65.82 40.32 61.82 36.32 63.25 34.89 68.68 40.32 63.25 45.75" style="fill:#fff;"/></g><g><rect x="46.46" y="52.98" width="12.75" height="2.02" style="fill:#fff;"/><polygon points="55.21 59.42 53.78 57.99 57.78 53.99 53.78 49.99 55.21 48.56 60.64 53.99 55.21 59.42" style="fill:#fff;"/></g></g></g></g></svg>